<svg width="60" height="56" viewBox="0 0 60 56" fill="none" xmlns="http://www.w3.org/2000/svg">
<path d="M36.7803 18.21L42.9469 28.7714L36.7803 39.3415H24.4469L18.2803 28.7714L24.4469 18.21H36.7803Z" stroke="#606C7A" stroke-width="2"/>
<mask id="mask0_15519_5653" style="mask-type:luminance" maskUnits="userSpaceOnUse" x="0" y="0" width="60" height="56">
<path d="M60 0.832031H0V55.7794H60V0.832031Z" fill="white"/>
</mask>
<g mask="url(#mask0_15519_5653)">
<path d="M46.3599 53.5956L39.6406 42.0781L46.3599 30.5518H59.8073" stroke="#606C7A" stroke-dasharray="3 3"/>
</g>
<path d="M14.3507 3.94629L21.0788 15.4726L14.3507 26.9901H0.90332" stroke="#606C7A" stroke-dasharray="3 3"/>
<path d="M59.8073 26.9921H46.3599L39.6406 15.4746L46.3599 3.94824" stroke="#606C7A" stroke-dasharray="3 3"/>
<path d="M0.90332 30.5518H14.3507L21.0788 42.0781L14.3507 53.5956" stroke="#606C7A" stroke-dasharray="3 3"/>
<path d="M44.0608 2.16504L37.3327 13.6826H23.8853L17.166 2.16504" stroke="#606C7A" stroke-dasharray="3 3"/>
<path d="M17.166 55.3837L23.8853 43.8574H37.3415L44.0608 55.3837" stroke="#606C7A" stroke-dasharray="3 3"/>
</svg>
