<svg width="62" height="50" viewBox="0 0 62 50" fill="none" xmlns="http://www.w3.org/2000/svg">
<path d="M33.8359 12.0459C34.3019 12.6244 34.8161 13.3233 35.3303 14.1509C36.9131 16.6897 38.5119 20.4096 38.5119 25.0775C38.5119 29.7454 36.9131 33.4653 35.3303 36.0041C34.8161 36.8317 34.2939 37.5387 33.8359 38.1091C41.2034 37.844 47.7834 36.3496 52.6362 34.1161C58.0995 31.5933 60.9998 28.3234 60.9998 25.0775C60.9998 21.8317 58.0995 18.5537 52.6362 16.0389C47.7834 13.7974 41.2034 12.311 33.8359 12.0459Z" stroke="#606C7A" stroke-width="2"/>
<path d="M28.1639 38.1169C27.6979 37.5384 27.1837 36.8395 26.6695 36.0119C25.0868 33.4731 23.488 29.7532 23.488 25.0853C23.488 20.4174 25.0868 16.6975 26.6695 14.1587C27.1837 13.3312 27.7059 12.6241 28.1639 12.0537C20.7965 12.3188 14.2164 13.8132 9.36369 16.0467C3.90038 18.5695 1 21.8395 1 25.0853C1 28.3312 3.90038 31.6092 9.36369 34.1239C14.2164 36.3654 20.7965 37.8518 28.1639 38.1169Z" stroke="#606C7A" stroke-width="2"/>
<path d="M20.748 35.1049L21.3426 35.1451H21.3587C21.3747 35.1451 21.3908 35.1451 21.4229 35.1451C21.4792 35.1451 21.5675 35.1451 21.672 35.1451C21.8889 35.1451 22.2183 35.1451 22.62 35.129V35.354C23.3029 35.3218 24.1948 35.2335 25.2392 35.0406L25.199 34.8237C25.9703 34.6791 26.822 34.4782 27.7218 34.181L27.7861 34.3899C28.5734 34.1408 29.3929 33.8194 30.2285 33.4258L30.1321 33.2249C30.8793 32.8714 31.6425 32.4536 32.3978 31.9555L32.5183 32.1403C33.2253 31.6823 33.9243 31.1521 34.6072 30.5575L34.4626 30.3888C34.7839 30.1076 35.0973 29.8103 35.4106 29.497C35.7239 29.1837 36.0212 28.8703 36.3024 28.5489L36.4711 28.6936C37.0737 28.0026 37.5959 27.3036 38.0539 26.5966L37.8691 26.4761C38.3672 25.7209 38.785 24.9576 39.1385 24.2104L39.3394 24.3068C39.7331 23.4713 40.0544 22.6518 40.3035 21.8644L40.0946 21.8002C40.3838 20.9003 40.5927 20.0487 40.7373 19.2774L40.9543 19.3176C41.1471 18.2731 41.2355 17.3813 41.2676 16.7064H41.0426C41.0667 16.2886 41.0667 15.9673 41.0587 15.7423C41.0587 15.6298 41.0587 15.5495 41.0587 15.4932C41.0587 15.4691 41.0587 15.445 41.0587 15.429V15.4129L41.0185 14.8184L41.4363 15.2361C41.7095 15.5093 41.9746 15.7744 42.2397 16.0476L42.0791 16.2003C42.6093 16.7466 43.1235 17.301 43.6297 17.8553L43.7984 17.7107C44.3126 18.2811 44.8107 18.8516 45.2928 19.43L45.1241 19.5747C45.6141 20.1612 46.0962 20.7477 46.5542 21.3342L46.7309 21.1976C47.2049 21.8082 47.6629 22.4108 48.0967 23.0214L47.92 23.1499C48.3699 23.7766 48.7957 24.3952 49.2135 25.0219L49.3983 24.9014C49.8241 25.5441 50.2258 26.1869 50.6115 26.8296L50.4186 26.9421C50.8123 27.6089 51.1899 28.2677 51.5354 28.9185L51.7282 28.8141C52.0978 29.497 52.4352 30.1799 52.7486 30.8548L52.5477 30.9512C52.8771 31.6582 53.1744 32.3492 53.4395 33.0401L53.6484 32.9598C53.9377 33.6909 54.1867 34.414 54.4037 35.121L54.1948 35.1853C54.4278 35.9325 54.6125 36.6716 54.7572 37.3867L54.9741 37.3385C55.1348 38.1178 55.2472 38.873 55.3115 39.6041L55.0866 39.6202C55.1508 40.4156 55.1589 41.1708 55.0946 41.8939L55.3115 41.91C55.2472 42.7134 55.1026 43.4766 54.8777 44.1837L54.6688 44.1194C54.4278 44.8666 54.0983 45.5415 53.6725 46.144L53.8573 46.2726C53.6324 46.5939 53.3833 46.8912 53.1021 47.1724C52.8209 47.4536 52.5236 47.7027 52.2023 47.9276L52.0737 47.7428C51.4711 48.1687 50.7882 48.4981 50.0491 48.7391L50.1133 48.948C49.4063 49.173 48.6431 49.3176 47.8396 49.3818L47.8236 49.1649C47.1005 49.2212 46.3453 49.2212 45.5499 49.1569L45.5338 49.3818C44.8027 49.3176 44.0475 49.2131 43.2681 49.0444L43.3163 48.8275C42.6013 48.6829 41.8702 48.49 41.115 48.2651L41.0507 48.474C40.3437 48.257 39.6206 48.008 38.8895 47.7187L38.9698 47.5099C38.2869 47.2447 37.5879 46.9475 36.8809 46.618L36.7845 46.8189C36.1096 46.5056 35.4267 46.1681 34.7438 45.7986L34.8482 45.6057C34.1894 45.2522 33.5306 44.8826 32.8718 44.489L32.7593 44.6818C32.1166 44.2961 31.4738 43.8944 30.8311 43.4686L30.9516 43.2838C30.3329 42.8741 29.7063 42.4402 29.0796 41.9903L28.951 42.1671C28.3404 41.7332 27.7379 41.2752 27.1273 40.8012L27.2638 40.6245C26.6773 40.1665 26.0828 39.6845 25.5043 39.1944L25.3597 39.3631C24.7813 38.881 24.2108 38.3829 23.6404 37.8687L23.785 37.7C23.2306 37.1938 22.6763 36.6796 22.1299 36.1494L21.9773 36.3101C21.7041 36.0449 21.431 35.7798 21.1658 35.5066L20.748 35.0889V35.1049Z" stroke="#606C7A" stroke-dasharray="2 2"/>
<path d="M41.252 15.0591L40.6574 15.019H40.6414C40.6253 15.019 40.6092 15.019 40.5771 15.019C40.5208 15.019 40.4325 15.019 40.328 15.019C40.1111 15.019 39.7817 15.019 39.38 15.035V14.8101C38.6971 14.8422 37.8052 14.9306 36.7608 15.1234L36.801 15.3403C36.0297 15.485 35.178 15.6858 34.2782 15.9831L34.2139 15.7742C33.4266 16.0233 32.6071 16.3446 31.7715 16.7383L31.8679 16.9392C31.1207 17.2927 30.3575 17.7105 29.6022 18.2086L29.4817 18.0238C28.7747 18.4817 28.0757 19.012 27.3928 19.6065L27.5374 19.7753C27.2161 20.0565 26.9027 20.3537 26.5894 20.6671C26.2761 20.9804 25.9788 21.2937 25.6976 21.6151L25.5289 21.4705C24.9263 22.1615 24.4041 22.8604 23.9461 23.5675L24.1309 23.688C23.6328 24.4432 23.215 25.2064 22.8615 25.9536L22.6606 25.8572C22.2669 26.6928 21.9456 27.5123 21.6965 28.2996L21.9054 28.3639C21.6162 29.2638 21.4073 30.1154 21.2627 30.8867L21.0457 30.8465C20.8529 31.891 20.7645 32.7828 20.7324 33.4576H20.9574C20.9333 33.8754 20.9333 34.1968 20.9413 34.4218C20.9413 34.5342 20.9413 34.6146 20.9413 34.6708C20.9413 34.6949 20.9413 34.719 20.9413 34.7351V34.7512L20.9815 35.3457L20.5637 34.9279C20.2905 34.6548 20.0254 34.3896 19.7603 34.1165L19.9209 33.9638C19.3907 33.4175 18.8765 32.8631 18.3703 32.3087L18.2016 32.4534C17.6874 31.8829 17.1893 31.3125 16.7072 30.734L16.8759 30.5894C16.3859 30.0029 15.9038 29.4164 15.4458 28.8299L15.2691 28.9665C14.7951 28.3559 14.3371 27.7533 13.9033 27.1427L14.08 27.0142C13.6301 26.3875 13.2043 25.7688 12.7865 25.1422L12.6017 25.2627C12.1759 24.6199 11.7742 23.9772 11.3885 23.3345L11.5814 23.222C11.1877 22.5551 10.8101 21.8963 10.4646 21.2455L10.2718 21.35C9.90219 20.659 9.56475 19.9842 9.25141 19.3093L9.45227 19.2129C9.12286 18.5059 8.8256 17.8149 8.56046 17.124L8.35157 17.2043C8.06234 16.4732 7.81328 15.7501 7.59635 15.0431L7.80524 14.9788C7.57225 14.2316 7.38746 13.4925 7.24284 12.7774L7.02592 12.8256C6.86523 12.0463 6.75275 11.2911 6.68848 10.5599L6.91344 10.5439C6.84916 9.74849 6.84113 8.99326 6.9054 8.27018L6.68848 8.25411C6.75275 7.45068 6.89737 6.68742 7.12233 5.98041L7.33122 6.04468C7.57225 5.29749 7.90165 4.62261 8.32747 4.02004L8.14268 3.89149C8.36764 3.57012 8.6167 3.27285 8.8979 2.99165C9.1791 2.71045 9.47637 2.46139 9.79774 2.23643L9.92629 2.42122C10.5289 1.9954 11.2118 1.666 11.9509 1.42497L11.8867 1.21608C12.5937 0.991118 13.3569 0.846501 14.1604 0.782227L14.1764 1.00719C14.8995 0.950946 15.6547 0.950946 16.4501 1.01522L16.4662 0.790261C17.1973 0.854535 17.9525 0.958981 18.7319 1.1277L18.6837 1.34463C19.3987 1.48924 20.1298 1.68207 20.8851 1.90703L20.9493 1.69813C21.6563 1.91506 22.3794 2.16412 23.1105 2.45336L23.0302 2.66225C23.7131 2.92738 24.4121 3.22465 25.1191 3.55405L25.2155 3.3532C25.8904 3.66653 26.5733 4.00397 27.2562 4.37355L27.1518 4.56637C27.8026 4.91988 28.4694 5.28946 29.1282 5.68314L29.2407 5.49032C29.8834 5.87596 30.5262 6.27768 31.1689 6.70349L31.0484 6.88828C31.6671 7.29803 32.2937 7.73188 32.9204 8.1818L33.049 8.00505C33.6596 8.4389 34.2621 8.89685 34.8727 9.37087L34.7362 9.54763C35.3227 10.0056 35.9172 10.4876 36.4957 10.9777L36.6403 10.809C37.2187 11.2911 37.7892 11.7892 38.3596 12.3034L38.215 12.4721C38.7694 12.9783 39.3237 13.4925 39.8701 14.0227L40.0227 13.862C40.2959 14.1272 40.569 14.3923 40.8342 14.6655L41.252 15.0832V15.0591Z" stroke="#606C7A" stroke-dasharray="2 2"/>
<path d="M41.0188 35.3293L41.0589 34.7348V34.7187C41.0589 34.7187 41.0589 34.6866 41.0589 34.6544C41.0589 34.5982 41.0589 34.5098 41.0589 34.4054C41.0589 34.1885 41.0589 33.859 41.0429 33.4573H41.2678C41.2357 32.7744 41.1473 31.8826 40.9545 30.8382L40.7376 30.8783C40.5929 30.107 40.3921 29.2554 40.0948 28.3556L40.3037 28.2913C40.0546 27.5039 39.7333 26.6844 39.3396 25.8489L39.1387 25.9453C38.7852 25.1981 38.3674 24.4348 37.8693 23.6796L38.0541 23.5591C37.5962 22.8521 37.0659 22.1531 36.4714 21.4622L36.3026 21.6068C36.0214 21.2854 35.7242 20.9721 35.4108 20.6587C35.0975 20.3454 34.7842 20.0481 34.4628 19.7669L34.6074 19.5982C33.9165 18.9956 33.2175 18.4734 32.5185 18.0154L32.398 18.2002C31.6428 17.7021 30.8795 17.2843 30.1323 16.9308L30.2287 16.73C29.3932 16.3363 28.5737 16.0149 27.7863 15.7658L27.722 15.9747C26.8222 15.6855 25.9706 15.4766 25.1993 15.332L25.2394 15.1151C24.195 14.9222 23.3032 14.8339 22.6283 14.8017V15.0267C22.2105 15.0026 21.8891 15.0026 21.6642 15.0106C21.5517 15.0106 21.4714 15.0106 21.4151 15.0106C21.383 15.0106 21.3669 15.0106 21.3508 15.0106H21.3348L20.7402 15.0508L21.158 14.633C21.4312 14.3599 21.6963 14.0947 21.9695 13.8296L22.1221 13.9903C22.6685 13.46 23.2228 12.9458 23.7772 12.4397L23.6326 12.2709C24.203 11.7567 24.7734 11.2586 25.3519 10.7766L25.4965 10.9453C26.083 10.4552 26.6695 9.97313 27.256 9.51518L27.1195 9.33842C27.7301 8.8644 28.3326 8.40645 28.9432 7.9726L29.0718 8.14935C29.6985 7.69943 30.3171 7.27361 30.9438 6.85583L30.8233 6.67104C31.466 6.24523 32.1087 5.84351 32.7515 5.45787L32.864 5.65069C33.5308 5.25701 34.1896 4.8794 34.8404 4.53392L34.736 4.3411C35.4269 3.97152 36.1018 3.63408 36.7767 3.32075L36.8731 3.5216C37.5801 3.1922 38.271 2.89493 38.962 2.6298L38.8816 2.42091C39.6128 2.13167 40.3358 1.88261 41.0429 1.66569L41.1071 1.87458C41.8543 1.64158 42.5935 1.45679 43.3085 1.31218L43.2603 1.09525C44.0397 0.934567 44.7949 0.822087 45.526 0.757812L45.5421 0.982772C46.3375 0.918498 47.0927 0.910463 47.8158 0.974738L47.8318 0.757812C48.6353 0.822087 49.3985 0.966704 50.1055 1.19166L50.0413 1.40055C50.7884 1.64158 51.4633 1.97099 52.0659 2.39681L52.1944 2.21202C52.5158 2.43698 52.8131 2.68604 53.0943 2.96724C53.3755 3.24844 53.6245 3.54571 53.8495 3.86708L53.6647 3.99563C54.0905 4.5982 54.4199 5.28111 54.661 6.02027L54.8699 5.95599C55.0948 6.66301 55.2394 7.42627 55.3037 8.22969L55.0788 8.24576C55.135 8.96885 55.135 9.72407 55.0707 10.5195L55.2957 10.5355C55.2314 11.2667 55.127 12.0219 54.9582 12.8012L54.7413 12.753C54.5967 13.468 54.4039 14.1992 54.1789 14.9544L54.3878 15.0187C54.1709 15.7257 53.9218 16.4488 53.6326 17.1799L53.4237 17.0995C53.1586 17.7825 52.8613 18.4814 52.5319 19.1885L52.7327 19.2849C52.4194 19.9597 52.082 20.6427 51.7124 21.3256L51.5196 21.2211C51.1661 21.8799 50.7965 22.5387 50.4028 23.1976L50.5956 23.31C50.21 23.9528 49.8083 24.5955 49.3824 25.2383L49.1977 25.1178C48.7879 25.7364 48.3541 26.3631 47.9041 26.9897L48.0809 27.1183C47.647 27.7289 47.1891 28.3315 46.7151 28.9421L46.5383 28.8055C46.0804 29.392 45.5983 29.9865 45.1082 30.565L45.2769 30.7096C44.7949 31.2881 44.2967 31.8585 43.7826 32.4289L43.6138 32.2843C43.1077 32.8387 42.5935 33.3931 42.0632 33.9394L42.2239 34.092C41.9588 34.3652 41.6936 34.6384 41.4205 34.9035L41.0027 35.3213L41.0188 35.3293Z" stroke="#606C7A" stroke-dasharray="2 2"/>
<path d="M20.9734 14.8262L20.9333 15.4207V15.4368C20.9333 15.4368 20.9333 15.4689 20.9333 15.5011C20.9333 15.5573 20.9333 15.6457 20.9333 15.7501C20.9333 15.967 20.9333 16.2964 20.9493 16.6982H20.7244C20.7565 17.3811 20.8449 18.2729 21.0377 19.3173L21.2546 19.2772C21.3992 20.0485 21.6001 20.9001 21.8974 21.7999L21.6885 21.8642C21.9375 22.6516 22.2589 23.4711 22.6526 24.3066L22.8535 24.2102C23.207 24.9574 23.6247 25.7207 24.1229 26.4759L23.9381 26.5964C24.396 27.3034 24.9263 28.0024 25.5208 28.6933L25.6896 28.5487C25.9708 28.8701 26.268 29.1834 26.5814 29.4968C26.8947 29.8101 27.208 30.1074 27.5294 30.3886L27.3848 30.5573C28.0757 31.1599 28.7747 31.6821 29.4737 32.14L29.5942 31.9553C30.3494 32.4534 31.1127 32.8712 31.8599 33.2247L31.7635 33.4255C32.599 33.8192 33.4185 34.1406 34.2059 34.3896L34.2702 34.1808C35.17 34.47 36.0216 34.6789 36.7929 34.8235L36.7528 35.0404C37.7972 35.2332 38.689 35.3216 39.3639 35.3538V35.1288C39.7817 35.1529 40.1031 35.1529 40.328 35.1449C40.4405 35.1449 40.5208 35.1449 40.5771 35.1449C40.6012 35.1449 40.6253 35.1449 40.6414 35.1449H40.6574L41.252 35.1047L40.8342 35.5225C40.561 35.7956 40.2959 36.0608 40.0227 36.3259L39.8701 36.1652C39.3237 36.6955 38.7694 37.2097 38.215 37.7158L38.3596 37.8846C37.7892 38.3988 37.2187 38.8969 36.6403 39.3789L36.4957 39.2102C35.9092 39.7003 35.3227 40.1824 34.7362 40.6403L34.8727 40.8171C34.2621 41.2911 33.6596 41.749 33.049 42.1829L32.9204 42.0061C32.2937 42.4561 31.6751 42.8819 31.0484 43.2997L31.1689 43.4845C30.5262 43.9103 29.8834 44.312 29.2407 44.6976L29.1282 44.5048C28.4614 44.8985 27.8026 45.2761 27.1518 45.6216L27.2562 45.8144C26.5653 46.184 25.8904 46.5214 25.2155 46.8347L25.1191 46.6339C24.4121 46.9633 23.7212 47.2606 23.0302 47.5257L23.1105 47.7346C22.3794 48.0238 21.6563 48.2729 20.9493 48.4898L20.8851 48.2809C20.1379 48.5139 19.3987 48.6987 18.6837 48.8433L18.7319 49.0602C17.9525 49.2209 17.1973 49.3334 16.4662 49.3977L16.4501 49.1727C15.6547 49.237 14.8995 49.245 14.1764 49.1808L14.1604 49.3977C13.3569 49.3334 12.5937 49.1888 11.8867 48.9638L11.9509 48.7549C11.2037 48.5139 10.5289 48.1845 9.92629 47.7587L9.79774 47.9435C9.47637 47.7185 9.1791 47.4695 8.8979 47.1883C8.6167 46.9071 8.36764 46.6098 8.14268 46.2884L8.32747 46.1599C7.90165 45.5573 7.57225 44.8744 7.33122 44.1352L7.12233 44.1995C6.89737 43.4925 6.75275 42.7292 6.68848 41.9258L6.91344 41.9097C6.8572 41.1866 6.8572 40.4314 6.92147 39.636L6.69651 39.62C6.76079 38.8888 6.86523 38.1336 7.03395 37.3543L7.25088 37.4025C7.39549 36.6874 7.58832 35.9563 7.81328 35.2011L7.60438 35.1368C7.82131 34.4298 8.07037 33.7067 8.35961 32.9756L8.5685 33.056C8.83363 32.373 9.1309 31.6741 9.4603 30.967L9.25945 30.8706C9.57278 30.1958 9.91022 29.5128 10.2798 28.8299L10.4726 28.9344C10.8261 28.2756 11.1957 27.6167 11.5894 26.9579L11.3966 26.8455C11.7822 26.2027 12.1839 25.56 12.6097 24.9172L12.7945 25.0377C13.2043 24.4191 13.6381 23.7924 14.0881 23.1658L13.9113 23.0372C14.3451 22.4266 14.8031 21.824 15.2771 21.2134L15.4539 21.35C15.9118 20.7635 16.3939 20.169 16.884 19.5905L16.7153 19.4459C17.1973 18.8674 17.6954 18.297 18.2096 17.7265L18.3784 17.8712C18.8845 17.3168 19.3987 16.7624 19.929 16.2161L19.7683 16.0635C20.0334 15.7903 20.2985 15.5171 20.5717 15.252L20.9895 14.8342L20.9734 14.8262Z" stroke="#606C7A" stroke-dasharray="2 2"/>
</svg>
