<svg width="152" height="42" viewBox="0 0 152 42" fill="none" xmlns="http://www.w3.org/2000/svg">
<g clip-path="url(#clip0_14675_41)">
<path d="M57.7399 11.295L50.5098 31.1685H53.7271L55.5663 25.9082H63.4146L65.2512 31.1685H68.4686L61.2384 11.295H57.7374H57.7399ZM56.4504 23.3871L59.417 14.9064H59.574L62.5355 23.3871H56.4504Z" fill="#213245"/>
<path d="M73.3731 11.295H70.4395V31.1685H73.3731V11.295Z" fill="#213245"/>
<path d="M82.9917 28.7326C82.8144 28.7652 82.6092 28.7802 82.3736 28.7802C82.0544 28.7802 81.758 28.7301 81.4869 28.6299C81.2158 28.5296 80.9954 28.3392 80.8257 28.056C80.656 27.7753 80.5698 27.3518 80.5698 26.7904V18.5904H83.6605V16.2622H80.5698V12.691H77.6362V16.2622H75.4297V18.5904H77.6362V27.3919C77.6362 28.2916 77.8414 29.0384 78.2544 29.6323C78.6673 30.2263 79.2069 30.6674 79.8732 30.953C80.5394 31.2387 81.2589 31.3741 82.0316 31.3615C82.5028 31.354 82.8954 31.3189 83.2096 31.2488C83.5237 31.1811 83.7644 31.1134 83.9366 31.0508L83.4072 28.6549C83.3084 28.675 83.1716 28.7001 82.9942 28.7326H82.9917Z" fill="#213245"/>
<path d="M96.0007 17.0416C95.4079 16.6732 94.7745 16.4201 94.0981 16.2797C93.4217 16.1419 92.7808 16.0717 92.1804 16.0717C91.2709 16.0717 90.4045 16.1995 89.5812 16.4552C88.7579 16.7108 88.0308 17.1193 87.3975 17.6781C86.7667 18.237 86.2879 18.9713 85.9611 19.876L88.7173 20.4975C88.9327 19.9737 89.3228 19.4976 89.8903 19.0665C90.4552 18.6355 91.2329 18.4225 92.2209 18.4225C93.2089 18.4225 93.8828 18.6555 94.3641 19.1217C94.8455 19.5878 95.0861 20.2444 95.0861 21.0915V21.1591C95.0861 21.5075 94.9595 21.7606 94.7036 21.916C94.4477 22.0714 94.0399 22.1816 93.4775 22.2518C92.9151 22.3195 92.1829 22.4047 91.2811 22.5099C90.5692 22.5951 89.8675 22.7179 89.1809 22.8783C88.4944 23.0412 87.8737 23.2793 87.3164 23.5976C86.7616 23.9159 86.3183 24.3444 85.9915 24.8882C85.6647 25.4321 85.5 26.1237 85.5 26.9658C85.5 27.9432 85.7229 28.7677 86.1713 29.4393C86.6197 30.111 87.2303 30.6247 88.0004 30.9781C88.7731 31.3315 89.6344 31.5069 90.5895 31.5069C91.4204 31.5069 92.1323 31.3866 92.7276 31.1485C93.3229 30.9079 93.8093 30.6072 94.1893 30.2463C94.5693 29.8854 94.8531 29.5145 95.0431 29.1411H95.1621V31.1786H98.0273V21.2794C98.0273 20.1918 97.8373 19.3071 97.4573 18.6254C97.0773 17.9438 96.5935 17.4175 96.0007 17.0491V17.0416ZM95.0937 25.7954C95.0937 26.3844 94.9417 26.9357 94.6377 27.4495C94.3337 27.9632 93.8929 28.3793 93.3128 28.695C92.7352 29.0108 92.0385 29.1712 91.2279 29.1712C90.4172 29.1712 89.7129 28.9882 89.1784 28.6223C88.6413 28.2565 88.3728 27.7151 88.3728 26.9959C88.3728 26.4771 88.5121 26.0636 88.7908 25.7478C89.0695 25.4346 89.4419 25.194 89.908 25.0261C90.3767 24.8582 90.8935 24.7379 91.4635 24.6677C91.7041 24.6351 92.0056 24.595 92.3653 24.5474C92.7251 24.4998 93.0949 24.4447 93.4749 24.382C93.8549 24.3219 94.1919 24.2467 94.4908 24.159C94.7897 24.0712 94.9899 23.976 95.0937 23.8733V25.7954Z" fill="#213245"/>
<path d="M111.384 16.7058C110.611 16.2822 109.712 16.0692 108.686 16.0692C107.553 16.0692 106.618 16.3098 105.876 16.7885C105.134 17.2671 104.589 17.9012 104.242 18.6906H104.055V16.2647H101.24V31.1711H104.174V22.322C104.174 21.5325 104.326 20.8584 104.63 20.2995C104.934 19.7407 105.349 19.3146 105.876 19.0239C106.403 18.7332 107.006 18.5879 107.685 18.5879C108.678 18.5879 109.461 18.8936 110.028 19.5051C110.598 20.1166 110.882 20.9637 110.882 22.0438V31.1761H113.816V21.6954C113.816 20.4674 113.603 19.4349 113.177 18.6004C112.752 17.7659 112.154 17.1368 111.381 16.7133L111.384 16.7058Z" fill="#213245"/>
<path d="M119.981 16.2646H117.048V31.171H119.981V16.2646Z" fill="#213245"/>
<path d="M118.53 10.5006C118.021 10.5006 117.583 10.671 117.22 11.0094C116.858 11.3477 116.676 11.7587 116.676 12.2373C116.676 12.716 116.858 13.1145 117.22 13.4553C117.583 13.7962 118.021 13.9641 118.53 13.9641C119.039 13.9641 119.478 13.7936 119.84 13.4553C120.202 13.1145 120.385 12.7085 120.385 12.2373C120.385 11.7662 120.202 11.3502 119.84 11.0094C119.478 10.6685 119.039 10.5006 118.53 10.5006Z" fill="#213245"/>
<path d="M133.375 16.7058C132.602 16.2822 131.703 16.0692 130.677 16.0692C129.545 16.0692 128.61 16.3098 127.867 16.7885C127.125 17.2671 126.581 17.9012 126.233 18.6906H126.046V16.2647H123.231V31.1711H126.165V22.322C126.165 21.5325 126.317 20.8584 126.621 20.2995C126.925 19.7407 127.341 19.3146 127.867 19.0239C128.394 18.7332 128.997 18.5879 129.676 18.5879C130.669 18.5879 131.452 18.8936 132.02 19.5051C132.59 20.1166 132.873 20.9637 132.873 22.0438V31.1761H135.807V21.6954C135.807 20.4674 135.594 19.4349 135.169 18.6004C134.743 17.7659 134.145 17.1368 133.372 16.7133L133.375 16.7058Z" fill="#213245"/>
<path d="M152.001 23.5625C152.001 22.2092 151.818 21.0614 151.451 20.1116C151.084 19.1643 150.584 18.3924 149.951 17.7959C149.318 17.202 148.601 16.7634 147.803 16.4852C147.005 16.2071 146.182 16.0667 145.33 16.0667C143.932 16.0667 142.711 16.3925 141.667 17.0466C140.623 17.7007 139.813 18.6079 139.235 19.7733C138.658 20.9386 138.366 22.2844 138.366 23.8106C138.366 25.3368 138.655 26.7052 139.235 27.853C139.815 29.0008 140.639 29.8904 141.708 30.522C142.777 31.1535 144.054 31.4668 145.538 31.4668C146.638 31.4668 147.615 31.3014 148.477 30.9681C149.336 30.6348 150.052 30.1661 150.625 29.5621C151.198 28.9582 151.595 28.2514 151.818 27.442L149.042 26.9483C148.864 27.4144 148.611 27.8054 148.277 28.1236C147.942 28.4419 147.547 28.6775 147.088 28.8379C146.63 28.9958 146.123 29.076 145.568 29.076C144.712 29.076 143.962 28.893 143.321 28.5271C142.68 28.1612 142.181 27.6299 141.824 26.9307C141.492 26.2816 141.318 25.4997 141.295 24.5925H152.003V23.565L152.001 23.5625ZM141.297 22.4172C141.333 21.7756 141.495 21.1767 141.786 20.6178C142.116 19.9813 142.587 19.4625 143.2 19.064C143.81 18.6656 144.53 18.4676 145.353 18.4676C146.111 18.4676 146.774 18.638 147.339 18.9813C147.904 19.3247 148.345 19.7908 148.659 20.3847C148.973 20.9762 149.13 21.6553 149.13 22.4172H141.3H141.297Z" fill="#213245"/>
<path d="M23.4891 17.5403C22.7468 17.5127 21.9944 17.5002 21.2293 17.5002C20.4643 17.5002 19.7119 17.5127 18.9696 17.5403C18.772 17.5453 18.5744 17.5528 18.3768 17.5628C18.1792 17.5729 17.9816 17.5829 17.784 17.5929C15.2279 17.7282 12.8288 18.0165 10.6679 18.4275C10.4677 18.465 10.2701 18.5026 10.0751 18.5452C9.87493 18.5853 9.6748 18.6279 9.47973 18.6705C7.12627 19.1868 5.1072 19.8534 3.53907 20.6278C3.29587 20.7506 3.06027 20.8734 2.8424 20.9987C3.0628 21.124 3.29587 21.2468 3.53907 21.3696C5.10467 22.1465 7.12627 22.8132 9.47973 23.3269C9.57093 25.8305 9.80653 28.2414 10.1789 30.4744C4.0736 29.2464 0 27.031 0 24.4998V17.5002C0 14.969 4.0736 12.7511 10.1764 11.5231C10.3791 11.4805 10.5843 11.4404 10.7945 11.4028C10.9997 11.3627 11.2049 11.3276 11.4127 11.2925C13.6192 10.9141 16.0512 10.656 18.6251 10.5532C18.8227 10.5457 19.0228 10.5382 19.2255 10.5307C19.4231 10.5257 19.6232 10.5182 19.8259 10.5156C20.2869 10.5056 20.7531 10.5006 21.2243 10.5006C21.6955 10.5006 22.1591 10.5056 22.6227 10.5156C23.0508 12.6584 23.3447 15.0367 23.4865 17.5403H23.4891Z" fill="url(#paint0_linear_14675_41)"/>
<path d="M30.9041 31.9304C29.6628 37.9702 27.4208 41.9975 24.8621 41.9975H17.7865C15.2279 41.9975 12.9859 37.9677 11.7445 31.9304C11.7015 31.73 11.6609 31.527 11.6229 31.3189C11.5824 31.116 11.5469 30.913 11.5115 30.7075C11.1289 28.5246 10.868 26.1188 10.7641 23.5725C10.7565 23.3771 10.7489 23.1766 10.7413 22.9786C10.7363 22.7831 10.7287 22.5851 10.7261 22.3846C10.716 21.9285 10.7109 21.4674 10.7109 21.0013C10.7109 20.5351 10.716 20.0765 10.7261 19.6179C12.8921 19.1944 15.2963 18.9036 17.8271 18.7633C17.7992 19.4976 17.7865 20.2419 17.7865 20.9988C17.7865 21.7556 17.7992 22.4999 17.8271 23.2342C17.8321 23.4297 17.8397 23.6252 17.8499 23.8206C17.86 24.0161 17.8701 24.2116 17.8803 24.4071C18.0171 26.9358 18.3084 29.309 18.7239 31.4468C18.7619 31.6447 18.7999 31.8402 18.8429 32.0332C18.8835 32.2312 18.9265 32.4292 18.9696 32.6221C19.4915 34.9503 20.1653 36.9477 20.9481 38.499C21.0723 38.7396 21.1964 38.9726 21.3231 39.1882C21.4497 38.9701 21.5739 38.7396 21.698 38.499C22.4833 36.9502 23.1572 34.9503 23.6765 32.6221C26.2073 32.5319 28.6444 32.2988 30.9016 31.9304H30.9041Z" fill="url(#paint1_linear_14675_41)"/>
<path d="M10.1772 30.4769C10.0809 30.4568 9.98716 30.4368 9.8909 30.4192C9.79716 30.3992 9.70343 30.3791 9.6097 30.3591C9.31076 30.2939 9.0169 30.2287 8.73063 30.1611C8.59383 30.126 8.45703 30.0934 8.32276 30.0608C7.85663 29.943 7.4057 29.8177 6.96996 29.6874C6.8889 29.6649 6.80783 29.6398 6.7293 29.6147C6.6457 29.5897 6.56463 29.5621 6.48103 29.5371C6.3189 29.4869 6.16183 29.4343 6.0073 29.3817C5.85276 29.3291 5.70076 29.2764 5.5513 29.2213C5.48543 29.1987 5.41956 29.1737 5.35623 29.1511C4.60636 28.8729 3.9249 28.5747 3.3169 28.2614C3.2333 28.2188 3.15223 28.1737 3.07116 28.1311C2.61263 27.883 2.20223 27.6249 1.83996 27.3567C1.7817 27.3116 1.7209 27.269 1.6677 27.2239C1.60436 27.1763 1.54103 27.1237 1.48276 27.0761C1.34596 26.9633 1.22183 26.8505 1.10276 26.7352C1.0521 26.6826 1.00143 26.6325 0.953297 26.5798C0.851964 26.4746 0.760764 26.3693 0.677164 26.2641C0.629031 26.2039 0.583431 26.1413 0.540364 26.0811C0.504897 26.0335 0.474497 25.9834 0.441564 25.9333C0.428897 25.9182 0.418764 25.9032 0.411164 25.8856C0.380764 25.838 0.352897 25.7879 0.327564 25.7378C0.302231 25.6902 0.276897 25.6426 0.254097 25.5949C0.243964 25.5799 0.238897 25.5649 0.231297 25.5473C0.208497 25.4947 0.185697 25.4421 0.165431 25.3894C0.142631 25.3318 0.122364 25.2717 0.104631 25.214C0.104631 25.209 0.0995641 25.2065 0.0995641 25.2015C0.0843641 25.1539 0.0716974 25.1037 0.0590307 25.0561C0.0412974 24.9809 0.0260974 24.9033 0.0159641 24.8256C0.00836406 24.7779 0.0032974 24.7303 0.000764062 24.6827C0.000764062 24.6777 0.000764062 24.6752 0.000764062 24.6702C-0.0043026 24.6125 -0.00683594 24.5549 -0.00683594 24.4973C-0.00683594 23.2216 1.02676 22.0287 2.83303 20.9962C3.05343 21.1215 3.2865 21.2443 3.5297 21.3671C3.8261 21.515 4.14023 21.6578 4.46956 21.7957C4.57343 21.8408 4.67983 21.8834 4.78876 21.926C4.90023 21.9736 5.01423 22.0162 5.12823 22.0613C5.24476 22.1064 5.3613 22.149 5.47783 22.1916C5.5969 22.2342 5.71596 22.2768 5.83756 22.3194C5.91863 22.3495 5.9997 22.3746 6.08583 22.4021C6.20996 22.4448 6.3341 22.4848 6.46076 22.5275C6.5697 22.56 6.67863 22.5951 6.7901 22.6302C7.10676 22.7254 7.43356 22.8182 7.76796 22.9109C7.87183 22.941 7.97316 22.9685 8.07956 22.9936C8.38863 23.0738 8.7053 23.1515 9.0321 23.2267C9.1461 23.2542 9.26263 23.2793 9.37916 23.3043C9.40956 23.3094 9.43996 23.3169 9.47036 23.3244C9.56156 25.828 9.79716 28.2389 10.1696 30.4718L10.1772 30.4769Z" fill="#00ACEA"/>
<path d="M19.0635 24.4447C19.8057 24.4723 20.5581 24.4848 21.3232 24.4848C22.0883 24.4848 22.8407 24.4723 23.5829 24.4447C23.7805 24.4397 23.9781 24.4322 24.1757 24.4221C24.3733 24.4121 24.5709 24.4021 24.7685 24.3921C27.3247 24.2567 29.7237 23.9685 31.8847 23.5575C32.0848 23.5199 32.2824 23.4823 32.4775 23.4397C32.6776 23.3996 32.8777 23.357 33.0728 23.3144C35.4263 22.7982 37.4453 22.1315 39.0135 21.3572C39.2567 21.2344 39.4923 21.1116 39.7101 20.9862C39.4897 20.8609 39.2567 20.7381 39.0135 20.6153C37.4479 19.8384 35.4263 19.1718 33.0728 18.6581C32.9816 16.1545 32.746 13.7436 32.3736 11.5106C38.4789 12.7386 42.55 14.9565 42.55 17.4877V24.4873C42.55 27.0185 38.4764 29.2364 32.3736 30.4644C32.1709 30.507 31.9657 30.5471 31.7555 30.5847C31.5503 30.6248 31.3451 30.6599 31.1373 30.6949C28.9308 31.0734 26.4988 31.3315 23.9249 31.4342C23.7273 31.4418 23.5272 31.4493 23.3245 31.4568C23.1269 31.4618 22.9268 31.4693 22.7241 31.4718C22.2631 31.4819 21.7969 31.4869 21.3257 31.4869C20.8545 31.4869 20.3909 31.4819 19.9273 31.4718C19.4992 29.3291 19.2053 26.9508 19.0635 24.4472V24.4447Z" fill="url(#paint2_linear_14675_41)"/>
<path d="M32.374 11.5081C32.4703 11.5281 32.564 11.5482 32.6603 11.5657C32.754 11.5857 32.8478 11.6058 32.9415 11.6258C33.2404 11.691 33.5343 11.7562 33.8206 11.8238C33.9574 11.8589 34.0942 11.8915 34.2284 11.9241C34.6946 12.0419 35.1455 12.1672 35.5812 12.2975C35.6623 12.32 35.7434 12.3451 35.8219 12.3702C35.9055 12.3952 35.9866 12.4228 36.0702 12.4479C36.2323 12.498 36.3894 12.5506 36.5439 12.6032C36.6984 12.6559 36.8504 12.7085 36.9999 12.7636C37.0658 12.7862 37.1316 12.8112 37.195 12.8338C37.9448 13.112 38.6263 13.4102 39.2343 13.7235C39.3179 13.7661 39.399 13.8112 39.48 13.8538C39.9386 14.1019 40.349 14.36 40.7112 14.6282C40.7695 14.6733 40.8303 14.7159 40.8835 14.761C40.9468 14.8086 41.0102 14.8612 41.0684 14.9089C41.2052 15.0216 41.3294 15.1344 41.4484 15.2497C41.4991 15.3023 41.5498 15.3524 41.5979 15.4051C41.6992 15.5103 41.7904 15.6156 41.874 15.7208C41.9222 15.781 41.9678 15.8436 42.0108 15.9038C42.0463 15.9514 42.0767 16.0015 42.1096 16.0516C42.1223 16.0667 42.1324 16.0817 42.14 16.0993C42.1704 16.1469 42.1983 16.197 42.2236 16.2471C42.249 16.2947 42.2743 16.3424 42.2971 16.39C42.3072 16.405 42.3123 16.42 42.3199 16.4376C42.3427 16.4902 42.3655 16.5428 42.3858 16.5955C42.4086 16.6531 42.4288 16.7133 42.4466 16.7709C42.4466 16.7759 42.4516 16.7784 42.4516 16.7834C42.4668 16.831 42.4795 16.8812 42.4922 16.9288C42.5099 17.004 42.5251 17.0817 42.5352 17.1593C42.5428 17.207 42.5479 17.2546 42.5504 17.3022C42.5504 17.3072 42.5504 17.3097 42.5504 17.3147C42.5555 17.3724 42.558 17.43 42.558 17.4876C42.558 18.7633 41.5244 19.9562 39.7182 20.9887C39.4978 20.8634 39.2647 20.7406 39.0215 20.6178C38.7251 20.4699 38.411 20.3271 38.0816 20.1892C37.9778 20.1441 37.8714 20.1015 37.7624 20.0589C37.651 20.0113 37.537 19.9687 37.423 19.9236C37.3064 19.8785 37.1899 19.8359 37.0734 19.7933C36.9543 19.7507 36.8352 19.7081 36.7136 19.6655C36.6326 19.6354 36.5515 19.6103 36.4654 19.5828C36.3412 19.5402 36.2171 19.5001 36.0904 19.4575C35.9815 19.4249 35.8726 19.3898 35.7611 19.3547C35.4444 19.2595 35.1176 19.1667 34.7832 19.074C34.6794 19.0439 34.578 19.0164 34.4716 18.9913C34.1626 18.9111 33.8459 18.8334 33.5191 18.7583C33.4051 18.7307 33.2886 18.7056 33.172 18.6806C33.1416 18.6755 33.1112 18.668 33.0808 18.6605C32.9896 16.1569 32.754 13.746 32.3816 11.5131L32.374 11.5081Z" fill="#00ACEA"/>
<path d="M30.9043 31.9304C30.803 32.4216 30.6966 32.8978 30.5851 33.3589C30.5496 33.4942 30.5167 33.6296 30.4838 33.7624C30.048 35.449 29.5287 36.9326 28.9435 38.1581C28.9182 38.2158 28.8903 38.2684 28.865 38.321C28.7991 38.4563 28.7332 38.5867 28.6674 38.712C28.6243 38.7947 28.5787 38.8749 28.5356 38.9551C28.485 39.0453 28.4343 39.138 28.3811 39.2282C28.3507 39.2834 28.3152 39.336 28.2823 39.3911C28.2164 39.4989 28.1531 39.6016 28.0847 39.7019C28.0518 39.752 28.0188 39.8021 27.9834 39.8523C27.9504 39.9024 27.9175 39.95 27.882 39.9976C27.5882 40.4086 27.2816 40.7645 26.9675 41.0527C26.9143 41.1028 26.8611 41.1504 26.8079 41.1955C26.7547 41.2431 26.699 41.2857 26.6458 41.3258C26.4963 41.4436 26.3443 41.5439 26.1898 41.6291C26.167 41.6441 26.1416 41.6567 26.1163 41.6692C26.053 41.7043 25.9896 41.7343 25.9238 41.7644C25.8706 41.787 25.8174 41.8095 25.7642 41.8296C25.673 41.8647 25.5818 41.8947 25.488 41.9173C25.4678 41.9223 25.4475 41.9273 25.4272 41.9323C25.3892 41.9398 25.3512 41.9499 25.3107 41.9549C25.1638 41.985 25.0143 41.9975 24.8623 41.9975C23.5728 41.9975 22.367 40.975 21.3232 39.1881C21.4499 38.9701 21.574 38.7395 21.6982 38.4989C22.2276 37.4539 22.7039 36.2084 23.1194 34.7949C23.1422 34.7222 23.1624 34.6496 23.1827 34.5744C23.208 34.4842 23.2334 34.3964 23.2587 34.3037C23.2891 34.201 23.317 34.1007 23.3423 33.9955C23.4588 33.5519 23.5703 33.0958 23.6767 32.6221C26.2075 32.5319 28.6446 32.2988 30.9018 31.9304H30.9043Z" fill="#00ACEA"/>
<path d="M11.7451 10.0671C12.9865 4.02983 15.2285 0 17.7871 0H24.8627C27.4214 0 29.6634 4.02983 30.9047 10.0671C30.9478 10.2676 30.9883 10.4706 31.0263 10.6786C31.0669 10.8816 31.1023 11.0846 31.1378 11.2901C31.5203 13.4729 31.7813 15.8788 31.8851 18.425C31.8927 18.6204 31.9003 18.8209 31.9079 19.0189C31.913 19.2144 31.9206 19.4124 31.9231 19.6129C31.9333 20.069 31.9383 20.5301 31.9383 20.9962C31.9383 21.4624 31.9333 21.921 31.9231 22.3796C29.7571 22.8032 27.353 23.0939 24.8222 23.2342C24.8501 22.4999 24.8627 21.7556 24.8627 20.9987C24.8627 20.2419 24.8501 19.4976 24.8222 18.7633C24.8171 18.5678 24.8095 18.3723 24.7994 18.1769C24.7893 17.9814 24.7791 17.7859 24.769 17.5904C24.6322 15.0618 24.3409 12.6885 23.9254 10.5507C23.8874 10.3528 23.8494 10.1573 23.8063 9.96432C23.7658 9.76633 23.7227 9.56835 23.6797 9.37538C23.1578 7.0472 22.4839 5.04982 21.7011 3.49854C21.577 3.25795 21.4529 3.02488 21.3262 2.80936C21.1995 3.02739 21.0754 3.25795 20.9513 3.49854C20.1659 5.04732 19.4921 7.0472 18.9727 9.37538C16.4419 9.4656 14.0049 9.69867 11.7477 10.0671H11.7451Z" fill="url(#paint3_linear_14675_41)"/>
<path d="M11.7451 10.0671C11.8465 9.57587 11.9529 9.09971 12.0643 8.63858C12.0998 8.50325 12.1327 8.36792 12.1657 8.2351C12.6014 6.54848 13.1207 5.06486 13.7059 3.83937C13.7313 3.78173 13.7591 3.7291 13.7845 3.67647C13.8503 3.54114 13.9162 3.41082 13.9821 3.28552C14.0251 3.20282 14.0707 3.12262 14.1138 3.04242C14.1645 2.9522 14.2151 2.85948 14.2683 2.76926C14.2987 2.71412 14.3342 2.6615 14.3671 2.60636C14.433 2.4986 14.4963 2.39585 14.5647 2.2956C14.5977 2.24548 14.6306 2.19536 14.6661 2.14524C14.699 2.09511 14.7319 2.0475 14.7674 1.99988C15.0613 1.58888 15.3678 1.23301 15.6819 0.944806C15.7351 0.894683 15.7883 0.847067 15.8415 0.801957C15.8947 0.754341 15.9505 0.711737 16.0037 0.671639C16.1531 0.553852 16.3051 0.453607 16.4597 0.368399C16.4825 0.353362 16.5078 0.340832 16.5331 0.328301C16.5965 0.293216 16.6598 0.263142 16.7256 0.233069C16.7789 0.210514 16.8321 0.187959 16.8853 0.16791C16.9765 0.132824 17.0677 0.102751 17.1614 0.0801957C17.1817 0.0751835 17.2019 0.0701712 17.2222 0.065159C17.2602 0.0576407 17.2982 0.0476162 17.3387 0.042604C17.4857 0.0125306 17.6351 0 17.7871 0C19.0766 0 20.2825 1.0225 21.3262 2.80936C21.1995 3.02739 21.0754 3.25795 20.9513 3.49854C20.4218 4.54359 19.9455 5.78913 19.5301 7.20258C19.5073 7.27525 19.487 7.34793 19.4667 7.42312C19.4414 7.51334 19.4161 7.60105 19.3907 7.69378C19.3603 7.79653 19.3325 7.89677 19.3071 8.00203C19.1906 8.44561 19.0791 8.90172 18.9727 9.37538C16.4419 9.4656 14.0049 9.69867 11.7477 10.0671H11.7451Z" fill="#00ACEA"/>
</g>
<defs>
<linearGradient id="paint0_linear_14675_41" x1="23.4891" y1="20.4875" x2="0" y2="20.4875" gradientUnits="userSpaceOnUse">
<stop stop-color="#00ACEA"/>
<stop offset="0.23" stop-color="#00B5E6"/>
<stop offset="0.61" stop-color="#00CEDD"/>
<stop offset="1" stop-color="#00EFD1"/>
</linearGradient>
<linearGradient id="paint1_linear_14675_41" x1="20.8063" y1="18.7633" x2="20.8063" y2="42" gradientUnits="userSpaceOnUse">
<stop stop-color="#00ACEA"/>
<stop offset="0.23" stop-color="#00B5E6"/>
<stop offset="0.61" stop-color="#00CEDD"/>
<stop offset="1" stop-color="#00EFD1"/>
</linearGradient>
<linearGradient id="paint2_linear_14675_41" x1="19.0635" y1="21.4975" x2="42.5525" y2="21.4975" gradientUnits="userSpaceOnUse">
<stop stop-color="#00ACEA"/>
<stop offset="0.23" stop-color="#00B5E6"/>
<stop offset="0.61" stop-color="#00CEDD"/>
<stop offset="1" stop-color="#00EFD1"/>
</linearGradient>
<linearGradient id="paint3_linear_14675_41" x1="21.8405" y1="23.2367" x2="21.8405" y2="0" gradientUnits="userSpaceOnUse">
<stop stop-color="#00ACEA"/>
<stop offset="0.23" stop-color="#00B5E6"/>
<stop offset="0.61" stop-color="#00CEDD"/>
<stop offset="1" stop-color="#00EFD1"/>
</linearGradient>
<clipPath id="clip0_14675_41">
<rect width="152" height="42" fill="white"/>
</clipPath>
</defs>
</svg>
