<svg width="130" height="128" viewBox="0 0 130 128" fill="none" xmlns="http://www.w3.org/2000/svg">
<path d="M72.0132 53.3378C69.7561 53.254 67.4681 53.2159 65.1416 53.2159C62.8152 53.2159 60.5272 53.254 58.2701 53.3378C57.6692 53.353 57.0683 53.3759 56.4674 53.4064C55.8666 53.4369 55.2657 53.4674 54.6648 53.4978C46.8919 53.9094 39.5967 54.7858 33.0256 56.0356C32.417 56.1499 31.8161 56.2642 31.2229 56.3937C30.6144 56.5157 30.0058 56.6452 29.4126 56.7748C22.256 58.3447 16.1163 60.3718 11.3478 62.7266C10.6082 63.1 9.89182 63.4734 9.22931 63.8545C9.89952 64.2355 10.6082 64.6089 11.3478 64.9824C16.1086 67.3448 22.256 69.3719 29.4126 70.9342C29.6899 78.5473 30.4064 85.8785 31.5388 92.6687C12.9732 88.9345 0.585938 82.1977 0.585938 74.5007V53.2159C0.585938 45.5189 12.9732 38.7745 31.5311 35.0403C32.1474 34.9108 32.7713 34.7888 33.4107 34.6745C34.0347 34.5526 34.6587 34.4459 35.2904 34.3392C42.0002 33.1885 49.3956 32.4035 57.2224 32.0911C57.8233 32.0682 58.4318 32.0453 59.0481 32.0225C59.649 32.0072 60.2576 31.9844 60.8739 31.9768C62.2759 31.9463 63.6934 31.931 65.1262 31.931C66.5591 31.931 67.9688 31.9463 69.3786 31.9768C70.6805 38.4925 71.5741 45.7246 72.0055 53.3378H72.0132Z" fill="url(#paint0_linear_14649_863)"/>
<path d="M94.5612 97.0964C90.7865 115.462 83.9688 127.709 76.1883 127.709H54.6723C46.8917 127.709 40.074 115.455 36.2993 97.0964C36.1683 96.4867 36.0451 95.8695 35.9295 95.2369C35.8063 94.6196 35.6984 94.0024 35.5906 93.3775C34.4273 86.7398 33.6339 79.4238 33.318 71.6811C33.2949 71.0867 33.2718 70.477 33.2487 69.875C33.2333 69.2806 33.2102 68.6785 33.2025 68.0688C33.1717 66.6819 33.1562 65.2796 33.1562 63.8622C33.1562 62.4447 33.1717 61.0501 33.2025 59.6555C39.789 58.3676 47.0997 57.4836 54.7955 57.0568C54.7108 59.2897 54.6723 61.5531 54.6723 63.8546C54.6723 66.156 54.7108 68.4194 54.7955 70.6523C54.8109 71.2467 54.834 71.8411 54.8648 72.4356C54.8957 73.03 54.9265 73.6244 54.9573 74.2188C55.3733 81.9082 56.2592 89.1251 57.5226 95.6256C57.6381 96.2276 57.7537 96.8221 57.8846 97.4089C58.0079 98.0109 58.1388 98.6129 58.2698 99.1997C59.8567 106.279 61.9059 112.353 64.2863 117.07C64.6637 117.802 65.0412 118.511 65.4264 119.166C65.8116 118.503 66.1891 117.802 66.5665 117.07C68.9546 112.361 71.0038 106.279 72.583 99.1997C80.2788 98.9254 87.6896 98.2167 94.5535 97.0964H94.5612Z" fill="url(#paint1_linear_14649_863)"/>
<path d="M31.5332 92.6763C31.2405 92.6154 30.9554 92.5544 30.6627 92.5011C30.3777 92.4401 30.0926 92.3791 29.8076 92.3182C28.8986 92.12 28.005 91.9219 27.1345 91.7161C26.7185 91.6094 26.3025 91.5104 25.8942 91.4113C24.4767 91.0531 23.1055 90.6721 21.7805 90.2758C21.534 90.2072 21.2875 90.131 21.0487 90.0548C20.7944 89.9786 20.5479 89.8948 20.2937 89.8185C19.8007 89.6661 19.3231 89.5061 18.8532 89.3461C18.3832 89.186 17.921 89.026 17.4665 88.8583C17.2662 88.7897 17.0659 88.7135 16.8733 88.6449C14.5931 87.799 12.5208 86.8922 10.672 85.9396C10.4178 85.81 10.1713 85.6728 9.92475 85.5433C8.53041 84.7888 7.28243 84.0039 6.18083 83.1885C6.00364 83.0513 5.81876 82.9217 5.65698 82.7846C5.4644 82.6398 5.27181 82.4797 5.09463 82.3349C4.67863 81.992 4.30116 81.6491 3.93909 81.2985C3.78502 81.1385 3.63095 80.9861 3.48458 80.826C3.17644 80.5059 2.89912 80.1859 2.6449 79.8658C2.49853 79.6829 2.35987 79.4924 2.22891 79.3095C2.12106 79.1647 2.02861 79.0123 1.92847 78.8599C1.88995 78.8141 1.85914 78.7684 1.83603 78.7151C1.74358 78.5703 1.65884 78.4179 1.58181 78.2654C1.50477 78.1206 1.42774 77.9758 1.35841 77.8311C1.32759 77.7853 1.31219 77.7396 1.28907 77.6863C1.21974 77.5262 1.15041 77.3662 1.08878 77.2062C1.01945 77.0309 0.957822 76.848 0.903897 76.6727C0.903897 76.6575 0.88849 76.6498 0.88849 76.6346C0.842269 76.4898 0.803751 76.3374 0.765234 76.1926C0.711309 75.964 0.665087 75.7277 0.634273 75.4915C0.611163 75.3467 0.595756 75.2019 0.588052 75.0571C0.588052 75.0418 0.588052 75.0342 0.588052 75.019C0.572645 74.8437 0.564941 74.6684 0.564941 74.4932C0.564941 70.6142 3.70799 66.9867 9.20061 63.8469C9.87082 64.228 10.5795 64.6014 11.3191 64.9748C12.2204 65.4244 13.1756 65.8588 14.1771 66.278C14.4929 66.4151 14.8165 66.5447 15.1477 66.6742C15.4867 66.819 15.8334 66.9486 16.18 67.0858C16.5344 67.2229 16.8888 67.3525 17.2431 67.482C17.6052 67.6116 17.9672 67.7411 18.337 67.8707C18.5835 67.9621 18.83 68.0384 19.092 68.1222C19.4694 68.2517 19.8469 68.3737 20.2321 68.5032C20.5633 68.6023 20.8946 68.709 21.2335 68.8157C22.1965 69.1053 23.1903 69.3872 24.2071 69.6692C24.523 69.7606 24.8311 69.8445 25.1547 69.9207C26.0945 70.1646 27.0574 70.4008 28.0512 70.6294C28.3978 70.7132 28.7522 70.7895 29.1066 70.8657C29.199 70.8809 29.2915 70.9038 29.3839 70.9266C29.6612 78.5398 30.3777 85.871 31.5101 92.6611L31.5332 92.6763Z" fill="#00ACEA"/>
<path d="M58.5552 74.3332C60.8123 74.417 63.1003 74.4551 65.4267 74.4551C67.7532 74.4551 70.0412 74.417 72.2983 74.3332C72.8992 74.3179 73.5001 74.2951 74.1009 74.2646C74.7018 74.2341 75.3027 74.2036 75.9036 74.1731C83.6764 73.7616 90.9717 72.8852 97.5428 71.6354C98.1514 71.5211 98.7523 71.4068 99.3454 71.2772C99.954 71.1553 100.563 71.0257 101.156 70.8962C108.312 69.3263 114.452 67.2992 119.221 64.9444C119.96 64.5709 120.677 64.1975 121.339 63.8165C120.669 63.4354 119.96 63.062 119.221 62.6886C114.46 60.3262 108.312 58.299 101.156 56.7368C100.878 49.1236 100.162 41.7924 99.0296 35.0023C117.595 38.7365 129.975 45.4809 129.975 53.1779V74.4627C129.975 82.1597 117.587 88.9041 99.0296 92.6383C98.4133 92.7678 97.7893 92.8898 97.1499 93.0041C96.5259 93.126 95.902 93.2327 95.2703 93.3394C88.5605 94.4901 81.1651 95.2751 73.3383 95.5875C72.7374 95.6104 72.1288 95.6332 71.5125 95.6561C70.9117 95.6713 70.3031 95.6942 69.6868 95.7018C68.2847 95.7323 66.8673 95.7476 65.4344 95.7476C64.0016 95.7476 62.5918 95.7323 61.1821 95.7018C59.8802 89.1861 58.9866 81.9539 58.5552 74.3408V74.3332Z" fill="url(#paint2_linear_14649_863)"/>
<path d="M99.0312 34.9946C99.324 35.0556 99.609 35.1166 99.9017 35.1699C100.187 35.2309 100.472 35.2918 100.757 35.3528C101.666 35.5509 102.559 35.7491 103.43 35.9548C103.846 36.0615 104.262 36.1606 104.67 36.2597C106.088 36.6179 107.459 36.9989 108.784 37.3952C109.03 37.4638 109.277 37.54 109.516 37.6162C109.77 37.6924 110.017 37.7762 110.271 37.8524C110.764 38.0048 111.241 38.1649 111.711 38.3249C112.181 38.4849 112.643 38.645 113.098 38.8126C113.298 38.8812 113.499 38.9574 113.691 39.026C115.971 39.8719 118.044 40.7788 119.892 41.7314C120.147 41.861 120.393 41.9981 120.64 42.1277C122.034 42.8821 123.282 43.6671 124.384 44.4825C124.561 44.6197 124.746 44.7492 124.907 44.8864C125.1 45.0312 125.293 45.1912 125.47 45.336C125.886 45.679 126.263 46.0219 126.625 46.3725C126.779 46.5325 126.933 46.6849 127.08 46.8449C127.388 47.165 127.665 47.4851 127.92 47.8052C128.066 47.9881 128.205 48.1786 128.336 48.3615C128.443 48.5063 128.536 48.6587 128.636 48.8111C128.674 48.8568 128.705 48.9026 128.728 48.9559C128.821 49.1007 128.906 49.2531 128.983 49.4055C129.06 49.5503 129.137 49.6951 129.206 49.8399C129.237 49.8856 129.252 49.9314 129.275 49.9847C129.345 50.1447 129.414 50.3048 129.476 50.4648C129.545 50.6401 129.607 50.823 129.661 50.9983C129.661 51.0135 129.676 51.0211 129.676 51.0364C129.722 51.1812 129.761 51.3336 129.799 51.4784C129.853 51.707 129.899 51.9432 129.93 52.1795C129.953 52.3243 129.969 52.4691 129.976 52.6139C129.976 52.6291 129.976 52.6367 129.976 52.652C129.992 52.8273 130 53.0025 130 53.1778C130 57.0568 126.856 60.6843 121.364 63.824C120.694 63.443 119.985 63.0696 119.245 62.6962C118.344 62.2465 117.389 61.8122 116.387 61.393C116.071 61.2558 115.748 61.1263 115.417 60.9967C115.078 60.8519 114.731 60.7224 114.384 60.5852C114.03 60.448 113.676 60.3185 113.321 60.1889C112.959 60.0594 112.597 59.9298 112.227 59.8003C111.981 59.7088 111.734 59.6326 111.472 59.5488C111.095 59.4192 110.718 59.2973 110.332 59.1677C110.001 59.0687 109.67 58.962 109.331 58.8553C108.368 58.5657 107.374 58.2837 106.357 58.0018C106.041 57.9103 105.733 57.8265 105.41 57.7503C104.47 57.5064 103.507 57.2702 102.513 57.0415C102.167 56.9577 101.812 56.8815 101.458 56.8053C101.365 56.7901 101.273 56.7672 101.181 56.7443C100.903 49.1312 100.187 41.8 99.0544 35.0099L99.0312 34.9946Z" fill="#00ACEA"/>
<path d="M94.5616 97.0963C94.2534 98.59 93.9299 100.038 93.5909 101.44C93.4831 101.852 93.3829 102.263 93.2828 102.667C91.9578 107.796 90.3785 112.307 88.599 116.034C88.522 116.209 88.4372 116.369 88.3602 116.529C88.1599 116.941 87.9596 117.337 87.7593 117.718C87.6284 117.97 87.4897 118.214 87.3587 118.457C87.2047 118.732 87.0506 119.014 86.8888 119.288C86.7964 119.456 86.6885 119.616 86.5884 119.783C86.3881 120.111 86.1955 120.424 85.9875 120.728C85.8874 120.881 85.7872 121.033 85.6794 121.186C85.5792 121.338 85.4791 121.483 85.3712 121.628C84.4776 122.877 83.5455 123.96 82.5903 124.836C82.4285 124.988 82.2667 125.133 82.1049 125.27C81.9432 125.415 81.7737 125.545 81.6119 125.667C81.1574 126.025 80.6952 126.33 80.2253 126.589C80.1559 126.634 80.0789 126.673 80.0019 126.711C79.8093 126.817 79.6167 126.909 79.4164 127C79.2546 127.069 79.0928 127.137 78.9311 127.198C78.6537 127.305 78.3764 127.397 78.0914 127.465C78.0298 127.48 77.9681 127.496 77.9065 127.511C77.7909 127.534 77.6754 127.564 77.5521 127.579C77.1053 127.671 76.6508 127.709 76.1886 127.709C72.2675 127.709 68.6006 124.6 65.4268 119.166C65.8119 118.503 66.1894 117.802 66.5669 117.07C68.1769 113.893 69.6252 110.105 70.8886 105.807C70.9579 105.586 71.0195 105.365 71.0812 105.136C71.1582 104.862 71.2352 104.595 71.3123 104.313C71.4047 104.001 71.4894 103.696 71.5665 103.376C71.9208 102.027 72.2598 100.64 72.5834 99.1997C80.2792 98.9253 87.69 98.2166 94.5539 97.0963H94.5616Z" fill="#00ACEA"/>
<path d="M36.3013 30.6127C40.076 12.2542 46.8936 0 54.6742 0H76.1902C83.9708 0 90.7884 12.2542 94.5632 30.6127C94.6941 31.2223 94.8174 31.8396 94.9329 32.4721C95.0562 33.0894 95.1641 33.7067 95.2719 34.3316C96.4351 40.9693 97.2286 48.2853 97.5444 56.028C97.5676 56.6224 97.5907 57.2321 97.6138 57.8341C97.6292 58.4285 97.6523 59.0306 97.66 59.6402C97.6908 61.0272 97.7062 62.4294 97.7062 63.8469C97.7062 65.2644 97.6908 66.659 97.66 68.0536C91.0735 69.3415 83.7628 70.2255 76.067 70.6523C76.1517 68.4194 76.1902 66.156 76.1902 63.8545C76.1902 61.553 76.1517 59.2897 76.067 57.0568C76.0516 56.4624 76.0284 55.8679 75.9976 55.2735C75.9668 54.6791 75.936 54.0847 75.9052 53.4903C75.4892 45.8009 74.6033 38.584 73.3399 32.0835C73.2244 31.4814 73.1088 30.887 72.9778 30.3002C72.8546 29.6982 72.7236 29.0961 72.5927 28.5093C71.0057 21.4296 68.9566 15.3559 66.5762 10.6386C66.1987 9.90701 65.8213 9.19828 65.4361 8.54289C65.0509 9.2059 64.6734 9.90701 64.2959 10.6386C61.9078 15.3483 59.8587 21.4296 58.2795 28.5093C50.5836 28.7837 43.1728 29.4924 36.309 30.6127H36.3013Z" fill="url(#paint3_linear_14649_863)"/>
<path d="M36.3013 30.6127C36.6094 29.119 36.933 27.6711 37.2719 26.2688C37.3798 25.8573 37.4799 25.4458 37.5801 25.0419C38.9051 19.9131 40.4843 15.4016 42.2638 11.675C42.3408 11.4998 42.4256 11.3397 42.5026 11.1797C42.7029 10.7682 42.9032 10.3719 43.1035 9.99084C43.2345 9.73936 43.3731 9.49549 43.5041 9.25163C43.6582 8.97728 43.8122 8.69531 43.974 8.42096C44.0664 8.2533 44.1743 8.09327 44.2744 7.92561C44.4747 7.59792 44.6673 7.28547 44.8753 6.98063C44.9755 6.82822 45.0756 6.6758 45.1835 6.52339C45.2836 6.37097 45.3837 6.22618 45.4916 6.08138C46.3852 4.83157 47.3173 3.74942 48.2726 2.87303C48.4344 2.72062 48.5961 2.57582 48.7579 2.43865C48.9197 2.29385 49.0892 2.1643 49.2509 2.04237C49.7054 1.68419 50.1676 1.37936 50.6376 1.12025C50.7069 1.07453 50.7839 1.03643 50.861 0.998322C51.0536 0.891631 51.2461 0.800182 51.4464 0.708733C51.6082 0.640146 51.77 0.571558 51.9318 0.510592C52.2091 0.403901 52.4864 0.312452 52.7714 0.243865C52.8331 0.228623 52.8947 0.213382 52.9563 0.19814C53.0719 0.175278 53.1874 0.144795 53.3107 0.129553C53.7575 0.0381039 54.212 0 54.6742 0C58.5953 0 62.2622 3.10928 65.4361 8.54289C65.0509 9.2059 64.6734 9.90701 64.2959 10.6386C62.6859 13.8165 61.2376 17.604 59.9743 21.9021C59.9049 22.1231 59.8433 22.3441 59.7817 22.5728C59.7046 22.8471 59.6276 23.1138 59.5506 23.3958C59.4581 23.7082 59.3734 24.0131 59.2963 24.3332C58.942 25.682 58.603 27.069 58.2795 28.5093C50.5836 28.7837 43.1728 29.4924 36.309 30.6127H36.3013Z" fill="#00ACEA"/>
<defs>
<linearGradient id="paint0_linear_14649_863" x1="72.0132" y1="62.2998" x2="0.585938" y2="62.2998" gradientUnits="userSpaceOnUse">
<stop stop-color="#00ACEA"/>
<stop offset="0.23" stop-color="#00B5E6"/>
<stop offset="0.61" stop-color="#00CEDD"/>
<stop offset="1" stop-color="#00EFD1"/>
</linearGradient>
<linearGradient id="paint1_linear_14649_863" x1="63.8549" y1="57.0568" x2="63.8549" y2="127.717" gradientUnits="userSpaceOnUse">
<stop stop-color="#00ACEA"/>
<stop offset="0.23" stop-color="#00B5E6"/>
<stop offset="0.61" stop-color="#00CEDD"/>
<stop offset="1" stop-color="#00EFD1"/>
</linearGradient>
<linearGradient id="paint2_linear_14649_863" x1="58.5552" y1="65.3711" x2="129.982" y2="65.3711" gradientUnits="userSpaceOnUse">
<stop stop-color="#00ACEA"/>
<stop offset="0.23" stop-color="#00B5E6"/>
<stop offset="0.61" stop-color="#00CEDD"/>
<stop offset="1" stop-color="#00EFD1"/>
</linearGradient>
<linearGradient id="paint3_linear_14649_863" x1="66.9999" y1="70.6599" x2="66.9999" y2="0" gradientUnits="userSpaceOnUse">
<stop stop-color="#00ACEA"/>
<stop offset="0.23" stop-color="#00B5E6"/>
<stop offset="0.61" stop-color="#00CEDD"/>
<stop offset="1" stop-color="#00EFD1"/>
</linearGradient>
</defs>
</svg>
