<svg width="46" height="46" viewBox="0 0 46 46" fill="none" xmlns="http://www.w3.org/2000/svg">
<path d="M8.78401 36.019C11.0344 36.0473 12.889 35.2369 14.4791 33.6587C15.9049 32.2412 17.2292 30.7173 18.8086 29.4568C19.0838 29.7025 19.3709 29.9353 19.6308 30.1951C22.4824 33.0409 25.3282 35.8926 28.1799 38.7383C28.9241 39.4814 29.7699 40.0779 30.7764 40.4099C32.0439 40.8293 34.885 40.7655 36.9487 40.782H45.9999C44.0354 38.7194 34.4833 28.6465 32.0061 26.1822C29.9317 24.1197 26.4162 23.5786 23.7854 24.8521C21.7406 25.842 20.3407 27.562 18.8133 29.1414C18.4388 28.8095 18.0573 28.4834 17.6911 28.1432C14.9622 25.6093 10.8702 25.2809 8.13311 27.7498C5.27908 30.3239 2.718 33.2228 0.000999451 36.0095C0.167564 36.0095 6.05992 35.9859 8.78519 36.0202L8.78401 36.019Z" fill="url(#paint0_linear_1_42)"/>
<path d="M37.2159 9.99008C34.9655 9.96173 33.1108 10.7721 31.5208 12.3503C30.0949 13.7679 28.7707 15.2918 27.1913 16.5522C26.9161 16.3065 26.629 16.0738 26.3691 15.8139C23.5174 12.9682 20.6717 10.1165 17.82 7.27072C17.0758 6.52767 16.23 5.93111 15.2235 5.59917C13.9559 5.1798 11.1149 5.2436 9.05116 5.22706H0C1.96451 7.28962 11.5166 17.3626 13.9937 19.8268C16.0681 21.8894 19.5837 22.4304 22.2145 21.157C24.2593 20.167 25.6591 18.4471 27.1866 16.8676C27.561 17.1996 27.9426 17.5256 28.3088 17.8658C31.0376 20.3998 35.1297 20.7282 37.8668 18.2592C40.7208 15.6852 43.2819 12.7862 45.9989 9.99953C45.8323 9.99953 39.94 10.0232 37.2147 9.9889L37.2159 9.99008Z" fill="url(#paint1_linear_1_42)"/>
<defs>
<linearGradient id="paint0_linear_1_42" x1="22.9998" y1="40.2055" x2="22.9998" y2="24.7422" gradientUnits="userSpaceOnUse">
<stop stop-color="#9E94F5"/>
<stop offset="1" stop-color="#5B00FF"/>
</linearGradient>
<linearGradient id="paint1_linear_1_42" x1="23" y1="5.52475" x2="23" y2="21.7819" gradientUnits="userSpaceOnUse">
<stop stop-color="#67D7FB"/>
<stop offset="1" stop-color="#126CD8"/>
</linearGradient>
</defs>
</svg>
