<svg width="22" height="22" viewBox="0 0 22 22" fill="none" xmlns="http://www.w3.org/2000/svg">
<path d="M10.9996 10.8C13.9996 10.8 16.3996 8.4 16.3996 5.4C16.3996 2.4 13.9996 0 10.9996 0C7.99961 0 5.59961 2.4 5.59961 5.4C5.59961 8.4 7.99961 10.8 10.9996 10.8Z" fill="#00204D"/>
<path fill-rule="evenodd" clip-rule="evenodd" d="M22 20.7998C22 16 18 12 13.2002 12H8.7998C3.8999 12 0 16 0 20.7998C0 21.4004 0.399902 21.7998 1 21.7998H21C21.6001 21.7998 22 21.4004 22 20.7998ZM18 16H18.0127C18.0083 15.9961 18.0044 15.9912 18 15.9873V16ZM4 16H3.98828L4 15.9883V16Z" fill="#00204D"/>
</svg>
