<svg width="22" height="23" viewBox="0 0 22 23" fill="none" xmlns="http://www.w3.org/2000/svg">
<path fill-rule="evenodd" clip-rule="evenodd" d="M16.3996 5.4C16.3996 8.4 13.9996 10.8 10.9996 10.8C7.99961 10.8 5.59961 8.4 5.59961 5.4C5.59961 2.4 7.99961 0 10.9996 0C13.9996 0 16.3996 2.4 16.3996 5.4ZM14.3996 5.4C14.3996 3.5 12.8996 2 10.9996 2C9.09961 2 7.59961 3.5 7.59961 5.4C7.59961 7.3 9.09961 8.8 10.9996 8.8C12.8996 8.8 14.3996 7.3 14.3996 5.4Z" fill="#00204D"/>
<path d="M8.8 12.3984H13.2C18 12.3984 22 16.3984 22 21.1984C22 21.7984 21.6 22.1984 21 22.1984C20.4 22.1984 20 21.7984 20 21.1984C20 17.4984 17 14.3984 13.2 14.3984H8.8C5.1 14.3984 2 17.3984 2 21.1984C2 21.7984 1.6 22.1984 1 22.1984C0.4 22.1984 0 21.7984 0 21.1984C0 16.3984 3.9 12.3984 8.8 12.3984Z" fill="#00204D"/>
</svg>
