<svg width="16" height="16" viewBox="0 0 16 16" fill="none" xmlns="http://www.w3.org/2000/svg">
<path d="M11.6867 14.3533L14.3534 11.6867C14.4417 11.5919 14.4898 11.4665 14.4875 11.337C14.4852 11.2075 14.4327 11.0839 14.3411 10.9923C14.2495 10.9006 14.1259 10.8482 13.9964 10.8459C13.8668 10.8436 13.7415 10.8917 13.6467 10.98L11.8334 12.7933L11.8334 2.66667C11.8316 2.35779 11.7081 2.06206 11.4897 1.84364C11.2713 1.62523 10.9756 1.50175 10.6667 1.5L2.00002 1.5C1.86741 1.5 1.74024 1.55268 1.64647 1.64645C1.5527 1.74021 1.50002 1.86739 1.50002 2C1.50002 2.13261 1.5527 2.25978 1.64647 2.35355C1.74024 2.44732 1.86741 2.5 2.00002 2.5L10.6667 2.5C10.7109 2.5 10.7533 2.51756 10.7845 2.54882C10.8158 2.58007 10.8334 2.62246 10.8334 2.66667L10.8334 12.7933L9.02002 10.98C8.92627 10.8864 8.79919 10.8338 8.66669 10.8338C8.53419 10.8338 8.4071 10.8864 8.31335 10.98C8.21972 11.0738 8.16713 11.2008 8.16713 11.3333C8.16713 11.4658 8.21972 11.5929 8.31335 11.6867L10.98 14.3533C11.0738 14.447 11.2009 14.4996 11.3334 14.4996C11.4659 14.4996 11.5929 14.447 11.6867 14.3533Z" fill="black"/>
</svg>
