<svg width="59" height="45" viewBox="0 0 59 45" fill="none" xmlns="http://www.w3.org/2000/svg">
<g clip-path="url(#clip0_15218_19308)">
<path d="M28.8446 0.906728C28.8446 0.906728 21.2516 0.560485 19.8131 6.02182C18.3745 11.4832 22.9784 11.2532 23.4896 16.5985C23.7295 19.1027 21.8111 19.8749 21.7312 21.9535C21.6512 24.0321 25.7273 33.7819 25.7273 33.7819H28.8446L30.3123 33.7952H33.4293C33.4293 33.7952 37.5054 24.0443 37.4255 21.9668C37.3455 19.8894 35.4263 19.1161 35.667 16.6118C36.1788 11.2663 40.7821 11.4968 39.3435 6.03514C37.905 0.573534 30.312 0.920055 30.312 0.920055L28.8446 0.906728Z" stroke="#606C7A" stroke-width="1.8048" stroke-linecap="round" stroke-linejoin="round"/>
<path d="M29.5775 6.59458C29.5775 6.59458 10.7684 2.2786 5.6533 1.23959C0.538209 0.200583 -0.101246 9.55168 6.93221 10.7506" stroke="#606C7A" stroke-width="1.8048" stroke-linecap="round" stroke-linejoin="round"/>
<path d="M14.7726 12.8969C15.0926 11.138 13.3804 9.35355 10.9483 8.91113C8.51623 8.46871 6.28528 9.5359 5.96532 11.2948C5.64536 13.0536 7.35756 14.8381 9.78963 15.2806C12.2217 15.723 14.4526 14.6558 14.7726 12.8969Z" fill="white" stroke="#606C7A" stroke-width="1.8048" stroke-linecap="round" stroke-linejoin="round"/>
<path d="M29.4224 6.59458C29.4224 6.59458 48.2315 2.2786 53.3466 1.23959C58.4616 0.200583 59.1011 9.55168 52.0676 10.7506" stroke="#606C7A" stroke-width="1.8048" stroke-linecap="round" stroke-linejoin="round"/>
<path d="M49.2103 15.2822C51.6423 14.8398 53.3545 13.0553 53.0346 11.2964C52.7146 9.53757 50.4837 8.47038 48.0516 8.9128C45.6195 9.35522 43.9073 11.1397 44.2273 12.8986C44.5472 14.6575 46.7782 15.7247 49.2103 15.2822Z" fill="white" stroke="#606C7A" stroke-width="1.8048" stroke-linecap="round" stroke-linejoin="round"/>
<path d="M33.0689 36.1939V29.484C33.069 28.279 32.6337 27.1145 31.8433 26.2051C31.3696 25.66 29.6775 24.9747 29.6309 24.2542C29.4762 21.8194 29.2446 16.2234 30.325 15.6C31.7103 14.8006 31.8169 13.3887 32.0568 10.7512C32.2967 8.11371 34.1348 5.71582 34.1348 5.71582H25.0747C25.0747 5.71582 26.9131 8.11343 27.1527 10.7512C27.3924 13.389 27.3127 14.8006 28.6979 15.6C29.778 16.2231 29.5465 21.8197 29.3921 24.2542C29.3463 24.9747 27.8399 25.6603 27.3651 26.2051C26.5749 27.1146 26.1399 28.2791 26.1401 29.484V36.1939" fill="white"/>
<path d="M33.0689 36.1939V29.484C33.069 28.279 32.6337 27.1145 31.8433 26.2051C31.3696 25.66 29.6775 24.9747 29.6309 24.2542C29.4762 21.8194 29.2446 16.2234 30.325 15.6C31.7103 14.8006 31.8169 13.3887 32.0568 10.7512C32.2967 8.11371 34.1348 5.71582 34.1348 5.71582H25.0747C25.0747 5.71582 26.9131 8.11343 27.1527 10.7512C27.3924 13.389 27.3127 14.8006 28.6979 15.6C29.778 16.2231 29.5465 21.8197 29.3921 24.2542C29.3463 24.9747 27.8399 25.6603 27.3651 26.2051C26.5749 27.1146 26.1399 28.2791 26.1401 29.484V36.1939" stroke="#606C7A" stroke-width="1.8048" stroke-linecap="round" stroke-linejoin="round"/>
<path d="M32.8572 20.1709V22.3489" stroke="#606C7A" stroke-width="1.8048" stroke-linecap="round" stroke-linejoin="round"/>
<path d="M19.2134 43.9927C24.7677 43.9927 29.2703 39.4901 29.2703 33.9358C29.2703 28.3815 24.7677 23.8789 19.2134 23.8789C13.6591 23.8789 9.15649 28.3815 9.15649 33.9358C9.15649 39.4901 13.6591 43.9927 19.2134 43.9927Z" fill="white" stroke="#606C7A" stroke-width="0.0277662" stroke-miterlimit="10"/>
<path d="M19.2134 43.9927C24.7677 43.9927 29.2703 39.4901 29.2703 33.9358C29.2703 28.3815 24.7677 23.8789 19.2134 23.8789C13.6591 23.8789 9.15649 28.3815 9.15649 33.9358C9.15649 39.4901 13.6591 43.9927 19.2134 43.9927Z" stroke="#606C7A" stroke-width="1.8048" stroke-linecap="round" stroke-linejoin="round"/>
<path d="M16.7352 38.8371C18.2613 38.8371 19.4985 37.6 19.4985 36.0738C19.4985 34.5477 18.2613 33.3105 16.7352 33.3105C15.2091 33.3105 13.9719 34.5477 13.9719 36.0738C13.9719 37.6 15.2091 38.8371 16.7352 38.8371Z" fill="white" stroke="#606C7A" stroke-width="1.8048" stroke-linecap="round" stroke-linejoin="round"/>
<path d="M18.5814 34.5481C20.1075 34.5481 21.3447 33.3109 21.3447 31.7848C21.3447 30.2587 20.1075 29.0215 18.5814 29.0215C17.0553 29.0215 15.8181 30.2587 15.8181 31.7848C15.8181 33.3109 17.0553 34.5481 18.5814 34.5481Z" fill="white" stroke="#606C7A" stroke-width="1.8048" stroke-linecap="round" stroke-linejoin="round"/>
<path d="M21.6915 38.8508C23.2176 38.8508 24.4548 37.6136 24.4548 36.0875C24.4548 34.5614 23.2176 33.3242 21.6915 33.3242C20.1654 33.3242 18.9282 34.5614 18.9282 36.0875C18.9282 37.6136 20.1654 38.8508 21.6915 38.8508Z" fill="white" stroke="#606C7A" stroke-width="1.8048" stroke-linecap="round" stroke-linejoin="round"/>
<path d="M19.2134 43.9927C24.7677 43.9927 29.2703 39.4901 29.2703 33.9358C29.2703 28.3815 24.7677 23.8789 19.2134 23.8789C13.6591 23.8789 9.15649 28.3815 9.15649 33.9358C9.15649 39.4901 13.6591 43.9927 19.2134 43.9927Z" stroke="#606C7A" stroke-width="1.8048" stroke-linecap="round" stroke-linejoin="round"/>
</g>
<defs>
<clipPath id="clip0_15218_19308">
<rect width="57.3372" height="44.8952" fill="white" transform="translate(0.831299)"/>
</clipPath>
</defs>
</svg>
