<svg width="64" height="64" viewBox="0 0 64 64" fill="none" xmlns="http://www.w3.org/2000/svg">
<path d="M50.0683 35.4068C52.0261 43.8905 45.7721 48.1867 42.4003 49.2743H21.3543C13.8495 44.3799 14.0128 36.2225 14.5022 28.0652C14.9917 19.9078 19.3964 15.0133 18.0912 18.2763C16.786 21.5392 22.0069 35.4068 21.3543 28.0652C20.7017 20.7235 25.7593 15.6659 28.8591 13.2187C31.9589 10.7715 30.6537 1.47205 31.6326 1.96149C32.6115 2.45094 39.1374 7.34537 39.79 16.9711C40.4426 26.5968 42.4003 23.8233 42.4003 22.5181C42.4003 21.2129 43.2161 20.0709 43.8687 18.2763C44.5213 16.4816 47.1316 13.545 46.6422 16.9711C46.1527 20.3972 47.6211 24.8022 50.0683 35.4068Z" stroke="#606C7A" stroke-width="1.5"/>
<circle cx="32.4977" cy="36.549" r="9.46257" fill="white" stroke="#606C7A" stroke-width="1.5"/>
<path d="M25.4815 49.1113C17.6504 49.1113 16.5628 57.7038 16.9978 62H47.6697C47.6697 51.6891 41.9051 49.1113 39.0229 49.1113H25.4815Z" fill="white" stroke="#606C7A" stroke-width="1.5"/>
<path d="M26 57V62" stroke="#606C7A" stroke-width="1.5"/>
<path d="M39 57V62" stroke="#606C7A" stroke-width="1.5"/>
</svg>
