<svg width="64" height="64" viewBox="0 0 64 64" fill="none" xmlns="http://www.w3.org/2000/svg">
<path d="M31.8087 29.3168L11.5633 29.4992L11.1985 29.4992L11.1985 40.0779C11.1985 41.537 11.1985 51.7509 20.8653 51.9333C28.5986 52.0792 31.3831 46.1576 31.8087 43.1785L31.8087 29.3168Z" fill="white"/>
<path d="M49.2504 45.9285L34.8058 31.7418L34.5478 31.4839L27.0676 38.9641C26.0358 39.9959 18.8135 47.2182 25.5199 54.1826C30.8851 59.7541 37.0412 57.5358 39.4487 55.7302L49.2504 45.9285Z" fill="white"/>
<path d="M31.7092 29.4204L11.5898 29.4204" stroke="#606C7A" stroke-width="1.5" stroke-miterlimit="10" stroke-linecap="round" stroke-linejoin="round"/>
<path d="M23.8678 51.8687C23.1309 52.0349 22.3642 52.1226 21.577 52.1226C15.852 52.1226 11.2109 47.4815 11.2109 41.7565V16.5882C11.211 10.8632 15.852 6.22217 21.5771 6.22217C27.3021 6.22217 31.9431 10.8632 31.9431 16.5882V33.9539" stroke="#606C7A" stroke-width="1.5" stroke-miterlimit="10" stroke-linecap="round" stroke-linejoin="round"/>
<path d="M34.8848 31.6858L49.231 46.032" stroke="#606C7A" stroke-width="1.5" stroke-miterlimit="10" stroke-linecap="round" stroke-linejoin="round"/>
<path fill-rule="evenodd" clip-rule="evenodd" d="M40.6796 53.5992L57.8395 36.4393C61.5954 32.6835 61.5954 26.5941 57.8395 22.8383C54.0837 19.0825 47.9944 19.0825 44.2386 22.8383L27.0787 39.9982C23.3229 43.754 23.3229 49.8434 27.0787 53.5992C30.8345 57.355 36.9238 57.355 40.6796 53.5992ZM58.9002 21.7776C54.5586 17.4361 47.5195 17.4361 43.1779 21.7777L26.018 38.9376C21.6764 43.2792 21.6764 50.3183 26.018 54.6599C30.3596 59.0014 37.3987 59.0014 41.7403 54.6598L58.9002 37.4999C63.2418 33.1583 63.2418 26.1192 58.9002 21.7776Z" fill="#606C7A"/>
</svg>
