<svg width="64" height="64" viewBox="0 0 64 64" fill="none" xmlns="http://www.w3.org/2000/svg">
<path d="M58.7549 31.7637C58.7549 46.5448 46.7725 58.5271 31.9914 58.5271C23.7847 58.5271 16.4406 54.8333 11.5312 49.0176" stroke="#606C7A" stroke-width="2" stroke-miterlimit="10"/>
<path d="M5.23047 31.7635C5.23047 16.9824 17.2128 5 31.9939 5C40.0913 5 47.3487 8.59597 52.2566 14.2782" stroke="#606C7A" stroke-width="2" stroke-miterlimit="10"/>
<path d="M9.04883 49.9326C11.162 49.9326 12.875 48.2196 12.875 46.1065C12.875 43.9933 11.162 42.2803 9.04883 42.2803C6.93569 42.2803 5.22266 43.9933 5.22266 46.1065C5.22266 48.2196 6.93569 49.9326 9.04883 49.9326Z" stroke="#606C7A" stroke-width="2" stroke-miterlimit="10"/>
<path d="M54.9746 20.7901C57.0878 20.7901 58.8008 19.077 58.8008 16.9639C58.8008 14.8507 57.0878 13.1377 54.9746 13.1377C52.8615 13.1377 51.1484 14.8507 51.1484 16.9639C51.1484 19.077 52.8615 20.7901 54.9746 20.7901Z" stroke="#606C7A" stroke-width="2" stroke-miterlimit="10"/>
<path d="M20.5 38.5L19.5 34L21 25L32 18L43.5 24.5L44 38.5L32 44.5L20.5 38.5Z" fill="white"/>
<path d="M43.6934 38.5194V25.0045L31.9893 18.2471L20.2852 25.0045V38.5194L31.9893 45.2767L43.6934 38.5194Z" stroke="#606C7A" stroke-width="2" stroke-miterlimit="10"/>
<path d="M20.2852 25.0059L31.9893 31.7634L43.6934 25.0059" stroke="#606C7A" stroke-width="2" stroke-miterlimit="10"/>
<path d="M31.9922 31.7637V45.2785" stroke="#606C7A" stroke-width="2" stroke-miterlimit="10"/>
</svg>
