<svg width="64" height="64" viewBox="0 0 64 64" fill="none" xmlns="http://www.w3.org/2000/svg">
<circle cx="33.0006" cy="33.0001" r="12.4615" fill="white"/>
<path fill-rule="evenodd" clip-rule="evenodd" d="M26.9544 34.8465C26.9543 34.7442 26.9744 34.6428 27.0135 34.5483C27.0526 34.4538 27.1099 34.3679 27.1823 34.2955C27.2546 34.2232 27.3405 34.1658 27.4351 34.1267C27.5296 34.0876 27.6309 34.0675 27.7332 34.0676H33.3096V27.0361C33.3096 26.8295 33.3916 26.6314 33.5377 26.4854C33.6837 26.3393 33.8818 26.2573 34.0884 26.2573C34.295 26.2573 34.4931 26.3393 34.6391 26.4854C34.7852 26.6314 34.8672 26.8295 34.8672 27.0361V34.8465C34.8663 35.0528 34.7839 35.2503 34.6381 35.3962C34.4922 35.542 34.2947 35.6244 34.0884 35.6253H27.7331C27.6308 35.6254 27.5295 35.6053 27.435 35.5662C27.3404 35.5271 27.2545 35.4697 27.1822 35.3974C27.1099 35.3251 27.0525 35.2392 27.0134 35.1446C26.9743 35.0501 26.9543 34.9488 26.9544 34.8465ZM32.9995 21.2707C30.6789 21.2704 28.4103 21.9582 26.4806 23.2473C24.551 24.5363 23.0469 26.3686 22.1586 28.5126C21.2703 30.6565 21.0377 33.0157 21.4903 35.2917C21.9428 37.5679 23.0601 39.6586 24.7009 41.2997C26.3417 42.9408 28.4323 44.0584 30.7083 44.5112C32.9843 44.9641 35.3435 44.7318 37.4875 43.8438C39.6315 42.9558 41.464 41.4519 42.7533 39.5224C44.0425 37.5928 44.7307 35.3243 44.7307 33.0036C44.7271 29.8932 43.49 26.9112 41.2908 24.7117C39.0916 22.5122 36.1098 21.2747 32.9995 21.2707ZM32.9995 46.2946C40.327 46.2946 46.2883 40.3272 46.2883 33.0036C46.2883 25.6727 40.3273 19.7128 32.9995 19.7128C25.6717 19.7128 19.7107 25.6731 19.7107 33.0036C19.7107 40.3272 25.6717 46.2946 33 46.2946H32.9995ZM9.63452 29.8809V36.1262C9.63255 36.2863 9.68814 36.4418 9.79114 36.5643C9.89415 36.6868 10.0377 36.7683 10.1958 36.7939L14.1356 37.5033C14.2804 37.53 14.4148 37.5971 14.5233 37.6967C14.6318 37.7963 14.71 37.9246 14.7489 38.0666C15.1629 39.5542 15.7563 40.9859 16.5162 42.33C16.5884 42.4576 16.6231 42.6029 16.6163 42.7493C16.6095 42.8957 16.5616 43.0372 16.4779 43.1576L14.1922 46.4474C14.0994 46.5777 14.0561 46.7369 14.0703 46.8963C14.0844 47.0557 14.1551 47.2048 14.2694 47.3167L18.685 51.7334C18.7971 51.8483 18.9467 51.9192 19.1066 51.9333C19.2665 51.9473 19.4262 51.9035 19.5566 51.8098L22.8461 49.5219C22.9768 49.4323 23.1314 49.3839 23.2899 49.3829C23.425 49.383 23.5577 49.419 23.6744 49.4872C25.0183 50.2475 26.45 50.8408 27.9378 51.2537C28.0793 51.2923 28.2069 51.3703 28.3058 51.4787C28.4047 51.5871 28.4707 51.7213 28.4962 51.8658L29.206 55.8088C29.2334 55.9662 29.3161 56.1086 29.4391 56.2106C29.5621 56.3125 29.7174 56.3673 29.8772 56.3651H36.1212C36.2808 56.3673 36.4361 56.3125 36.559 56.2105C36.6818 56.1086 36.7643 55.9661 36.7916 55.8088L37.5017 51.8653C37.5274 51.7209 37.5935 51.5867 37.6923 51.4784C37.7911 51.37 37.9187 51.2919 38.0602 51.2532C39.5478 50.8399 40.9795 50.2467 42.3235 49.4867C42.4512 49.4151 42.5963 49.3805 42.7425 49.3867C42.8888 49.3928 43.0305 49.4395 43.1518 49.5214L46.4415 51.8093C46.5718 51.903 46.7314 51.9468 46.8913 51.9328C47.0513 51.9187 47.2008 51.8478 47.3129 51.7329L51.7285 47.3164C51.843 47.2046 51.9137 47.0555 51.9279 46.896C51.942 46.7366 51.8987 46.5774 51.8057 46.4471L49.5199 43.1577C49.4362 43.0373 49.3882 42.8958 49.3816 42.7493C49.3749 42.6029 49.4099 42.4576 49.4823 42.3301C50.2422 40.986 50.8356 39.5543 51.2496 38.0667C51.2883 37.9247 51.3663 37.7964 51.4747 37.6967C51.5831 37.5971 51.7174 37.5301 51.8622 37.5034L55.8036 36.794C55.9615 36.7682 56.1049 36.6867 56.2078 36.5642C56.3106 36.4417 56.3661 36.2863 56.3642 36.1263V29.8807C56.3653 29.7202 56.3096 29.5645 56.207 29.4411C56.1045 29.3176 55.9616 29.2344 55.8036 29.2061L51.8622 28.4966C51.7174 28.4726 51.5826 28.4074 51.4739 28.3087C51.3653 28.21 51.2874 28.0821 51.2496 27.9402C50.8381 26.4518 50.2446 25.0198 49.4823 23.6768C49.4098 23.5494 49.3748 23.4041 49.3815 23.2576C49.3881 23.1112 49.4361 22.9696 49.5199 22.8493L51.806 19.5596C51.8991 19.4294 51.9426 19.2701 51.9284 19.1107C51.9142 18.9512 51.8434 18.802 51.7288 18.6903L47.3132 14.2738C47.2011 14.1588 47.0516 14.0879 46.8917 14.0739C46.7317 14.0598 46.5721 14.1036 46.4417 14.1973L43.1521 16.4785C43.0321 16.5632 42.8906 16.612 42.744 16.6194C42.5973 16.6267 42.4516 16.5924 42.3238 16.5202C40.9813 15.7572 39.5492 15.1638 38.0604 14.7537C37.9195 14.7139 37.7926 14.6355 37.6939 14.5274C37.5952 14.4192 37.5288 14.2856 37.502 14.1417L36.7919 10.1982C36.7662 10.0395 36.6844 9.8954 36.5613 9.79201C36.4382 9.68862 36.2822 9.63287 36.1214 9.63489H29.8777C29.7169 9.63278 29.5606 9.68848 29.4373 9.79186C29.314 9.89523 29.232 10.0394 29.206 10.1982L28.4959 14.1417C28.4693 14.2857 28.4029 14.4194 28.3042 14.5275C28.2055 14.6357 28.0784 14.714 27.9375 14.7537C26.4487 15.1638 25.0167 15.7572 23.6741 16.5202C23.5463 16.5923 23.4006 16.6267 23.254 16.6193C23.1073 16.612 22.9658 16.5631 22.8459 16.4785L19.5563 14.1973C19.4259 14.1036 19.2662 14.0598 19.1063 14.0739C18.9464 14.0879 18.7968 14.1589 18.6847 14.2738L14.2694 18.6902C14.1549 18.802 14.0842 18.9511 14.0701 19.1106C14.0559 19.27 14.0992 19.4293 14.1922 19.5596L16.4783 22.8492C16.562 22.9695 16.61 23.111 16.6168 23.2575C16.6236 23.4039 16.5888 23.5492 16.5166 23.6767C15.7542 25.0198 15.1605 26.4518 14.7489 27.9402C14.7109 28.0821 14.6328 28.21 14.5241 28.3086C14.4153 28.4073 14.2804 28.4726 14.1356 28.4966L10.1951 29.2061C10.037 29.2342 9.89391 29.3174 9.7912 29.4409C9.68849 29.5643 9.63275 29.7201 9.63384 29.8807L9.63452 29.8809ZM9.91967 38.3314L13.3855 38.9504C13.7737 40.2364 14.289 41.4805 14.9237 42.6644L12.9133 45.5571C12.6131 45.9876 12.4742 46.5101 12.5208 47.0328C12.5675 47.5556 12.7968 48.0452 13.1686 48.4157L17.5842 52.832C17.9544 53.2049 18.4444 53.4352 18.9678 53.4823C19.4912 53.5293 20.0144 53.3902 20.4453 53.0893L23.3379 51.0793C24.5215 51.7121 25.7645 52.2269 27.0489 52.6164L27.6728 56.08C27.7649 56.5975 28.0365 57.0659 28.4397 57.4029C28.843 57.74 29.3522 57.9242 29.8777 57.923H36.1217C36.6472 57.9241 37.1562 57.7399 37.5593 57.4028C37.9624 57.0657 38.2338 56.5974 38.3257 56.08L38.9496 52.6164C40.2339 52.2266 41.4769 51.7118 42.6607 51.0793L45.5532 53.0893C45.9841 53.3902 46.5073 53.5293 47.0307 53.4823C47.5541 53.4352 48.0441 53.2049 48.4144 52.832L52.8307 48.4157C53.2023 48.0451 53.4315 47.5554 53.4781 47.0327C53.5246 46.5099 53.3855 45.9875 53.0852 45.5571L51.0753 42.6639C51.7097 41.4799 52.225 40.2358 52.6135 38.9499L56.0793 38.3309C56.5962 38.2378 57.064 37.966 57.4009 37.563C57.7378 37.16 57.9223 36.6515 57.9223 36.1262V29.8807C57.9223 29.3555 57.7378 28.8469 57.4009 28.4439C57.064 28.0409 56.5962 27.7691 56.0793 27.676L52.6135 27.05C52.2237 25.7669 51.7085 24.5252 51.0753 23.343L53.0852 20.4498C53.3854 20.0181 53.5244 19.4947 53.4778 18.9709C53.4313 18.4472 53.2023 17.9564 52.8307 17.5844L48.4139 13.1679C48.042 12.7974 47.5518 12.5693 47.0288 12.5235C46.5058 12.4778 45.9833 12.6172 45.5527 12.9175L42.6603 14.9276C41.4779 14.2922 40.2346 13.7772 38.9492 13.3905L38.3253 9.92005C38.2322 9.40327 37.9605 8.93563 37.5577 8.59877C37.1549 8.2619 36.6465 8.0772 36.1214 8.0769H29.8777C29.3525 8.07717 28.8441 8.26184 28.4412 8.5987C28.0383 8.93556 27.7664 9.40321 27.6731 9.92005L27.0492 13.3905C25.7638 13.7772 24.5206 14.2922 23.3382 14.9276L20.4453 12.9175C20.0147 12.6173 19.4923 12.4778 18.9693 12.5236C18.4463 12.5693 17.9561 12.7974 17.5842 13.1679L13.1686 17.5844C12.7969 17.9563 12.5677 18.447 12.5211 18.9708C12.4744 19.4945 12.6132 20.018 12.9133 20.4498L14.9232 23.343C14.2898 24.5251 13.7745 25.7668 13.385 27.05L9.91918 27.676C9.40231 27.7693 8.93461 28.0411 8.59776 28.4441C8.2609 28.847 8.0763 29.3555 8.07617 29.8807V36.1262C8.0763 36.6515 8.26092 37.16 8.5978 37.5629C8.93467 37.9659 9.40239 38.2377 9.91928 38.3309L9.91967 38.3314Z" fill="#606C7A"/>
</svg>
