<svg width="96" height="96" viewBox="0 0 96 96" fill="none" xmlns="http://www.w3.org/2000/svg">
<g clip-path="url(#clip0_14679_4524)">
<path d="M54.6521 45.9227C54.6521 46.936 54.6521 47.9494 54.6521 48.9627C54.6521 49.3726 54.5591 49.4797 54.1768 49.6135C53.7636 49.7598 53.3607 49.9369 52.9474 50.0873C52.7098 50.1738 52.4639 50.2417 52.218 50.3015C51.9287 50.3735 51.6374 50.4621 51.3419 50.4827C50.4245 50.5466 49.5153 50.7731 48.5896 50.6619C48.0193 50.5939 47.4532 50.4848 46.8891 50.3735C46.5915 50.3159 46.2919 50.2397 46.0109 50.1285C45.6968 50.0049 45.3951 49.8483 45.1038 49.6795C44.8042 49.5044 44.5149 49.3087 44.236 49.1028C43.8082 48.7856 43.4632 48.386 43.147 47.9556C42.7958 47.4777 42.5271 46.9587 42.3019 46.417C42.18 46.1266 42.1408 45.8032 42.0436 45.5005C41.7523 44.5798 41.8453 43.6365 41.8907 42.7015C41.9135 42.2257 42.0643 41.7499 42.1945 41.2844C42.2854 40.959 42.43 40.6459 42.5685 40.337C42.8102 39.7994 43.1346 39.3154 43.5334 38.8767C44.0727 38.2836 44.6988 37.8037 45.4137 37.4515C45.7815 37.2702 46.1865 37.1611 46.5771 37.0251C47.8065 36.5967 49.0773 36.6297 50.346 36.7182C50.8129 36.7512 51.2716 36.8913 51.7304 36.9963C52.0052 37.0601 52.28 37.1322 52.5445 37.2332C52.8152 37.3361 53.0858 37.4535 53.3276 37.608C53.6313 37.8016 53.9062 38.0405 54.1954 38.2588C54.307 38.3433 54.2843 38.4051 54.1954 38.5019C53.6272 39.1156 53.0672 39.7377 52.5052 40.3555C52.3482 40.5285 52.2531 40.5285 52.061 40.3864C51.8109 40.2011 51.5692 39.9972 51.2985 39.8509C51.0361 39.7088 50.7365 39.6326 50.4575 39.5193C49.7798 39.2475 49.0711 39.3381 48.3768 39.3772C47.7838 39.4102 47.2362 39.645 46.7238 39.9498C46.2403 40.2381 45.8394 40.6151 45.5646 41.1052C45.3786 41.4368 45.2319 41.7911 45.0893 42.1454C44.7463 42.996 44.8311 43.8796 44.9468 44.7528C44.9943 45.1174 45.1555 45.4799 45.3249 45.8115C45.5501 46.2564 45.8229 46.6848 46.2217 47.0019C46.4572 47.1894 46.732 47.3274 46.982 47.4983C47.385 47.7722 47.854 47.8505 48.3127 47.9453C48.8438 48.0565 49.3872 48.0503 49.9244 47.9411C50.0877 47.9082 50.2592 47.8938 50.4183 47.8443C50.8253 47.7166 51.2345 47.591 51.627 47.4242C51.7262 47.383 51.8109 47.1935 51.8151 47.0679C51.8357 46.5138 51.8151 45.9598 51.8254 45.4057C51.8295 45.1895 51.7531 45.1071 51.532 45.1112C50.9472 45.1215 50.3625 45.1153 49.7757 45.1153C49.476 45.1153 49.4595 45.0989 49.4595 44.8126C49.4595 44.1123 49.4657 43.412 49.4595 42.7118C49.4575 42.5099 49.5298 42.444 49.7281 42.444C51.2654 42.4481 52.8007 42.444 54.338 42.4481C54.6397 42.4481 54.6541 42.4646 54.6541 42.7756C54.6541 43.826 54.6541 44.8764 54.6541 45.9268L54.6521 45.9227Z" fill="#B3B7BC"/>
<path d="M57.3658 43.6695C57.3658 41.6202 57.3658 39.5708 57.3658 37.5215C57.3658 37.4185 57.3451 37.3094 57.3781 37.2188C57.4071 37.1426 57.4959 37.0849 57.5662 37.0272C57.5827 37.0128 57.622 37.0231 57.653 37.0231C59.5477 37.0313 61.4425 37.019 63.3373 37.0643C63.8497 37.0766 64.3601 37.2579 64.8684 37.3753C65.4118 37.5009 65.8892 37.7707 66.2817 38.1559C66.6805 38.5472 66.9864 39.0024 67.1599 39.5564C67.4223 40.3823 67.3562 41.2165 67.2798 42.0445C67.2405 42.4626 67.0731 42.8786 66.8458 43.2596C66.5896 43.6901 66.2549 44.0444 65.852 44.3121C65.5441 44.516 65.1825 44.6561 64.825 44.7652C64.4262 44.8888 64.0068 44.9526 63.5935 45.033C63.4014 45.07 63.203 45.1009 63.0088 45.103C62.1967 45.1112 61.3847 45.1092 60.5726 45.1112C60.2833 45.1112 60.2627 45.1298 60.2627 45.4243C60.2627 46.9546 60.2627 48.487 60.2627 50.0173C60.2627 50.3221 60.2627 50.3262 59.9589 50.3262C59.2357 50.3303 58.5105 50.3283 57.7873 50.3283C57.372 50.3283 57.3699 50.3283 57.3699 49.9225C57.3699 48.0709 57.3699 46.2173 57.3699 44.3657V43.6654L57.3658 43.6695ZM60.2606 41.0517C60.2606 41.4966 60.2606 41.9415 60.2606 42.3843C60.2606 42.5367 60.2999 42.6397 60.4796 42.6376C61.2979 42.6273 62.1182 42.6438 62.9344 42.6006C63.1865 42.5882 63.4468 42.4523 63.6762 42.3246C64.1101 42.0815 64.2775 41.6861 64.325 41.1918C64.418 40.1908 63.8084 39.6759 63.015 39.5564C62.2194 39.4349 61.3991 39.4576 60.5912 39.4246C60.3226 39.4143 60.2668 39.472 60.2627 39.7377C60.2585 40.1743 60.2627 40.611 60.2627 41.0497L60.2606 41.0517Z" fill="#B3B7BC"/>
<path d="M38.347 40.3617C38.004 40.1269 37.6837 39.853 37.318 39.6738C36.9936 39.5132 36.6217 39.4184 36.2621 39.3669C35.9047 39.3175 35.5265 39.3216 35.1691 39.371C34.8529 39.4143 34.5347 39.5214 34.2454 39.6594C33.9169 39.8159 33.6028 40.0178 33.3094 40.2361C32.8838 40.5533 32.5676 40.9796 32.3383 41.4492C31.9436 42.2545 31.7948 43.1154 31.863 44.0114C31.8796 44.2214 31.8837 44.4357 31.9271 44.6416C31.9849 44.9176 32.0469 45.1977 32.1564 45.4552C32.3672 45.9495 32.6255 46.4191 32.9953 46.8186C33.3445 47.1976 33.7475 47.4901 34.2289 47.6837C34.7062 47.8773 35.1897 48.0235 35.7104 48.0091C36.5886 47.9823 37.3552 47.6693 38.0102 47.0926C38.1218 46.9937 38.2127 46.8639 38.2912 46.7342C38.3739 46.6003 38.4648 46.588 38.5784 46.6745C39.1446 47.1049 39.7087 47.5374 40.2769 47.9658C40.3988 48.0585 40.529 48.1368 40.655 48.2233C40.7873 48.316 40.8059 48.4148 40.7026 48.5528C40.2686 49.1234 39.7273 49.5744 39.1053 49.9163C38.7603 50.1058 38.3759 50.2314 37.9978 50.3447C37.5804 50.4683 37.1548 50.5919 36.725 50.6269C36.1898 50.6701 35.6484 50.6269 35.1091 50.6063C34.9129 50.598 34.7166 50.561 34.5244 50.5177C34.1215 50.423 33.7206 50.3241 33.3239 50.2108C33.0945 50.147 32.8631 50.0749 32.6503 49.9699C32.2907 49.7886 31.9229 49.6094 31.6047 49.3705C31.1956 49.0616 30.7906 48.7279 30.46 48.3407C30.1253 47.9494 29.8587 47.4921 29.6066 47.039C29.4083 46.6806 29.245 46.2955 29.1252 45.9062C29.0054 45.5211 28.9144 45.1153 28.8938 44.7137C28.8566 44.0093 28.8483 43.2967 28.8979 42.5943C28.9289 42.1598 29.0694 41.7293 29.1955 41.3091C29.2967 40.9714 29.4351 40.6418 29.5818 40.3205C29.9021 39.6203 30.3629 39.0188 30.927 38.4916C31.4312 38.022 31.9994 37.6554 32.6275 37.3753C33.2144 37.1137 33.8239 36.9572 34.4521 36.8171C35.2331 36.6441 36.01 36.6667 36.787 36.7079C37.2209 36.7306 37.6507 36.881 38.0722 37.0086C38.4235 37.1157 38.7871 37.229 39.095 37.4226C39.5413 37.7027 39.9484 38.0488 40.3575 38.3845C40.498 38.4998 40.4525 38.6728 40.3017 38.7943C39.6508 39.3175 39.002 39.8427 38.3532 40.3658L38.347 40.3617Z" fill="#B3B7BC"/>
<path d="M78.0593 40.8183C78.6214 40.7668 79.1049 40.9584 79.4665 41.3744C79.7206 41.6669 79.9376 42.0026 79.9479 42.4186C79.952 42.5505 79.9582 42.6802 79.9624 42.812C79.983 43.5308 79.6152 44.0313 79.0201 44.365C78.4891 44.6616 77.8878 44.711 77.3175 44.5462C76.7596 44.3856 76.2989 44.0375 76.1563 43.4155C76.0984 43.1642 76.0364 42.9088 76.0178 42.6534C75.9724 42.0108 76.303 41.5433 76.7948 41.1849C77.1646 40.9151 77.5903 40.773 78.0614 40.8163L78.0593 40.8183Z" fill="#B3B7BC"/>
<path d="M48.2978 20.2865C47.2109 20.2989 46.3224 19.4235 46.3947 18.1651C46.4505 17.1971 47.2068 16.297 48.3474 16.3259C49.4342 16.3547 50.2442 17.1374 50.2194 18.334C50.1946 19.4915 49.3888 20.303 48.2978 20.2845V20.2865Z" fill="#B3B7BC"/>
<path d="M24.0355 65.4871C24.114 66.4963 23.0271 67.4582 21.963 67.4808C20.8472 67.5035 20.1075 66.4798 20.0579 65.6313C19.9897 64.4923 21.0311 63.6067 22.1014 63.5552C23.1304 63.5057 24.052 64.3996 24.0375 65.4871H24.0355Z" fill="#B3B7BC"/>
<path d="M57.9273 19.2052C57.9149 19.7922 57.7124 20.3256 57.3178 20.7437C57.0946 20.9785 56.7971 21.1598 56.4355 21.2278C55.4726 21.4049 54.6027 20.995 54.2266 20.1876C54.0779 19.8663 53.9415 19.4915 54.0944 19.0919C54.1874 18.8468 54.1688 18.5729 54.3176 18.3299C54.58 17.9015 54.892 17.5719 55.3838 17.3989C56.0078 17.1785 56.5719 17.3433 57.0967 17.6399C57.3405 17.7779 57.5471 18.0395 57.6877 18.2907C57.8364 18.5605 57.8881 18.8839 57.9831 19.1846L57.9273 19.2073V19.2052Z" fill="#B3B7BC"/>
<path d="M16.2266 41.4445C16.3092 40.6392 16.553 40.0316 17.175 39.6732C17.6626 39.3911 18.1875 39.284 18.766 39.492C19.202 39.6485 19.5863 39.838 19.8797 40.2025C20.1649 40.5589 20.2496 40.9667 20.2372 41.4074C20.2207 42.0006 19.9872 42.5031 19.5181 42.8595C19.0553 43.2096 18.5325 43.362 17.9374 43.1993C17.611 43.1107 17.3134 42.9933 17.0179 42.8245C16.7535 42.6741 16.584 42.4537 16.4683 42.2045C16.3423 41.9347 16.2844 41.6319 16.2266 41.4404V41.4445Z" fill="#B3B7BC"/>
<path d="M31.7268 21.186C32.3281 21.2108 32.7847 21.3858 33.105 21.8575C33.3302 22.1891 33.5327 22.5207 33.5534 22.9408C33.5844 23.569 33.2745 24.0201 32.8219 24.3949C32.5885 24.5885 32.3281 24.7492 32.0781 24.9201C31.8322 25.089 31.7082 25.0643 31.5491 24.8089C31.1916 24.2322 30.8404 23.6535 30.485 23.0747C30.3527 22.8584 30.2226 22.6401 30.0759 22.4362C29.8382 22.1067 29.8713 21.9316 30.2308 21.7566C30.5676 21.5918 30.9024 21.4188 31.2474 21.2767C31.4107 21.2087 31.6008 21.2066 31.7268 21.186Z" fill="#B3B7BC"/>
<path d="M62.1146 19.6066C62.4659 19.8002 62.7738 19.9382 63.0444 20.1235C63.6085 20.5107 64.0445 20.9947 64.0445 21.7321C64.0445 22.1316 63.842 22.4653 63.6333 22.7907C63.435 23.0997 63.1519 23.3262 62.813 23.4477C62.4659 23.5734 62.0919 23.5775 61.7406 23.4416C61.3832 23.3036 61.0402 23.1306 60.6889 22.9782C60.4327 22.8669 60.3872 22.7186 60.5195 22.4797C60.817 21.9442 61.1021 21.4025 61.3935 20.8609C61.5815 20.5107 61.7654 20.1565 61.9576 19.8084C61.9989 19.7322 62.063 19.6704 62.1126 19.6045L62.1146 19.6066Z" fill="#B3B7BC"/>
<path d="M78.209 57.2112C78.2978 56.8941 78.4073 56.4821 78.5313 56.0743C78.5437 56.0331 78.6491 55.9837 78.6946 55.9961C79.0024 56.0785 79.302 56.1835 79.6099 56.27C79.7525 56.3091 79.8021 56.3915 79.7752 56.5254C79.6884 56.9414 79.5996 57.3595 79.3661 57.7262C79.2421 57.9218 78.9384 58.0207 78.7338 57.9692C78.3164 57.8662 78.2358 57.5779 78.2111 57.2112H78.209Z" fill="#B3B7BC"/>
<path d="M16.5744 47.9947C16.5744 48.1698 16.5723 48.3448 16.5744 48.5199C16.5765 48.6579 16.5186 48.7176 16.376 48.7156C16.0392 48.7094 15.7024 48.7115 15.3656 48.7135C15.2458 48.7135 15.159 48.6826 15.1735 48.5426C15.2189 48.1327 15.2499 47.7187 15.3202 47.313C15.3739 46.9999 15.6859 46.7672 15.9545 46.7857C16.2541 46.8084 16.5455 47.1049 16.5661 47.4283C16.5785 47.6178 16.5682 47.8073 16.5682 47.9968C16.5682 47.9968 16.5682 47.9968 16.5703 47.9968L16.5744 47.9947Z" fill="#B3B7BC"/>
<path d="M77.8265 36.0226C77.8265 36.3419 77.6777 36.587 77.4959 36.6508C77.188 36.7579 76.9276 36.7208 76.7623 36.4963C76.6032 36.278 76.4772 36.0329 76.3491 35.7919C76.2768 35.6539 76.2127 35.5057 76.1734 35.3553C76.1383 35.2132 76.2024 35.1164 76.3573 35.0587C76.5888 34.9743 76.8099 34.861 77.031 34.7539C77.2272 34.6592 77.3533 34.7127 77.4339 34.9145C77.5227 35.137 77.6405 35.3471 77.7211 35.5716C77.781 35.7405 77.8017 35.9238 77.8244 36.0247L77.8265 36.0226Z" fill="#B3B7BC"/>
<path d="M74.1992 63.6357C74.4265 63.2196 74.6187 62.8654 74.8356 62.4658C74.9617 62.575 75.0898 62.6635 75.189 62.7768C75.4328 63.0549 75.6663 63.3412 75.8998 63.6274C75.9328 63.6686 75.9576 63.7284 75.9535 63.7778C75.9535 63.8005 75.8688 63.8355 75.8274 63.8313C75.3005 63.7716 74.7757 63.7057 74.1992 63.6336V63.6357Z" fill="#B3B7BC"/>
<path d="M74.3161 29.6758C74.5579 30.0939 74.7914 30.4852 75.0104 30.8848C75.1137 31.0722 74.9505 31.478 74.7521 31.5912C74.2769 31.861 73.9029 31.6159 73.657 31.2576C73.5061 31.0393 73.3636 30.8127 73.2313 30.582C73.2086 30.5429 73.2334 30.4337 73.2727 30.4069C73.5991 30.168 73.9318 29.9415 74.3161 29.6758Z" fill="#B3B7BC"/>
<path d="M60.5742 76.924C60.8676 76.6439 61.19 76.6048 61.535 76.6006C61.9545 76.5965 62.1859 76.8684 62.2562 77.1176C62.4132 77.6696 62.3099 78.0177 61.938 78.2422C61.8078 78.3204 61.6714 78.3904 61.533 78.4502C61.3801 78.5161 61.254 78.4378 61.192 78.2916C61.0598 77.9806 60.911 77.6778 60.7705 77.3709C60.7023 77.2206 60.6383 77.0702 60.5742 76.924Z" fill="#B3B7BC"/>
<path d="M34.4315 77.0535C34.3095 76.9876 34.1091 76.8929 33.9293 76.7672C33.8922 76.7425 33.9025 76.588 33.9417 76.5262C34.0058 76.4253 34.1484 76.2585 34.1959 76.2791C34.4025 76.3594 34.6298 76.4624 34.7683 76.6251C34.917 76.8022 34.7559 77.0432 34.4315 77.0535Z" fill="#B3B7BC"/>
<path d="M55.0232 78.7587C55.3601 78.736 55.4944 78.8782 55.4014 79.1562C55.3993 79.1624 55.3972 79.1706 55.3952 79.1768C55.3353 79.3251 54.6926 79.5475 54.6203 79.4281C54.5356 79.288 54.5315 79.0882 54.5273 78.9152C54.5273 78.874 54.6596 78.8122 54.7402 78.7875C54.829 78.7608 54.9282 78.7669 55.0232 78.7587Z" fill="#B3B7BC"/>
<path d="M9.3627 54.309C9.43295 54.8796 9.5156 55.446 9.59206 56.0165C9.59619 56.0515 9.61065 56.0865 9.61892 56.1215C9.72223 56.5746 9.82555 57.0257 9.92679 57.4788C10.0074 57.8392 10.0673 58.2058 10.1624 58.5622C10.3277 59.178 10.5136 59.7876 10.6913 60.3993C10.7616 60.6362 10.8298 60.8731 10.9124 61.1037C11.0054 61.3694 11.117 61.6289 11.212 61.8926C11.3587 62.3004 11.493 62.7144 11.6459 63.1201C11.7947 63.5197 11.9538 63.9172 12.1191 64.3106C12.2679 64.6628 12.427 65.0129 12.5902 65.3589C12.7969 65.7976 13.0097 66.2343 13.2287 66.6668C13.4188 67.0416 13.6089 67.4165 13.8176 67.781C14.0903 68.2568 14.3838 68.7202 14.6648 69.1919C14.8735 69.5379 15.0677 69.8942 15.2909 70.232C15.5533 70.6316 15.8343 71.0188 16.1194 71.4039C16.6257 72.0857 17.1216 72.7756 17.6547 73.4368C18.1589 74.0629 18.7085 74.6561 19.2313 75.2678C19.5701 75.6653 19.8904 76.0793 20.2334 76.4726C20.3346 76.588 20.4979 76.6436 20.6115 76.7507C20.8326 76.9587 21.0289 77.1894 21.2521 77.3954C21.5538 77.6755 21.8699 77.9391 22.1778 78.2151C22.4588 78.4664 22.7253 78.7362 23.0167 78.9751C23.3597 79.2573 23.7213 79.5147 24.0746 79.7825C24.1283 79.8237 24.18 79.8649 24.2337 79.906C24.1841 79.9369 24.149 79.939 24.1201 79.9246C24.0519 79.8916 23.9837 79.8587 23.9176 79.8257C30.5834 84.9809 38.9663 88.0354 48.0579 87.9942C50.5499 87.9839 52.9881 87.7388 55.3478 87.2836C55.4573 87.2095 55.5565 87.1127 55.6763 87.0756C55.9738 86.987 56.2838 86.9438 56.5875 86.882C56.9719 86.8058 57.3562 86.7296 57.7384 86.6534C57.7818 86.6451 57.8232 86.6286 57.8645 86.6163C58.1744 86.5216 58.4844 86.4227 58.7964 86.3321C59.1084 86.2414 59.4245 86.1632 59.7386 86.0787C59.9494 86.0211 60.1643 85.9758 60.3668 85.8996C60.7614 85.7533 61.1478 85.5885 61.5383 85.4341C61.7181 85.364 61.8999 85.2981 62.0818 85.2322C62.3132 85.1478 62.5508 85.0778 62.774 84.9789C63.117 84.8244 63.4517 84.6494 63.7906 84.4866C64.6997 84.05 65.6192 83.6278 66.5201 83.1747C67.076 82.8946 67.6132 82.5774 68.1442 82.252C68.7869 81.8544 69.4233 81.4425 70.0452 81.0141C70.7395 80.5342 71.4338 80.0502 72.097 79.5291C72.7892 78.9874 73.4608 78.4149 74.1137 77.8258C74.7667 77.2388 75.4093 76.6333 76.0188 76.001C76.74 75.2554 77.4322 74.481 78.1161 73.7004C78.4653 73.3029 78.7711 72.8683 79.0831 72.4399C79.6596 71.647 80.2402 70.8561 80.7899 70.0446C81.137 69.5297 81.4387 68.9818 81.7445 68.4422C82.1061 67.8058 82.4553 67.1611 82.8004 66.5164C82.9367 66.261 83.0462 65.9912 83.1682 65.7276C83.3789 65.2745 83.5959 64.8275 83.8004 64.3703C83.9616 64.0058 84.1104 63.635 84.2571 63.2663C84.4141 62.8688 84.5691 62.4713 84.7117 62.0697C84.8542 61.6681 84.9824 61.2603 85.1125 60.8525C85.2241 60.5085 85.3316 60.1646 85.4349 59.8165C85.5155 59.5446 85.5836 59.2707 85.6622 58.9988C85.7531 58.6775 85.8585 58.3603 85.9349 58.037C86.0279 57.6477 86.0961 57.2543 86.1746 56.863C86.2986 56.2286 86.4287 55.5963 86.5445 54.9619C86.6643 54.1855 86.7594 53.4028 86.8337 52.614C86.9019 51.6356 86.9701 50.6553 86.9887 49.6769C87.0114 48.5339 86.9949 47.3866 86.9329 46.2436C86.8875 45.395 86.749 44.5505 86.6436 43.704C86.5693 43.1129 86.4825 42.5239 86.4019 41.9348C86.3936 41.8772 86.3792 41.8195 86.3668 41.7639C86.2717 41.3169 86.1767 40.87 86.0796 40.4231C85.999 40.0482 85.9204 39.6713 85.8316 39.2985C85.7717 39.0452 85.6911 38.796 85.6208 38.5447C85.5258 38.211 85.4328 37.8774 85.3378 37.5437C85.2551 37.2512 85.1828 36.9567 85.0898 36.6684C85.0071 36.415 84.8997 36.1679 84.8129 35.9166C84.7261 35.6633 84.66 35.4038 84.5629 35.1545C84.4183 34.7776 84.253 34.4069 84.098 34.032C83.9492 33.6716 83.8211 33.3009 83.6558 32.9487C83.3851 32.3679 83.0958 31.7932 82.8045 31.2207C82.5524 30.7243 82.3024 30.2238 82.0193 29.746C81.5585 28.9736 81.0812 28.2095 80.5874 27.4557C80.203 26.8666 79.7898 26.2961 79.3745 25.7276C79.0666 25.3054 78.7381 24.8976 78.4095 24.4919C77.9673 23.944 77.5417 23.3776 77.0623 22.8607C76.459 22.2119 75.8205 21.594 75.1758 20.9843C74.4299 20.2799 73.6901 19.5673 72.8946 18.9206C71.9586 18.1606 70.9792 17.45 69.9936 16.7518C69.3055 16.2657 68.5823 15.8291 67.8632 15.3863C67.4231 15.1165 66.9706 14.8673 66.5139 14.6263C66.078 14.3956 65.6337 14.1793 65.1895 13.9651C64.7452 13.7509 64.2968 13.5429 63.8484 13.337C63.5178 13.1866 63.1872 13.0383 62.8504 12.9003C62.4888 12.75 62.1231 12.6058 61.7553 12.474C61.3524 12.3277 60.9453 12.198 60.5403 12.062C60.3544 12.0003 60.1705 11.9364 59.9845 11.8726C59.7117 11.7799 59.439 11.679 59.1642 11.5945C58.8377 11.4956 58.5092 11.4071 58.1806 11.3206C57.8356 11.23 57.4926 11.1373 57.1454 11.0569C56.7632 10.9684 56.3768 10.8922 55.9924 10.8119C55.5565 10.7212 55.1246 10.6121 54.6866 10.5441C54.1245 10.4555 53.5584 10.402 52.9943 10.332C52.9715 10.3299 52.9509 10.3237 52.9302 10.3217C52.0025 10.2187 51.0747 10.0683 50.1449 10.0251C49.0125 9.97359 47.8761 10.0086 46.7438 10.0168C46.1879 10.021 45.6301 10.0189 45.0784 10.0704C44.2663 10.1466 43.4584 10.2681 42.6484 10.3711C42.0781 10.4432 41.5078 10.5173 40.9355 10.5915C40.8549 10.6018 40.7764 10.6121 40.6978 10.6285C40.1627 10.7398 39.6296 10.8551 39.0965 10.9684C39.0469 10.9787 38.9973 10.991 38.9477 11.0034C38.5696 11.1064 38.1935 11.2094 37.8133 11.3103C37.5178 11.3885 37.2203 11.4586 36.9248 11.5389C36.7161 11.5945 36.5074 11.6542 36.3029 11.7263C36.0425 11.817 35.7904 11.9261 35.5321 12.0209C35.342 12.0909 35.1478 12.1465 34.9556 12.2103C34.7077 12.2927 34.4577 12.3669 34.2159 12.4616C33.8047 12.6223 33.3997 12.7973 32.9927 12.9662C32.6579 13.1063 32.3191 13.234 31.9905 13.3864C31.536 13.5965 31.0896 13.823 30.6392 14.0455C30.1185 14.3029 29.5874 14.5418 29.0791 14.824C28.4965 15.1474 27.9282 15.5016 27.3621 15.8559C26.7649 16.2307 26.1657 16.6056 25.5892 17.0113C24.9672 17.45 24.3598 17.9114 23.7667 18.3871C23.0353 18.9762 22.3121 19.5756 21.6116 20.2017C21.0496 20.7063 20.5206 21.248 19.9916 21.7876C19.4627 22.3293 18.9275 22.8668 18.4378 23.4435C17.8303 24.1562 17.26 24.8997 16.6877 25.6411C16.355 26.0716 16.0327 26.5124 15.733 26.9675C15.2061 27.7749 14.6958 28.5926 14.1875 29.4123C13.9767 29.7501 13.7825 30.1002 13.5924 30.4504C13.3713 30.8582 13.1605 31.2701 12.9539 31.6841C12.7948 32.0013 12.646 32.3246 12.5014 32.65C12.365 32.9528 12.239 33.2618 12.1109 33.5686C11.9455 33.96 11.7802 34.3492 11.6211 34.7426C11.5364 34.9506 11.4662 35.1628 11.3897 35.3749C11.179 35.9599 10.9517 36.5427 10.7616 37.1338C10.5963 37.6426 10.4702 38.1657 10.3277 38.6827C10.1768 39.2408 10.0136 39.7949 9.88134 40.3572C9.74496 40.9441 9.62718 41.5353 9.528 42.1284C9.39989 42.8884 9.28005 43.6484 9.18707 44.4126C9.10441 45.0984 9.03003 45.7904 9.01556 46.4804C8.99284 47.8954 9.0011 49.3124 9.00317 50.7253C9.00317 51.096 9.02796 51.4688 9.06722 51.8375C9.15607 52.6613 9.25939 53.4852 9.36063 54.309H9.3627ZM14.6152 55.5386C14.5408 54.8899 14.421 54.2452 14.3321 53.5964C14.2329 52.89 14.1461 52.1835 14.0511 51.4771C14.0242 51.2835 14.111 51.199 14.3011 51.1764C14.5181 51.1496 14.7288 51.0919 14.9458 51.0569C15.2144 51.0136 15.3177 51.1063 15.3528 51.3761C15.4066 51.786 15.4768 52.1959 15.5305 52.6057C15.5533 52.7705 15.6297 52.7993 15.7847 52.7767C16.6215 52.6552 17.4605 52.5501 18.2973 52.4286C18.8883 52.3421 19.4792 52.2494 20.066 52.1423C20.4937 52.0641 20.5702 52.1197 20.6012 52.546C20.6177 52.7684 20.6611 52.9909 20.7107 53.2092C20.7562 53.409 20.7024 53.5181 20.4896 53.547C19.9999 53.6149 19.5061 53.6706 19.0164 53.7426C18.3386 53.8436 17.6629 53.961 16.9873 54.0681C16.6505 54.1216 16.3116 54.171 15.9727 54.2122C15.7496 54.239 15.7248 54.3708 15.7537 54.5521C15.8095 54.9022 15.8777 55.2523 15.9128 55.6045C15.9521 55.9959 15.8797 56.0618 15.483 56.0762C15.4024 56.0803 15.3219 56.0762 15.2413 56.0762C14.6648 56.1174 14.6854 56.1153 14.6172 55.5366L14.6152 55.5386ZM18.0659 62.3272C17.7249 62.4487 17.3819 62.5702 17.041 62.6917C16.8488 62.7597 16.76 62.6299 16.7063 62.494C16.6091 62.2468 16.541 61.9873 16.4542 61.736C16.3984 61.5733 16.3343 61.4127 16.2744 61.252C16.1876 61.0172 16.2455 60.8339 16.4128 60.6383C16.915 60.0554 17.3902 59.4519 17.8799 58.8587C18.2787 58.3789 18.6858 57.9051 19.0804 57.4232C19.1238 57.3696 19.1197 57.279 19.1383 57.2049C19.0639 57.1946 18.9792 57.1575 18.9151 57.1802C18.3345 57.3841 17.7601 57.6024 17.1815 57.8104C16.9294 57.901 16.6691 57.9711 16.4149 58.0596C16.1484 58.1523 15.8839 58.247 15.6235 58.3541C15.4169 58.4386 15.264 58.3789 15.1958 58.1667C15.1028 57.8784 15.0078 57.5921 14.9086 57.3058C14.8528 57.1472 14.9169 57.0401 15.0925 56.9783C15.5843 56.8074 16.0719 56.6241 16.5658 56.4552C16.8323 56.3645 17.1051 56.3007 17.3737 56.2183C17.5741 56.1565 17.7704 56.0844 17.9688 56.0123C18.5618 55.7961 19.1527 55.5737 19.7478 55.3636C20.0288 55.2647 20.3181 55.1885 20.6033 55.102C20.7582 55.0546 20.8719 55.1247 20.9235 55.2565C21.062 55.6148 21.1736 55.9835 21.3161 56.3419C21.4546 56.6879 21.312 56.9454 21.095 57.1925C20.8368 57.487 20.5743 57.7795 20.3264 58.0823C19.8801 58.626 19.4441 59.18 19.004 59.7279C18.7994 59.9833 18.5928 60.2346 18.3882 60.49C18.351 60.5373 18.3283 60.595 18.2994 60.6465C18.3138 60.6589 18.3304 60.6712 18.3448 60.6856C18.7787 60.5312 19.2106 60.3726 19.6466 60.2243C20.066 60.0801 20.4876 59.9442 20.907 59.8041C21.2996 59.6723 21.6901 59.5364 22.0848 59.4107C22.248 59.3592 22.3637 59.4107 22.4257 59.5858C22.5249 59.8721 22.6406 60.1522 22.7419 60.4364C22.7894 60.5682 22.7729 60.6733 22.6138 60.7309C22.1592 60.8957 21.7129 61.0811 21.2562 61.2376C20.812 61.39 20.3553 61.5095 19.909 61.6619C19.4895 61.804 19.0783 61.9688 18.663 62.1212C18.4647 62.1933 18.2642 62.2592 18.0659 62.3292V62.3272ZM21.3533 68.9921C20.8615 68.8953 20.4338 68.6111 20.0557 68.2671C19.6445 67.8964 19.2994 67.47 19.0783 66.9716C18.787 66.3208 18.599 65.6535 18.7684 64.9037C18.8986 64.3271 19.1548 63.843 19.5205 63.4085C19.8511 63.0151 20.2809 62.7288 20.7479 62.5269C21.0971 62.3745 21.4752 62.2695 21.8513 62.1953C22.3782 62.0924 22.8762 62.2612 23.3555 62.4569C24.0333 62.7329 24.5313 63.2293 24.9239 63.8245C25.1119 64.1108 25.3288 64.393 25.3764 64.7575C25.3991 64.9264 25.49 65.0871 25.5148 65.2559C25.5396 65.4269 25.521 65.604 25.5231 65.7791C25.5851 66.7986 25.1202 67.5957 24.3804 68.228C23.5126 68.9736 22.4712 69.2125 21.3554 68.9921H21.3533ZM29.5131 70.9941C29.4759 71.2618 29.4139 71.5419 29.2899 71.7767C29.1143 72.1145 28.8911 72.4296 28.6535 72.7303C28.3869 73.0681 28.0253 73.2967 27.6534 73.5191C27.0253 73.8981 26.3517 73.929 25.6677 73.8446C25.0706 73.7704 24.5664 73.4677 24.0911 73.0969C23.7564 72.8374 23.4816 72.5388 23.2832 72.1742C23.1613 71.9497 23.0849 71.6984 22.9939 71.4575C22.9526 71.3483 22.903 71.2371 22.8968 71.1238C22.8906 71.0023 22.8948 70.8499 22.963 70.7675C23.0208 70.6975 23.1778 70.6851 23.2894 70.6913C23.5436 70.7036 23.7957 70.751 24.0498 70.7654C24.2131 70.7737 24.3019 70.8169 24.3288 70.9961C24.4238 71.649 24.8123 72.1186 25.4032 72.339C25.8392 72.5017 26.3207 72.4914 26.7856 72.271C27.174 72.0857 27.4819 71.8364 27.7319 71.4987C27.9923 71.1465 28.1121 70.751 28.0915 70.2794C28.1225 69.6512 27.7898 69.1836 27.2381 68.8829C27.0211 68.7655 26.7318 68.7532 26.4756 68.7429C26.3372 68.7367 26.2607 68.714 26.2359 68.5905C26.1616 68.228 26.0872 67.8655 26.0355 67.5009C26.0128 67.3382 26.0934 67.2188 26.2876 67.2208C26.9467 67.2249 27.5356 67.4103 28.0853 67.7893C28.5006 68.0756 28.8167 68.4381 29.0667 68.852C29.3064 69.2454 29.5379 69.6553 29.5296 70.1455C29.5234 70.4277 29.5503 70.716 29.5131 70.9941ZM35.3152 77.7496C35.1953 77.8361 35.0424 77.8938 34.8957 77.9247C34.7056 77.9638 34.6622 78.0627 34.685 78.2336C34.7242 78.5282 34.7635 78.8247 34.7862 79.1213C34.7924 79.2058 34.7614 79.3458 34.7098 79.3664C34.6333 79.3973 34.5197 79.3499 34.4267 79.3232C34.3523 79.3005 34.2862 79.247 34.2139 79.2202C34.0196 79.1522 33.9142 79.0142 33.8998 78.8165C33.8874 78.6435 33.8956 78.4664 33.8956 78.2934C33.8894 78.2934 33.8853 78.2934 33.8791 78.2934C33.8791 78.1265 33.8915 77.9556 33.8708 77.7908C33.8605 77.7146 33.7923 77.6054 33.7303 77.589C33.6766 77.5745 33.565 77.6528 33.5258 77.7167C33.4018 77.9206 33.2799 78.1286 33.1952 78.349C33.1167 78.5529 32.9865 78.5611 32.8129 78.5261C32.4079 78.4437 32.3294 78.2501 32.5174 77.8938C32.7385 77.4777 32.9266 77.0473 33.1311 76.623C33.3171 76.2379 33.503 75.8548 33.6952 75.4717C33.7655 75.3316 33.8915 75.3254 34.0155 75.3811C34.344 75.5314 34.6767 75.6776 34.9928 75.8527C35.1912 75.9639 35.3792 76.106 35.5445 76.2626C36.0942 76.7754 35.7264 77.4489 35.3131 77.7496H35.3152ZM38.8485 77.7537C38.8299 77.7846 38.8093 77.8155 38.7969 77.8485C38.6853 78.1389 38.5406 78.1904 38.2555 78.0606C38.0323 77.9576 37.8071 77.8629 37.5757 77.7826C37.3339 77.6981 37.148 77.8258 37.1459 78.0586C37.1459 78.178 37.1934 78.2316 37.3153 78.2707C37.6377 78.3737 37.9538 78.5014 38.2679 78.627C38.3195 78.6476 38.3981 78.73 38.3877 78.7568C38.3216 78.9463 38.239 79.1275 38.1522 79.3088C38.1418 79.3293 38.0675 79.3376 38.0323 79.3252C37.8278 79.2531 37.6294 79.1646 37.4228 79.0966C37.2513 79.041 37.0694 78.9772 36.8959 78.9813C36.836 78.9813 36.7595 79.179 36.7347 79.2943C36.7202 79.3602 36.7802 79.4879 36.838 79.5127C37.1872 79.6527 37.5426 79.7783 37.9001 79.8916C38.1212 79.9616 38.0633 80.1244 38.0468 80.2665C38.0075 80.594 37.7988 80.6908 37.5013 80.5569C37.2657 80.4498 37.0116 80.3777 36.7678 80.2891C36.4826 80.1861 36.1913 80.0955 35.9123 79.9781C35.6644 79.8731 35.6334 79.7248 35.7367 79.4797C35.8524 79.2017 35.9413 78.9154 36.0466 78.6332C36.1355 78.3984 36.2367 78.1657 36.3235 77.9309C36.4082 77.7022 36.4785 77.4654 36.5653 77.2368C36.6335 77.0596 36.7182 76.8887 36.7864 76.7342C37.1273 76.8434 37.4166 76.9319 37.7017 77.0267C37.9063 77.0947 38.1088 77.1729 38.3134 77.2491C38.4415 77.2965 38.5696 77.348 38.6997 77.3892C38.8919 77.451 38.9456 77.5807 38.8485 77.7558V77.7537ZM42.355 78.9215C42.2042 79.1975 41.8405 79.2408 41.5884 79.0534C41.2516 78.8021 40.8425 78.7156 40.4705 78.8783C40.08 79.0492 39.8569 79.4035 39.8631 79.8566C39.8734 80.6619 40.5284 80.8947 41.1628 80.7896C41.2247 80.7793 41.295 80.6063 41.2971 80.5095C41.2971 80.4354 41.2123 80.318 41.14 80.2933C40.8652 80.1964 40.8239 80.1038 40.9251 79.7063C40.9685 79.5374 41.0987 79.49 41.357 79.5518C41.5822 79.6053 41.8136 79.6424 42.0306 79.7166C42.1132 79.7454 42.2228 79.8546 42.2228 79.9308C42.2269 80.1532 42.1918 80.3798 42.1546 80.6001C42.1277 80.769 42.0636 80.9338 42.0368 81.1047C41.9851 81.426 41.8467 81.6176 41.5223 81.6382C40.7371 81.6876 39.9829 81.562 39.4229 80.9503C39.0944 80.5919 38.9518 80.1388 39.0634 79.6404C39.1151 79.4097 39.1647 79.1728 39.2618 78.9607C39.518 78.4005 39.9581 78.0956 40.5863 78.0627C41.1235 78.0359 41.6297 78.1203 42.0802 78.4314C42.1752 78.4973 42.2744 78.5714 42.3343 78.6641C42.3777 78.7321 42.3963 78.8598 42.3591 78.9236L42.355 78.9215ZM43.884 78.87C43.8592 79.0142 43.851 79.1584 43.8303 79.3026C43.7291 79.9699 43.6278 80.6372 43.5245 81.3045C43.5142 81.3766 43.5018 81.4487 43.4956 81.5208C43.4584 81.8668 43.4315 81.8874 43.0658 81.8586C42.7682 81.8339 42.7083 81.7638 42.7228 81.4528C42.7228 81.4096 42.7228 81.3663 42.7228 81.321L42.6959 81.3148C42.7414 81.0656 42.7868 80.8164 42.8344 80.5672C42.8468 80.5033 42.8674 80.4395 42.8757 80.3756C42.9459 79.836 43.0162 79.2964 43.0803 78.7547C43.1133 78.4705 43.2063 78.4066 43.5617 78.452C43.8097 78.4828 43.9274 78.6373 43.8882 78.87H43.884ZM45.5577 80.0255C45.7933 80.1635 46.0474 80.2727 46.3016 80.3777C46.5929 80.4992 46.719 80.7155 46.7417 81.0182C46.7913 81.6835 46.5578 81.9306 46.0702 82.1655C45.721 82.3323 45.2788 82.2993 44.8924 82.149C44.7333 82.0872 44.5928 81.978 44.4481 81.8833C44.4089 81.8565 44.3614 81.8091 44.3572 81.7679C44.3386 81.5434 44.5287 81.4487 44.6568 81.3148C44.7581 81.2077 44.8655 81.1912 44.9812 81.288C45.1507 81.4322 45.3449 81.4858 45.566 81.4858C45.754 81.4858 45.8883 81.4034 45.94 81.2427C45.9916 81.0862 45.8511 81.0162 45.7292 80.9544C45.504 80.8432 45.2705 80.7422 45.0536 80.6146C44.787 80.4601 44.5452 80.285 44.5184 79.9287C44.4853 79.5106 44.6486 79.2058 44.9792 78.9566C45.2354 78.765 45.5185 78.7547 45.8119 78.7588C45.8181 78.7403 45.8243 78.7218 45.8305 78.7012C46.097 78.7835 46.3718 78.8474 46.626 78.9566C46.8843 79.0657 46.9008 79.2099 46.7128 79.4097C46.6384 79.4879 46.5661 79.5827 46.471 79.628C46.3925 79.6651 46.2479 79.6795 46.1962 79.6342C45.9999 79.4632 45.7809 79.5188 45.5701 79.5394C45.5123 79.5456 45.4172 79.6712 45.4214 79.7372C45.4296 79.8381 45.4813 79.9781 45.5598 80.0255H45.5577ZM49.7709 79.5147C49.6986 79.5188 49.6242 79.5188 49.5518 79.5209C49.1716 79.5332 49.1262 79.5703 49.1365 79.9596C49.1531 80.5342 49.1861 81.1068 49.2068 81.6814C49.2109 81.7906 49.2192 81.908 49.182 82.0048C49.151 82.0851 49.0539 82.1387 48.9836 82.2025C48.9754 82.2108 48.9547 82.2066 48.9402 82.2087C48.3906 82.2746 48.341 82.2314 48.3389 81.6794C48.3389 81.424 48.3369 81.1686 48.3348 80.9153C48.3286 80.9153 48.3245 80.9153 48.3183 80.9153C48.3183 80.5651 48.3203 80.215 48.3121 79.8669C48.3059 79.5909 48.2687 79.5724 48.0001 79.5889C47.8554 79.5971 47.7087 79.5827 47.5641 79.5683C47.5186 79.5641 47.4649 79.5312 47.438 79.4962C47.2541 79.249 47.4277 78.8412 47.7397 78.8268C48.2356 78.8041 48.7336 78.8083 49.2295 78.8021C49.4051 78.8 49.5808 78.7959 49.7564 78.8021C50.0064 78.8124 50.0973 78.9257 50.0932 79.2099C50.0911 79.4509 50.0354 79.5024 49.7709 79.5127V79.5147ZM53.4055 81.6917C53.2567 81.7473 53.0997 81.7885 52.9426 81.8091C52.4508 81.875 51.957 81.9245 51.4673 81.9924C51.2896 82.0172 51.2069 81.9657 51.1863 81.7865C51.1326 81.3395 51.0768 80.8926 51.0106 80.4477C50.9507 80.0461 50.8722 79.6486 50.804 79.249C50.804 78.592 50.804 78.6085 51.4528 78.5632C51.864 78.5343 52.2711 78.4478 52.6823 78.3984C52.9777 78.3634 53.236 78.6764 53.1472 78.9689C53.1286 79.0328 53.0335 79.1049 52.9633 79.1193C52.6285 79.1872 52.2876 79.2346 51.9508 79.2943C51.8392 79.3149 51.6801 79.2861 51.707 79.4879C51.7483 79.7907 51.7896 79.836 52.0314 79.7969C52.2545 79.7619 52.4756 79.7083 52.7009 79.6774C53.143 79.6177 53.3352 79.8401 53.2092 80.2706C53.1926 80.3262 53.1017 80.388 53.0377 80.4004C52.7029 80.4642 52.362 80.5054 52.0272 80.5734C51.957 80.5878 51.8516 80.6722 51.8475 80.732C51.831 80.9647 51.9446 81.115 52.1182 81.1027C52.4674 81.078 52.8186 81.0533 53.1616 80.9873C53.3703 80.9482 53.4736 81.0265 53.5398 81.1871C53.6369 81.4219 53.5832 81.6279 53.4096 81.6938L53.4055 81.6917ZM56.7425 81.078C56.571 81.1068 56.3912 81.1418 56.2218 81.1212C56.1164 81.1089 56.0048 81.01 55.9263 80.9256C55.7238 80.7072 55.542 80.4724 55.3436 80.2521C55.2837 80.1861 55.1907 80.1491 55.0502 80.0564C55.0213 80.2006 54.9758 80.2974 54.9903 80.3839C55.0358 80.6537 55.1019 80.9214 55.1639 81.1892C55.199 81.3416 55.1783 81.4487 54.9924 81.4652C54.9056 81.4734 54.8188 81.492 54.7361 81.5208C54.5275 81.5908 54.3601 81.5126 54.3146 81.3045C54.232 80.9153 54.1638 80.5239 54.0749 80.1367C53.9902 79.7701 53.8807 79.4097 53.7919 79.0431C53.7485 78.868 53.7195 78.6867 53.7051 78.5055C53.6927 78.3428 53.796 78.2501 53.953 78.2233C54.4097 78.143 54.8663 78.0627 55.325 77.9906C56.1288 77.865 56.5462 78.5879 56.4326 79.2016C56.4036 79.3623 56.2838 79.5168 56.1743 79.6465C56.0482 79.7969 56.0524 79.9019 56.1929 80.0379C56.4222 80.2603 56.6413 80.4951 56.8582 80.732C57.0173 80.905 56.9719 81.043 56.7404 81.0821L56.7425 81.078ZM60.0506 79.9596C59.6126 80.1079 59.1704 80.2418 58.7323 80.3859C58.5877 80.4333 58.4534 80.5136 58.3067 80.5466C58.0649 80.6022 57.9616 80.5136 57.8914 80.283C57.8004 79.9864 57.6827 79.7001 57.5814 79.4056C57.4967 79.1605 57.4202 78.9133 57.3355 78.6682C57.2487 78.4149 57.1764 78.1554 57.0648 77.9144C56.9099 77.5725 56.9491 77.4407 57.2983 77.315C57.8087 77.1338 58.3211 76.9525 58.8315 76.7713C59.0319 76.6992 59.1167 76.7466 59.1828 76.9546C59.1993 77.0081 59.2303 77.0596 59.2592 77.1091C59.3853 77.3171 59.3398 77.4098 59.1063 77.4839C58.7406 77.6034 58.3811 77.7373 58.0195 77.867C57.9905 77.8773 57.943 77.9226 57.9492 77.937C57.9967 78.0647 58.0381 78.1986 58.1145 78.3078C58.1434 78.349 58.2654 78.3551 58.3315 78.3325C58.5774 78.2501 58.8212 78.1574 59.0609 78.0544C59.3274 77.9391 59.47 77.9906 59.5588 78.2542C59.5692 78.281 59.5774 78.3098 59.5898 78.3366C59.7179 78.6353 59.6787 78.6723 59.3584 78.7629C59.0712 78.8433 58.7964 78.971 58.5257 79.0987C58.3439 79.1852 58.4616 79.3479 58.4864 79.4694C58.5009 79.5353 58.6022 79.5827 58.6517 79.628C58.9493 79.5291 59.2014 79.4426 59.4555 79.3602C59.6126 79.3088 59.7696 79.2264 59.9287 79.2243C60.1477 79.2202 60.1829 79.4323 60.2366 79.593C60.2944 79.766 60.2242 79.9019 60.0547 79.9596H60.0506ZM63.3236 77.3851C63.2947 78.0833 62.9289 78.5735 62.3359 78.9092C62.0219 79.0863 61.6954 79.2408 61.3751 79.4076C61.1726 79.5126 61.03 79.4467 60.9329 79.2408C60.7263 78.8062 60.4969 78.384 60.2862 77.9515C60.1374 77.6487 60.0031 77.3398 59.8605 77.0329C59.8233 76.9546 59.7799 76.8805 59.7365 76.8063C59.6188 76.6065 59.6808 76.45 59.8853 76.3594C60.1808 76.2296 60.4659 76.0793 60.7614 75.9474C61.5631 75.5911 62.1686 75.5149 62.8794 76.2337C63.1666 76.5241 63.3649 76.9237 63.3257 77.383L63.3236 77.3851ZM74.8018 69.6079C74.4154 70.0219 74.0104 70.4174 73.6178 70.8252C73.5021 70.9446 73.4029 70.9199 73.2686 70.854C72.9318 70.6892 72.5847 70.543 72.2417 70.3906C71.7912 70.1887 71.3408 69.9848 70.8883 69.783C70.5701 69.6409 70.2518 69.5008 69.9295 69.3669C69.8778 69.3464 69.8097 69.3649 69.694 69.3669C69.8076 69.6079 69.8964 69.8118 69.9977 70.0075C70.2126 70.4256 70.4378 70.8396 70.6527 71.2577C70.9296 71.7994 71.2044 72.341 71.4689 72.8889C71.4999 72.9528 71.4895 73.0805 71.4462 73.1299C71.1238 73.4944 70.7932 73.8507 70.4543 74.1988C70.3366 74.3224 70.1919 74.4975 70.0555 74.5016C69.9357 74.5057 69.8076 74.3059 69.6857 74.1926C69.0183 73.5665 68.3509 72.9383 67.6835 72.3102C67.0222 71.6881 66.3672 71.062 65.6978 70.4482C65.5449 70.3082 65.5573 70.1846 65.6709 70.0569C65.8817 69.8262 66.1028 69.6059 66.3259 69.3855C66.4396 69.2722 66.5677 69.2825 66.6772 69.3855C67.1772 69.8613 67.6669 70.3453 68.1711 70.8149C68.6691 71.2783 69.1794 71.7252 69.7105 72.2031C69.7187 72.1351 69.7415 72.0898 69.727 72.063C69.3654 71.373 69.0038 70.6851 68.6339 69.9993C68.3695 69.5091 68.0947 69.023 67.8281 68.5349C67.762 68.4133 67.6897 68.2918 67.6504 68.1621C67.6297 68.09 67.6463 67.9788 67.6917 67.9211C67.8467 67.7295 68.0079 67.538 68.1918 67.3753C68.3488 67.2373 68.541 67.3073 68.7104 67.3856C69.3282 67.6698 69.944 67.9582 70.5597 68.2506C70.9895 68.4545 71.4131 68.677 71.8449 68.8768C72.0412 68.9674 72.252 69.0292 72.4545 69.1033C72.469 69.0807 72.4855 69.0559 72.5 69.0333C72.283 68.8273 72.066 68.6214 71.8491 68.4154C71.1982 67.7934 70.5473 67.1714 69.8923 66.5514C69.8035 66.467 69.7001 66.3949 69.5989 66.3249C69.4357 66.2116 69.4584 66.0695 69.5576 65.948C69.7601 65.7029 69.9853 65.4763 70.1981 65.2395C70.3428 65.0768 70.4853 65.1262 70.6134 65.2498C71.0866 65.7008 71.5515 66.1622 72.0268 66.6091C72.5702 67.122 73.1219 67.6245 73.6695 68.1353C74.0269 68.4669 74.3844 68.8006 74.7357 69.1363C74.9464 69.3361 74.9671 69.4226 74.7956 69.6059L74.8018 69.6079ZM77.9942 64.5701C77.9343 64.7369 77.802 64.877 77.7235 65.0397C77.6595 65.1674 77.5685 65.1983 77.4404 65.19C77.1842 65.1756 76.9301 65.1653 76.6738 65.155C76.6738 65.1653 76.6738 65.1756 76.6718 65.1839C76.2234 65.1324 75.775 65.0706 75.3246 65.0335C74.8225 64.9923 74.3183 64.9882 73.8162 64.947C72.8863 64.8728 71.9586 64.7843 71.0308 64.6978C70.8325 64.6792 70.7808 64.568 70.8759 64.395C71.0453 64.084 71.2085 63.7689 71.3862 63.4641C71.4648 63.3281 71.5805 63.254 71.7685 63.2808C72.0991 63.3302 72.438 63.3384 72.7727 63.3673C73.0021 63.3879 73.0434 63.186 73.1178 63.0542C73.4174 62.5166 73.7025 61.9708 73.9794 61.423C74.0104 61.3612 73.9877 61.2376 73.9422 61.1779C73.7211 60.8895 73.4773 60.6197 73.2583 60.3293C73.2066 60.2593 73.1839 60.1192 73.219 60.043C73.3719 59.7156 73.5455 59.3963 73.7232 59.0791C73.8265 58.8917 73.9546 58.9041 74.0848 59.075C74.248 59.2872 74.4381 59.4787 74.6055 59.6867C74.9754 60.1501 75.3349 60.6218 75.7048 61.0831C76.3474 61.8802 76.9941 62.6732 77.6409 63.4661C77.7772 63.635 77.9012 63.8142 78.05 63.9728C78.2607 64.1952 78.0644 64.3785 78.0004 64.5639L77.9942 64.5701ZM81.3829 55.3491C81.2775 55.7261 81.1907 56.1071 81.0812 56.4819C80.9304 57.003 80.7527 57.5159 80.6163 58.039C80.5192 58.4098 80.3043 58.696 80.0336 58.937C79.7299 59.2068 79.3724 59.384 78.9054 59.3901C78.2442 59.3036 77.5809 59.1265 77.2028 58.453C77.0912 58.2532 77.0334 58.0205 76.9776 57.796C76.9363 57.6353 76.8619 57.5921 76.711 57.6395C76.2193 57.796 75.7296 57.9587 75.2357 58.107C74.932 58.1976 74.6241 58.2821 74.3121 58.3397C74.0889 58.3809 74.0352 58.2738 74.1055 58.0555C74.2088 57.726 74.3059 57.3923 74.3803 57.0545C74.4257 56.8444 74.5394 56.7435 74.7377 56.6982C75.1903 56.5952 75.6428 56.4819 76.0932 56.3728C76.4114 56.2966 76.7296 56.2224 77.0478 56.1442C77.2483 56.0947 77.302 55.9629 77.2875 55.6313C77.2793 55.4418 77.1388 55.4748 77.0251 55.4439C76.6697 55.3471 76.3164 55.24 75.961 55.1411C75.8701 55.1164 75.7729 55.1123 75.682 55.0876C75.4651 55.0299 75.246 54.9743 75.0373 54.8981C74.9919 54.8816 74.9444 54.7622 74.9588 54.7086C75.0477 54.375 75.1551 54.0454 75.2584 53.7138C75.306 53.5614 75.3783 53.5223 75.5498 53.5779C75.8721 53.6788 76.2131 53.7303 76.5416 53.8127C76.9073 53.9054 77.2689 54.0125 77.6326 54.1093C77.8991 54.1813 78.1657 54.2534 78.4343 54.3173C79.0129 54.4553 79.5956 54.5809 80.1741 54.7271C80.5316 54.8178 80.8808 54.9372 81.2362 55.034C81.4242 55.0855 81.4284 55.1947 81.385 55.3491H81.3829ZM82.0193 50.2063C81.9367 50.7068 81.8995 51.2196 81.7528 51.7016C81.6494 52.0435 81.4118 52.3503 81.2073 52.6572C81.1267 52.7787 80.982 52.7993 80.8519 52.6634C80.6432 52.441 80.4241 52.2288 80.2051 52.0167C80.0625 51.8766 80.0315 51.7283 80.1659 51.5759C80.5564 51.1352 80.6452 50.6017 80.6039 50.0477C80.5626 49.4998 80.3725 48.9911 79.8807 48.6945C79.3559 48.3794 78.7897 48.2187 78.1533 48.367C77.6946 48.4741 77.333 48.6863 77.0437 49.0446C76.8309 49.3062 76.6924 49.6007 76.6924 49.9385C76.6924 50.3154 76.711 50.6965 76.7565 51.0713C76.7937 51.3658 76.9466 51.4626 77.2503 51.4626C77.6264 51.4626 77.8447 51.2773 77.9053 50.9065C77.9115 50.8633 77.9157 50.82 77.9177 50.7768C77.9329 50.5132 78.0768 50.38 78.3496 50.3772C78.548 50.3772 78.7443 50.3772 78.9426 50.3793C79.1368 50.3793 79.2484 50.4781 79.2464 50.6738C79.236 51.2855 79.234 51.8972 79.2009 52.5089C79.1823 52.8467 79.0707 52.927 78.7381 52.9147C77.8847 52.8838 77.0313 52.8488 76.1779 52.8117C75.8804 52.7993 75.7337 52.6964 75.6531 52.3792C75.5188 51.8396 75.3824 51.2958 75.3039 50.7459C75.1965 49.9941 75.3452 49.2547 75.6634 48.5771C75.9692 47.9221 76.459 47.4196 77.1636 47.1292C77.7731 46.88 78.3827 46.7337 79.0335 46.8285C80.1101 46.983 81.0048 47.4423 81.5461 48.4226C81.7714 48.8304 82.009 49.4978 82.0172 50.2125L82.0193 50.2063ZM80.5626 40.3819C80.9076 40.8659 81.1804 41.3973 81.23 42.0131C81.2486 42.2499 81.3436 42.4847 81.3354 42.7195C81.2961 43.8873 80.8353 44.841 79.8208 45.4733C79.6224 45.5968 79.3683 45.6298 79.1658 45.7472C78.8062 45.9531 78.4033 45.9264 78.019 45.9943C77.5892 46.0705 77.1573 45.9614 76.7668 45.7966C76.397 45.6421 76.0498 45.4156 75.7316 45.1726C75.5312 45.0181 75.3659 44.7936 75.244 44.567C75.0497 44.2148 74.8473 43.8482 74.7543 43.4631C74.6551 43.045 74.6758 42.598 74.6489 42.1634C74.6468 42.1202 74.6654 42.0769 74.6634 42.0337C74.6386 41.5579 74.8245 41.146 75.0518 40.7423C75.3308 40.2439 75.742 39.8834 76.2317 39.6136C76.4982 39.4674 76.7834 39.3418 77.0768 39.2656C77.364 39.1935 77.6698 39.1976 77.9239 39.1729C79.0356 39.1482 79.9365 39.5024 80.5667 40.3819H80.5626ZM77.5313 32.7716C77.7194 32.7057 77.833 32.788 77.9115 32.9796C78.0624 33.34 78.2298 33.6922 78.3909 34.0465C78.7009 34.7261 79.0645 35.3852 79.1596 36.1411C79.1658 36.1926 79.1699 36.242 79.174 36.2709C79.1141 36.9629 78.8 37.4572 78.2132 37.8053C77.9033 37.9906 77.5623 38.0566 77.2359 38.0792C76.8412 38.106 76.4466 37.968 76.1366 37.6817C75.8453 37.4119 75.8473 37.4181 75.6345 37.7456C75.2502 38.3346 74.8555 38.9154 74.465 39.5003C74.4257 39.5601 74.3865 39.6219 74.3369 39.6754C74.2935 39.7248 74.2315 39.8031 74.186 39.7969C74.1179 39.7887 74.029 39.7331 74.0001 39.6734C73.812 39.282 73.6219 38.8886 73.4732 38.4829C73.4401 38.3923 73.5476 38.2275 73.6261 38.1225C73.9815 37.6529 74.3493 37.1956 74.7109 36.7322C74.8039 36.6128 74.8968 36.4912 74.9816 36.3656C75.1055 36.1823 75.0931 35.9248 74.9506 35.756C74.839 35.6241 74.7005 35.6674 74.5704 35.7271C74.0703 35.9557 73.5724 36.1864 73.0744 36.4171C73.0083 36.448 72.9483 36.4912 72.8843 36.5242C72.7004 36.6169 72.5661 36.5613 72.4814 36.3759C72.3822 36.1596 72.2768 35.9454 72.1652 35.7333C72.0164 35.447 72.1053 35.2452 72.4028 35.1216C72.7562 34.9754 73.0971 34.7982 73.4463 34.6417C73.7976 34.4852 74.153 34.3389 74.5042 34.1865C74.6572 34.1206 74.8039 34.0444 74.9568 33.9744C75.3514 33.7952 75.7502 33.6242 76.1407 33.4368C76.4465 33.2926 76.7441 33.1279 77.0478 32.9775C77.2028 32.9013 77.3619 32.8292 77.5252 32.7716H77.5313ZM72.1549 29.2331C72.6942 28.85 73.2376 28.4752 73.779 28.0962C73.9278 27.9932 74.0683 27.8758 74.2294 27.7934C74.2873 27.7626 74.4257 27.7852 74.4629 27.8326C74.7233 28.1786 74.9671 28.539 75.2192 28.8933C75.4175 29.1713 75.6283 29.4391 75.8184 29.7213C76.1304 30.1826 76.3474 30.6852 76.428 31.2268C76.3536 31.7912 76.1345 32.269 75.6696 32.5841C75.368 32.788 75.0332 32.9569 74.6923 33.0887C74.5229 33.1526 74.2935 33.1341 74.1117 33.0846C73.6591 32.9569 73.2624 32.7324 72.9731 32.337C72.7045 31.9704 72.4049 31.6243 72.1239 31.266C72.033 31.1527 71.9317 31.1651 71.8367 31.2351C71.316 31.6038 70.7953 31.9724 70.2808 32.3493C70.1299 32.4585 70.0163 32.4812 69.8964 32.3102C69.7022 32.0322 69.4853 31.7665 69.3034 31.4781C69.2662 31.4204 69.3076 31.2474 69.3675 31.2042C69.8262 30.8746 70.3056 30.5698 70.7684 30.2444C71.2375 29.9149 71.692 29.5668 72.157 29.2352L72.1549 29.2331ZM66.1875 26.6977C66.33 26.7595 66.4788 26.8131 66.6297 26.8501C66.8755 26.9099 67.0677 26.7781 67.14 26.5783C67.1999 26.4114 67.2041 26.1705 67.1276 26.0181C66.9003 25.5691 66.6173 25.1468 66.3569 24.7123C66.109 24.2983 66.0366 23.8431 66.142 23.3838C66.2205 23.0501 66.4664 22.7947 66.7082 22.5476C67.0326 22.216 67.4603 22.1089 67.8736 22.0677C68.2021 22.0368 68.5596 22.1563 68.8819 22.2695C69.4067 22.4549 69.8241 22.8153 70.1775 23.2396C70.4213 23.53 70.6238 23.8493 70.6816 24.2365C70.7085 24.4239 70.6424 24.5145 70.4378 24.5331C70.1919 24.5557 69.9502 24.6216 69.7063 24.6628C69.415 24.7123 69.3014 24.6525 69.2125 24.3724C69.0741 23.9255 68.7621 23.6577 68.3405 23.4971C68.0864 23.3982 67.8736 23.4641 67.669 23.7175C67.5285 23.8946 67.5657 24.0882 67.6752 24.2694C67.9231 24.6793 68.167 25.0892 68.4232 25.4929C68.6918 25.9171 68.7703 26.3908 68.6463 26.8543C68.5224 27.3156 68.2124 27.6966 67.793 27.9438C67.5595 28.0818 67.2909 28.1724 67.0264 28.2486C66.6483 28.3578 66.2681 28.2322 65.9395 28.088C65.5614 27.9232 65.2101 27.6637 64.896 27.3898C64.6378 27.1653 64.4229 26.8749 64.2431 26.5824C64.1026 26.3538 64.0385 26.0757 63.9621 25.8142C63.9228 25.6865 63.9889 25.5917 64.1357 25.5649C64.4146 25.5114 64.6915 25.4517 64.9704 25.394C64.9704 25.4043 64.9746 25.4125 64.9766 25.4228C65.0283 25.4187 65.0799 25.4228 65.1295 25.4125C65.3362 25.359 65.392 25.4455 65.4415 25.6473C65.5531 26.084 65.7205 26.5041 66.1833 26.7018L66.1875 26.6977ZM60.3048 19.5653C60.6147 18.9844 60.9143 18.3974 61.2346 17.8228C61.2635 17.7713 61.4226 17.7404 61.4887 17.7713C61.8111 17.9196 62.1252 18.0885 62.4372 18.2595C62.838 18.4778 63.241 18.6961 63.6335 18.9309C64.2762 19.314 64.8134 19.8145 65.1481 20.488C65.3238 20.8422 65.4725 21.2253 65.4105 21.5837C65.4395 22.2551 65.2039 22.7865 64.9229 23.3117C64.7183 23.6927 64.458 24.0202 64.1088 24.2612C63.7761 24.4898 63.4269 24.702 63.0075 24.7493C62.8339 24.7699 62.6645 24.8255 62.4909 24.842C62.3483 24.8544 62.2016 24.8441 62.0611 24.8173C61.683 24.7452 61.3007 24.6855 60.935 24.5701C60.6188 24.4692 60.3234 24.3044 60.0238 24.1582C59.7014 23.9996 59.3811 23.8307 59.065 23.6598C58.8563 23.5465 58.6497 23.4229 58.4513 23.2932C58.4183 23.2726 58.3935 23.182 58.41 23.1469C58.5298 22.9018 58.6641 22.6629 58.7923 22.4199C58.9493 22.1192 59.1043 21.8185 59.2613 21.5178C59.3915 21.2665 59.5216 21.0152 59.656 20.7681C59.8729 20.3685 60.0961 19.971 60.3089 19.5694L60.3048 19.5653ZM52.6823 18.0061C52.8703 17.4315 53.205 16.9557 53.672 16.5809C54.1452 16.1998 54.6866 15.9547 55.3044 15.9321C55.604 15.9197 55.9098 15.8971 56.2011 15.9465C56.5565 16.0062 56.9016 16.1257 57.2446 16.2431C57.7839 16.4305 58.2447 16.7518 58.5939 17.1987C58.7964 17.4562 58.9204 17.7713 59.0857 18.0576C59.2861 18.4057 59.2592 18.7867 59.2572 19.2316C59.3316 19.8536 59.0939 20.4632 58.7778 21.0544C58.4389 21.6928 57.9017 22.1171 57.2549 22.389C56.6805 22.632 56.0544 22.6835 55.4449 22.5764C54.4593 22.4034 53.5873 21.975 52.9819 21.1512C52.7773 20.8731 52.6761 20.5189 52.5438 20.1934C52.4798 20.0348 52.4405 19.8598 52.4157 19.6909C52.3331 19.106 52.4984 18.556 52.6761 18.0082L52.6823 18.0061ZM44.8221 17.5818C45.0122 16.55 45.597 15.7591 46.5681 15.3039C47.062 15.0732 47.5971 14.9929 48.1468 15.0011C48.4443 15.0238 48.7481 15.0155 49.0394 15.0732C49.5477 15.1762 50.0354 15.3492 50.4176 15.7199C50.6242 15.9197 50.8515 16.1113 51.0127 16.3461C51.2503 16.6941 51.4756 17.0608 51.5065 17.5077C51.5231 17.7384 51.6099 17.967 51.6078 18.1956C51.6016 18.9865 51.459 19.7527 50.9404 20.3788C50.5519 20.8505 50.0829 21.2191 49.4713 21.4189C48.7894 21.6414 48.1054 21.6578 47.4194 21.5507C46.4648 21.4004 45.7106 20.8978 45.2085 20.0699C44.7415 19.2996 44.6651 18.4386 44.8221 17.5818ZM37.7823 18.4448C37.9373 17.5901 38.2906 16.8321 39.0696 16.3378C39.4643 16.0866 39.8651 15.8641 40.3342 15.7838C40.7185 15.7179 41.1008 15.6396 41.483 15.5655C41.9397 15.6108 42.3819 15.6108 42.7992 15.8167C42.9811 15.9074 43.0617 16.0412 42.9645 16.2204C42.7951 16.5314 42.6133 16.8383 42.4232 17.137C42.3984 17.174 42.2889 17.1782 42.2248 17.1658C41.9045 17.1081 41.5843 16.9845 41.2661 16.9866C40.6379 16.9928 40.0594 17.1967 39.642 17.6931C39.4209 17.9567 39.299 18.2945 39.2783 18.6343C39.2349 19.4025 39.4395 20.0925 40.0759 20.5848C40.2474 20.7166 40.4726 20.7825 40.6751 20.8731C40.7144 20.8896 40.7619 20.8875 40.8032 20.8978C41.5016 21.0647 42.0946 20.8072 42.6608 20.4427C42.8054 20.3479 42.8323 20.1502 42.7455 19.971C42.7125 19.901 42.6773 19.8268 42.6649 19.7506C42.605 19.4087 42.5967 19.3964 42.2599 19.4561C42.1463 19.4767 42.0389 19.5282 41.9293 19.5653C41.638 19.66 41.481 19.5838 41.4004 19.2913C41.3301 19.0401 41.2723 18.7867 41.2227 18.5293C41.2123 18.4757 41.2578 18.383 41.3033 18.3563C41.4148 18.2903 41.5388 18.2347 41.6649 18.2038C42.0037 18.1194 42.3467 18.0514 42.6877 17.9752C42.8716 17.934 43.0575 17.899 43.2352 17.8413C43.5431 17.7404 43.6691 17.8249 43.7353 18.1379C43.82 18.5354 43.9357 18.9247 44.039 19.3181C44.0473 19.3531 44.0576 19.3881 44.0659 19.4231C44.1651 19.8742 44.2622 20.3273 44.3655 20.7784C44.4089 20.9658 44.32 21.11 44.1857 21.1924C43.8365 21.4107 43.4852 21.6311 43.1092 21.7938C42.667 21.9853 42.2083 22.1686 41.7372 22.2572C41.2185 22.356 40.6875 22.3663 40.1565 22.2098C39.7411 22.0883 39.3713 21.9132 39.0324 21.6558C38.5944 21.3201 38.2927 20.8875 38.0819 20.3788C37.8236 19.7568 37.6625 19.1121 37.7844 18.4469L37.7823 18.4448ZM35.2036 28.1395C35.7842 27.7749 36.4062 27.4742 37.0178 27.157C37.4744 26.9202 37.929 26.6792 38.4022 26.4815C38.9374 26.257 39.4891 26.0737 40.0366 25.8842C40.5222 25.7153 41.0078 25.5485 41.4996 25.4002C41.8116 25.3054 42.1339 25.2436 42.4542 25.1716C42.9418 25.0645 43.4315 24.9615 43.9192 24.8564C43.9481 24.8502 43.975 24.84 44.0039 24.8358C44.692 24.7617 45.38 24.6422 46.0722 24.6237C47.374 24.5866 48.6757 24.601 49.9775 24.6072C50.2379 24.6072 50.4982 24.669 50.7586 24.704C50.8226 24.7123 50.8867 24.7329 50.9528 24.7411C51.5437 24.8173 52.1388 24.8791 52.7277 24.9738C53.0687 25.0294 53.4013 25.1427 53.7381 25.2313C54.0171 25.3054 54.2981 25.3755 54.577 25.4558C54.9469 25.5608 55.3147 25.67 55.6804 25.7874C56.0813 25.9151 56.4822 26.0448 56.8747 26.1931C57.2384 26.3311 57.5938 26.4979 57.9513 26.6545C58.2757 26.7987 58.6022 26.9408 58.9204 27.0973C59.2716 27.2703 59.6208 27.4495 59.9597 27.6431C60.3172 27.847 60.6684 28.0653 61.0114 28.2898C61.5755 28.6606 62.15 29.0189 62.6872 29.4267C63.3463 29.9272 63.9889 30.4524 64.6006 31.0085C65.1853 31.542 65.7515 32.1022 66.2681 32.6995C66.921 33.4554 67.5388 34.2483 68.1277 35.0557C68.4976 35.5624 68.791 36.1246 69.1133 36.6642C69.3179 37.0061 69.5307 37.3419 69.7125 37.6961C69.9543 38.1657 70.1713 38.6477 70.3923 39.1296C70.5556 39.4839 70.7209 39.8402 70.8593 40.2047C71.0164 40.6167 71.1424 41.0409 71.2809 41.4611C71.3842 41.7762 71.4895 42.0914 71.5867 42.4085C71.6528 42.631 71.7127 42.8555 71.7623 43.082C71.8491 43.4713 71.9359 43.8585 72.0061 44.2519C72.1177 44.8883 72.2169 45.5247 72.3223 46.1632C72.3347 46.2353 72.3553 46.3074 72.3595 46.3795C72.4318 48.0128 72.471 49.6461 72.3636 51.2773C72.3347 51.7119 72.2768 52.1464 72.2045 52.5748C72.128 53.0238 72.0185 53.4667 71.9235 53.9136C71.847 54.2761 71.7871 54.6406 71.6982 54.999C71.6156 55.3286 71.5061 55.6499 71.4069 55.9732C71.3284 56.2286 71.2519 56.4861 71.1651 56.7394C71.0763 56.9989 70.9771 57.2522 70.88 57.5097C70.8056 57.7054 70.7374 57.9051 70.6527 58.0946C70.3676 58.7269 70.0907 59.3654 69.7787 59.9833C69.4894 60.5579 69.1856 61.1305 68.8364 61.6701C68.3095 62.4837 67.7785 63.3014 67.171 64.0572C66.5346 64.8481 65.8217 65.5793 65.1151 66.3084C64.6915 66.7471 64.2183 67.1364 63.7617 67.5421C63.5674 67.7151 63.3649 67.884 63.15 68.0303C63.0571 68.0941 62.898 68.1477 62.805 68.1106C62.3773 67.9396 61.8958 67.8408 61.5693 67.5009C61.3048 67.227 61.1953 66.8686 61.309 66.4711C61.3544 66.3125 61.373 66.1436 61.4123 65.983C61.5094 65.5896 61.6086 65.1983 61.714 64.8069C61.776 64.5763 61.8524 64.3497 61.9103 64.119C61.9888 63.8039 62.0508 63.4847 62.1314 63.1695C62.2223 62.8153 62.3297 62.4631 62.4372 62.0779C61.7884 62.2571 61.1767 62.426 60.561 62.5949C60.1994 62.6938 59.8419 62.8276 59.4721 62.875C59.0919 62.9244 58.6786 62.9739 58.3232 62.8709C57.8934 62.7494 57.5938 62.3931 57.4285 61.9523C57.3045 61.6207 57.1661 61.2932 57.0153 60.974C56.9574 60.8545 56.8458 60.8195 56.7363 60.9472C56.476 61.25 56.2115 61.5507 55.947 61.8493C55.5048 62.3498 55.0626 62.8503 54.6204 63.3508C54.2423 63.7812 53.8952 64.2447 53.4778 64.6319C53.0852 64.9964 52.7381 64.9532 52.455 64.5083C52.2876 64.2426 52.3579 63.9007 52.455 63.5938C52.4756 63.532 52.5128 63.4744 52.5252 63.4105C52.5975 62.9821 52.6554 62.5517 52.7381 62.1233C52.8228 61.6907 52.9302 61.2623 53.0253 60.8319C53.0501 60.7186 53.0604 60.6012 53.0769 60.4879C53.0914 60.3808 53.1038 60.2717 53.1224 60.1646C53.1678 59.9298 53.2133 59.697 53.265 59.4643C53.36 59.0338 53.4613 58.6034 53.5584 58.175C53.5625 58.1544 53.5749 58.1338 53.577 58.1132C53.6513 57.6559 53.7195 57.1987 53.8022 56.7435C53.8394 56.5396 53.9055 56.3398 53.9448 56.1359C53.9551 56.0824 53.9324 55.9835 53.8972 55.9691C53.8497 55.9506 53.7712 55.9794 53.7175 56.0103C53.1244 56.3584 52.5376 56.7167 51.9425 57.0586C51.7256 57.1843 51.4962 57.2934 51.2586 57.3738C51.0292 57.452 50.8557 57.3099 50.7482 57.1266C50.5416 56.7703 50.3618 56.4016 50.1676 56.0371C50.0147 55.7508 49.8556 55.4686 49.7068 55.1823C49.6138 55.0031 49.5333 54.8178 49.4423 54.6386C49.3018 54.3647 49.1593 54.0928 49.0167 53.8189C48.8534 53.5058 48.6923 53.1927 48.529 52.8776C48.3989 52.6263 48.2749 52.373 48.1406 52.1258C48.0745 52.0064 47.9567 52.0208 47.8926 52.1485C47.5765 52.7808 47.2665 53.4172 46.9463 54.0475C46.6735 54.585 46.3842 55.1123 46.1115 55.6499C45.9069 56.0535 45.7106 56.4613 45.5247 56.8753C45.3532 57.2584 45.0742 57.4664 44.7498 57.3964C44.6031 57.3655 44.4605 57.2996 44.3283 57.2255C43.9047 56.9907 43.4832 56.7497 43.0658 56.5025C42.8302 56.3625 42.605 56.2018 42.3715 56.0577C42.3157 56.0226 42.2372 56.0247 42.169 56.0103C42.1566 56.07 42.1236 56.1359 42.1339 56.1915C42.1732 56.3954 42.2331 56.5932 42.2785 56.795C42.3984 57.3367 42.5162 57.8804 42.6319 58.4221C42.6505 58.5148 42.6484 58.6116 42.667 58.7043C42.7021 58.8814 42.7476 59.0565 42.7889 59.2315C42.7972 59.2666 42.8158 59.2995 42.822 59.3366C42.8984 59.7712 42.9625 60.2099 43.0513 60.6424C43.136 61.0605 43.2435 61.4745 43.3406 61.8905C43.3509 61.9338 43.3695 61.9729 43.3757 62.0162C43.4522 62.4446 43.5286 62.873 43.6051 63.3014C43.6196 63.3879 43.6444 63.4702 43.6588 63.5568C43.7022 63.7833 43.7518 64.0099 43.7807 64.2385C43.8138 64.5104 43.6609 64.6916 43.4398 64.8193C43.167 64.9779 42.9046 64.9079 42.7001 64.704C42.4211 64.428 42.1732 64.1231 41.9107 63.8307C41.2082 63.0563 40.5015 62.2839 39.799 61.5074C39.6296 61.32 39.4767 61.1202 39.2742 60.8792C39.1874 61.009 39.1192 61.0934 39.0717 61.1882C38.801 61.7093 38.6935 62.323 38.2183 62.7329C38.0013 62.9203 37.7617 63.0439 37.4682 63.0336C37.1211 63.0233 36.7636 63.0769 36.4392 62.8915C36.4206 62.8812 36.3979 62.8812 36.3752 62.875C35.7966 62.7391 35.2181 62.6093 34.6416 62.4672C34.342 62.3931 34.0485 62.2983 33.7035 62.1995C33.8109 62.5517 33.908 62.8585 33.9969 63.1654C34.0671 63.4085 34.1271 63.6536 34.1953 63.8966C34.2428 64.0717 34.2986 64.2426 34.342 64.4177C34.4246 64.7472 34.5011 65.0788 34.5816 65.4083C34.6788 65.8079 34.7511 66.2157 34.8833 66.605C34.9825 66.8933 34.8069 67.538 34.5383 67.6904C34.2779 67.8387 33.9824 67.9314 33.7365 68.0982C33.2758 68.4113 32.9555 68.1559 32.6393 67.8696C31.881 67.1817 31.1144 66.5 30.383 65.7832C29.8891 65.3013 29.418 64.7884 28.9965 64.2447C28.451 63.5403 27.951 62.8009 27.455 62.0594C27.1017 61.5301 26.7752 60.9822 26.455 60.4323C26.2855 60.1398 26.1533 59.8227 26.0066 59.5178C25.8557 59.2048 25.7028 58.8917 25.5623 58.5766C25.4611 58.3521 25.3764 58.1214 25.2855 57.8928C25.1883 57.6518 25.0912 57.4108 24.9982 57.1699C24.9259 56.9804 24.8536 56.7929 24.7937 56.5993C24.7069 56.3172 24.6325 56.0288 24.5519 55.7446C24.4899 55.5283 24.4259 55.3141 24.368 55.0979C24.2668 54.7189 24.1717 54.3399 24.0725 53.961C24.0643 53.926 24.0478 53.8909 24.0436 53.8559C23.9651 53.3101 23.9155 52.7561 23.8019 52.2185C23.5911 51.2381 23.618 50.2454 23.5994 49.2568C23.5808 48.3526 23.5994 47.4464 23.6572 46.5463C23.6944 45.9696 23.837 45.4012 23.932 44.8286C24.0044 44.4002 24.0643 43.9697 24.1552 43.5434C24.2317 43.183 24.3432 42.8287 24.4424 42.4724C24.5168 42.2088 24.585 41.941 24.6718 41.6815C24.8247 41.216 24.9838 40.7505 25.1511 40.2892C25.2793 39.9349 25.4198 39.5848 25.5665 39.2388C25.6925 38.9381 25.8268 38.6394 25.9694 38.3449C26.1202 38.0318 26.2773 37.7208 26.4488 37.4181C26.7215 36.9402 27.0025 36.4665 27.2918 35.999C27.5232 35.6241 27.7526 35.2452 28.015 34.895C28.4758 34.2813 28.9386 33.6634 29.4469 33.0887C30.1123 32.339 30.8004 31.6079 31.5236 30.9158C32.0505 30.4092 32.6352 29.9581 33.222 29.5194C33.8646 29.0354 34.5238 28.5679 35.2057 28.1415L35.2036 28.1395ZM27.9551 21.6166C28.5502 21.2562 29.137 20.8793 29.7383 20.5271C30.0482 20.3459 30.3664 20.1502 30.7074 20.0513C31.3397 19.868 31.974 19.7156 32.6579 19.938C33.4369 20.1934 33.9845 20.6692 34.3998 21.3489C34.6994 21.8411 34.9185 22.3519 34.9102 22.943C34.8751 23.8266 34.5259 24.5722 33.9142 25.2107C33.4555 25.6906 32.879 25.9995 32.3253 26.3435C31.9988 26.5474 31.6682 26.7472 31.3521 26.9634C31.2033 27.0643 31.0814 27.0479 30.9946 26.916C30.7797 26.5906 30.5855 26.2529 30.3788 25.9213C30.1226 25.5093 29.8602 25.1015 29.6019 24.6917C29.3788 24.3353 29.1639 23.977 28.9407 23.6227C28.6721 23.1943 28.4014 22.7659 28.1307 22.3375C28.0419 22.1975 27.9448 22.0636 27.8704 21.9153C27.8146 21.8041 27.829 21.6949 27.9592 21.6166H27.9551ZM23.1179 25.7936C23.3886 25.5505 23.6448 25.291 23.9093 25.0397C24.5643 24.4115 25.2173 23.7792 25.8805 23.1593C25.9281 23.116 26.0892 23.1222 26.1409 23.1675C26.362 23.3673 26.5686 23.5856 26.7649 23.8101C26.8682 23.9275 26.8496 24.0676 26.7318 24.1809C26.1698 24.7267 25.6016 25.2684 25.0499 25.8265C24.9962 25.8801 24.992 26.0551 25.0375 26.1252C25.1491 26.292 25.3041 26.432 25.4446 26.5783C25.5995 26.741 25.6842 26.7369 25.8475 26.5824C26.3992 26.0551 26.9529 25.532 27.5088 25.0068C27.5294 24.9882 27.5563 24.9738 27.6142 24.9347C27.8642 25.1757 28.1121 25.4002 28.3456 25.6391C28.4923 25.7894 28.4717 25.9418 28.3084 26.0963C27.7815 26.5947 27.2588 27.0973 26.7257 27.5895C26.6141 27.6925 26.6099 27.7873 26.6967 27.8903C26.9075 28.1395 27.1265 28.3846 27.3662 28.6564C28.1473 27.9088 28.856 27.2271 29.5978 26.5144C29.8747 26.7945 30.1453 27.0437 30.3871 27.3197C30.5111 27.4598 30.4284 27.604 30.3024 27.7214C29.9656 28.0324 29.6288 28.3434 29.2961 28.6585C28.7072 29.2187 28.1225 29.783 27.5356 30.3474C27.3414 30.5327 27.2773 30.5327 27.0934 30.3474C26.4178 29.6656 25.7359 28.988 25.0685 28.3001C24.6036 27.8202 24.1593 27.3177 23.6986 26.8295C23.5002 26.6174 23.2853 26.4217 23.0828 26.2137C22.932 26.0572 22.9588 25.9377 23.1179 25.7956V25.7936ZM19.4399 30.6852C19.6114 30.4154 19.7933 30.1517 19.9792 29.8922C20.1156 29.7027 20.2541 29.6821 20.4214 29.8016C20.8223 30.0879 21.2273 30.368 21.6302 30.6522C22.3472 31.1609 23.0621 31.6717 23.7791 32.1804C23.8907 32.2608 24.0002 32.3617 24.1283 32.3988C24.2027 32.4194 24.3412 32.3596 24.3949 32.2917C24.6036 32.0322 24.7916 31.7562 24.9858 31.4843C25.1821 31.2083 25.3722 30.9241 25.5747 30.6522C25.676 30.5142 25.7814 30.4236 25.9653 30.5904C26.1512 30.7593 26.3847 30.8746 26.5913 31.0229C26.6699 31.0806 26.7277 31.1671 26.7959 31.2413C26.7587 31.2989 26.738 31.336 26.7153 31.371C26.269 32.0054 25.8248 32.6418 25.3764 33.2741C25.1346 33.6181 24.8846 33.9558 24.6408 34.2977C24.554 34.4193 24.4486 34.4254 24.3391 34.3451C24.0085 34.1062 23.6862 33.857 23.3555 33.6222C22.9113 33.3091 22.4608 33.0043 22.0125 32.6954C21.624 32.4276 21.2355 32.1599 20.8492 31.888C20.4524 31.6079 20.0557 31.3257 19.661 31.0435C19.5908 30.992 19.5123 30.9426 19.4647 30.8726C19.4317 30.8252 19.4152 30.7264 19.442 30.6831L19.4399 30.6852ZM16.6629 35.8239C16.8013 35.5129 16.9418 35.2019 17.0927 34.8971C17.1195 34.8456 17.2001 34.8209 17.2662 34.7776C17.4956 34.8703 17.7105 34.9527 17.9212 35.0474C18.2787 35.2102 18.6362 35.3749 18.9895 35.5479C19.2808 35.69 19.5639 35.8466 19.8553 35.9887C20.1673 36.1411 20.4855 36.2832 20.7996 36.4295C21.0021 36.5242 21.2087 36.6148 21.405 36.7199C21.5971 36.8228 21.6963 36.8022 21.7934 36.5983C22.0889 35.9866 22.3844 35.3749 22.6778 34.7612C22.746 34.617 22.9175 34.5717 23.089 34.6582C23.3163 34.7715 23.5415 34.8847 23.7709 34.9918C23.9382 35.0701 23.9816 35.2184 23.8948 35.3893C23.6717 35.8342 23.4568 36.2853 23.2378 36.7343C23.0766 37.0638 22.9134 37.3934 22.7501 37.7229C22.6158 37.9906 22.4753 38.2563 22.3493 38.5282C22.2914 38.6518 22.2191 38.6703 22.1075 38.6209C21.903 38.5303 21.6943 38.4458 21.4918 38.3511C21.1798 38.2048 20.8698 38.0483 20.5578 37.9041C20.2499 37.76 19.9379 37.6282 19.6321 37.484C19.3098 37.3336 18.9936 37.1709 18.6734 37.0185C18.3779 36.8784 18.0803 36.7487 17.7849 36.6066C17.4522 36.4459 17.1257 36.2709 16.791 36.1184C16.6422 36.0505 16.605 35.9599 16.6649 35.826L16.6629 35.8239ZM14.9396 40.9853C15.0036 40.5693 15.171 40.1635 15.3322 39.7722C15.5037 39.3582 15.8095 39.0328 16.1504 38.7424C16.5348 38.4129 16.9769 38.1863 17.4646 38.1019C18.0039 38.0071 18.5473 38.0195 19.0928 38.1719C19.5371 38.2955 19.9359 38.4829 20.314 38.7321C20.6281 38.9401 20.8677 39.2161 21.0785 39.5251C21.4256 40.0338 21.5847 40.6125 21.5847 41.2057C21.5847 41.6815 21.4587 42.1655 21.3347 42.631C21.2541 42.9317 21.0992 43.2221 20.9277 43.4837C20.6198 43.9553 20.2231 44.3466 19.6962 44.5794C19.254 44.775 18.7953 44.9069 18.2146 44.913C17.82 44.8739 17.353 44.773 16.8881 44.6041C16.3426 44.4043 15.9128 44.0604 15.545 43.6402C15.3549 43.4219 15.2309 43.1397 15.1049 42.874C14.8177 42.2685 14.8404 41.6197 14.9396 40.9895V40.9853ZM14.0821 47.0118C14.1875 46.2147 14.7288 45.4918 15.7599 45.4424C16.3571 45.4135 16.8778 45.5639 17.2828 46.0005C17.4811 46.2147 17.6134 46.4887 17.7973 46.7688C18.3138 46.4763 18.8449 46.1797 19.3738 45.8769C19.6197 45.7369 19.8573 45.5865 20.1032 45.4465C20.2706 45.3517 20.3822 45.4012 20.3863 45.5927C20.3946 46.0232 20.4111 46.4557 20.3656 46.882C20.3512 47.0077 20.1549 47.1457 20.0123 47.2198C19.5557 47.4567 19.0845 47.6688 18.6176 47.8892C18.4275 47.9798 18.2415 48.0725 18.0493 48.1549C17.8613 48.2352 17.7807 48.4268 17.8303 48.7089C17.8654 48.9128 18.0204 48.8943 18.1692 48.8984C18.787 48.919 19.4069 48.9437 20.0247 48.9664C20.1859 48.9726 20.2706 49.0529 20.2727 49.2094C20.2789 49.5163 20.2871 49.8211 20.2727 50.128C20.2623 50.371 20.1631 50.439 19.9193 50.4328C18.5101 50.3916 17.1009 50.3546 15.6938 50.3154C15.2041 50.301 14.7144 50.2887 14.2267 50.2722C14.0222 50.266 13.9147 50.1568 13.923 49.9529C13.9664 48.9705 13.954 47.9819 14.0841 47.0118H14.0821Z" fill="#B3B7BC"/>
</g>
<defs>
<clipPath id="clip0_14679_4524">
<rect width="78" height="78" fill="white" transform="translate(9 10)"/>
</clipPath>
</defs>
</svg>
