<svg width="96" height="96" viewBox="0 0 96 96" fill="none" xmlns="http://www.w3.org/2000/svg">
<g clip-path="url(#clip0_14679_4462)">
<path d="M32.8953 87.0001C32.8309 86.9714 32.7676 86.923 32.7021 86.9186C32.4918 86.9064 32.2826 86.8987 32.0776 86.8404C31.8791 86.7842 31.6795 86.7313 31.4767 86.6972C31.261 86.6597 31.0561 86.5937 30.8511 86.5199C30.5796 86.4229 30.3092 86.3216 30.042 86.2137C29.6407 86.0496 29.2404 85.8833 28.8434 85.707C28.6921 85.6398 28.5505 85.5484 28.4078 85.4614C28.1738 85.3193 27.9431 85.174 27.7113 85.0275C27.5128 84.9019 27.3143 84.7764 27.119 84.6453C26.8379 84.457 26.5567 84.2664 26.2799 84.0704C25.929 83.8226 25.5942 83.5538 25.2723 83.2664C25.0673 83.0835 24.8259 82.9426 24.6188 82.7619C24.2969 82.4811 23.9911 82.1804 23.6788 81.8885C23.4867 81.7101 23.2946 81.5339 23.1015 81.3555C22.7163 80.9997 22.3471 80.6285 22.0091 80.2243C21.7698 79.938 21.494 79.6825 21.2451 79.4038C21.097 79.2375 20.9682 79.0525 20.8277 78.8795C20.568 78.5591 20.304 78.2419 20.0465 77.9192C19.8233 77.6405 19.6065 77.3552 19.3866 77.0744C19.188 76.82 18.9809 76.5733 18.791 76.3111C18.5152 75.93 18.2448 75.5435 17.9841 75.1514C17.7426 74.7879 17.5194 74.4123 17.2855 74.0456C17.1353 73.811 16.9722 73.5841 16.8252 73.3473C16.6342 73.0389 16.455 72.7239 16.2704 72.4122C16.0998 72.1248 15.9195 71.8428 15.7607 71.5498C15.6062 71.2657 15.4753 70.9683 15.3304 70.6787C15.1587 70.335 14.9795 69.9947 14.81 69.65C14.7037 69.4352 14.6179 69.2094 14.5052 68.999C14.237 68.4957 14.0427 67.9571 13.8174 67.4351C13.6028 66.9384 13.4515 66.413 13.2744 65.8997C13.1757 65.6134 13.0738 65.3281 12.9858 65.0385C12.9128 64.7973 12.8828 64.5406 12.7894 64.3093C12.725 64.1485 12.7529 63.969 12.6467 63.8159C12.5855 63.7267 12.5866 63.589 12.5684 63.4723C12.5405 63.2906 12.5447 63.0978 12.49 62.926C12.402 62.6474 12.4761 62.3423 12.3398 62.0757C12.3291 62.0548 12.3269 62.0295 12.3258 62.0053C12.3033 61.6759 12.2818 61.3466 12.2604 61.0162C12.2572 60.96 12.2679 60.8984 12.2507 60.8466C12.1542 60.5624 12.1863 60.2695 12.1821 59.9798C12.1821 59.9313 12.1863 59.8796 12.1724 59.8344C12.0833 59.558 12.1348 59.2716 12.1155 58.9908C12.0994 58.7419 12.0576 58.494 12.0275 58.2462C12.02 58.1824 12.0039 58.1185 12.0039 58.0546C12.0018 57.4466 11.9986 56.8387 12.0007 56.2318C12.0029 55.6888 12.0179 55.1447 12.0189 54.6018C12.02 54.1238 12.0093 53.6446 12.0061 53.1666C12.0061 53.1028 12.0039 53.0345 12.0243 52.9761C12.1348 52.6622 12.1263 52.3395 12.108 52.0146C12.1059 51.9672 12.0919 51.9133 12.108 51.8725C12.2003 51.6379 12.1767 51.3934 12.1842 51.1511C12.1874 51.0476 12.21 50.9441 12.225 50.8405C12.2293 50.8086 12.2486 50.7777 12.2475 50.7469C12.2421 50.4738 12.2765 50.205 12.3194 49.9363C12.3419 49.7964 12.2937 49.6444 12.4031 49.5222C12.4128 49.5123 12.416 49.4902 12.4138 49.4759C12.3655 49.205 12.4836 48.9528 12.5018 48.6884C12.519 48.4516 12.5812 48.2181 12.622 47.9824C12.6821 47.6344 12.7379 47.2853 12.7991 46.9372C12.8216 46.8106 12.8495 46.6861 12.8785 46.5606C12.9686 46.1729 13.062 45.7852 13.1521 45.3975C13.2412 45.0109 13.3184 44.6199 13.4182 44.2366C13.5191 43.8522 13.6382 43.4723 13.7573 43.0934C13.9118 42.6011 14.0824 42.1132 14.2327 41.6186C14.4194 41.0041 14.6608 40.4115 14.8829 39.8113C14.9806 39.5491 15.075 39.2848 15.1866 39.0293C15.3883 38.5645 15.5976 38.103 15.8111 37.6437C16.0204 37.1922 16.2489 36.7483 16.4507 36.2935C16.6181 35.9168 16.823 35.5643 17.0173 35.2042C17.1686 34.9244 17.3038 34.6348 17.454 34.355C17.5355 34.2019 17.6353 34.0587 17.7255 33.9101C17.8929 33.6347 18.0549 33.3561 18.2266 33.084C18.5228 32.6148 18.8296 32.1522 19.1226 31.6809C19.364 31.291 19.643 30.9297 19.907 30.5574C20.1077 30.2744 20.2997 29.9847 20.5058 29.7061C20.6506 29.51 20.8191 29.3327 20.9693 29.14C21.1346 28.9274 21.2837 28.7005 21.4533 28.4901C21.6421 28.2556 21.8471 28.0331 22.0424 27.804C22.1765 27.6476 22.3021 27.4824 22.4405 27.3293C22.6014 27.152 22.7753 26.9868 22.9373 26.8105C23.3032 26.4107 23.6584 26.001 24.0297 25.6067C24.2421 25.3809 24.4761 25.1761 24.7003 24.9624C24.9139 24.7587 25.1253 24.5538 25.3399 24.3511C25.4493 24.2476 25.5631 24.1474 25.6747 24.0472C25.8753 23.8665 26.0749 23.6848 26.2767 23.5053C26.5181 23.2916 26.7552 23.0713 27.0063 22.8687C27.4216 22.5328 27.8455 22.2079 28.265 21.8774C28.382 21.7849 28.4979 21.6913 28.617 21.6021C28.8949 21.3939 29.1911 21.2078 29.4486 20.9765C29.6225 20.8212 29.8306 20.7375 30.0088 20.5976C30.189 20.4567 30.379 20.33 30.5678 20.2011C30.8897 19.982 31.2106 19.7584 31.54 19.5524C31.9038 19.3255 32.2772 19.1163 32.6474 18.8993C32.862 18.7737 33.0756 18.6449 33.2934 18.5248C33.6003 18.3563 33.9125 18.1966 34.2205 18.0292C34.4373 17.9114 34.6444 17.7737 34.8643 17.6646C35.1455 17.5237 35.4374 17.4036 35.7228 17.2715C36.0629 17.1151 36.4063 16.9664 36.7465 16.8133C37.1939 16.6117 37.6425 16.4179 38.1018 16.2483C38.4666 16.1139 38.8239 15.9531 39.1877 15.8165C39.4753 15.7086 39.7789 15.6381 40.059 15.5114C40.2479 15.4255 40.4539 15.4068 40.6406 15.3011C40.8123 15.2042 41.0291 15.192 41.2243 15.1381C41.4561 15.0731 41.6858 14.9993 41.9175 14.9354C42.0731 14.8925 42.232 14.8605 42.3886 14.8198C42.4938 14.7922 42.5957 14.7537 42.702 14.7284C43.0367 14.6491 43.3758 14.5885 43.7053 14.4927C44.0583 14.3891 44.4135 14.3131 44.7751 14.2537C45.1024 14.1986 45.4232 14.1028 45.7484 14.0334C45.9093 13.9992 46.0735 13.9871 46.2366 13.9662C46.492 13.9343 46.7474 13.9023 47.0028 13.8715C47.0264 13.8682 47.0564 13.8792 47.0725 13.8682C47.3247 13.7008 47.6337 13.8362 47.8923 13.7041C47.9352 13.682 47.9996 13.7074 48.0533 13.7019C48.1939 13.6887 48.3334 13.671 48.4729 13.6545C48.5501 13.6457 48.6274 13.627 48.7057 13.6259C48.9407 13.6215 49.1789 13.6622 49.4021 13.5389C49.4515 13.5113 49.5255 13.5301 49.5888 13.5301C49.9118 13.5268 50.2348 13.5488 50.5546 13.4596C50.6705 13.4276 50.8035 13.4662 50.9291 13.4651C51.4109 13.4585 51.8927 13.4408 52.3745 13.4419C52.9357 13.4419 53.4958 13.4519 54.057 13.4684C54.5206 13.4816 54.9831 13.5102 55.4467 13.5312C55.789 13.7228 56.1849 13.5433 56.5326 13.6964C56.5401 13.6997 56.5476 13.7008 56.5562 13.7008C56.8685 13.725 57.1807 13.7492 57.493 13.7735C57.5166 13.7757 57.5477 13.7613 57.5627 13.7735C57.8052 13.953 58.1035 13.823 58.3643 13.9299C58.5135 13.9915 58.6873 13.9915 58.8515 14.0092C59.1068 14.0367 59.3633 14.0554 59.6198 14.0774C59.6359 14.0785 59.6573 14.0697 59.6659 14.0774C59.8172 14.2085 60.0018 14.1744 60.1778 14.1986C60.431 14.2338 60.6842 14.2834 60.931 14.3495C61.1403 14.4046 61.3667 14.3671 61.5652 14.4894C61.6253 14.5268 61.7176 14.5114 61.8034 14.5224C61.8796 14.7273 61.7713 14.9057 61.7251 15.0841C61.6328 15.4454 61.5073 15.7978 61.4 16.1558C61.3281 16.397 61.2497 16.6393 61.2004 16.886C61.1564 17.1096 60.9815 17.2087 60.8291 17.288C60.6703 17.3706 60.519 17.4664 60.3741 17.5644C60.0468 17.7836 59.7099 17.9852 59.374 18.19C59.2796 18.2473 59.1863 18.3046 59.0972 18.3706C58.8997 18.516 58.6862 18.5028 58.4619 18.4621C58.2076 18.4158 57.9512 18.3761 57.6947 18.3453C57.4458 18.3156 57.1678 18.3651 56.95 18.2682C56.6206 18.1217 56.2686 18.2682 55.9553 18.1107C55.9413 18.1041 55.9242 18.1041 55.9091 18.1041C55.3275 18.0832 54.747 18.0656 54.1654 18.0413C53.866 18.0292 53.5667 17.9874 53.2673 17.9896C52.7146 17.9929 52.1631 18.0215 51.6105 18.0336C51.2864 18.0402 50.9623 18.027 50.6394 18.038C50.4591 18.0435 50.2799 18.0788 50.1007 18.1019C50.0771 18.1052 50.0535 18.1228 50.032 18.1184C49.6747 18.0457 49.3292 18.1724 48.9761 18.1812C48.8119 18.1856 48.6424 18.1537 48.4965 18.2682C48.4793 18.2814 48.4514 18.2814 48.4278 18.2836C48.1617 18.3046 47.8945 18.3134 47.6305 18.3475C47.3687 18.3816 47.1101 18.4411 46.8493 18.4907C46.8343 18.494 46.8171 18.5116 46.8064 18.5083C46.5853 18.4356 46.3858 18.5546 46.184 18.5997C45.7441 18.6977 45.2912 18.733 44.862 18.8938C44.7 18.9544 44.5068 18.9301 44.348 18.9962C44.1892 19.0623 44.0111 19.0282 43.8609 19.1383C43.7739 19.2022 43.6441 19.211 43.5314 19.2319C43.1623 19.2991 42.8103 19.428 42.4519 19.5282C42.0892 19.6284 41.7405 19.7672 41.3778 19.8652C41.0398 19.9566 40.691 20.0447 40.3841 20.2099C40.0955 20.3652 39.7693 20.4016 39.4924 20.5899C39.3229 20.7056 39.0965 20.7287 38.9033 20.8135C38.2455 21.1032 37.5802 21.3807 36.9396 21.7067C36.7025 21.8268 36.4224 21.8896 36.2357 22.1098C35.9041 22.1979 35.6294 22.4028 35.3354 22.568C34.8193 22.8599 34.2999 23.1473 33.7988 23.4667C33.2494 23.817 32.7172 24.1981 32.1817 24.5736C31.9016 24.7708 31.6323 24.9855 31.3565 25.1882C31.0925 25.382 30.8039 25.5461 30.5657 25.7664C30.2534 26.055 29.8961 26.2841 29.5935 26.5881C29.3027 26.8799 28.9679 27.1244 28.6567 27.3954C28.4239 27.5991 28.1942 27.8062 27.971 28.021C27.7135 28.2688 27.4624 28.5243 27.2145 28.7831C26.8389 29.1741 26.4591 29.5607 26.0996 29.966C25.8775 30.2149 25.6339 30.4495 25.4375 30.7149C25.2444 30.9771 24.9858 31.183 24.8313 31.476C24.7991 31.5377 24.7315 31.5784 24.6832 31.6313C24.6349 31.6842 24.5769 31.7337 24.548 31.7965C24.4997 31.9022 24.4417 31.9914 24.3419 32.052C24.3108 32.0707 24.2894 32.1115 24.2668 32.1445C23.9739 32.5829 23.6326 32.9838 23.3343 33.4177C23.0178 33.8781 22.7141 34.3473 22.4104 34.8165C22.1593 35.2042 21.905 35.5919 21.6711 35.9906C21.4264 36.4069 21.2065 36.8386 20.9704 37.2605C20.8502 37.4752 20.7011 37.6735 20.5991 37.896C20.495 38.1217 20.3952 38.3486 20.2751 38.5667C20.1677 38.7617 20.0883 38.9731 19.9971 39.178C19.8769 39.4478 19.7568 39.7177 19.6366 39.9875C19.4949 40.3058 19.3501 40.623 19.2127 40.9435C19.1655 41.0525 19.1483 41.1748 19.0979 41.2816C18.9219 41.655 18.7878 42.0449 18.6526 42.4348C18.5753 42.6572 18.5099 42.8841 18.4187 43.1C18.2792 43.4271 18.1998 43.7696 18.1182 44.1144C18.0967 44.2036 18.0281 44.2796 18.0023 44.3688C17.9293 44.6199 17.8714 44.8765 17.8006 45.1287C17.6986 45.4933 17.5903 45.8557 17.4883 46.2202C17.4518 46.3513 17.425 46.4857 17.4014 46.6189C17.3392 46.9626 17.2812 47.3051 17.1728 47.6388C17.117 47.8117 17.1181 48.0045 17.0891 48.1873C17.0666 48.3294 17.0612 48.4803 17.0076 48.6091C16.9132 48.8338 17.0183 49.0981 16.8638 49.3052C16.8552 49.3162 16.8574 49.336 16.8552 49.3526C16.8284 49.6169 16.8069 49.8812 16.7737 50.1445C16.7361 50.4473 16.6642 50.748 16.6524 51.052C16.6395 51.3582 16.558 51.6556 16.5483 51.9551C16.5301 52.5433 16.4324 53.1281 16.4754 53.7206C16.4957 54.0004 16.4389 54.2857 16.4185 54.5687C16.367 55.2912 16.4088 56.0104 16.47 56.7296C16.4925 57.0028 16.4432 57.2847 16.4796 57.5557C16.5408 58.0105 16.4796 58.4786 16.6213 58.9247C16.6428 58.9908 16.6245 59.0701 16.6331 59.1417C16.647 59.2694 16.6664 59.3972 16.6846 59.5249C16.69 59.5646 16.7082 59.6031 16.7082 59.6428C16.7082 60.0162 16.7651 60.3796 16.8445 60.7442C16.8981 60.992 16.9003 61.2519 16.9539 61.4997C17.0376 61.8896 17.1106 62.2806 17.1632 62.6771C17.1771 62.7784 17.2276 62.8742 17.2512 62.9756C17.3284 63.3104 17.3746 63.654 17.4819 63.9778C17.5763 64.2653 17.6074 64.5693 17.7158 64.8479C17.8457 65.1827 17.9004 65.5374 18.0141 65.8755C18.1987 66.424 18.3833 66.9725 18.5732 67.5199C18.6612 67.7754 18.7524 68.0298 18.8575 68.2776C19.0625 68.7622 19.2782 69.2424 19.4874 69.7259C19.5196 69.7997 19.5389 69.8779 19.5722 69.9506C19.8244 70.4958 20.068 71.0465 20.3362 71.584C20.5294 71.9717 20.759 72.3406 20.9672 72.7217C21.0981 72.9607 21.2118 73.2096 21.3438 73.4486C21.493 73.7174 21.6593 73.9751 21.8074 74.2427C21.963 74.5236 22.1593 74.7769 22.3053 75.0666C22.4469 75.3452 22.6551 75.5886 22.8332 75.8474C22.9094 75.9576 22.9834 76.0688 23.0618 76.1779C23.2603 76.4543 23.4631 76.7275 23.6584 77.0061C23.77 77.1658 23.8644 77.3387 23.975 77.4995C24.0694 77.6372 24.1735 77.7694 24.2786 77.8993C24.4332 78.0888 24.6263 78.2551 24.7433 78.4654C24.8946 78.7375 25.1199 78.9379 25.3023 79.1769C25.62 79.5944 25.9665 79.9886 26.3089 80.3863C26.4441 80.5426 26.6018 80.6781 26.7445 80.8268C26.8035 80.8885 26.8465 80.9678 26.9044 81.0317C27.2177 81.372 27.53 81.7123 27.8498 82.046C28.0579 82.263 28.279 82.469 28.4947 82.6782C28.7554 82.9315 29.0205 83.1816 29.278 83.4382C29.4357 83.5957 29.5999 83.7422 29.7866 83.8644C29.8757 83.9228 29.9369 84.0263 30.012 84.1067C30.0442 84.142 30.0807 84.1739 30.1171 84.2047C30.3886 84.4316 30.6612 84.6574 30.9327 84.8843C30.9681 84.914 31.0024 84.9471 31.0335 84.9823C31.1183 85.0759 31.1902 85.185 31.3222 85.2224C31.3554 85.2312 31.378 85.2753 31.4069 85.3006C31.4906 85.3711 31.5743 85.4405 31.6591 85.5099C31.7203 85.5594 31.7804 85.6101 31.8426 85.6586C31.9231 85.7214 32.0046 85.7808 32.0862 85.8425C32.1227 85.87 32.1602 85.8965 32.1956 85.9262C32.2611 85.9813 32.3244 86.0374 32.3899 86.0925C32.4199 86.1167 32.4564 86.1322 32.4832 86.1586C32.7386 86.4042 33.0283 86.6003 33.3213 86.7941C33.4103 86.8536 33.4833 86.9395 33.5627 87.0133H32.8985L32.8953 87.0001Z" fill="#B3B7BC"/>
<path d="M63.7787 30.6275C63.4203 31.274 63.0276 31.8974 62.6488 32.5263C62.4342 32.5505 62.2936 32.3974 62.124 32.3292C61.7313 32.1706 61.3482 31.9899 60.9555 31.8302C60.6733 31.7157 60.3846 31.6199 60.097 31.5207C60.0498 31.5042 59.9951 31.5108 59.9157 31.5483C59.9994 31.6474 60.0724 31.7586 60.1679 31.8434C60.4361 32.0813 60.669 32.3512 60.8857 32.6386C60.9426 32.7135 61.0177 32.773 61.0864 32.838C61.1036 32.8545 61.1293 32.8633 61.1422 32.882C61.2742 33.0605 61.403 33.24 61.5349 33.4184C61.6755 33.609 61.8236 33.7951 61.9588 33.9889C62.1165 34.2147 62.2657 34.4471 62.4181 34.6773C62.5189 34.8304 62.6144 34.9879 62.7207 35.1377C62.9288 35.4318 63.0866 35.7578 63.2765 36.0617C63.5201 36.4494 63.7122 36.8658 63.9461 37.2578C64.0759 37.4759 64.165 37.7204 64.2734 37.9528C64.4354 38.302 64.6017 38.6478 64.7605 38.9991C64.8314 39.1566 64.8721 39.3295 64.9558 39.4793C65.1404 39.8075 65.2155 40.182 65.3915 40.5146C65.472 40.6666 65.4934 40.8495 65.5621 41.0103C65.6844 41.2955 65.7488 41.5995 65.8561 41.8881C65.913 42.0423 65.9731 42.0841 66.118 42.0268C66.3412 41.9387 66.5515 41.8099 66.78 41.7471C67.1814 41.6358 67.5408 41.4299 67.9175 41.2636C68.5506 40.9838 69.1697 40.6743 69.761 40.3087C69.967 40.1809 70.1881 40.0796 70.3962 39.9551C70.6323 39.8142 70.8619 39.6622 71.0927 39.5113C71.2139 39.432 71.2268 39.3769 71.1409 39.258C71.0433 39.1236 70.9349 38.9947 70.8233 38.8714C70.5336 38.5531 70.2417 38.2359 69.9445 37.9231C69.8297 37.8019 69.6988 37.6973 69.5796 37.5806C69.4326 37.4374 69.2931 37.2865 69.1451 37.1455C68.9283 36.9384 68.7062 36.7369 68.469 36.5166C68.9841 35.9935 69.4938 35.4758 70.0089 34.9526C70.1709 34.9923 70.2686 35.1223 70.3823 35.2302C70.6817 35.5155 70.9864 35.7963 71.2804 36.0871C71.5401 36.3437 71.7901 36.6102 72.0402 36.8779C72.2355 37.0882 72.4243 37.3052 72.6132 37.5222C72.6958 37.6169 72.7677 37.7215 72.8493 37.8173C73.0488 38.0508 73.2549 38.2788 73.4512 38.5167C73.551 38.6368 73.6326 38.7722 73.7227 38.9011C73.9341 39.2018 74.1509 39.4992 74.3569 39.8031C74.5801 40.1314 74.8011 40.4618 75.0093 40.801C75.3398 41.3418 75.68 41.8804 75.9761 42.441C76.2272 42.9157 76.5137 43.3738 76.6919 43.8882C76.7048 43.9256 76.7284 43.9598 76.7434 43.9972C76.8185 44.1844 76.9483 44.2505 77.1501 44.2483C78.0353 44.2384 78.9206 44.2604 79.8059 44.2395C80.5785 44.2208 81.4895 44.7847 81.6751 45.8486C81.6977 45.9753 81.6988 46.1075 81.6988 46.2363C81.6998 51.1055 81.6945 55.9759 81.7041 60.8451C81.7063 61.8385 81.0249 62.6525 80.1578 62.8099C80.0495 62.8298 79.9379 62.8364 79.8284 62.8375C79.4883 62.8408 79.1481 62.8375 78.809 62.8397C78.7232 62.8397 78.6384 62.8496 78.5365 62.8562C78.4796 63.1139 78.4324 63.3606 78.368 63.6029C78.3229 63.7726 78.2489 63.9345 78.1995 64.103C78.1255 64.353 78.0718 64.6107 77.9892 64.8585C77.8551 65.255 77.7005 65.6449 77.5589 66.0392C77.2821 66.8091 76.9516 67.5547 76.605 68.2937C76.4204 68.688 76.2176 69.0724 76.033 69.4667C75.8388 69.8786 75.5727 70.2553 75.3334 70.6441C75.0876 71.0428 74.8441 71.4415 74.5855 71.8314C74.3387 72.2025 74.0693 72.5572 73.8204 72.9262C73.6433 73.1883 73.4276 73.4196 73.2527 73.6795C73.0671 73.9582 72.7977 74.1619 72.64 74.4626C72.5874 74.5617 72.4694 74.6223 72.3921 74.7115C72.2011 74.9351 72.0251 75.1741 71.8266 75.3889C71.6056 75.6279 71.3523 75.8371 71.1356 76.0794C70.8416 76.4065 70.4746 76.651 70.1838 76.9748C69.9541 77.2304 69.6687 77.4088 69.4348 77.6588C69.1783 77.9319 68.8339 78.1159 68.5506 78.3659C68.3199 78.5685 68.042 78.7007 67.8252 78.9254C67.6857 79.0697 67.485 79.1512 67.3155 79.2657C67.0215 79.464 66.7318 79.671 66.4345 79.8638C66.2199 80.0036 65.9881 80.116 65.7757 80.2592C65.4924 80.4497 65.1941 80.6127 64.9 80.7812C64.4451 81.0423 63.9719 81.2724 63.504 81.5103C63.4139 81.5566 63.3119 81.5786 63.2196 81.6194C62.7936 81.8077 62.3794 82.0324 61.9395 82.18C61.5296 82.3177 61.1529 82.5456 60.7194 82.6205C60.5338 82.6525 60.3632 82.7626 60.1797 82.8188C59.8524 82.919 59.5208 83.0049 59.1914 83.0974C58.8362 83.1977 58.4821 83.3056 58.1248 83.3992C57.9595 83.4422 57.7846 83.4411 57.6204 83.4862C57.4412 83.5358 57.2631 83.582 57.0775 83.6074C56.8221 83.6415 56.5688 83.6856 56.3145 83.7263C56.2523 83.7362 56.1922 83.755 56.131 83.766C56.0634 83.7781 55.9958 83.7858 55.9282 83.7979C55.8059 83.8188 55.6846 83.8409 55.5623 83.8651C55.5323 83.8717 55.5065 83.9003 55.4765 83.9025C55.1567 83.9268 54.8369 83.9433 54.5171 83.9697C54.3294 83.9852 54.1426 84.016 53.9559 84.0391C53.9098 84.0446 53.8626 84.0512 53.8154 84.0523C53.2391 84.0634 52.664 84.0799 52.0877 84.0821C51.7733 84.0832 51.4579 84.0634 51.1434 84.0523C51.0404 84.049 50.9385 84.0391 50.8366 84.0347C50.4921 84.0193 50.1455 84.0711 49.8011 83.9818C49.6669 83.9466 49.5178 83.9763 49.3761 83.9686C49.2753 83.9631 49.1755 83.9444 49.0746 83.9301C49.051 83.9268 49.0284 83.9103 49.0059 83.9125C48.6979 83.9345 48.4093 83.8122 48.1056 83.788C47.8492 83.7671 47.5959 83.7109 47.3416 83.6702C47.2096 83.6492 47.0787 83.6261 46.9478 83.6019C46.6216 83.5424 46.2943 83.484 45.9692 83.4201C45.8554 83.3981 45.7395 83.375 45.6333 83.3287C45.2717 83.1712 44.8768 83.1459 44.5098 83.0148C44.1299 82.8794 43.7286 82.8155 43.3649 82.6293C43.2962 82.5941 43.2146 82.5853 43.1406 82.5622C42.6395 82.4113 42.1673 82.1811 41.6802 81.9927C41.0749 81.7582 40.4934 81.4784 39.9193 81.1777C39.5845 81.0026 39.2454 80.8374 38.9127 80.6568C38.652 80.5158 38.3966 80.366 38.1444 80.2107C37.7957 79.9948 37.4512 79.7713 37.1079 79.5477C36.8439 79.3759 36.5574 79.2283 36.3277 79.0157C36.111 78.8153 35.8513 78.6875 35.6367 78.4826C35.3695 78.2271 35.0476 78.0344 34.7632 77.7965C34.496 77.574 34.2471 77.3306 33.9895 77.0949C33.9724 77.0784 33.9595 77.0563 33.9402 77.042C33.2888 76.531 32.7609 75.8878 32.1761 75.3051C31.9046 75.0342 31.6396 74.7622 31.4131 74.4505C31.3767 74.3998 31.3219 74.3635 31.2758 74.3205C31.235 74.2831 31.1889 74.25 31.1556 74.2071C31.059 74.0826 30.9721 73.9493 30.8745 73.826C30.5461 73.4097 30.207 73.0022 29.9291 72.5451C29.8357 72.3909 29.6984 72.2653 29.5868 72.1221C29.5492 72.0737 29.5342 72.0087 29.4999 71.9569C29.2745 71.6089 29.0428 71.2653 28.8206 70.915C28.6554 70.6551 28.4944 70.3919 28.3453 70.122C28.1693 69.8059 28.0051 69.4821 27.8409 69.1594C27.6413 68.7673 27.4385 68.3752 27.2518 67.9765C27.0812 67.6109 26.9256 67.2364 26.7722 66.863C26.6209 66.4952 26.4696 66.1262 26.3365 65.7517C26.1895 65.3365 26.0618 64.9147 25.9277 64.4951C25.8257 64.1757 25.7238 63.8552 25.6283 63.5336C25.5832 63.3827 25.5489 63.2274 25.5167 63.0721C25.4781 62.8859 25.4394 62.843 25.2495 62.8419C24.8063 62.8386 24.3642 62.8342 23.9211 62.8419C23.538 62.8485 23.1828 62.7615 22.863 62.5456C22.304 62.1667 21.9895 61.6392 21.9895 60.9409C21.9874 56.0067 21.9917 51.0714 21.9863 46.1372C21.9853 45.1327 22.8308 44.2384 23.8309 44.245C24.8192 44.2516 25.8075 44.2461 26.7958 44.2461C27.1338 44.2461 27.1831 44.2065 27.3151 43.8849C27.5405 43.3342 27.8302 42.8165 28.1156 42.2967C28.2766 42.0026 28.4333 41.7063 28.6007 41.4156C28.6994 41.2438 28.8142 41.0819 28.9215 40.9155C29.178 40.5179 29.4151 40.1071 29.6962 39.7294C29.8787 39.4837 30.031 39.2139 30.2414 38.987C30.4002 38.8152 30.5086 38.5949 30.6534 38.4077C30.7983 38.2183 30.9592 38.042 31.1138 37.8614C31.5269 37.3768 31.9282 36.8801 32.3574 36.4109C32.6514 36.0893 32.983 35.804 33.2974 35.5022C33.4584 35.348 33.6172 35.1905 33.7792 35.0375C33.8715 34.9504 33.9702 34.8722 34.0625 34.7863C34.1838 34.674 34.3029 34.5584 34.4231 34.4438C34.4402 34.4273 34.4488 34.3987 34.4681 34.3909C34.6559 34.3138 34.7911 34.1674 34.9392 34.0341C35.1431 33.8502 35.3631 33.685 35.582 33.5198C35.8771 33.2962 36.1764 33.0781 36.4769 32.8622C36.8278 32.6089 37.1808 32.3578 37.5349 32.11C37.5982 32.0659 37.6766 32.0461 37.7431 32.0064C38.1595 31.7597 38.5683 31.4987 38.9921 31.2663C39.4385 31.0218 39.8967 30.8004 40.3528 30.5746C40.7284 30.3896 41.105 30.2068 41.4859 30.0339C41.6791 29.9458 41.8915 29.8973 42.0804 29.8004C42.4624 29.6032 42.882 29.5173 43.2758 29.3532C43.6353 29.2034 44.0205 29.1197 44.3939 29.003C44.5409 28.9567 44.6826 28.8928 44.8296 28.8466C44.9186 28.819 45.0131 28.8124 45.1043 28.7915C45.3543 28.7342 45.6043 28.677 45.8533 28.6142C46.0411 28.5657 46.2267 28.5074 46.4145 28.4545C46.4445 28.4457 46.4746 28.4314 46.5046 28.4314C46.7729 28.4391 47.0229 28.3565 47.2794 28.2882C47.5036 28.2287 47.7429 28.2254 47.9747 28.1935C48.2548 28.1549 48.5338 28.1087 48.8138 28.0701C48.9072 28.0569 49.0016 28.0514 49.095 28.0492C49.2677 28.0437 49.4416 28.0657 49.6025 27.9655C49.6508 27.9357 49.7259 27.9456 49.7882 27.9467C50.168 27.9556 50.5458 27.96 50.9202 27.8741C51.0383 27.8465 51.1703 27.8862 51.2958 27.884C51.8409 27.8785 52.385 27.8685 52.9301 27.8608C52.9773 27.8608 53.0256 27.8619 53.0717 27.8741C53.4452 27.9688 53.825 27.9478 54.2038 27.9534C54.295 27.9545 54.3841 27.9941 54.4753 28.0051C54.6309 28.0238 54.7876 28.0327 54.9431 28.0492C55.0515 28.0613 55.1588 28.0778 55.2661 28.0943C55.3048 28.0998 55.3434 28.1175 55.382 28.1197C55.5762 28.1296 55.7673 28.1362 55.9615 28.1846C56.1933 28.243 56.4401 28.2375 56.6804 28.2639C56.7169 28.2684 56.7502 28.297 56.7856 28.3113C56.836 28.3322 56.8864 28.3576 56.939 28.3675C57.1848 28.4148 57.4294 28.4765 57.6773 28.4974C57.9305 28.5173 58.1548 28.6318 58.3984 28.6792C58.6441 28.7265 58.8899 28.7717 59.1313 28.8356C59.3395 28.8906 59.5401 28.9721 59.7451 29.0371C59.8406 29.0669 59.9436 29.0746 60.038 29.1076C60.6003 29.3059 61.1637 29.5008 61.7216 29.7123C62.124 29.8643 62.5211 30.0306 62.9149 30.2046C63.2003 30.3312 63.4761 30.4821 63.7851 30.6363L63.7787 30.6275ZM40.0695 69.1914C40.0201 69.2949 40.0298 69.4039 40.0695 69.513C40.2176 69.9073 40.3657 70.3005 40.5148 70.6937C40.6618 71.0802 40.8045 71.4679 40.9601 71.8512C41.0728 72.1277 41.2059 72.3964 41.3282 72.6684C41.4055 72.8414 41.4763 73.0176 41.56 73.1861C41.6973 73.4636 41.8443 73.7368 41.9849 74.0121C42.1287 74.293 42.2575 74.5837 42.4163 74.8547C42.6126 75.1917 42.8305 75.5166 43.0451 75.8426C43.2554 76.1609 43.47 76.477 43.6889 76.7887C43.793 76.9374 43.9175 77.0718 44.0226 77.2205C44.2727 77.5718 44.5334 77.9121 44.8425 78.2106C45.0302 78.3912 45.2255 78.5663 45.3951 78.7635C45.6193 79.0256 45.8383 79.2866 46.1441 79.4519C46.1645 79.4629 46.187 79.475 46.1988 79.4937C46.3919 79.7911 46.7053 79.9464 46.9757 80.138C47.2128 80.3054 47.4672 80.464 47.7204 80.6149C48.1882 80.8947 48.6765 81.1183 49.1776 81.3154C49.4877 81.4377 49.8064 81.5456 50.1294 81.6216C50.3612 81.6767 50.6016 81.7582 50.8473 81.6767C50.9009 81.4685 50.8999 67.7089 50.8398 67.4842C50.7153 67.4842 50.5833 67.4787 50.4513 67.4853C50.1133 67.504 49.7753 67.5338 49.4373 67.5481C49.1701 67.5602 48.8997 67.5294 48.6389 67.6241C48.5906 67.6417 48.5306 67.6219 48.4769 67.6219C48.2183 67.6219 47.9543 67.5701 47.7118 67.7166C47.6764 67.7386 47.6206 67.7254 47.5745 67.7287C47.1839 67.7596 46.7933 67.7882 46.4027 67.8201C46.3018 67.829 46.2009 67.8455 46.1001 67.8587C46.0303 67.8675 45.9477 67.8543 45.8919 67.8884C45.7696 67.9633 45.6494 67.9876 45.512 67.96C45.468 67.9512 45.4176 67.9644 45.3715 67.9721C45.1408 68.0129 44.9101 68.0558 44.6804 68.0988C44.527 68.1263 44.3757 68.1638 44.2212 68.1803C44.0902 68.1946 43.9658 68.1891 43.837 68.2618C43.7136 68.3312 43.5548 68.3356 43.4099 68.3609C43.1964 68.3973 42.9796 68.416 42.7693 68.4634C42.5193 68.5195 42.2789 68.6275 42.0267 68.6616C41.6222 68.7167 41.2402 68.8499 40.8507 68.9579C40.591 69.0295 40.3335 69.1099 40.0673 69.1881L40.0695 69.1914ZM50.8602 44.2208C50.9106 43.8816 50.8956 30.4028 50.8484 30.2211C50.8194 30.2211 50.7872 30.2145 50.7593 30.2222C50.5683 30.2762 50.3805 30.3588 50.1863 30.3819C49.874 30.4183 49.5821 30.5108 49.286 30.6099C48.7291 30.796 48.2097 31.067 47.7054 31.3621C47.26 31.6232 46.8373 31.9283 46.4188 32.2344C46.2106 32.3864 46.0293 32.5792 45.8415 32.7587C45.5539 33.034 45.2674 33.3116 44.9862 33.5946C44.8972 33.6839 44.8339 33.7995 44.7502 33.8942C44.5152 34.1586 44.2587 34.4053 44.043 34.6861C43.866 34.9163 43.69 35.1487 43.5247 35.3877C43.22 35.8316 42.9185 36.2787 42.6438 36.7413C42.3465 37.2413 42.0707 37.7568 41.8046 38.2755C41.6147 38.6456 41.4548 39.0322 41.2853 39.4133C41.076 39.8813 40.8507 40.3439 40.6704 40.8241C40.5212 41.2195 40.3732 41.6171 40.2326 42.0158C40.151 42.2471 40.0834 42.4817 40.018 42.6899C40.1264 42.8683 40.2884 42.8308 40.4182 42.8771C40.7648 43.0027 41.1168 43.1062 41.4795 43.1712C41.7134 43.213 41.9323 43.3144 42.1738 43.3397C42.3283 43.3562 42.4753 43.4399 42.6298 43.4752C42.9571 43.5478 43.2865 43.6095 43.6149 43.6723C43.7458 43.6976 43.8864 43.6932 44.0065 43.7417C44.204 43.8221 44.4154 43.81 44.6171 43.8816C44.8317 43.9576 45.0775 43.9421 45.3092 43.9675C45.3554 43.973 45.4015 43.9862 45.4477 43.9928C45.5796 44.0104 45.7116 44.0258 45.8436 44.0413C45.8973 44.0479 45.952 44.0457 46.0046 44.0556C46.2707 44.1051 46.5357 44.1778 46.804 44.2032C47.1409 44.2351 47.4822 44.2384 47.8213 44.2395C48.7376 44.2439 49.6551 44.2417 50.5715 44.2395C50.6649 44.2395 50.7571 44.2274 50.8612 44.2197L50.8602 44.2208ZM53.1018 81.6976C53.2252 81.6976 53.3239 81.7174 53.4119 81.6943C53.7488 81.6073 54.0858 81.5147 54.4173 81.4079C54.6695 81.3264 54.9142 81.2207 55.161 81.1227C55.2704 81.0797 55.3917 81.0522 55.4807 80.9817C55.5741 80.9079 55.6685 80.8583 55.778 80.822C55.8595 80.7944 55.9389 80.757 56.0108 80.7085C56.3971 80.4475 56.7824 80.1854 57.1633 79.9166C57.3028 79.8186 57.4305 79.7019 57.5625 79.5928C57.6709 79.5014 57.7782 79.4089 57.8844 79.3142C57.967 79.2404 58.0443 79.1611 58.1258 79.0862C58.3286 78.8979 58.5411 78.7205 58.7343 78.5212C58.9167 78.3328 59.0562 78.0961 59.2547 77.9319C59.5047 77.7249 59.6249 77.4198 59.8577 77.1984C60.0402 77.0266 60.1711 76.7898 60.3245 76.5816C60.5295 76.3041 60.7087 76.0067 60.89 75.7116C61.0338 75.4792 61.14 75.217 61.3096 75.0067C61.5017 74.7677 61.6143 74.4868 61.7571 74.2247C62.0672 73.6531 62.344 73.0616 62.6209 72.4713C62.8119 72.0627 62.9868 71.6464 63.1574 71.2278C63.2679 70.958 63.3463 70.6749 63.4611 70.4073C63.5759 70.1386 63.607 69.8412 63.7476 69.5813C63.7873 69.5075 63.8077 69.4216 63.8259 69.3389C63.842 69.2663 63.842 69.1925 63.7508 69.1616C63.6349 69.122 63.5222 69.0746 63.4063 69.035C63.1928 68.9634 62.9803 68.8841 62.7625 68.8279C62.5082 68.7629 62.2464 68.7244 61.9899 68.6682C61.8526 68.6385 61.7174 68.5977 61.5811 68.5614C61.4233 68.5184 61.2688 68.4678 61.1089 68.4336C60.8879 68.3852 60.6636 68.3532 60.4415 68.307C60.2752 68.2728 60.111 68.2243 59.9457 68.1891C59.8234 68.1638 59.7 68.1473 59.5766 68.1285C59.3845 68.0988 59.1914 68.0702 58.9993 68.0404C58.8845 68.0228 58.7697 67.9964 58.6538 67.9854C58.4188 67.9644 58.1881 67.9292 57.9606 67.8664C57.9101 67.8521 57.8511 67.8697 57.7953 67.8708C57.7567 67.8708 57.7116 67.8796 57.6805 67.8631C57.5163 67.775 57.3425 67.8014 57.1687 67.7992C57.1064 67.7992 57.0442 67.7904 56.982 67.7816C56.8188 67.7607 56.6557 67.7364 56.4926 67.7177C56.4304 67.7111 56.3585 67.7342 56.3059 67.7111C56.0398 67.5922 55.7683 67.6076 55.4904 67.6406C55.4303 67.6472 55.367 67.6208 55.3048 67.612C55.1642 67.5922 55.0247 67.558 54.8841 67.5569C54.4023 67.5525 53.9216 67.5668 53.443 67.482C53.3314 67.4622 53.208 67.4479 53.1028 67.5294V81.6976H53.1018ZM63.8388 42.7978C63.8248 42.7207 63.8216 42.6337 63.7948 42.5566C63.6542 42.1557 63.5072 41.757 63.3624 41.3572C63.2336 41.0037 63.1091 40.649 62.9739 40.2977C62.8924 40.084 62.8001 39.8747 62.7046 39.6677C62.5136 39.2558 62.3183 38.8449 62.1219 38.4363C61.991 38.1643 61.8665 37.8867 61.7174 37.6246C61.5038 37.2512 61.272 36.8878 61.0456 36.5221C60.8289 36.173 60.6196 35.8172 60.3889 35.478C60.199 35.1983 59.9822 34.9372 59.7751 34.6707C59.5605 34.3942 59.3427 34.12 59.1249 33.8458C59.1055 33.8204 59.0819 33.7973 59.0583 33.7764C58.6302 33.3975 58.2793 32.936 57.8168 32.588C57.555 32.3908 57.3135 32.1606 57.0496 31.9613C56.5592 31.589 56.0366 31.2762 55.4904 31.002C55.2736 30.8941 55.0537 30.7894 54.8283 30.7013C54.6212 30.6198 54.4045 30.5658 54.1941 30.4931C53.8465 30.3731 53.4934 30.2861 53.1082 30.2784V44.2175C53.2252 44.2252 53.326 44.2384 53.4269 44.2384C54.1223 44.2406 54.8187 44.2505 55.514 44.2362C56.1804 44.2219 56.8489 44.2803 57.5099 44.114C57.7513 44.0534 58.0099 44.0699 58.26 44.0424C58.4939 44.017 58.7278 43.9862 58.9596 43.9443C59.1667 43.9069 59.3695 43.8463 59.5766 43.8067C59.8524 43.7527 60.1314 43.712 60.4082 43.6602C60.5531 43.6327 60.6937 43.5864 60.8385 43.5589C61.0306 43.5225 61.227 43.5082 61.4158 43.4608C61.7603 43.3749 62.1015 43.2714 62.4438 43.1778C62.5715 43.1425 62.7013 43.1161 62.829 43.0842C62.9954 43.0423 63.1617 42.9994 63.3259 42.9531C63.4836 42.909 63.6392 42.8584 63.8431 42.7967L63.8388 42.7978ZM67.5076 62.8959C67.5076 62.9652 67.5162 63.0456 67.5065 63.1227C67.4808 63.3287 67.4829 63.5501 67.4067 63.7362C67.3123 63.9675 67.338 64.2098 67.2769 64.4411C67.2286 64.6217 67.2297 64.8167 67.2082 65.005C67.206 65.0204 67.1975 65.0358 67.1878 65.0491C67.0741 65.2099 67.1234 65.4125 67.0505 65.5953C66.9421 65.8696 66.9474 66.1879 66.8798 66.482C66.7994 66.8322 66.6931 67.1769 66.5976 67.5239C66.5526 67.688 66.5976 67.7915 66.7489 67.8554C67.1492 68.0239 67.5591 68.1682 67.9583 68.3422C68.3349 68.5063 68.7019 68.6946 69.0828 68.8499C69.2137 68.9028 69.3371 68.9777 69.4616 69.046C69.6 69.122 69.7277 69.2299 69.8737 69.274C70.1988 69.3709 70.4585 69.5912 70.7568 69.7343C70.9027 69.8048 71.0433 69.8885 71.1806 69.9756C71.5916 70.2344 72.0005 70.4954 72.4072 70.7597C72.4973 70.8181 72.5681 70.8148 72.6314 70.7267C72.7366 70.5791 72.8471 70.4337 72.9437 70.2806C73.0574 70.1011 73.1433 69.9007 73.2688 69.731C73.6047 69.2773 73.8204 68.753 74.1144 68.275C74.1809 68.1671 74.2582 68.0647 74.3118 67.9512C74.4621 67.634 74.6069 67.3146 74.7475 66.993C74.9943 66.4291 75.2454 65.8674 75.4782 65.2969C75.6006 64.9962 75.6886 64.6801 75.7916 64.3717C75.8871 64.0854 75.9869 63.8012 76.0727 63.5126C76.1339 63.3089 76.1757 63.0985 76.2251 62.8926C76.0191 62.8166 67.7318 62.8188 67.5065 62.8992L67.5076 62.8959ZM36.2902 62.8727C35.9962 62.8122 27.9354 62.8254 27.7562 62.8826C27.7755 62.9972 27.783 63.1172 27.8173 63.2274C27.9096 63.5203 28.0148 63.8089 28.1135 64.0997C28.2766 64.5799 28.4279 65.0645 28.606 65.5392C28.7326 65.8729 28.8979 66.1912 29.0438 66.5172C29.2262 66.9236 29.4012 67.3333 29.59 67.7353C29.678 67.9237 29.7928 68.0977 29.8915 68.2816C30.1137 68.6968 30.3197 69.1209 30.5558 69.5262C30.7693 69.8929 31.014 70.241 31.2468 70.5967C31.2769 70.643 31.3241 70.6782 31.3563 70.7234C31.4142 70.806 31.4786 70.8137 31.558 70.7575C31.6471 70.6948 31.7351 70.6309 31.8284 70.5747C32.2769 70.3027 32.7244 70.0273 33.1783 69.7641C33.5796 69.5317 33.9874 69.3103 34.3984 69.0944C34.6656 68.9546 34.9478 68.8466 35.2118 68.7024C35.5305 68.5272 35.8771 68.4182 36.1968 68.242C36.4726 68.09 36.7881 68.0151 37.0842 67.9016C37.1486 67.8774 37.2044 67.8312 37.286 67.7827C36.8643 66.1559 36.5531 64.5127 36.288 62.8727H36.2902ZM59.8438 80.4783C59.9254 80.4783 59.9661 80.4883 59.9994 80.4772C60.2301 80.3968 60.4619 80.3186 60.6894 80.2272C61.154 80.0411 61.6176 79.8539 62.0768 79.6534C62.4213 79.5036 62.7636 79.3461 63.0952 79.1677C63.6918 78.8483 64.2798 78.5135 64.8689 78.1787C65.0975 78.0487 65.3185 77.9033 65.5374 77.7579C65.7553 77.6125 65.9656 77.4573 66.1802 77.3075C66.398 77.1544 66.6202 77.0057 66.8348 76.8471C67.0183 76.7116 67.1942 76.5673 67.3724 76.4253C67.5194 76.3085 67.6814 76.2039 67.8059 76.0651C67.9132 75.9439 68.0334 75.8514 68.1654 75.7677C68.219 75.7347 68.277 75.6983 68.3124 75.6477C68.4486 75.4538 68.6482 75.3349 68.8231 75.1884C68.8532 75.1631 68.8875 75.141 68.9144 75.1124C69.2406 74.7655 69.5646 74.4185 69.8898 74.0716C69.9981 73.956 70.0936 73.8227 70.2181 73.7302C70.599 73.4449 70.8405 73.0297 71.1646 72.6927C71.2364 72.6189 71.2193 72.5462 71.1367 72.4911C70.8684 72.3127 70.6055 72.1255 70.3276 71.9624C70.0593 71.8038 69.7739 71.675 69.4992 71.5285C69.2105 71.3754 68.9251 71.2124 68.6343 71.0626C68.3714 70.9271 68.1042 70.8016 67.837 70.6771C67.6503 70.5901 67.4593 70.5119 67.2715 70.426C67.1213 70.3577 66.9764 70.2795 66.824 70.2146C66.6094 70.1231 66.3937 70.035 66.1738 69.9568C66.0901 69.9271 65.9956 69.9315 65.9248 69.9227C65.8014 70.2498 65.6866 70.545 65.5793 70.8423C65.4387 71.23 65.325 71.6287 65.1597 72.0054C64.9151 72.5627 64.7101 73.1387 64.4247 73.6762C64.3614 73.7962 64.3152 73.9273 64.2541 74.0496C64.1189 74.3216 63.9815 74.5925 63.8431 74.8613C63.695 75.1488 63.5609 75.4461 63.3881 75.7171C63.1327 76.118 62.9267 76.5497 62.6455 76.9341C62.4964 77.1378 62.3741 77.3603 62.2292 77.5674C62.0564 77.8141 61.8751 78.0553 61.6927 78.2954C61.4233 78.6489 61.1615 79.0102 60.8739 79.3483C60.6046 79.6644 60.3052 79.9519 60.0209 80.2548C59.964 80.3153 59.9168 80.3847 59.8427 80.4794L59.8438 80.4783ZM70.6988 54.7687C70.7815 54.7864 70.8491 54.8095 70.9188 54.8139C71.4543 54.8469 71.9908 54.891 72.5273 54.902C73.0006 54.9119 73.4759 54.902 73.9481 54.869C74.7153 54.8172 75.4675 54.6806 76.1897 54.3954C77.0953 54.0385 77.8025 53.4482 78.2371 52.5439C78.5633 51.8644 78.6706 51.1397 78.6234 50.3918C78.5751 49.6187 78.339 48.916 77.8293 48.3268C77.3883 47.8168 76.8357 47.4809 76.2187 47.2474C75.5748 47.0029 74.9031 46.9005 74.2228 46.8707C73.1561 46.8245 72.0895 46.8531 71.0272 46.9698C70.9199 46.982 70.8137 47.0073 70.6988 47.0282V54.7676V54.7687ZM32.7845 39.3582C32.8296 39.5047 32.9648 39.5432 33.0817 39.6225C33.6719 40.0267 34.2932 40.3737 34.9231 40.703C35.5058 41.007 36.0981 41.2922 36.6947 41.5654C37.037 41.7218 37.3954 41.8418 37.7485 41.9718C37.9502 42.0456 37.9545 42.0401 38.021 41.8286C38.0994 41.5797 38.1702 41.3286 38.2807 41.0907C38.3601 40.9199 38.3955 40.7338 38.4749 40.5598C38.6455 40.1853 38.7743 39.7899 38.9353 39.4099C39.137 38.9319 39.3495 38.4573 39.5673 37.987C39.7089 37.6808 39.8645 37.3812 40.0244 37.0849C40.2863 36.6025 40.5363 36.1146 40.8249 35.6476C41.1114 35.1828 41.3958 34.7181 41.7188 34.2775C41.9645 33.9416 42.1813 33.5825 42.4656 33.2752C42.4871 33.2521 42.4967 33.2191 42.5161 33.1937C42.7081 32.9514 42.8916 32.7014 43.0955 32.4712C43.2844 32.2576 43.4979 32.067 43.6964 31.8622C43.7662 31.7906 43.823 31.7069 43.8864 31.6287C43.8767 31.6111 43.867 31.5923 43.8574 31.5747C43.7866 31.5835 43.7115 31.5802 43.646 31.6044C43.1663 31.784 42.6888 31.9657 42.2199 32.1761C41.6211 32.4448 41.0191 32.7047 40.4536 33.0417C40.3313 33.1144 40.2111 33.1937 40.0856 33.2609C39.9482 33.3336 39.8002 33.3854 39.666 33.4625C39.3838 33.6255 39.108 33.7984 38.8312 33.9713C38.6316 34.0958 38.4374 34.2268 38.2399 34.3546C38.0854 34.4548 37.9245 34.5451 37.7764 34.6553C37.5156 34.8502 37.2656 35.0606 36.9866 35.2291C36.9544 35.2489 36.9362 35.2908 36.9072 35.3161C36.8546 35.3624 36.801 35.4053 36.7452 35.4461C36.7012 35.478 36.6497 35.4989 36.6089 35.5342C36.4232 35.6928 36.2397 35.8558 36.0552 36.0155C35.7032 36.3206 35.3255 36.597 35.0122 36.9473C34.9435 37.0233 34.8748 37.0992 34.8008 37.1697C34.5153 37.4462 34.2235 37.716 33.9434 37.9991C33.732 38.2127 33.5356 38.4429 33.3328 38.6665C33.2577 38.748 33.1783 38.8262 33.1096 38.9132C33.0023 39.0509 32.9036 39.1941 32.7856 39.356L32.7845 39.3582ZM43.8456 80.4266C43.8606 80.4079 43.8756 80.3891 43.8907 80.3704C43.8381 80.3065 43.7887 80.2393 43.7329 80.1777C43.5473 79.9706 43.3595 79.7658 43.1738 79.5587C43.0783 79.4519 42.9839 79.345 42.8949 79.2338C42.7757 79.0862 42.6663 78.932 42.5461 78.7855C42.4066 78.6148 42.2478 78.4595 42.1201 78.2811C41.8797 77.9452 41.6608 77.5949 41.4248 77.2557C41.0352 76.6973 40.6833 76.1147 40.3624 75.5122C40.1414 75.0981 39.9203 74.6829 39.7068 74.2643C39.5448 73.9482 39.3838 73.6299 39.2379 73.305C39.0576 72.9008 38.9084 72.4834 38.7056 72.0869C38.5672 71.8171 38.4792 71.5164 38.3869 71.2234C38.2732 70.8611 38.0983 70.5207 38.0178 70.1452C38.0082 70.0989 37.9835 70.0548 37.9599 70.0141C37.9094 69.9271 37.8375 69.9293 37.756 69.9645C37.4459 70.1011 37.1336 70.2311 36.8256 70.3709C36.4168 70.556 36.0112 70.7465 35.6045 70.9338C35.4521 71.0042 35.2922 71.0615 35.1452 71.143C34.73 71.3732 34.3211 71.6144 33.908 71.849C33.6859 71.9757 33.4584 72.0913 33.2406 72.2246C33.0774 72.3248 32.9251 72.4438 32.7427 72.5715C33.3167 73.3392 33.9638 74.0077 34.6259 74.6575C35.2837 75.304 35.9801 75.9043 36.7087 76.4726C37.4298 77.0343 38.1627 77.5718 38.9342 78.0564C39.7111 78.5443 40.5062 78.9937 41.3346 79.3858C42.1555 79.7746 42.985 80.1369 43.8445 80.4255L43.8456 80.4266ZM50.873 62.8353C50.725 62.8353 50.608 62.8353 50.491 62.8353C46.6345 62.8353 42.779 62.8353 38.9224 62.8353C38.843 62.8353 38.7636 62.8309 38.6852 62.8386C38.6359 62.8441 38.5876 62.8694 38.5211 62.8914C38.6413 63.6029 38.7314 64.3045 38.8827 64.9918C39.0329 65.6746 39.152 66.3696 39.3924 67.0503C39.4686 67.0393 39.5394 67.0371 39.6049 67.0161C39.812 66.9489 40.0137 66.8619 40.2229 66.8069C40.606 66.7055 40.9934 66.6262 41.3711 66.4963C41.7005 66.3828 42.0525 66.3377 42.3959 66.2639C42.5998 66.2198 42.8036 66.1791 43.0086 66.1405C43.2232 66.0998 43.4378 66.0623 43.6524 66.0227C43.6911 66.0161 43.734 66.015 43.7662 65.9963C43.9636 65.8839 44.19 65.917 44.4004 65.8652C44.6332 65.8079 44.8843 65.8255 45.115 65.7628C45.2556 65.7242 45.3865 65.7066 45.5271 65.7099C45.5872 65.711 45.6633 65.7022 45.7073 65.6658C45.7985 65.5909 45.8908 65.5931 45.9949 65.6108C46.0561 65.6207 46.129 65.6273 46.1827 65.6031C46.364 65.5194 46.5572 65.5634 46.7418 65.5304C47.0218 65.4808 47.303 65.4698 47.5852 65.4566C47.6238 65.4544 47.6624 65.4379 47.7011 65.4323C47.8245 65.4169 47.949 65.3993 48.0734 65.3894C48.2773 65.3729 48.4812 65.3663 48.6851 65.3475C48.8085 65.3365 48.9297 65.3002 49.0531 65.2936C49.4545 65.2693 49.8569 65.2517 50.2582 65.233C50.3987 65.2264 50.5404 65.2253 50.681 65.2187C50.7411 65.2154 50.8022 65.2044 50.872 65.1966V62.832L50.873 62.8353ZM53.1018 65.2055C53.178 65.2099 53.2456 65.2165 53.3142 65.2187C53.4237 65.2209 53.5374 65.2022 53.6437 65.2242C54.0976 65.3156 54.5568 65.2969 55.015 65.2958C55.0998 65.2958 55.1857 65.3134 55.2694 65.3277C55.3852 65.3475 55.5044 65.4037 55.6149 65.3883C56.043 65.3299 56.4551 65.5414 56.8832 65.4533C56.9036 65.4489 56.9283 65.4665 56.9508 65.4698C57.1054 65.494 57.2599 65.516 57.4133 65.5403C57.5281 65.5579 57.6419 65.5898 57.7578 65.5953C58.0228 65.6075 58.2814 65.6537 58.539 65.7165C58.554 65.7198 58.5712 65.7143 58.5862 65.7165C58.8104 65.7418 59.0379 65.7506 59.2579 65.7991C59.3813 65.8266 59.4961 65.8762 59.626 65.8443C59.6592 65.8366 59.7 65.863 59.7376 65.8707C59.8288 65.8905 59.92 65.9081 60.0101 65.9302C60.0691 65.9445 60.1271 65.9654 60.1861 65.9808C60.2537 65.9974 60.3213 66.015 60.3911 66.0249C60.4447 66.0326 60.5027 66.0216 60.5542 66.0337C60.7334 66.0756 60.9093 66.1306 61.0885 66.1692C61.2838 66.2121 61.4834 66.2364 61.6787 66.2815C61.9642 66.3476 62.2474 66.4269 62.5318 66.4974C62.77 66.5558 63.0125 66.6009 63.2486 66.6692C63.5845 66.765 63.915 66.8785 64.2487 66.9809C64.3206 67.0029 64.3968 67.0084 64.4805 67.0227C64.5331 66.8377 64.5824 66.678 64.6253 66.5161C64.6693 66.3465 64.7316 66.1758 64.7402 66.004C64.7477 65.8377 64.8378 65.7077 64.8636 65.5524C64.9204 65.2121 64.9923 64.8728 65.0492 64.5325C65.0782 64.3596 65.1018 64.19 65.1533 64.0193C65.1941 63.8871 65.1994 63.7373 65.222 63.5952C65.2499 63.4234 65.2584 63.2472 65.3014 63.0754C65.3175 63.0115 65.2928 62.9366 65.2874 62.8749C65.0149 62.8133 53.2949 62.8243 53.1018 62.8859V65.2055ZM33.0034 54.8106C32.9659 54.6894 32.9433 54.6046 32.9143 54.522C32.7867 54.1553 32.659 53.7896 32.5302 53.424C31.793 51.328 31.0547 49.2321 30.3175 47.1362C30.2371 46.9071 30.2349 46.9071 29.9999 46.9071C29.2649 46.9071 28.5298 46.9071 27.7948 46.9071C27.5415 46.9071 27.5394 46.9071 27.4578 47.145C26.5994 49.6176 25.742 52.0913 24.8847 54.565C24.8589 54.6377 24.8439 54.7148 24.8138 54.826H25.081C25.6261 54.826 26.1713 54.826 26.7174 54.826C26.9546 54.826 26.9557 54.8249 27.0297 54.5914C27.1907 54.0826 27.3484 53.5737 27.5094 53.0649C27.5877 52.816 27.5888 52.8138 27.8366 52.8138C28.5084 52.8127 29.1801 52.8127 29.8518 52.8138C30.0954 52.8138 30.0976 52.816 30.1823 53.0638C30.3572 53.5759 30.53 54.0892 30.706 54.6013C30.7833 54.8249 30.7843 54.826 31.0054 54.8271C31.5902 54.8282 32.175 54.8271 32.7598 54.8271C32.8296 54.8271 32.8993 54.8194 33.0066 54.8128L33.0034 54.8106ZM55.5505 51.0879C55.5387 51.5802 55.6181 52.1563 55.7984 52.7158C56.1289 53.7379 56.7394 54.4912 57.7739 54.8095C58.4231 55.0088 59.083 55.0088 59.7397 54.8414C60.7666 54.5793 61.4276 53.902 61.7968 52.9041C61.9867 52.392 62.065 51.8578 62.0951 51.3115C62.1358 50.5659 62.0672 49.8356 61.8236 49.133C61.4856 48.1571 60.8653 47.4688 59.8706 47.178C59.494 47.0679 59.1098 47.0392 58.7214 47.0536C57.4981 47.0976 56.5742 47.6428 56.013 48.7794C55.6707 49.4744 55.5483 50.22 55.5516 51.0901L55.5505 51.0879ZM62.9052 50.9833C62.9052 51.0802 62.902 51.1782 62.9052 51.2752C62.9363 51.9878 63.0705 52.675 63.3924 53.3127C63.7969 54.1123 64.4204 54.6388 65.2778 54.8513C65.927 55.0122 66.5794 54.9967 67.2211 54.8062C67.9883 54.5793 68.5667 54.098 68.9347 53.3722C69.0828 53.0803 69.1998 52.7642 69.2835 52.4459C69.4509 51.8082 69.4874 51.154 69.4391 50.4932C69.3962 49.905 69.2856 49.3367 69.0431 48.8014C68.6708 47.9765 68.0677 47.4192 67.205 47.1714C66.8283 47.0635 66.4431 47.037 66.0547 47.0525C64.8518 47.1009 63.9375 47.6362 63.3763 48.7497C63.0243 49.4491 62.8988 50.2035 62.9031 50.9844L62.9052 50.9833ZM41.6222 54.9207C41.8443 54.924 42.0471 54.9284 42.2499 54.9306C43.0783 54.9373 43.8885 54.826 44.6675 54.5297C45.6784 54.1454 46.4746 53.4977 46.9435 52.4845C47.3953 51.5075 47.509 50.4756 47.2751 49.4237C47.0079 48.2232 46.2643 47.4666 45.1032 47.1637C44.4422 46.9919 43.7715 46.9963 43.1084 47.1648C42.3991 47.3454 41.7907 47.7012 41.3336 48.3014C40.4569 49.4513 40.6532 51.2719 42.236 51.9459C43.2447 52.3765 44.2501 52.3446 45.2073 51.7543C45.2094 51.7642 45.2191 51.7818 45.2148 51.7939C45.1933 51.8545 45.1719 51.9162 45.144 51.9734C44.8178 52.6585 44.2694 53.0649 43.5752 53.2841C43.0258 53.4581 42.4592 53.4955 41.8883 53.4834C41.8046 53.4812 41.7209 53.4834 41.6233 53.4834V54.9207H41.6222ZM39.6531 47.1989C39.5566 47.1593 39.4804 47.1218 39.401 47.0954C38.3097 46.7386 37.2023 46.6714 36.082 46.9159C35.5262 47.037 35.0111 47.265 34.5894 47.6681C34.0303 48.2012 33.8071 48.8543 33.9735 49.6275C34.07 50.0746 34.3383 50.4128 34.6785 50.6925C35.0465 50.9954 35.465 51.2036 35.906 51.3655C36.2333 51.4855 36.5692 51.5791 36.8922 51.7102C37.1325 51.8071 37.3675 51.9294 37.5875 52.0682C37.7699 52.1827 37.8719 52.3666 37.8719 52.599C37.8719 52.9393 37.6841 53.1398 37.4029 53.2621C37.0231 53.4273 36.6207 53.4526 36.2161 53.4218C35.5906 53.3744 34.9821 53.2422 34.3984 53.001C34.349 52.9812 34.2964 52.9713 34.2149 52.9493C34.0743 53.4548 33.937 53.9493 33.7943 54.4626C33.9456 54.5231 34.0668 54.5815 34.1924 54.6212C34.745 54.7985 35.3105 54.8965 35.8889 54.9351C36.6518 54.9868 37.404 54.9351 38.138 54.706C38.652 54.5463 39.1123 54.2896 39.4836 53.8777C40.1628 53.1233 40.2519 51.7741 39.343 50.9822C39.1638 50.8258 38.9685 50.676 38.7582 50.5736C38.3741 50.3874 37.9738 50.2344 37.5779 50.0758C37.2763 49.9546 36.9651 49.8599 36.669 49.7288C36.4984 49.6528 36.3299 49.5482 36.1915 49.4204C35.9597 49.2057 35.964 48.8576 36.1958 48.6451C36.3095 48.5404 36.4554 48.4479 36.6024 48.4105C36.845 48.3488 37.1003 48.3058 37.3493 48.3069C37.8805 48.308 38.402 48.395 38.9052 48.5812C38.9921 48.6131 39.0812 48.6373 39.1928 48.6715C39.3495 48.1726 39.4976 47.6979 39.6531 47.2V47.1989ZM52.8818 54.8117C52.8915 54.7225 52.9054 54.6443 52.9076 54.565C52.9118 54.4031 52.9086 54.2401 52.9086 54.0782C52.9086 51.8798 52.9086 49.6826 52.9086 47.4842C52.9086 47.1714 52.9033 47.167 52.6092 47.1659C52.2068 47.1648 51.8034 47.1626 51.401 47.1681C51.3001 47.1692 51.1917 47.1758 51.0995 47.2133C50.4159 47.4864 49.7356 47.7695 49.0531 48.047C48.9383 48.0933 48.8986 48.1604 48.934 48.2904C49.0274 48.6329 49.1079 48.9799 49.1958 49.3246C49.2087 49.3764 49.2355 49.4248 49.2667 49.4997C49.8096 49.275 50.3387 49.0559 50.9052 48.8213V49.1484C50.9052 50.9326 50.9052 52.7169 50.9052 54.5011C50.9052 54.6024 50.916 54.7038 50.9224 54.8117H52.8829H52.8818ZM67.4217 60.7482C67.4604 60.7647 67.4883 60.7834 67.5183 60.7878C67.5881 60.7988 67.6599 60.8087 67.7308 60.8087C68.4486 60.8109 69.1676 60.8308 69.8855 60.8065C70.4392 60.7878 70.9821 60.6744 71.5047 60.4739C71.95 60.3032 72.3374 60.0488 72.6389 59.6644C73.2259 58.9155 73.3472 57.4572 72.1604 56.7182C71.9854 56.6092 71.7998 56.5155 71.6099 56.4373C71.0755 56.2182 70.51 56.1279 69.9413 56.1201C69.1912 56.1102 68.4411 56.1466 67.6911 56.1675C67.6009 56.1697 67.5119 56.2038 67.4217 56.2226V60.746V60.7482ZM41.6909 56.1983C41.6329 56.4726 41.6426 60.5818 41.7027 60.7889C42.0546 60.7889 42.4163 60.7933 42.7768 60.7834C42.8165 60.7834 42.8712 60.7096 42.8884 60.6578C42.9088 60.6006 42.8981 60.5301 42.8981 60.4651C42.8981 60.0433 42.897 59.6214 42.8991 59.1996C42.8991 59.1071 42.9152 59.0146 42.9249 58.9077C43.1341 58.9077 43.3155 58.9033 43.4958 58.9077C44.1814 58.9265 44.4143 59.1082 44.6386 59.7734C44.7341 60.0565 44.8467 60.3329 44.953 60.6116C45.0013 60.7382 45.0882 60.7988 45.2266 60.7966C45.5346 60.7911 45.8425 60.7966 46.1505 60.7922C46.2009 60.7922 46.2514 60.7669 46.2997 60.7548C46.1226 60.2779 45.9584 59.8142 45.7782 59.3571C45.6526 59.0388 45.4391 58.7943 45.1311 58.6434C45.1 58.628 45.0732 58.6038 45.0249 58.5718C45.1204 58.5311 45.1933 58.5013 45.2642 58.4683C45.4906 58.3659 45.6977 58.2337 45.8597 58.0377C45.996 57.8735 46.0829 57.6885 46.0915 57.466C46.1087 57.0299 45.9059 56.7226 45.5614 56.5012C45.233 56.2898 44.8639 56.2038 44.4851 56.1565C43.8166 56.0717 43.1449 56.1003 42.4742 56.1257C42.2081 56.1356 41.9431 56.1719 41.6877 56.195L41.6909 56.1983ZM74.299 44.2087C74.299 44.1492 74.3204 44.0743 74.2957 44.027C74.123 43.6987 73.9427 43.3749 73.7581 43.0522C73.5821 42.7427 73.4051 42.4343 73.2162 42.1326C73.0048 41.7966 72.7806 41.4684 72.5445 41.1127C72.3438 41.2603 72.1636 41.4112 71.9661 41.5334C71.5949 41.7647 71.2182 41.985 70.8373 42.1987C70.5025 42.387 70.1548 42.5489 69.8232 42.7416C69.4852 42.9377 69.1279 43.0952 68.7834 43.278C68.5162 43.4201 68.219 43.5236 67.9368 43.6481C67.6084 43.7913 67.2715 43.9113 66.9399 44.0457C66.8573 44.0787 66.7822 44.1316 66.6792 44.1889C66.8949 44.2505 74.035 44.2604 74.2979 44.2076L74.299 44.2087ZM31.4271 41.1446C31.3166 41.3065 31.2307 41.4255 31.1513 41.5477C30.8745 41.9795 30.5901 42.4079 30.3272 42.8496C30.1083 43.2174 29.913 43.6007 29.7123 43.9807C29.6791 44.0446 29.6716 44.1228 29.6512 44.1955C29.884 44.2538 36.993 44.2571 37.2055 44.2065C37.1132 44.082 37.1143 44.0787 37.0016 44.0391C36.5284 43.8706 36.0724 43.6646 35.6163 43.4542C35.2257 43.2747 34.8351 43.0985 34.4574 42.8903C34.1752 42.735 33.8844 42.5941 33.5968 42.4487C33.5432 42.4211 33.4788 42.4123 33.4273 42.3815C33.2127 42.2537 33.0023 42.1194 32.7899 41.9883C32.5173 41.8198 32.2437 41.6513 31.9711 41.4828C31.7941 41.3737 31.6181 41.2636 31.426 41.1435L31.4271 41.1446ZM66.0986 58.0024H63.666C63.6585 57.9077 63.6499 57.8372 63.6489 57.7667C63.6467 57.5563 63.6478 57.3449 63.6489 57.1345C63.6499 56.8768 63.651 56.8746 63.8967 56.8746C64.5835 56.8746 65.2713 56.8746 65.9581 56.8746C66.0504 56.8746 66.1416 56.8658 66.2446 56.8603V56.1499C66.1287 56.1411 66.0289 56.1279 65.928 56.1279C64.8614 56.1268 63.7948 56.1279 62.7292 56.1279C62.682 56.1279 62.6337 56.1268 62.5876 56.1301C62.4331 56.1422 62.4138 56.1609 62.402 56.3184C62.3987 56.3591 62.3998 56.3999 62.3998 56.4395C62.3998 57.7854 62.3998 59.1324 62.3998 60.4783C62.3998 60.7966 62.402 60.7977 62.7217 60.7988C63.8517 60.7988 64.9805 60.7988 66.1105 60.7988C66.1738 60.7988 66.2403 60.8065 66.2982 60.7878C66.3433 60.7735 66.4077 60.7272 66.4109 60.6909C66.4291 60.4849 66.4571 60.2746 66.3798 60.051C66.2403 60.051 66.1072 60.051 65.9742 60.051C65.2713 60.051 64.5685 60.051 63.8656 60.051C63.6585 60.051 63.6532 60.0422 63.651 59.8307C63.6489 59.595 63.651 59.3604 63.651 59.1247C63.651 59.0135 63.651 58.9033 63.651 58.7712C63.7755 58.7646 63.8678 58.7547 63.96 58.7547C64.576 58.7536 65.1919 58.7547 65.8089 58.7525C65.9066 58.7525 66.0042 58.7326 66.1019 58.7227V58.0046L66.0986 58.0024ZM36.6851 56.1708V60.7416C36.8868 60.8142 40.4333 60.8209 40.679 60.7471C40.6886 60.5246 40.7037 60.2955 40.664 60.0499H39.7401C39.4396 60.0499 39.1402 60.0521 38.8398 60.0499C38.5425 60.0477 38.2453 60.0609 37.9363 60.04C37.9245 59.5972 37.918 59.1886 37.9395 58.7525C38.065 58.7525 38.1584 58.7525 38.2517 58.7525C38.8516 58.7525 39.4525 58.7525 40.0523 58.7525C40.1231 58.7525 40.1972 58.7591 40.2637 58.7414C40.3088 58.7293 40.3753 58.682 40.3785 58.6456C40.3957 58.4397 40.4204 58.2304 40.3506 58.0024H37.9609C37.9051 57.7138 37.9148 57.0728 37.9802 56.8746C38.3966 56.8746 38.8215 56.879 39.2465 56.8746C39.6682 56.8702 40.092 56.8977 40.5245 56.8537V56.1851C40.3281 56.1135 36.9662 56.1014 36.684 56.1719L36.6851 56.1708ZM35.7805 56.2732C35.6281 56.2303 35.5101 56.1873 35.3888 56.1653C34.5883 56.0199 33.7857 56.0078 32.9873 56.1664C32.4315 56.2776 31.911 56.4814 31.4528 56.8349C30.3133 57.7149 30.3143 59.4816 31.6041 60.2779C31.8649 60.4387 32.1535 60.5653 32.4454 60.6589C33.2041 60.9035 33.9863 60.9001 34.7697 60.833C35.0208 60.8109 35.2686 60.7592 35.5176 60.714C35.582 60.7019 35.6421 60.6634 35.7097 60.6347C35.6442 60.3869 35.5981 60.16 35.5004 59.964C35.4457 59.964 35.421 59.9585 35.3985 59.964C34.9274 60.0851 34.4477 60.1237 33.9649 60.1005C33.4863 60.0785 33.0238 59.986 32.6107 59.7184C32.0806 59.3747 31.8155 58.8053 31.999 58.0476C32.1171 57.5608 32.4529 57.2612 32.8843 57.0662C33.4573 56.8085 34.0636 56.781 34.6742 56.8404C34.9467 56.8669 35.2161 56.9253 35.5069 56.9726C35.5959 56.7457 35.6828 56.5243 35.7816 56.2721L35.7805 56.2732ZM54.897 60.7702C54.9861 60.7812 55.0558 60.7955 55.1245 60.7966C55.3777 60.7999 55.6299 60.7999 55.8831 60.7966C56.1224 60.7933 56.1385 60.7768 56.1396 60.5323C56.1418 60.0697 56.1396 59.6071 56.1407 59.1445C56.1407 59.0575 56.1503 58.9716 56.1568 58.867C56.2694 58.8604 56.3617 58.8505 56.454 58.8505C57.0388 58.8494 57.6236 58.8505 58.2085 58.8505C58.2793 58.8505 58.3555 58.8615 58.4198 58.8395C58.4681 58.8229 58.5357 58.7646 58.539 58.7216C58.5518 58.5234 58.5819 58.3207 58.5035 58.1026H57.7213C57.4605 58.1026 57.1998 58.1059 56.939 58.1026C56.6815 58.0993 56.4218 58.1192 56.1578 58.0861V56.8878C56.2598 56.8834 56.3446 56.8757 56.4293 56.8757C57.0935 56.8757 57.7567 56.8757 58.4209 56.8746C58.5121 56.8746 58.6033 56.8636 58.7106 56.857C58.7053 56.6059 58.7428 56.3834 58.6827 56.1477C58.5969 56.14 58.5196 56.1279 58.4424 56.1279C57.3436 56.1268 56.2458 56.1268 55.147 56.1279C55.0655 56.1279 54.9828 56.1499 54.8959 56.162V60.7691L54.897 60.7702ZM49.7377 56.9209C49.859 56.9131 49.9438 56.9043 50.0285 56.9032C50.4395 56.9021 50.8505 56.9032 51.2615 56.9032C51.3248 56.9032 51.3881 56.901 51.4514 56.901C51.5673 56.9021 51.6274 56.8482 51.6263 56.7248C51.6263 56.6114 51.6295 56.4979 51.6274 56.3845C51.6231 56.1488 51.6081 56.1345 51.387 56.1279C51.3162 56.1257 51.2443 56.1279 51.1735 56.1279C49.815 56.1279 48.4554 56.1257 47.0969 56.1279C46.554 56.129 46.6066 56.0596 46.6066 56.6378C46.6066 56.8834 46.6237 56.8999 46.8641 56.901C47.3148 56.9043 47.7644 56.901 48.2151 56.9032C48.2988 56.9032 48.3825 56.9164 48.4919 56.9264V60.7724C48.8879 60.8164 49.257 60.8043 49.6261 60.7823C49.6648 60.7801 49.7174 60.703 49.7324 60.6512C49.7517 60.5841 49.7399 60.507 49.7399 60.4332C49.7399 59.3703 49.7399 58.3075 49.7399 57.2447V56.9197L49.7377 56.9209ZM52.3356 60.7724C52.7251 60.8175 53.0953 60.8032 53.4634 60.7834C53.5031 60.7812 53.5557 60.7052 53.5707 60.6534C53.59 60.5863 53.5793 60.5092 53.5793 60.4354C53.5793 59.6159 53.5793 58.7954 53.5793 57.976C53.5793 57.4407 53.5814 56.9043 53.5782 56.3691C53.5771 56.1532 53.5557 56.1323 53.3464 56.129C53.0782 56.1245 52.8088 56.1257 52.5406 56.129C52.474 56.129 52.4075 56.1521 52.3367 56.1653V60.7724H52.3356ZM61.0746 56.1543C60.9802 56.1444 60.8954 56.1301 60.8117 56.129C60.6067 56.1257 60.4007 56.1279 60.1958 56.1279C59.9583 56.1279 59.8391 56.2468 59.8384 56.4847C59.8384 57.8064 59.8384 59.1291 59.8384 60.4508C59.8384 60.5081 59.8417 60.5642 59.8406 60.6215C59.8384 60.7438 59.8996 60.7977 60.0155 60.7966C60.331 60.7944 60.6475 60.7944 60.963 60.79C60.9984 60.79 61.0338 60.7658 61.0757 60.7504V56.1543H61.0746Z" fill="#B3B7BC"/>
<path d="M60.7645 22.6719C60.2301 22.1101 59.7151 21.5672 59.1914 21.0165C59.2494 20.8281 59.4404 20.7907 59.567 20.6828C59.7043 20.566 59.8674 20.4834 60.0112 20.3744C60.2849 20.164 60.5435 19.9338 60.8375 19.751C60.9684 19.6695 61.0757 19.5472 61.1937 19.4437C61.4126 19.2521 61.6187 19.0417 61.8537 18.8732C62.1337 18.6716 62.358 18.4139 62.6059 18.1793C62.9557 17.8478 63.18 17.4392 63.3356 16.9865C63.4171 16.7475 63.4965 16.5074 63.562 16.264C63.6403 15.9699 63.7079 15.6737 63.7669 15.3752C63.8238 15.0932 63.8367 14.8003 63.9225 14.5293C63.9697 14.3784 63.9611 14.2275 64.0019 14.0921C64.0481 13.9401 64.0277 13.7793 64.0781 13.6482C64.164 13.4246 64.0867 13.1801 64.2015 12.9676C64.2262 12.9224 64.2122 12.8563 64.2144 12.799C64.2187 12.6801 64.2112 12.5667 64.2777 12.4499C64.3238 12.3684 64.2981 12.2451 64.3088 12.1415C64.3195 12.027 64.3356 11.9124 64.3485 11.799C64.561 11.9796 64.7541 12.1393 64.943 12.3045C65.0321 12.3827 65.1115 12.4719 65.1995 12.5523C65.3572 12.6977 65.516 12.8398 65.6759 12.983C65.7231 13.0248 65.7682 13.0678 65.8197 13.1052C66.1427 13.3398 66.2264 13.6636 66.1963 14.0557C66.1727 14.3696 66.1674 14.6934 66.2146 15.0029C66.2918 15.5129 66.2671 16.0228 66.2811 16.5316C66.2897 16.8312 66.2811 17.1319 66.2714 17.4315C66.2661 17.6154 66.3229 17.7222 66.5086 17.7883C66.8541 17.9117 67.1996 18.046 67.5216 18.2212C67.9733 18.4679 68.4594 18.6331 68.9165 18.8677C69.3189 19.0747 69.7471 19.23 70.1623 19.4129C70.4488 19.5395 70.73 19.6783 71.0165 19.8027C71.4028 19.9713 71.7923 20.1299 72.1786 20.2951C72.2559 20.3281 72.3256 20.3777 72.4029 20.4085C72.4866 20.4415 72.5585 20.4096 72.5993 20.3281C72.7334 20.0671 72.8632 19.8038 72.9963 19.5428C73.2045 19.132 73.4094 18.719 73.6251 18.3115C73.7592 18.0582 73.9148 17.8181 74.0533 17.5669C74.1745 17.3467 74.2829 17.1187 74.3977 16.8951C74.5833 16.5371 74.769 16.1792 74.9557 15.8223C75.2004 15.3521 75.4429 14.8796 75.6918 14.4115C75.8184 14.1725 75.9644 13.9445 76.091 13.7044C76.3238 13.2627 76.5406 12.8123 76.781 12.375C77.0363 11.9113 77.2606 11.4311 77.5289 10.9741C77.7735 10.5577 77.9678 10.1106 78.191 9.67993C78.3069 9.45525 78.4378 9.23827 78.573 8.99707C78.8369 9.16668 79.1009 9.29775 79.3466 9.47397C79.6031 9.659 79.8027 9.88148 79.984 10.1326C80.0302 10.1965 80.071 10.2659 80.1042 10.3375C80.1761 10.4916 80.2523 10.6458 80.3081 10.8077C80.4154 11.1172 80.4154 11.4322 80.3221 11.7483C80.3038 11.8089 80.3145 11.8772 80.3092 11.9422C80.3049 11.9983 80.3145 12.0622 80.292 12.1096C80.1868 12.3221 80.1954 12.5567 80.1504 12.7814C80.1192 12.9367 80.0817 13.0909 80.0431 13.244C79.9958 13.429 79.9411 13.613 79.8928 13.7991C79.8252 14.059 79.7673 14.3223 79.6954 14.58C79.5559 15.0767 79.4089 15.5712 79.264 16.0658C79.1513 16.4479 79.0129 16.8235 78.9303 17.2112C78.8466 17.6022 78.6953 17.9689 78.5837 18.3478C78.4893 18.6694 78.4088 18.9976 78.3047 19.317C78.1845 19.6871 78.0375 20.0484 77.9163 20.4173C77.7542 20.9118 77.6083 21.4108 77.4527 21.9075C77.3679 22.1762 77.2724 22.4406 77.1887 22.7082C77.1555 22.8117 77.1394 22.9219 77.1158 23.0309C77.5224 23.2831 77.9077 23.5221 78.2929 23.7622C78.6234 23.9682 78.9518 24.1774 79.2812 24.3845C79.7533 24.6808 80.2255 24.9759 80.6976 25.2722C81.1601 25.5619 81.6237 25.8526 82.0862 26.1423C82.3941 26.3351 82.7118 26.5157 83.009 26.726C83.1807 26.8483 83.3213 27.019 83.4736 27.1699C83.7473 27.4419 83.8556 27.7878 83.9533 28.16C84.0413 28.496 83.9876 28.8154 83.9307 29.1183C83.8288 29.6612 83.6196 30.1811 83.2397 30.5952C83.0691 30.7813 82.8512 30.9058 82.6098 30.9961C82.201 31.1492 81.8039 31.071 81.408 30.9719C80.6129 30.7725 79.88 30.4179 79.1728 30.0005C79.0054 29.9013 78.8198 29.8353 78.6449 29.7482C78.5097 29.6811 78.3755 29.6117 78.2446 29.5346C77.8723 29.3143 77.4999 29.0984 77.1115 28.9068C76.7209 28.714 76.3635 28.4497 75.9815 28.236C75.621 28.0345 75.2454 27.8627 74.8806 27.6688C74.7089 27.5774 74.5512 27.4607 74.3838 27.3626C74.2325 27.2734 74.0747 27.193 73.8987 27.0972C73.7861 27.2382 73.682 27.3682 73.579 27.4981C73.55 27.5356 73.5232 27.5752 73.4942 27.6127C73.2206 27.9695 72.9491 28.3275 72.6722 28.6821C72.5156 28.8826 72.3439 29.072 72.1872 29.2724C72.0413 29.4597 71.9307 29.6833 71.7623 29.8441C71.5595 30.0379 71.4543 30.3011 71.2429 30.4906C71.0519 30.6613 70.9231 30.9036 70.759 31.1084C70.5916 31.3188 70.4145 31.5226 70.2428 31.7285C70.2074 31.7715 70.1709 31.8144 70.1387 31.8596C69.8855 32.2175 69.5968 32.5447 69.3125 32.8773C69.0957 33.1306 68.9112 33.4114 68.6966 33.6659C68.4337 33.9754 68.1525 34.2683 67.88 34.569C67.6761 34.7926 67.4776 35.0217 67.2683 35.2397C67.0988 35.4171 66.9196 35.5856 66.7393 35.7519C66.6062 35.8752 66.4539 35.9788 66.3305 36.1109C66.2639 36.1836 66.1867 36.1913 66.1105 36.22C65.5847 36.4138 65.1104 36.2839 64.6522 35.9953C64.3893 35.8301 64.1661 35.6175 63.9332 35.4171C63.768 35.275 63.7626 35.1726 63.8807 34.9754C64.1382 34.5459 64.3957 34.1163 64.6501 33.6846C64.8539 33.3377 65.0535 32.9885 65.251 32.6394C65.3744 32.4213 65.487 32.1966 65.6147 31.9807C65.7414 31.7649 65.8841 31.5578 66.0128 31.343C66.1491 31.1151 66.2736 30.8805 66.4066 30.6503C66.7114 30.1227 67.0172 29.5963 67.323 29.0698C67.6879 28.4431 68.0549 27.8164 68.4218 27.1908C68.5774 26.9254 68.7405 26.6633 68.894 26.3956C69.1258 25.9936 69.3522 25.5883 69.584 25.1852C69.7396 24.9165 69.9005 24.6499 70.0572 24.3823C70.1001 24.3085 70.1505 24.2358 70.1795 24.1554C70.2214 24.0409 70.1505 23.9693 70.0625 23.9208C69.7213 23.7325 69.4391 23.456 69.1086 23.2501C68.6912 22.9913 68.3135 22.6707 67.8982 22.4042C67.4303 22.1057 67.0065 21.7368 66.5558 21.4097C66.3455 21.2566 66.1126 21.1365 65.9002 20.9867C65.7896 20.9085 65.6984 20.8039 65.5761 20.7334C65.4495 20.6607 65.3422 20.5528 65.222 20.468C65.0256 20.3292 64.9301 20.3369 64.694 20.468C63.9547 20.8788 63.2122 21.2841 62.4728 21.6927C61.9331 21.9912 61.3955 22.293 60.8579 22.5948C60.8321 22.6091 60.8107 22.6344 60.7677 22.6708L60.7645 22.6719Z" fill="#B3B7BC"/>
<path d="M72.8038 53.4242C72.7448 53.1686 72.749 48.5593 72.8091 48.338C73.0173 48.3237 73.2351 48.3027 73.4551 48.2939C73.923 48.2752 74.3876 48.3071 74.8372 48.4525C75.6356 48.7124 76.1764 49.2312 76.3567 50.0925C76.4854 50.7103 76.4393 51.3205 76.2193 51.9098C75.9854 52.5364 75.5369 52.9495 74.9349 53.1951C74.247 53.4759 73.5313 53.4605 72.8049 53.4242H72.8038Z" fill="#B3B7BC"/>
<path d="M29.7675 51.4021C29.1344 51.4043 28.541 51.4054 27.9219 51.4021C28.2266 50.3833 28.5163 49.4152 28.8114 48.4272C29.128 49.413 29.4381 50.3778 29.7675 51.4032V51.4021Z" fill="#B3B7BC"/>
<path d="M60.0413 51.001C60.0231 51.5055 60.0059 52.0088 59.8654 52.4945C59.8053 52.7016 59.7269 52.9119 59.6153 53.0937C59.2548 53.6774 58.509 53.6983 58.098 53.1487C57.8909 52.8712 57.7858 52.5463 57.7321 52.2092C57.598 51.3634 57.5916 50.5164 57.7632 49.6739C57.8223 49.3864 57.9199 49.1133 58.0905 48.8731C58.4994 48.2993 59.2387 48.3147 59.6218 48.9073C59.8235 49.219 59.9115 49.5736 59.9576 49.9349C60.0027 50.2873 60.0145 50.6442 60.0413 50.9999V51.001Z" fill="#B3B7BC"/>
<path d="M67.3928 51.0133C67.3756 51.5177 67.3531 52.0211 67.2147 52.5068C67.1578 52.7061 67.0805 52.9077 66.9732 53.0839C66.6095 53.6809 65.8551 53.7018 65.442 53.1379C65.2424 52.8658 65.1394 52.5486 65.0857 52.2204C64.9484 51.3668 64.943 50.5111 65.1168 49.6608C65.1737 49.3821 65.2713 49.1167 65.4355 48.8821C65.8476 48.2951 66.5955 48.3127 66.9797 48.9174C67.1739 49.2236 67.2619 49.5694 67.3069 49.9229C67.3531 50.2831 67.3649 50.6487 67.3928 51.0122V51.0133Z" fill="#B3B7BC"/>
<path d="M42.8867 49.6555C42.9135 49.5046 42.9232 49.3482 42.9704 49.2039C43.1314 48.7149 43.478 48.4439 43.9748 48.4131C44.4341 48.3845 44.8096 48.564 45.0436 48.9924C45.2389 49.3515 45.2871 49.7436 45.256 50.1456C45.2432 50.3141 45.1519 50.4474 45.0285 50.5586C44.6229 50.9265 43.8932 51.0091 43.4265 50.7293C43.0284 50.4903 42.8921 50.1103 42.8867 49.6544V49.6555Z" fill="#B3B7BC"/>
<path d="M68.6749 60.0943V56.8871C68.7565 56.8705 68.8316 56.8474 68.9067 56.8408C69.469 56.7945 70.027 56.8144 70.5753 56.9686C70.644 56.9873 70.7116 57.0115 70.777 57.0379C71.2975 57.2494 71.6677 57.5974 71.7224 58.2021C71.7836 58.8651 71.5646 59.3971 70.9873 59.7429C70.6171 59.9643 70.2072 60.0568 69.7887 60.0888C69.4293 60.1163 69.0655 60.0943 68.6738 60.0943H68.6749Z" fill="#B3B7BC"/>
<path d="M42.9149 56.8727C42.9546 56.8517 42.975 56.8319 42.9965 56.8308C43.3978 56.8121 43.8024 56.7713 44.1994 56.8683C44.3357 56.9013 44.4741 56.9531 44.5911 57.0291C44.9237 57.2471 44.9387 57.6789 44.6329 57.9344C44.4623 58.0765 44.2595 58.1437 44.047 58.1778C43.68 58.2362 43.312 58.2307 42.9085 58.2031C42.8978 57.745 42.8903 57.3044 42.9149 56.8727Z" fill="#B3B7BC"/>
</g>
<defs>
<clipPath id="clip0_14679_4462">
<rect width="72" height="78" fill="white" transform="translate(12 9)"/>
</clipPath>
</defs>
</svg>
