<svg width="86" height="86" viewBox="0 0 86 86" fill="none" xmlns="http://www.w3.org/2000/svg">
<path d="M69.8529 41.9332C69.7239 56.9885 57.4838 69.1446 42.4233 69.034C27.3444 68.9665 15.1903 56.6691 15.264 41.5892C15.3623 26.5093 27.6639 14.3717 42.7182 14.4516C57.8095 14.5376 69.9513 26.8533 69.8529 41.9332Z" fill="#B3B7BC"/>
<path d="M8.58505 42.9404L9.34084 44.4208L11.0245 44.7095L9.75253 45.8704L10.0413 47.5228L8.5789 46.7304L7.07347 47.5228L7.39299 45.8336L6.16406 44.6542L7.82926 44.4146L8.58505 42.9404Z" fill="#B3B7BC"/>
<path d="M0.965235 42.7562H1.89922C1.99753 20.1332 20.3946 1.86537 43.0068 1.86537H43.2588C65.8526 2.00051 84.1329 20.3912 84.1329 42.9711V43.223C84.01 65.8398 65.6559 84.1076 43.0498 84.1076H42.7733C20.1488 83.9418 1.89922 65.6371 1.89922 43.0817V42.7684L0.965235 42.7562L0.03125 42.7439V43.0756C0.03125 66.6629 19.1103 85.7907 42.761 85.9627H43.0498C66.6821 85.9627 85.8657 66.8656 86.0008 43.223V42.9711C86.0008 19.3593 66.891 0.145467 43.271 -0.00195312H43.0068C19.3623 -0.00195313 0.141853 19.0952 0.03125 42.7562H0.965235Z" fill="#B3B7BC"/>
<path d="M12.284 35.5018L12.3209 36.6382C12.2779 37.1541 12.0997 37.5288 11.8478 37.8667L10.9691 38.7389C10.6311 38.9478 10.2748 39.089 9.82619 39.1505H8.58498C8.09341 39.0952 7.71859 38.9478 7.27617 38.7389L6.29303 37.9772L5.68471 36.8961C5.54953 36.4785 5.5311 36.0423 5.59869 35.5018L5.89977 34.5313L6.43436 33.7696L7.19015 33.2966L8.2163 33.1431L8.07497 33.9662L7.41135 34.089L6.87063 34.4146L6.50195 34.992L6.34219 35.6185L6.41592 36.6812L6.88906 37.4367L7.71859 37.9895L8.68329 38.2721L9.66029 38.2844L10.539 38.0079L11.2825 37.4305L11.6266 36.503L11.6143 35.6062L11.2825 34.8691L10.6496 34.3777L9.85077 34.132L9.51896 36.1652L8.80004 36.0485L9.26703 33.2291L12.6589 33.7757L12.579 34.3347L11.731 34.4084L12.2779 35.5018H12.284Z" fill="#B3B7BC"/>
<path d="M10.0404 31.19L9.45668 30.4898L9.25391 29.6298L9.44439 28.6716L10.0036 27.8178L10.7163 27.3141L11.6319 27.2158L12.5843 27.4431L13.4138 27.9222L13.9853 28.604L14.1942 29.4763L14.016 30.4775L13.4753 31.3067L12.7379 31.7859L11.8285 31.9149L10.8822 31.6876L10.0343 31.1839L10.0404 31.19ZM11.9514 31.104L12.5843 31.0119L13.0574 30.6986L13.4015 30.2011L13.4998 29.636L13.3585 29.0831L12.9161 28.5979L12.2832 28.2109L11.5274 28.0205L10.8945 28.1188L10.3784 28.4013L10.0711 28.8927L10.0097 29.4763L10.1203 30.0414L10.5258 30.5389L11.1772 30.932L11.9514 31.104Z" fill="#B3B7BC"/>
<path d="M12.4796 25.5387L12.0495 24.7586L11.9512 23.8741L12.3199 22.9343L13.0265 22.1849L13.8499 21.8594L14.7347 21.9024L15.6502 22.2893L16.363 22.9343L16.8239 23.7206L16.8669 24.5928L16.5043 25.5449L15.853 26.2943L15.0112 26.6075L14.1079 26.5707L13.2108 26.1714L12.4858 25.5449L12.4796 25.5387ZM14.366 25.7967L14.9928 25.8213L15.5396 25.5879L15.9636 25.1825L16.1111 24.6419L16.0988 24.0338L15.7977 23.4871L15.2078 22.9712L14.5073 22.6948L13.856 22.6579L13.3399 22.8852L12.922 23.2906L12.7315 23.8434L12.75 24.384L13.0634 24.9613L13.6532 25.4712L14.3722 25.7906L14.366 25.7967Z" fill="#B3B7BC"/>
<path d="M20.6704 20.0291L20.2218 19.593V20.4591L19.761 21.2207L18.9683 21.7858L18.1203 21.9271L17.2724 21.6753L16.4859 21.1347L15.8468 20.4529L15.5703 19.5991L15.644 18.7391L16.0926 17.916L16.406 17.6765L16.7624 17.4001L17.1986 17.2834H17.6902V17.2527L15.9144 15.6495L16.4306 15.0659L21.2234 19.4578L20.6704 20.0291ZM17.598 20.9627L18.1879 21.1286L18.784 21.0365L19.3431 20.6495L19.6504 20.0844V19.4885L19.4107 18.8989L19.0236 18.4443L18.4767 18.0389L17.8746 17.8546L17.2662 17.916L16.6641 18.2907L16.3445 18.8989V19.5315L16.6026 20.0844L17.0573 20.5635L17.598 20.9627Z" fill="#B3B7BC"/>
<path d="M22.484 10.2684L26.9573 14.003L26.0602 8.25362L27.0925 7.64551L30.2877 13.3212L29.5688 13.7266L26.8959 8.99686V9.02758L27.7746 14.7278L27.1478 15.1148L22.6991 11.4047L25.3352 16.1099L24.6347 16.5215L21.4395 10.8703L22.484 10.2684Z" fill="#B3B7BC"/>
<path d="M35.4667 11.8774L34.9444 11.8283L34.6249 11.3492L34.0473 12.0801L33.2423 12.4978L32.6463 12.6268L32.1056 12.5408L31.6754 12.2398L31.3866 11.6931L31.3129 11.0175L31.5648 10.5199L31.9519 10.1452L32.4865 9.83195L33.0272 9.58011L33.5373 9.32826L33.8138 9.09485L33.826 8.71401L33.611 8.36389L33.316 8.21033H32.9474L32.591 8.27175L31.8536 8.67716L31.7184 9.45112L30.9811 9.68453L30.9258 8.92286L31.2207 8.33318L31.7369 7.9032L32.4435 7.58993L33.0764 7.46094H33.6724L34.1763 7.73735L34.502 8.32703L35.1963 10.6796L35.3622 11.0236L35.5896 11.0666L35.7923 10.9929L35.9828 11.5519L35.4851 11.859L35.4667 11.8774ZM33.7462 9.88723L33.3038 10.0715L32.7876 10.3111L32.3759 10.5813L32.1547 10.9253V11.3983L32.3206 11.6931L32.5725 11.8406L32.8921 11.8774L33.2116 11.8221L33.8015 11.5211L34.1456 11.1403L34.2869 10.7349L34.25 10.3479L34.0411 9.61082L33.74 9.87495L33.7462 9.88723Z" fill="#B3B7BC"/>
<path d="M37.1313 6.66275L37.2296 7.36914C37.5184 6.76103 37.9916 6.42934 38.6552 6.33105L39.4601 6.39862L39.9886 6.69961L40.3327 7.17258L40.4801 7.90968L40.8611 10.9687L40.0869 11.0547L39.7059 7.90968L39.3803 7.22172L38.6552 7.05587L38.0469 7.22172L37.6475 7.58413L37.4385 8.08782V8.69593L37.7396 11.3434L36.99 11.4048L36.4062 6.71803L37.1375 6.66275H37.1313Z" fill="#B3B7BC"/>
<path d="M45.5319 11.0854L45.5995 10.3544H45.5564L44.8928 10.9687L43.9896 11.0854L43.2153 10.9441L42.7729 10.551L42.4964 9.99815L42.4473 9.29176L42.6623 6.21436L43.412 6.26964L43.2399 9.43918L43.4366 10.1517L44.137 10.4281L44.7515 10.3544L45.1878 10.0719L45.4889 9.62346L45.5995 9.04606L45.7777 6.39863L46.5396 6.4232L46.2631 11.1468L45.5319 11.0854Z" fill="#B3B7BC"/>
<path d="M47.873 7.33198L48.0328 6.66245L48.8132 6.76687L48.9361 6.13419L49.4399 5.34181L50.4354 5.2251L50.6996 5.27424L50.9269 5.39709L50.7917 6.0482L50.589 5.98063L50.3678 5.90692L49.9069 5.93149L49.6857 6.31232L49.5813 6.95729L50.4661 7.14157L50.3616 7.75582L49.4399 7.63911L48.6841 11.6072L47.9406 11.4475L48.6841 7.47326L47.873 7.33198Z" fill="#B3B7BC"/>
<path d="M53.9509 13.2043L53.5638 12.9033V12.3075L52.7036 12.6084L51.7696 12.4549L51.192 12.2215L50.8233 11.8406L50.6328 11.3492L50.7188 10.7411L51.0445 10.1514L51.5238 9.88731L52.0645 9.8136L52.6728 9.86888L53.2689 9.96716L53.7912 10.0654L54.166 9.99173L54.3995 9.71532L54.4179 9.30377L54.295 9.00893L53.9878 8.80008L53.6437 8.63423L52.808 8.56666L52.2673 9.10721L51.5115 8.87379L51.9232 8.24725L52.4762 7.9217L53.1583 7.87256L53.9018 7.98927L54.4855 8.25954L54.9525 8.6158L55.2106 9.11335L55.1614 9.80131L54.3995 12.0863L54.3012 12.461L54.4548 12.676L54.7128 12.7313L54.4916 13.2718L53.9263 13.2166L53.9509 13.2043ZM53.699 10.6367L53.1828 10.5323L52.6851 10.4278H52.1936L51.7819 10.5507L51.5361 10.9684L51.5053 11.2694L51.6098 11.5274L51.8495 11.7362L52.169 11.8959L52.8203 12.0003L53.3303 11.8959L53.6928 11.6564L53.8587 11.3431L54.0861 10.5876L53.6867 10.6428L53.699 10.6367Z" fill="#B3B7BC"/>
<path d="M59.7388 11.6258L59.1858 11.0239L58.4669 10.8703L57.8831 11.0116L57.3793 11.3986L57.0167 11.9637L56.7894 12.5349L56.7464 13.143L56.8938 13.702L57.3854 14.1566L58.3562 14.2733L59.0936 13.7266L59.8125 14.089C59.4254 14.5865 59.026 14.8875 58.5836 14.9735C58.1105 15.1148 57.6189 15.0288 57.0843 14.7278L56.3285 14.1627L55.9414 13.3642V12.4981L56.2917 11.5706L56.8631 10.7843L57.625 10.2499L58.4607 10.0718L59.4254 10.3912L60.0767 10.8642L60.4516 11.3986L60.6605 12.0497L60.4516 12.8113L59.7388 12.4551V11.6258Z" fill="#B3B7BC"/>
<path d="M64.2796 13.6528L63.8494 14.1934L63.1244 13.6528L61.4162 16.0361L61.2871 16.2142V16.374L61.4162 16.5214L61.6374 16.7486L61.92 16.9022L61.5022 17.4857L61.0352 17.1418L60.6542 16.7916L60.4453 16.4477V16.0853L60.7341 15.6491L62.4792 13.2044L61.834 12.7253L62.2518 12.154L62.897 12.6516L63.7081 11.5029L64.3594 11.9636L63.5176 13.0754L64.2796 13.6528Z" fill="#B3B7BC"/>
<path d="M64.6477 20.3172L65.1946 19.7644L65.1884 19.7398L64.2852 19.7828L63.4987 19.2976L63.0194 18.7018L62.8965 18.1121L63.0931 17.5162L63.4987 16.9573L65.6554 14.7275L66.1839 15.2681L63.9964 17.5408L63.7014 18.2226L64.021 18.8922L64.5432 19.2484L65.0901 19.3467L65.6001 19.1563L66.0671 18.8246L67.9289 16.8774L68.4635 17.3934L65.1946 20.8209L64.6477 20.3172Z" fill="#B3B7BC"/>
<path d="M70.2816 19.5499L69.4766 20.1764V20.2133C69.9313 20.0904 70.2816 20.0904 70.5827 20.2133L71.4245 20.8583L70.7977 21.3865L70.1894 20.846L69.5811 20.6433L68.9298 20.8153L68.2354 21.2145L66.5702 22.5413L66.1094 21.9209L69.8269 18.9971L70.2877 19.5438L70.2816 19.5499Z" fill="#B3B7BC"/>
<path d="M72.4581 22.6084L68.4702 25.2005L68.1016 24.5371L72.0096 21.9327L72.4581 22.6084ZM72.7346 21.4659L73.4966 20.9561L73.9205 21.6133L73.1525 22.1354L72.7346 21.4597V21.4659Z" fill="#B3B7BC"/>
<path d="M73.8512 24.9613L73.163 25.2807L73.2121 25.2992C73.8512 25.3176 74.3305 25.6431 74.6254 26.2881L74.8528 27.0191L74.7545 27.6333L74.4165 28.1186L73.7959 28.4871L71.0308 29.8692L70.6806 29.169L73.5255 27.7562L74.0662 27.2156L73.9864 26.4724L73.5808 25.9503L73.1077 25.7291L72.5792 25.6984L72.0078 25.8827L69.636 27.0621L69.2734 26.3802L73.5009 24.2856L73.8512 24.9675V24.9613Z" fill="#B3B7BC"/>
<path d="M71.2896 35.0535C70.8288 34.8201 70.4847 34.341 70.2881 33.6285L70.1836 32.9405L70.245 32.3017L70.4908 31.7366L71.0438 31.3496L71.2958 32.1297L70.9885 32.3201L70.8349 32.6887L70.8103 33.0756L70.8964 33.4626L71.2159 34.0462L71.6583 34.3656L72.2482 34.4638L72.9733 34.341L73.2621 34.2243L72.4755 33.8312L72.0331 33.0449L71.9717 32.1235L72.3219 31.3373L72.9118 30.7661L73.7475 30.3791L74.6323 30.2378L75.5233 30.3791L76.2606 30.8398L76.7645 31.7796L76.7952 32.6088L76.4081 33.3459L77.0471 33.1555L77.2499 33.868L73.1146 35.0351C72.3281 35.2747 71.7566 35.2501 71.2896 35.0351M73.047 33.4688L73.5631 33.7636L74.2145 33.868L74.8535 33.7636L75.4373 33.5302L75.8858 33.1309L76.1377 32.6395V32.013L75.7998 31.3926L75.3267 31.0977L74.706 31.0425L74.0731 31.1407L73.4894 31.3803L72.9671 31.7673L72.709 32.2464L72.7398 32.9159L73.0531 33.4749L73.047 33.4688Z" fill="#B3B7BC"/>
<path d="M79.8621 42.2586C79.8621 42.9097 79.7146 43.4134 79.3767 43.739C79.0572 44.1014 78.5717 44.2672 77.9696 44.2672C77.3674 44.2672 76.882 44.1259 76.5256 43.7881C76.163 43.4441 76.0156 42.9712 76.0156 42.3016L75.9787 40.3421H73.3242V39.4945L79.8437 39.4023L79.856 42.2648L79.8621 42.2586ZM76.7529 41.9822C76.7529 42.4982 76.8389 42.8299 77.0479 43.0756L77.945 43.395L78.7929 43.0571C79.051 42.8237 79.137 42.4368 79.137 41.9822V40.293L76.6976 40.3421L76.7529 41.9883V41.9822Z" fill="#B3B7BC"/>
<path d="M77.6861 46.9882L76.6968 46.8408L77.4403 47.6577L77.5141 48.7081L76.6968 48.6037V47.799L76.408 47.2032L75.8857 46.8408L75.0624 46.6135L73.0039 46.2941L73.1145 45.5386L77.7844 46.2388L77.6861 46.9882Z" fill="#B3B7BC"/>
<path d="M71.4557 52.2343L71.7568 51.8105H72.3221L72.0087 50.9505L72.107 50.0353L72.3159 49.4456L72.7276 49.0279L73.2008 48.8252L73.7968 48.905L74.4051 49.2245L74.7001 49.7036L74.7431 50.2503V50.8461L74.6632 51.4603L74.614 51.964L74.6632 52.3264L74.9643 52.5598L75.3698 52.6028L75.6709 52.4063L75.8798 52.1114L76.0334 51.7859L76.0703 50.9198L75.505 50.3793L75.7139 49.6544L76.3898 50.0353L76.6848 50.582L76.7831 51.2945L76.6663 52.0132L76.4328 52.6274L76.0703 53.1065L75.5726 53.3645L74.8783 53.3277L72.574 52.6458L72.1869 52.5598L71.978 52.7011L71.9534 52.9898L71.4004 52.7933L71.4434 52.2343H71.4557ZM74.0426 51.8719L74.1348 51.3559L74.1962 50.8461V50.3485L74.0426 49.9616L73.6678 49.7036L73.3114 49.6606L73.0533 49.808L72.8505 50.0414L72.7399 50.3854L72.6232 51.0058L72.7706 51.5402L72.998 51.9026L73.3175 52.093L74.0672 52.3203L74.0364 51.878L74.0426 51.8719Z" fill="#B3B7BC"/>
<path d="M73.2129 58.0146L73.7659 57.4372L73.9564 56.7246L73.7659 56.1042L73.3603 55.6681L72.7705 55.2811L72.1621 55.0784L71.5784 55.017L71.0377 55.232L70.583 55.7418L70.4847 56.6939L71.0377 57.431L70.7304 58.1128C70.2389 57.7873 69.9255 57.388 69.7965 56.9519C69.6613 56.4912 69.7166 55.9937 70.0115 55.4408L70.583 54.673L71.351 54.2615L72.2113 54.2246L73.1268 54.5317L73.9748 55.0969L74.4848 55.8032L74.663 56.7185L74.4049 57.6767L73.9748 58.2664L73.4279 58.7148L72.7766 58.9114L72.0147 58.7639L72.4079 58.033L73.2006 58.0023L73.2129 58.0146Z" fill="#B3B7BC"/>
<path d="M71.345 62.5473L70.7551 62.148L71.2897 61.3925L68.8748 59.7647L68.6782 59.6726H68.5246L68.3955 59.7647L68.2173 60.0227L68.0207 60.3298L67.4062 59.9306L67.7565 59.4146L68.1067 59.0276L68.3955 58.8311H68.7581L69.2435 59.0768L71.6891 60.7782L72.1683 60.0841L72.7398 60.4773L72.3158 61.1406L73.4403 61.9392L73.004 62.5657L71.8427 61.7672L71.345 62.5473Z" fill="#B3B7BC"/>
<path d="M69.9451 64.3042L66.2891 61.3435L66.8052 60.7354L70.4613 63.7022L69.9451 64.298V64.3042ZM71.1065 64.255L71.8438 64.8017L71.3707 65.4282L70.6395 64.8447L71.1126 64.2612L71.1065 64.255Z" fill="#B3B7BC"/>
<path d="M66.1041 67.2342L66.8476 66.8656L67.2348 66.2575L67.2839 65.6248L67.0258 65.072L66.5711 64.5007L66.1103 64.1076L65.5388 63.9049H64.9428L64.4144 64.2673L64.0027 65.0843L64.2915 65.9872L63.7139 66.5094C63.3944 66.0302 63.21 65.5757 63.2346 65.0843C63.2776 64.6052 63.5111 64.2059 63.9658 63.7452L64.7585 63.2538L65.5696 63.0757L66.3991 63.3398L67.1918 63.9356L67.7939 64.7526L68.0274 65.6003L67.9353 66.4786L67.3699 67.3202L66.7739 67.7501L66.1164 67.9774L65.4467 67.9099L64.7646 67.5413L65.3668 66.9885L66.1226 67.2403L66.1041 67.2342Z" fill="#B3B7BC"/>
<path d="M58.9879 68.1615C59.1231 67.7561 59.418 67.406 59.8666 67.0804L60.7637 66.6812L61.6362 66.6934L62.4289 67.0866L63.1478 67.8298L63.5534 68.7205L63.6087 69.6357L63.3199 70.4404L62.7115 71.1099L61.7223 71.5153L60.776 71.331L59.9772 70.8089L59.4303 70.1148L62.3183 68.1185L61.9312 67.6885L61.415 67.4244L60.8497 67.3814L60.2168 67.6885L59.6761 68.3273L59.7314 69.1074L59.0985 69.5681C58.8957 69.0522 58.8711 68.6038 58.9879 68.1799M60.8743 70.5755L61.3474 70.7414H61.8451L62.3552 70.5387L62.7546 70.164L62.902 69.6664V69.1689L62.7115 68.6836L60.4503 70.207L60.8804 70.5817L60.8743 70.5755Z" fill="#B3B7BC"/>
<path d="M52.673 76.7365L53.9204 76.6628L54.7745 76.1529L55.2415 75.3605L55.3644 74.4576L55.1555 73.4748L54.7315 72.5166L54.0802 71.8102L53.2506 71.4539L52.2183 71.5767L51.5424 71.9637L51.1246 72.5166L50.9157 73.2107L50.9894 73.9539L50.2152 74.2365C50.0001 73.4195 50.0923 72.7193 50.3934 72.1419C50.7129 71.5522 51.2413 71.1406 52.0586 70.8949L53.392 70.7168L54.5041 71.0853L55.3644 71.933L55.985 73.1308C56.1325 73.6161 56.1755 74.0399 56.2062 74.4699L55.9973 75.723L55.2784 76.7119L54.1477 77.3753L53.1646 77.5411L52.2675 77.4183L51.481 76.9515L50.8911 76.1714L51.7206 75.8949L52.6607 76.7242L52.673 76.7365Z" fill="#B3B7BC"/>
<path d="M44.8075 72.7872C45.17 72.5108 45.5632 72.2712 46.0917 72.2344L47.0748 72.3142L47.8613 72.7196L48.3591 73.4506L48.6294 74.4088L48.5987 75.3978L48.2239 76.227L47.5787 76.8106L46.7369 77.0931L45.6431 76.9518L44.9242 76.4113L44.4634 75.5636L44.2852 74.6791L47.806 74.2614L47.6463 73.6656L47.3145 73.2295L46.8106 72.9346L46.1593 72.8916L45.4035 73.2295L45.0471 73.9481L44.2852 74.0464C44.3405 73.4813 44.5002 73.082 44.8136 72.7811M45.3543 75.7725L45.6984 76.1533L46.1531 76.3621L46.6754 76.4113L47.1916 76.227L47.5664 75.9015L47.8183 75.4531L47.849 74.9309L45.1638 75.2504L45.3482 75.7786L45.3543 75.7725Z" fill="#B3B7BC"/>
<path d="M42.1324 77.2583V76.2325L41.4012 77.0741L40.375 77.3198V76.5397L41.2045 76.3677L41.733 76.0114L42.0218 75.4033L42.1324 74.6416L42.2061 72.5225H42.9557L42.8574 77.2583H42.1324Z" fill="#B3B7BC"/>
<path d="M37.2305 76.8719L37.2858 76.1839L38.2443 76.3068L38.5577 73.3829V73.1864L38.527 73.0144L38.3549 72.9468L38.0416 72.9038L37.6913 72.8731L37.7589 72.1729L38.3549 72.2527L38.8465 72.3448L39.1722 72.523L39.3749 72.8731V73.4259L39.0247 76.3682L39.8112 76.4726L39.7375 77.1667L38.9325 77.0746L38.7482 78.4628L37.9863 78.3707L38.1706 76.9579L37.2305 76.8719Z" fill="#B3B7BC"/>
<path d="M35.5902 77.443L35.4428 78.352L34.6562 78.1862L34.8467 77.271L35.5964 77.443H35.5902ZM35.0188 76.4479L35.9712 71.8164L36.7331 71.9823L35.7869 76.6444L35.0249 76.454L35.0188 76.4479Z" fill="#B3B7BC"/>
<path d="M33.9606 75.5265L33.7578 76.1654L32.9897 75.9565L32.7869 76.6383L32.2708 77.3754H31.2323L30.9865 77.2894L30.7715 77.1666L30.9743 76.5401L31.1709 76.6383L31.3368 76.7182L31.8161 76.7366L32.1049 76.3681L32.2831 75.7292L31.3798 75.4713L31.5519 74.814L32.4735 75.0597L33.5796 71.2329L34.3354 71.4295L33.2048 75.2993L33.9606 75.5265Z" fill="#B3B7BC"/>
<path d="M29.8928 75.8028L29.561 76.7426L28.8359 76.4477L29.1923 75.5571L29.8928 75.8089V75.8028ZM29.4565 74.7647L31.1709 70.3359L31.8837 70.6308L30.2 75.0165L29.4565 74.7647Z" fill="#B3B7BC"/>
<path d="M25.5012 71.9391L26.0788 72.5227L26.7547 72.7192L27.363 72.5841L27.8607 72.1726L28.2601 71.6136L28.4506 70.9809L28.512 70.4097L28.3031 69.8507L27.8115 69.4207L26.896 69.2671L26.1463 69.8507L25.4459 69.4821C25.8022 68.9846 26.1648 68.702 26.6441 68.5792C27.1172 68.5116 27.6026 68.5546 28.1556 68.8433L28.8746 69.4268L29.2863 70.1762V71.0669L28.9483 71.976L28.3707 72.7868L27.6026 73.3151L26.7547 73.4502L25.7961 73.1861L25.1878 72.7315L24.7577 72.1726L24.6348 71.5522L24.7577 70.7905L25.4889 71.1345L25.5012 71.933V71.9391Z" fill="#B3B7BC"/>
<path d="M22.4833 65.0046L22.7168 65.4345L22.5694 65.9997L23.4849 66.0242L24.3083 66.4296L24.763 66.8658L24.9903 67.3264L25.0211 67.8424L24.763 68.4075L24.2223 68.8559L23.657 68.9604L23.1408 68.8436L22.6185 68.5795L22.0286 68.3031L21.5924 68.0697L21.2237 67.9714L20.941 68.1618L20.7444 68.5611L20.7997 68.8866L20.9656 69.1876L21.2606 69.4272L22.0348 69.7712L22.723 69.4333L23.3743 69.9309L22.7721 70.4038L22.1638 70.4898L21.4387 70.3301L20.855 69.937L20.3634 69.5193L20.0193 69.0218L19.9395 68.5058L20.216 67.8301L21.703 65.8952L21.9365 65.5758L21.832 65.3424L21.6047 65.2564L21.961 64.7466L22.4956 64.9923L22.4833 65.0046ZM21.8689 67.5414L22.342 67.7933L22.7721 68.0451L23.2514 68.2355H23.657L24.0564 67.953L24.1854 67.6704L24.1731 67.3633L24.0072 67.0807L23.7553 66.8658L23.1777 66.5033L22.6861 66.4726L22.2744 66.5955L21.9549 66.8043L21.4695 67.4309L21.875 67.5291L21.8689 67.5414Z" fill="#B3B7BC"/>
<path d="M16.5791 65.9505L17.0584 65.4776L17.6913 66.1225L19.7804 64.0587L19.9341 63.8989L19.9402 63.7392L19.8849 63.598L19.6514 63.3523L19.4118 63.1127L19.8849 62.6274L20.3335 63.039L20.6653 63.4321L20.7943 63.7945L20.6714 64.1385L20.3765 64.5685L18.2197 66.6938L18.8034 67.265L18.318 67.7257L17.7711 67.1668L16.7511 68.1189L16.1797 67.6213L17.1997 66.6262L16.5791 65.9505Z" fill="#B3B7BC"/>
<path d="M14.9321 65.3544L14.1947 65.9994L13.7031 65.3851L14.4282 64.7709L14.9259 65.3544H14.9321ZM15.0857 64.261L18.6987 61.2144L19.1964 61.8348L15.5834 64.8077L15.0857 64.261Z" fill="#B3B7BC"/>
<path d="M15.043 62.0189L14.1091 62.0804L13.3287 61.7425L12.6282 61.0361L12.2227 60.0779L12.278 59.2057L12.7204 58.401L13.4639 57.7683L14.361 57.3752L15.2335 57.3076L16.0631 57.6086L16.7513 58.3396L17.1138 59.3039V60.1516L16.6652 60.9378L15.9524 61.589L15.0369 62.0189H15.043ZM16.0631 60.4096L16.358 59.8199L16.3887 59.2609L16.1737 58.7204L15.7865 58.3396L15.2274 58.1246L14.6006 58.1369L13.8817 58.4993L13.3287 58.9784L13.0276 59.5496L12.9846 60.127L13.2058 60.6676L13.5806 61.0976L14.1091 61.3248L14.785 61.2265L15.4855 60.9256L16.0569 60.4157L16.0631 60.4096Z" fill="#B3B7BC"/>
<path d="M10.2062 56.5031L10.9067 56.2021V56.1898C10.2738 56.1099 9.80684 55.7537 9.55491 55.1026L9.33984 54.347L9.50575 53.7389L9.89901 53.3028L10.5012 52.9281L13.3584 51.7549L13.6595 52.4736L10.7101 53.6959L10.1509 54.1935L10.2001 54.9367L10.5442 55.4527L11.0173 55.7537L11.5212 55.8089L12.1049 55.68L14.5689 54.648L14.8393 55.379L10.5135 57.1726L10.1939 56.5031H10.2062Z" fill="#B3B7BC"/>
<path d="M30.3608 41.386C29.2854 42.7865 27.8107 43.3086 26.4282 43.3086C21.9918 43.3086 19.3926 40.0101 19.3926 35.8762C19.3926 31.7423 21.9856 28.3086 26.4282 28.3086C29.3592 28.3086 32.1058 30.1268 32.4745 33.3639H29.4513C29.1011 31.7975 27.9152 30.9867 26.4282 30.9867C23.6139 30.9867 22.5202 33.3639 22.5202 35.8762C22.5202 38.2533 23.6139 40.6735 26.4282 40.6735C28.4866 40.6735 29.6848 39.6047 29.8262 37.5838H26.6924V35.2312H32.708V42.9769H30.6926L30.3608 41.3922V41.386Z" fill="white"/>
<path d="M35.2637 28.6714H39.6755L43.0305 38.4994H43.0489L46.238 28.6714H50.699V42.9712H47.7373V32.7992H47.6943L44.1672 42.9712H41.7524L38.2438 32.9282H38.1701V42.9712H35.2637V28.6714Z" fill="white"/>
<path d="M53.4395 28.6714H59.8913C63.4736 28.6714 64.8562 30.9318 64.8562 33.2291C64.8562 35.5264 63.4736 37.8299 59.8913 37.8299H56.6039V42.9712H53.4395V28.6714ZM56.6039 35.3974H59.0249C60.5119 35.3974 61.7962 35.0535 61.7962 33.2291C61.7962 31.4048 60.5058 31.1038 59.0249 31.1038H56.6039V35.3974Z" fill="white"/>
<path d="M31.2961 55.6921L30.4912 56.5644L29.1947 55.4096C28.4942 55.7843 27.7322 55.9685 27.044 55.9685C24.3097 55.9685 22.6875 53.7572 22.6875 51.1651C22.6875 48.5729 24.3097 46.4292 27.044 46.4292C29.7784 46.4292 31.3822 48.6037 31.3822 51.1651C31.3822 52.455 30.995 53.8002 30.0979 54.6847L31.2961 55.686V55.6921ZM27.1301 53.6405L27.9104 52.7621L29.0042 53.7388C29.5695 53.0447 29.7907 52.1172 29.7907 51.1651C29.7907 49.4513 29.0042 47.756 27.044 47.756C25.0839 47.756 24.2359 49.4513 24.2359 51.1651C24.2359 52.8788 25.0655 54.6786 27.044 54.6786L28.0518 54.4636L27.1301 53.6405Z" fill="white"/>
<path d="M38.4674 55.7475H37.0173V54.8199H36.9865C36.6363 55.471 35.8314 55.8949 35.0817 55.8949C33.3981 55.8949 32.6484 55.0349 32.6484 53.3334V49.1504H34.0986V53.1799C34.0986 54.3408 34.6024 54.7769 35.3582 54.7769C36.5871 54.7769 36.9804 54.003 36.9804 52.9956V49.1504H38.4674V55.7475Z" fill="white"/>
<path d="M45.5133 54.2734L45.8512 54.7771L46.2138 54.7403V55.7538L45.2859 55.8951C44.6837 55.8951 44.2782 55.7169 44.1553 55.1088C43.5961 55.6924 42.6622 55.8951 41.8572 55.8951C40.6959 55.8951 39.5898 55.287 39.5898 54.0093C39.5898 52.3263 40.9232 52.0929 42.1706 51.9639C43.2152 51.7366 44.1307 51.8656 44.1307 51.0056C44.1307 50.2501 43.3565 50.115 42.7728 50.115C41.9555 50.115 41.3718 50.4589 41.2919 51.153H39.8602C39.9524 49.4639 41.3964 48.9663 42.8526 48.9663C44.1492 48.9663 45.5133 49.4823 45.5133 50.8766V54.2673V54.2734ZM44.0447 52.4553C43.5961 52.7255 42.9141 52.7071 42.2935 52.83C41.6483 52.9282 41.0523 53.1555 41.0523 53.9479C41.0523 54.5806 41.9064 54.7771 42.4225 54.7771C43.0493 54.7771 44.0447 54.4577 44.0447 53.5118V52.4553Z" fill="white"/>
<path d="M48.5863 46.6445H47.1055V55.7539H48.5863V46.6445Z" fill="white"/>
<path d="M50.1719 47.9897H51.6835V46.6445H50.1719V47.9897ZM50.1719 55.7478H51.6835V49.1507H50.1719V55.7478Z" fill="white"/>
<path d="M52.5371 49.1503H53.6923V47.1602H55.1301V49.1503H56.4082V50.2069H55.1301V53.7327C55.1301 54.3408 55.1609 54.6725 55.8245 54.6725L56.4082 54.5926V55.7474L55.4927 55.8088C53.9504 55.8088 53.6923 55.2191 53.6923 54.1196V50.2069H52.5371V49.1503Z" fill="white"/>
<path d="M56.7461 49.1507H58.3929L60.1011 54.0401L61.754 49.1507H63.2901L60.734 56.1102C60.2608 57.3141 59.8983 58.346 58.3929 58.346L57.379 58.2723V57.0254L58.0979 57.1482C58.7431 57.1482 58.9274 56.7613 59.0995 56.2269L59.2715 55.7109L56.7461 49.1445V49.1507Z" fill="white"/>
</svg>
