<svg width="243" height="239" viewBox="0 0 243 239" fill="none" xmlns="http://www.w3.org/2000/svg">
<g opacity="0.2">
<path d="M133.993 99.8082C129.76 99.6513 125.469 99.58 121.107 99.58C116.744 99.58 112.453 99.6513 108.22 99.8082C107.093 99.8367 105.967 99.8795 104.84 99.9365C103.713 99.9935 102.586 100.051 101.459 100.108C86.8828 100.878 73.202 102.518 60.8791 104.856C59.7379 105.07 58.611 105.284 57.4987 105.526C56.3574 105.755 55.2161 105.997 54.1037 106.239C40.6829 109.177 29.1691 112.97 20.2267 117.376C18.8398 118.075 17.4963 118.774 16.2539 119.487C17.5107 120.2 18.8398 120.899 20.2267 121.597C29.1546 126.018 40.6829 129.811 54.1037 132.734C54.6238 146.98 55.9673 160.698 58.091 173.404C23.2749 166.416 0.0449219 153.811 0.0449219 139.408V99.58C0.0449219 85.1775 23.2749 72.5574 58.0765 65.57C59.2322 65.3276 60.4024 65.0994 61.6015 64.8855C62.7716 64.6574 63.9418 64.4577 65.1264 64.2581C77.7093 62.1048 91.578 60.6361 106.256 60.0514C107.382 60.0086 108.524 59.9659 109.679 59.9231C110.806 59.8946 111.948 59.8518 113.103 59.8375C115.733 59.7805 118.391 59.752 121.078 59.752C123.765 59.752 126.408 59.7805 129.052 59.8375C131.494 72.0298 133.169 85.5625 133.978 99.8082H133.993Z" fill="#BFD4E4"/>
<path d="M176.277 181.688C169.198 216.055 156.413 238.971 141.822 238.971H101.473C86.8821 238.971 74.097 216.041 67.0182 181.688C66.7726 180.548 66.5415 179.393 66.3248 178.209C66.0936 177.054 65.8914 175.899 65.6891 174.73C63.5077 162.309 62.0197 148.62 61.4274 134.131C61.3841 133.019 61.3407 131.878 61.2974 130.752C61.2685 129.64 61.2252 128.513 61.2107 127.372C61.1529 124.777 61.124 122.153 61.124 119.501C61.124 116.848 61.1529 114.239 61.2107 111.629C73.5625 109.219 87.2722 107.565 101.704 106.767C101.545 110.945 101.473 115.18 101.473 119.486C101.473 123.793 101.545 128.028 101.704 132.206C101.733 133.319 101.776 134.431 101.834 135.543C101.892 136.655 101.95 137.768 102.008 138.88C102.788 153.268 104.449 166.772 106.818 178.936C107.035 180.063 107.252 181.175 107.497 182.273C107.728 183.4 107.974 184.526 108.22 185.624C111.196 198.872 115.038 210.237 119.502 219.064C120.21 220.433 120.918 221.759 121.64 222.985C122.363 221.745 123.071 220.433 123.779 219.064C128.257 210.251 132.1 198.872 135.061 185.624C149.493 185.111 163.391 183.785 176.263 181.688H176.277Z" fill="#BFD4E4"/>
<path d="M58.0749 173.414C57.526 173.3 56.9915 173.186 56.4425 173.086C55.908 172.972 55.3734 172.858 54.8389 172.744C53.1342 172.373 51.4584 172.002 49.826 171.617C49.0459 171.418 48.2658 171.232 47.5001 171.047C44.8419 170.377 42.2705 169.664 39.7857 168.922C39.3234 168.794 38.8611 168.651 38.4133 168.509C37.9365 168.366 37.4742 168.209 36.9975 168.067C36.0729 167.781 35.1772 167.482 34.296 167.183C33.4148 166.883 32.548 166.584 31.6956 166.27C31.32 166.142 30.9444 165.999 30.5832 165.871C26.3071 164.288 22.421 162.591 18.9538 160.808C18.4771 160.566 18.0148 160.309 17.5525 160.067C14.9377 158.655 12.5974 157.186 10.5315 155.661C10.1992 155.404 9.85252 155.161 9.54914 154.905C9.18798 154.634 8.82681 154.334 8.49454 154.063C7.71443 153.422 7.00655 152.78 6.32757 152.124C6.03864 151.825 5.74971 151.539 5.47522 151.24C4.89736 150.641 4.37729 150.042 3.90056 149.443C3.62607 149.101 3.36604 148.744 3.12044 148.402C2.91819 148.131 2.74484 147.846 2.55703 147.561C2.4848 147.475 2.42701 147.39 2.38367 147.29C2.21031 147.019 2.0514 146.734 1.90694 146.449C1.76247 146.178 1.61801 145.907 1.48799 145.636C1.4302 145.55 1.40131 145.465 1.35797 145.365C1.22795 145.065 1.09793 144.766 0.982362 144.466C0.852344 144.138 0.736772 143.796 0.635646 143.468C0.635646 143.44 0.606753 143.425 0.606753 143.397C0.520074 143.126 0.447842 142.841 0.375609 142.57C0.274484 142.142 0.187805 141.7 0.130019 141.258C0.086679 140.987 0.057786 140.716 0.0433395 140.445C0.0433395 140.417 0.0433395 140.402 0.0433395 140.374C0.0144465 140.046 0 139.718 0 139.39C0 132.132 5.89417 125.344 16.1945 119.469C17.4514 120.182 18.7805 120.88 20.1673 121.579C21.8576 122.421 23.6489 123.233 25.527 124.018C26.1193 124.274 26.726 124.517 27.3472 124.759C27.9829 125.03 28.633 125.273 29.2831 125.529C29.9476 125.786 30.6121 126.028 31.2767 126.271C31.9557 126.513 32.6347 126.756 33.3281 126.998C33.7904 127.169 34.2527 127.312 34.7438 127.469C35.4517 127.711 36.1596 127.939 36.8819 128.182C37.5031 128.367 38.1243 128.567 38.76 128.766C40.5658 129.308 42.4294 129.836 44.3363 130.363C44.9286 130.534 45.5065 130.691 46.1132 130.834C47.8757 131.29 49.6815 131.732 51.5451 132.16C52.1952 132.317 52.8598 132.46 53.5243 132.602C53.6977 132.631 53.871 132.673 54.0444 132.716C54.5644 146.962 55.908 160.68 58.0316 173.386L58.0749 173.414Z" fill="#BFD4E4"/>
<path d="M108.751 139.093C112.984 139.25 117.274 139.321 121.637 139.321C126 139.321 130.291 139.25 134.524 139.093C135.65 139.064 136.777 139.021 137.904 138.964C139.031 138.907 140.158 138.85 141.284 138.793C155.861 138.023 169.542 136.383 181.865 134.045C183.006 133.831 184.133 133.617 185.245 133.374C186.386 133.146 187.528 132.904 188.64 132.661C202.061 129.724 213.575 125.931 222.517 121.524C223.904 120.826 225.248 120.127 226.49 119.414C225.233 118.701 223.904 118.002 222.517 117.303C213.589 112.883 202.061 109.09 188.64 106.166C188.12 91.9208 186.777 78.2027 184.653 65.4971C219.469 72.4844 242.685 85.1045 242.685 99.5071V139.335C242.685 153.738 219.455 166.358 184.653 173.345C183.497 173.588 182.327 173.816 181.128 174.03C179.958 174.258 178.788 174.457 177.603 174.657C165.02 176.81 151.151 178.279 136.474 178.864C135.347 178.906 134.206 178.949 133.05 178.992C131.923 179.021 130.782 179.063 129.626 179.078C126.997 179.135 124.339 179.163 121.652 179.163C118.965 179.163 116.321 179.135 113.677 179.078C111.236 166.885 109.56 153.353 108.751 139.107V139.093Z" fill="#BFD4E4"/>
<path d="M184.654 65.4812C185.203 65.5953 185.738 65.7094 186.287 65.8092C186.821 65.9233 187.356 66.0373 187.89 66.1514C189.595 66.5222 191.271 66.8929 192.903 67.278C193.683 67.4776 194.463 67.663 195.229 67.8484C197.887 68.5186 200.459 69.2316 202.944 69.9731C203.406 70.1014 203.868 70.244 204.316 70.3866C204.793 70.5292 205.255 70.6861 205.732 70.8287C206.656 71.1139 207.552 71.4133 208.433 71.7128C209.314 72.0123 210.181 72.3117 211.034 72.6254C211.409 72.7538 211.785 72.8964 212.146 73.0247C216.422 74.6076 220.308 76.3045 223.775 78.087C224.252 78.3294 224.714 78.5861 225.177 78.8285C227.792 80.2403 230.132 81.709 232.198 83.2348C232.53 83.4915 232.877 83.7339 233.18 83.9906C233.541 84.2616 233.902 84.561 234.235 84.832C235.015 85.4737 235.723 86.1154 236.402 86.7713C236.691 87.0708 236.98 87.356 237.254 87.6554C237.832 88.2543 238.352 88.8533 238.829 89.4522C239.103 89.7944 239.363 90.1509 239.609 90.4932C239.811 90.7641 239.984 91.0493 240.172 91.3345C240.244 91.4201 240.302 91.5056 240.346 91.6054C240.519 91.8764 240.678 92.1616 240.822 92.4468C240.967 92.7177 241.111 92.9887 241.241 93.2596C241.299 93.3452 241.328 93.4307 241.371 93.5305C241.501 93.83 241.631 94.1294 241.747 94.4289C241.877 94.7569 241.992 95.0991 242.094 95.4271C242.094 95.4556 242.122 95.4699 242.122 95.4984C242.209 95.7693 242.281 96.0545 242.354 96.3255C242.455 96.7533 242.541 97.1953 242.599 97.6374C242.643 97.9083 242.671 98.1793 242.686 98.4502C242.686 98.4787 242.686 98.493 242.686 98.5215C242.715 98.8495 242.729 99.1775 242.729 99.5054C242.729 106.764 236.835 113.552 226.535 119.427C225.278 118.714 223.949 118.015 222.562 117.316C220.872 116.475 219.08 115.662 217.202 114.878C216.61 114.621 216.003 114.379 215.382 114.136C214.746 113.865 214.096 113.623 213.446 113.366C212.782 113.109 212.117 112.867 211.453 112.625C210.774 112.382 210.095 112.14 209.401 111.897C208.939 111.726 208.477 111.584 207.985 111.427C207.278 111.184 206.57 110.956 205.847 110.714C205.226 110.528 204.605 110.329 203.969 110.129C202.163 109.587 200.3 109.06 198.393 108.532C197.801 108.361 197.223 108.204 196.616 108.061C194.854 107.605 193.048 107.163 191.184 106.735C190.534 106.578 189.869 106.436 189.205 106.293C189.032 106.265 188.858 106.222 188.685 106.179C188.165 91.9334 186.821 78.2153 184.698 65.5097L184.654 65.4812Z" fill="#BFD4E4"/>
<path d="M176.272 181.687C175.695 184.482 175.088 187.191 174.452 189.815C174.25 190.585 174.062 191.355 173.874 192.111C171.39 201.708 168.428 210.15 165.091 217.123C164.946 217.451 164.787 217.75 164.643 218.05C164.267 218.82 163.892 219.561 163.516 220.274C163.271 220.745 163.011 221.201 162.765 221.657C162.476 222.171 162.187 222.698 161.884 223.212C161.71 223.525 161.508 223.825 161.32 224.139C160.945 224.752 160.584 225.336 160.193 225.907C160.006 226.192 159.818 226.477 159.616 226.762C159.428 227.048 159.24 227.319 159.038 227.59C157.362 229.928 155.614 231.953 153.823 233.593C153.519 233.878 153.216 234.149 152.912 234.406C152.609 234.677 152.291 234.919 151.988 235.147C151.136 235.818 150.269 236.388 149.387 236.873C149.257 236.958 149.113 237.03 148.969 237.101C148.607 237.301 148.246 237.472 147.871 237.643C147.567 237.771 147.264 237.9 146.96 238.014C146.44 238.213 145.92 238.384 145.386 238.513C145.27 238.541 145.155 238.57 145.039 238.598C144.822 238.641 144.606 238.698 144.375 238.727C143.537 238.898 142.684 238.969 141.818 238.969C134.464 238.969 127.588 233.151 121.636 222.984C122.358 221.743 123.066 220.431 123.774 219.062C126.793 213.116 129.509 206.028 131.878 197.986C132.008 197.572 132.124 197.159 132.239 196.731C132.384 196.218 132.528 195.719 132.673 195.191C132.846 194.606 133.005 194.036 133.15 193.437C133.814 190.913 134.45 188.318 135.057 185.623C149.489 185.109 163.386 183.783 176.258 181.687H176.272Z" fill="#BFD4E4"/>
<path d="M67.0166 57.2822C74.0954 22.93 86.8805 0 101.472 0H141.821C156.412 0 169.197 22.93 176.275 57.2822C176.521 58.423 176.752 59.5781 176.969 60.7617C177.2 61.9167 177.402 63.0718 177.605 64.2411C179.786 76.6615 181.274 90.3511 181.866 104.839C181.91 105.951 181.953 107.092 181.996 108.219C182.025 109.331 182.069 110.458 182.083 111.598C182.141 114.194 182.17 116.818 182.17 119.47C182.17 122.122 182.141 124.732 182.083 127.341C169.731 129.751 156.022 131.405 141.589 132.204C141.748 128.026 141.821 123.791 141.821 119.484C141.821 115.178 141.748 110.942 141.589 106.764C141.561 105.652 141.517 104.54 141.459 103.427C141.402 102.315 141.344 101.203 141.286 100.091C140.506 85.7023 138.845 72.1981 136.475 60.0344C136.259 58.9079 136.042 57.7956 135.796 56.6976C135.565 55.571 135.32 54.4445 135.074 53.3465C132.098 40.099 128.255 28.7338 123.791 19.9069C123.083 18.5379 122.376 17.2118 121.653 15.9854C120.931 17.226 120.223 18.5379 119.515 19.9069C115.037 28.7195 111.194 40.099 108.232 53.3465C93.8004 53.8598 79.9029 55.186 67.031 57.2822H67.0166Z" fill="#BFD4E4"/>
<path d="M67.0166 57.2822C67.5945 54.4873 68.2012 51.7779 68.8369 49.1541C69.0391 48.384 69.2269 47.614 69.4147 46.8582C71.8995 37.2613 74.861 28.8194 78.1982 21.8463C78.3427 21.5183 78.5016 21.2188 78.646 20.9194C79.0216 20.1493 79.3973 19.4078 79.7729 18.6948C80.0185 18.2242 80.2785 17.7679 80.5241 17.3116C80.813 16.7982 81.1019 16.2706 81.4053 15.7573C81.5787 15.4435 81.7809 15.1441 81.9687 14.8304C82.3443 14.2172 82.7055 13.6325 83.0956 13.0621C83.2834 12.7769 83.4712 12.4917 83.6734 12.2065C83.8612 11.9213 84.049 11.6504 84.2513 11.3794C85.9271 9.04081 87.6751 7.0159 89.4665 5.376C89.7698 5.0908 90.0732 4.81986 90.3766 4.56319C90.68 4.29225 90.9978 4.04983 91.3012 3.82167C92.1535 3.15145 93.0203 2.58105 93.9015 2.09621C94.0316 2.01065 94.176 1.93935 94.3205 1.86805C94.6817 1.66841 95.0428 1.4973 95.4184 1.32618C95.7218 1.19784 96.0252 1.0695 96.3286 0.955417C96.8486 0.755778 97.3687 0.584658 97.9032 0.456319C98.0188 0.427799 98.1344 0.399279 98.2499 0.370759C98.4666 0.327979 98.6833 0.270939 98.9145 0.242419C99.7524 0.0712998 100.605 0 101.472 0C108.825 0 115.701 5.81806 121.653 15.9854C120.931 17.226 120.223 18.5379 119.515 19.9069C116.496 25.8533 113.78 32.9405 111.411 40.9831C111.281 41.3966 111.165 41.8102 111.05 42.238C110.905 42.7513 110.761 43.2504 110.616 43.7781C110.443 44.3627 110.284 44.9331 110.139 45.532C109.475 48.056 108.839 50.6514 108.232 53.3465C93.8004 53.8598 79.9029 55.186 67.031 57.2822H67.0166Z" fill="#BFD4E4"/>
</g>
</svg>
