<svg width="348" height="238" viewBox="0 0 348 238" fill="none" xmlns="http://www.w3.org/2000/svg">
<path d="M348 0L348 208.308C348 212.327 345.019 215.722 341.033 216.241L175.033 237.865C174.347 237.955 173.653 237.955 172.967 237.865L6.96657 216.241C2.98147 215.722 -9.28109e-06 212.327 -9.10543e-06 208.308L0 -1.52116e-05L348 0Z" fill="#F2F6F8"/>
<path d="M347.5 0.5L347.5 208.308C347.5 212.076 344.705 215.258 340.969 215.745L174.969 237.37C174.326 237.453 173.674 237.453 173.031 237.37L7.03115 215.745C3.29513 215.258 0.499991 212.076 0.499991 208.308L0.5 0.499985L347.5 0.5Z" stroke="url(#paint0_linear_15465_22575)" stroke-opacity="0.2"/>
<defs>
<linearGradient id="paint0_linear_15465_22575" x1="348" y1="238" x2="237.401" y2="-82.0405" gradientUnits="userSpaceOnUse">
<stop stop-color="#00ACEA"/>
<stop offset="1" stop-color="#B6C6D7"/>
</linearGradient>
</defs>
</svg>
