<svg width="38" height="52" viewBox="0 0 38 52" fill="none" xmlns="http://www.w3.org/2000/svg">
<path d="M29.9854 12.4637C29.7894 12.466 29.5993 12.3973 29.45 12.2704C29.3007 12.1435 29.2022 11.9669 29.1729 11.7731C28.6399 8.29319 29.244 4.73417 30.8954 1.625H7.06477C8.38206 4.1265 9.03662 6.92373 8.96601 9.74999C8.96601 9.96548 8.88041 10.1721 8.72804 10.3245C8.57567 10.4769 8.369 10.5625 8.15352 10.5625C7.93803 10.5625 7.73137 10.4769 7.57899 10.3245C7.42662 10.1721 7.34102 9.96548 7.34102 9.74999C7.40753 6.73805 6.59129 3.77246 4.9929 1.21875C4.92179 1.0956 4.88425 0.955935 4.88403 0.813725C4.88382 0.671515 4.92093 0.531739 4.99166 0.408367C5.0624 0.284995 5.16427 0.182349 5.28711 0.110688C5.40994 0.0390271 5.54944 0.000861795 5.69164 6.40483e-06H32.2522C32.3954 -0.000561993 32.5362 0.036711 32.6603 0.108051C32.7844 0.179391 32.8875 0.282265 32.9591 0.406256C33.0304 0.529771 33.068 0.669882 33.068 0.812505C33.068 0.955129 33.0304 1.09524 32.9591 1.21875C31.0313 4.28767 30.2621 7.94382 30.7897 11.5294C30.8059 11.635 30.801 11.7428 30.7755 11.8466C30.7499 11.9504 30.7041 12.0481 30.6407 12.1341C30.5773 12.2201 30.4975 12.2928 30.406 12.348C30.3145 12.4032 30.2129 12.4397 30.1072 12.4556L29.9854 12.4637Z" fill="#606C7A"/>
<path d="M32.2522 51.9998H20.6985C20.5026 52.002 20.3124 51.9334 20.1631 51.8064C20.0138 51.6795 19.9154 51.5029 19.886 51.3092C19.4648 48.016 19.6271 44.6743 20.3654 41.4373C19.4618 41.6201 18.5308 41.6201 17.6273 41.4373C18.3558 44.6756 18.518 48.0156 18.1066 51.3092C18.0772 51.5029 17.9788 51.6795 17.8295 51.8064C17.6802 51.9334 17.4901 52.002 17.2941 51.9998H5.69164C5.54985 51.999 5.41075 51.961 5.28817 51.8898C5.16558 51.8185 5.06379 51.7164 4.99289 51.5936C-3.31085 37.1636 0.629772 28.2992 4.09914 20.483C4.42414 19.7436 4.74914 19.0124 5.05789 18.2892C5.09664 18.187 5.15563 18.0936 5.23132 18.0147C5.30702 17.9358 5.39786 17.873 5.49842 17.83C5.59897 17.787 5.70716 17.7648 5.81651 17.7646C5.92586 17.7645 6.03411 17.7864 6.13479 17.8291C6.23546 17.8718 6.32649 17.9343 6.40241 18.013C6.47833 18.0917 6.53758 18.1849 6.57662 18.2871C6.61566 18.3892 6.63368 18.4982 6.62961 18.6074C6.62553 18.7167 6.59944 18.824 6.55289 18.923C6.24414 19.6542 5.91914 20.3936 5.58602 21.1411C2.14102 28.8924 -1.41773 36.9036 6.17101 50.3911H16.5954C16.8687 47.0409 16.5803 43.6687 15.7423 40.4136C15.7071 40.2654 15.7142 40.1104 15.7629 39.9661C15.8115 39.8218 15.8998 39.6941 16.0175 39.5976C16.1352 39.501 16.2777 39.4395 16.4288 39.42C16.5798 39.4005 16.7332 39.4238 16.8716 39.4873C17.5399 39.7923 18.2658 39.9502 19.0004 39.9502C19.7349 39.9502 20.4609 39.7923 21.1291 39.4873C21.2687 39.4229 21.4238 39.3993 21.5762 39.4194C21.7287 39.4396 21.8723 39.5026 21.9904 39.6011C22.1062 39.6982 22.1927 39.8257 22.24 39.9692C22.2874 40.1127 22.2938 40.2666 22.2585 40.4136C21.3985 43.6594 21.1179 47.0315 21.4297 50.3748H31.781C39.4022 36.8955 35.7054 28.5674 32.7316 21.8642C32.6433 21.6671 32.6369 21.4429 32.7138 21.241C32.7907 21.0391 32.9447 20.876 33.1419 20.7877C33.3391 20.6993 33.5633 20.6929 33.7652 20.7699C33.9671 20.8468 34.1301 21.0008 34.2185 21.198C37.2004 27.9336 41.2953 37.1636 32.9591 51.5936C32.8875 51.7176 32.7844 51.8204 32.6603 51.8918C32.5362 51.9631 32.3954 52.0004 32.2522 51.9998Z" fill="#606C7A"/>
<path d="M18.9922 41.5761C18.0221 41.5785 17.063 41.3706 16.1809 40.9667C16.042 40.9032 15.9237 40.8018 15.8397 40.6742C12.6303 35.7992 7.71471 32.4354 1.29596 30.648C1.09868 30.5926 0.929607 30.4646 0.822631 30.2899C0.715654 30.1151 0.678671 29.9063 0.719089 29.7055C1.01066 28.3019 1.41553 26.9242 1.92971 25.5861C2.00473 25.3908 2.15218 25.232 2.34137 25.1427C2.53055 25.0534 2.74689 25.0405 2.94534 25.1067C13.3428 28.6085 24.601 28.6085 34.9984 25.1067C35.1979 25.0381 35.4163 25.0497 35.6073 25.1392C35.7984 25.2286 35.9472 25.3889 36.0222 25.5861C36.5371 26.9254 36.9473 28.3027 37.249 29.7055C37.2914 29.9086 37.2544 30.1203 37.1456 30.2971C37.0368 30.4739 36.8645 30.6023 36.664 30.6561C30.1641 32.4354 25.2891 35.8073 22.1284 40.6742C22.0409 40.7987 21.9236 40.8993 21.7872 40.9667C20.9099 41.3676 19.9567 41.5754 18.9922 41.5761ZM17.0584 39.5773C18.2956 40.0809 19.6806 40.0809 20.9178 39.5773C24.1678 34.7023 29.0428 31.2167 35.5428 29.2992C35.3559 28.4867 35.1122 27.723 34.8278 26.8617C24.5543 30.1484 13.5114 30.1484 3.23784 26.8617C2.94534 27.6742 2.70971 28.4867 2.51471 29.2992C8.86845 31.2167 13.7759 34.6698 17.0747 39.5773H17.0584Z" fill="#606C7A"/>
<path d="M2.5 14V6.5L3 5L4 8L8 9.5L15.5 11L26 11.5L35.5 12V21.5H31.5H20.5L8 20L3.5 17L2.5 14Z" fill="white"/>
<path d="M35.4696 22.3437H20.9422C9.98968 22.3437 1.72656 19.0937 1.72656 14.7469V4.875C1.72656 4.65951 1.81216 4.45285 1.96454 4.30048C2.11691 4.1481 2.32357 4.0625 2.53906 4.0625C2.75455 4.0625 2.96121 4.1481 3.11358 4.30048C3.26596 4.45285 3.35156 4.65951 3.35156 4.875C3.35156 7.7025 10.5747 10.8469 20.9422 10.8469H35.4696C35.6851 10.8469 35.8918 10.9325 36.0442 11.0848C36.1965 11.2372 36.2821 11.4439 36.2821 11.6594V21.5312C36.2821 21.7467 36.1965 21.9534 36.0442 22.1058C35.8918 22.2581 35.6851 22.3437 35.4696 22.3437ZM3.35156 8.02749V14.7469C3.35156 17.5662 10.5747 20.7187 20.9422 20.7187H34.6571V12.4556H20.9422C12.8822 12.4556 6.27656 10.6925 3.35156 8.02749Z" fill="#606C7A"/>
<path d="M29.1648 22.3439C28.9493 22.3439 28.7426 22.2583 28.5903 22.106C28.4379 21.9536 28.3523 21.7469 28.3523 21.5314V17.3877C28.3523 17.1722 28.4379 16.9655 28.5903 16.8132C28.7426 16.6608 28.9493 16.5752 29.1648 16.5752C29.3803 16.5752 29.5869 16.6608 29.7393 16.8132C29.8917 16.9655 29.9773 17.1722 29.9773 17.3877V21.5314C29.9773 21.7469 29.8917 21.9536 29.7393 22.106C29.5869 22.2583 29.3803 22.3439 29.1648 22.3439Z" fill="#606C7A"/>
<path d="M24.0867 22.3439C23.8712 22.3439 23.6645 22.2583 23.5121 22.1059C23.3598 21.9535 23.2742 21.7468 23.2742 21.5314V16.9326C23.2742 16.7171 23.3598 16.5105 23.5121 16.3581C23.6645 16.2057 23.8712 16.1201 24.0867 16.1201C24.3022 16.1201 24.5088 16.2057 24.6612 16.3581C24.8136 16.5105 24.8992 16.7171 24.8992 16.9326V21.5314C24.8992 21.7468 24.8136 21.9535 24.6612 22.1059C24.5088 22.2583 24.3022 22.3439 24.0867 22.3439Z" fill="#606C7A"/>
<path d="M18.9922 22.3113C18.7767 22.3113 18.57 22.2257 18.4177 22.0733C18.2653 21.9209 18.1797 21.7143 18.1797 21.4988V16.4775C18.1797 16.262 18.2653 16.0554 18.4177 15.903C18.57 15.7506 18.7767 15.665 18.9922 15.665C19.2077 15.665 19.4143 15.7506 19.5667 15.903C19.7191 16.0554 19.8047 16.262 19.8047 16.4775V21.4988C19.8047 21.7143 19.7191 21.9209 19.5667 22.0733C19.4143 22.2257 19.2077 22.3113 18.9922 22.3113Z" fill="#606C7A"/>
<path d="M13.9221 21.8318C13.7066 21.8318 13.5 21.7462 13.3476 21.5939C13.1952 21.4415 13.1096 21.2348 13.1096 21.0193V16.0225C13.1096 15.807 13.1952 15.6003 13.3476 15.4479C13.5 15.2956 13.7066 15.21 13.9221 15.21C14.1376 15.21 14.3443 15.2956 14.4966 15.4479C14.649 15.6003 14.7346 15.807 14.7346 16.0225V21.0193C14.7346 21.2348 14.649 21.4415 14.4966 21.5939C14.3443 21.7462 14.1376 21.8318 13.9221 21.8318Z" fill="#606C7A"/>
<path d="M8.84424 20.6696C8.62875 20.6696 8.42209 20.584 8.26971 20.4316C8.11734 20.2792 8.03174 20.0726 8.03174 19.8571V15.5752C8.03174 15.3597 8.11734 15.153 8.26971 15.0007C8.42209 14.8483 8.62875 14.7627 8.84424 14.7627C9.05973 14.7627 9.26639 14.8483 9.41876 15.0007C9.57113 15.153 9.65674 15.3597 9.65674 15.5752V19.8571C9.65674 20.0726 9.57113 20.2792 9.41876 20.4316C9.26639 20.584 9.05973 20.6696 8.84424 20.6696Z" fill="#606C7A"/>
</svg>
