<svg width="57" height="57" viewBox="0 0 57 57" fill="none" xmlns="http://www.w3.org/2000/svg">
<path d="M42.0371 42.0342L47.6207 47.6178" stroke="#606C7A" stroke-width="1.5" stroke-miterlimit="10" stroke-linecap="round" stroke-linejoin="round"/>
<path d="M8.41016 8.40796L13.9938 13.9916" stroke="#606C7A" stroke-width="1.5" stroke-miterlimit="10" stroke-linecap="round" stroke-linejoin="round"/>
<path d="M13.9293 42.0984L8.41016 47.6176" stroke="#606C7A" stroke-width="1.5" stroke-miterlimit="10" stroke-linecap="round" stroke-linejoin="round"/>
<path d="M47.6209 8.40796L42.0381 13.9908" stroke="#606C7A" stroke-width="1.5" stroke-miterlimit="10" stroke-linecap="round" stroke-linejoin="round"/>
<path d="M9.19247 8.24767C10.5371 6.38211 10.1149 3.77971 8.24931 2.43505C6.38375 1.09038 3.78135 1.51265 2.43668 3.37821C1.09202 5.24377 1.51429 7.84617 3.37985 9.19083C5.2454 10.5355 7.8478 10.1132 9.19247 8.24767Z" fill="white" stroke="#606C7A" stroke-width="1.5" stroke-miterlimit="10" stroke-linecap="round" stroke-linejoin="round"/>
<path d="M9.19052 52.6481C10.5352 50.7825 10.1129 48.1801 8.24735 46.8354C6.3818 45.4908 3.7794 45.913 2.43473 47.7786C1.09007 49.6442 1.51233 52.2466 3.37789 53.5912C5.24345 54.9359 7.84585 54.5136 9.19052 52.6481Z" fill="white" stroke="#606C7A" stroke-width="1.5" stroke-miterlimit="10" stroke-linecap="round" stroke-linejoin="round"/>
<path d="M53.5909 52.6498C54.9356 50.7842 54.5133 48.1818 52.6477 46.8371C50.7822 45.4925 48.1798 45.9148 46.8351 47.7803C45.4905 49.6459 45.9127 52.2483 47.7783 53.5929C49.6438 54.9376 52.2462 54.5153 53.5909 52.6498Z" fill="white" stroke="#606C7A" stroke-width="1.5" stroke-miterlimit="10" stroke-linecap="round" stroke-linejoin="round"/>
<path d="M53.5929 8.24938C54.9375 6.38382 54.5153 3.78142 52.6497 2.43676C50.7841 1.09209 48.1817 1.51436 46.8371 3.37992C45.4924 5.24548 45.9147 7.84788 47.7802 9.19254C49.6458 10.5372 52.2482 10.1149 53.5929 8.24938Z" fill="white" stroke="#606C7A" stroke-width="1.5" stroke-miterlimit="10" stroke-linecap="round" stroke-linejoin="round"/>
<path d="M28.0147 47.8433C38.9665 47.8433 47.8447 38.965 47.8447 28.0132C47.8447 17.0613 38.9665 8.18311 28.0147 8.18311C17.0628 8.18311 8.18457 17.0613 8.18457 28.0132C8.18457 38.965 17.0628 47.8433 28.0147 47.8433Z" stroke="#606C7A" stroke-width="1.5" stroke-miterlimit="10" stroke-linecap="round" stroke-linejoin="round"/>
<path d="M28.0157 47.8433C32.5818 47.8433 36.2833 38.965 36.2833 28.0132C36.2833 17.0613 32.5818 8.18311 28.0157 8.18311C23.4496 8.18311 19.748 17.0613 19.748 28.0132C19.748 38.965 23.4496 47.8433 28.0157 47.8433Z" stroke="#606C7A" stroke-width="1.5" stroke-miterlimit="10" stroke-linecap="round" stroke-linejoin="round"/>
<path d="M9.84473 28.0129H46.1849" stroke="#606C7A" stroke-width="1.5" stroke-miterlimit="10" stroke-linecap="round" stroke-linejoin="round"/>
</svg>
