<svg width="96" height="96" viewBox="0 0 96 96" fill="none" xmlns="http://www.w3.org/2000/svg">
<g clip-path="url(#clip0_14679_4550)">
<path d="M14 75.994C14 57.3568 14 38.7196 14 20.0824C14.1376 19.3216 14.2095 18.5426 14.4244 17.8032C15.4069 14.4172 17.5188 11.9676 20.9016 10.6775C21.8098 10.3315 22.8111 10.2192 23.7701 10C39.8971 10 56.0248 10 72.1517 10C72.3831 10.0283 72.616 10.0481 72.8458 10.0863C76.9821 10.7669 79.763 13.0866 81.259 16.8652C81.6428 17.8353 81.7608 18.9054 82 19.9296V76.0704C81.9781 76.1811 81.9484 76.2919 81.9359 76.4034C81.7585 78.0059 81.2762 79.5114 80.4258 80.8954C79.0322 83.1647 77.079 84.7649 74.4754 85.5471C73.772 85.7586 73.0318 85.8518 72.308 86H23.9264C23.4497 85.9397 22.9635 85.9198 22.4984 85.8129C18.6381 84.92 16.0353 82.6155 14.6909 78.9927C14.3361 78.0372 14.2235 76.9961 14 75.994ZM80.8245 47.8717H80.8135C80.8135 38.7708 80.8338 29.6699 80.8018 20.569C80.7916 17.7184 79.6708 15.2872 77.4831 13.3768C75.6823 11.8041 73.536 11.1434 71.1317 11.145C55.6973 11.1549 40.2621 11.1526 24.8276 11.145C22.5109 11.1434 20.4467 11.7942 18.6592 13.2501C18.2754 13.5625 17.9073 13.8573 17.5759 14.2591C15.9509 16.232 15.1748 18.4547 15.1748 20.9639C15.1748 38.9365 15.1748 56.9092 15.1763 74.8826C15.1763 75.1881 15.1787 75.4937 15.1982 75.7984C15.3569 78.3565 16.3276 80.5677 18.2176 82.3551C20.0379 84.0775 22.2475 84.8535 24.7753 84.852C38.777 84.8443 52.7795 84.8482 66.7813 84.8489C68.3312 84.8489 69.8812 84.8604 71.4311 84.8466C75.4501 84.81 78.8923 82.3711 80.2062 78.6948C80.7002 77.3116 80.8284 75.8962 80.8276 74.4503C80.8221 65.5915 80.8252 56.732 80.8252 47.8732L80.8245 47.8717Z" fill="#B3B7BC"/>
<path d="M17.7714 42.3201C17.687 40.7619 18.1669 39.3657 19.1049 38.1275C19.4871 37.6226 19.9498 37.172 20.4055 36.7259C23.3029 33.8876 26.2034 31.053 29.1118 28.2254C30.7415 26.6412 32.3946 25.08 34.025 23.4966C35.3444 22.2156 36.6426 20.9141 37.9573 19.6278C39.254 18.3599 40.5749 17.1149 41.8536 15.8301C42.4672 15.2129 43.1542 14.6958 43.9233 14.3132C44.7752 13.8892 45.6929 13.602 46.6722 13.5891C47.6211 13.5768 48.5715 13.544 49.4837 13.8763C50.3598 14.1955 51.2173 14.5576 51.8981 15.2053C53.2963 16.5351 54.6829 17.8771 56.0672 19.2215C58.469 21.5526 60.8631 23.8922 63.2666 26.2219C64.5718 27.4875 65.8982 28.7318 67.2012 29.9997C68.4009 31.1668 69.5757 32.3599 70.7747 33.527C71.5102 34.2427 72.2895 34.9172 73.0187 35.639C73.8495 36.4601 74.7757 37.1987 75.4198 38.1879C76.0709 39.1877 76.568 40.2219 76.6626 41.4494C76.7548 42.6478 76.7274 43.8233 76.2647 44.9247C75.9552 45.6618 75.5183 46.3836 74.9907 46.9886C74.0997 48.0098 73.1047 48.9463 72.1292 49.8949C70.9123 51.0781 69.6656 52.2314 68.4424 53.4077C67.5107 54.3037 66.5986 55.2195 65.6708 56.1193C63.6777 58.054 61.676 59.9804 59.6852 61.9182C57.2318 64.3067 54.7955 66.7134 52.3318 69.092C51.322 70.0666 50.0839 70.6486 48.695 70.9496C47.5773 71.1917 46.494 71.139 45.3865 70.8579C44.4399 70.6181 43.5817 70.2079 42.8142 69.6641C42.153 69.1959 41.6097 68.5665 41.0243 67.999C40.2544 67.2527 39.4963 66.4958 38.7295 65.7464C37.7611 64.8001 36.7911 63.856 35.8196 62.9119C34.8308 61.951 33.8374 60.9955 32.8526 60.03C31.8498 59.047 30.8657 58.0456 29.8567 57.0687C28.6561 55.9054 27.429 54.7673 26.2292 53.6033C24.251 51.6845 22.279 49.7597 20.3195 47.8219C19.7856 47.2941 19.2174 46.7671 18.825 46.1438C18.1341 45.0462 17.6925 43.8401 17.7707 42.5095C17.7746 42.4461 17.7707 42.382 17.7707 42.3186L17.7714 42.3201ZM62.2294 58.4841C61.5197 57.844 60.8733 57.2894 60.2613 56.7013C59.6555 56.1193 59.0748 55.5113 58.5034 54.8979C58.3494 54.7329 58.2877 54.6879 58.0798 54.8483C57.5108 55.2859 56.9027 55.6747 56.3204 56.0971C55.7021 56.5455 55.005 56.8373 54.2945 57.1046C53.4511 57.4224 52.6179 57.7707 51.7597 58.0426C51.1844 58.2251 50.5764 58.3168 49.9769 58.4153C49.2242 58.5391 48.4676 58.6704 47.7078 58.7224C46.3627 58.814 45.0332 58.5948 43.7326 58.3084C42.6524 58.0701 41.605 57.6813 40.5569 57.3208C39.9973 57.1283 39.4345 56.906 38.9304 56.6058C38.1488 56.1399 37.3859 55.632 36.67 55.0751C35.5679 54.2197 34.5581 53.2557 33.7733 52.1085C33.1222 51.1567 32.5188 50.1668 31.9748 49.1532C31.6067 48.4673 31.3339 47.7226 31.101 46.9794C30.8892 46.305 30.7547 45.6022 30.6477 44.9026C30.5195 44.0647 30.4327 43.2191 30.3749 42.3743C30.3483 41.9871 30.4194 41.5914 30.4671 41.2019C30.5601 40.4358 30.5961 39.6536 30.7876 38.9097C31.0353 37.9465 31.4019 37.0108 31.7364 36.0698C32.1523 34.9034 32.7893 33.8494 33.5201 32.8488C34.637 31.3188 35.9712 29.9951 37.5446 28.9136C38.1628 28.4889 38.792 28.0863 39.5189 27.8244C40.5335 27.4585 41.5003 26.9628 42.5187 26.6099C43.1581 26.3884 43.8506 26.2876 44.5283 26.2012C45.5545 26.0699 46.5878 25.9858 47.6203 25.9079C47.8993 25.8865 48.1885 25.9484 48.4699 25.9912C49.325 26.1203 50.1926 26.2043 51.0289 26.4075C51.9285 26.6259 52.8024 26.9521 53.6809 27.2492C53.9584 27.3432 54.2132 27.4997 54.4813 27.6197C54.9838 27.8442 55.531 28 55.9851 28.2949C57.3334 29.1694 58.6301 30.1173 59.6813 31.3395C60.2058 31.9497 60.7693 32.5425 61.1969 33.2154C61.7393 34.0693 62.227 34.9707 62.6186 35.9002C63.0352 36.8901 63.3658 37.9228 63.6363 38.9608C64.1631 40.985 64.0779 43.0427 63.7777 45.0874C63.526 46.8076 62.9383 48.4437 62.0769 49.9545C61.4696 51.0208 60.6951 51.9977 59.9713 52.9975C59.8361 53.1847 59.854 53.2374 60.0127 53.3856C60.6591 53.9875 61.2836 54.6115 61.9159 55.2279C62.5045 55.8015 63.093 56.3759 63.705 56.9732C63.9348 56.7762 64.1162 56.6364 64.278 56.4775C64.8782 55.8894 65.4699 55.2921 66.0702 54.7032C66.9511 53.8385 67.8382 52.98 68.7206 52.1169C69.6593 51.1987 70.602 50.2837 71.5313 49.3564C72.4849 48.4055 73.4486 47.4622 74.3615 46.4745C74.9579 45.8283 75.3354 45.0164 75.5277 44.1838C75.7192 43.3574 75.9036 42.5034 75.7371 41.6289C75.5855 40.8337 75.4495 40.0447 75.0728 39.3069C74.5983 38.3758 73.9457 37.5928 73.1906 36.8703C72.2074 35.9285 71.2609 34.95 70.2854 34.0014C69.1067 32.8556 67.9109 31.7282 66.7283 30.5863C65.5121 29.4123 64.3022 28.2322 63.0923 27.0521C61.6908 25.6857 60.2941 24.3146 58.8903 22.9504C57.6319 21.7276 56.3681 20.51 55.105 19.2917C54.0373 18.2613 53.0001 17.1973 51.8895 16.2135C50.7968 15.2465 49.4962 14.6569 47.9955 14.5874C47.4546 14.5622 46.9122 14.5858 46.3705 14.5851C45.3919 14.5836 44.4954 14.9311 43.7115 15.423C42.8603 15.9569 42.0818 16.6268 41.3565 17.3211C39.3055 19.2849 37.3062 21.2998 35.2709 23.2789C33.445 25.054 31.5903 26.8008 29.7644 28.5752C27.0952 31.1691 24.4472 33.7829 21.7756 36.3745C20.8236 37.298 19.8575 38.2123 19.3307 39.4413C19.0744 40.0394 18.8837 40.6863 18.7985 41.3279C18.7078 42.0115 18.725 42.7204 18.7938 43.4086C18.8485 43.9555 18.9618 44.5306 19.2065 45.0179C19.7184 46.0407 20.4047 46.9489 21.2519 47.7585C24.4542 50.8184 27.6236 53.9111 30.8032 56.9939C31.8185 57.9784 32.8284 58.9691 33.8374 59.9598C35.4522 61.5447 37.0623 63.1342 38.6779 64.7191C39.7878 65.8076 40.9071 66.8876 42.0154 67.9776C42.7556 68.7062 43.6091 69.2982 44.5791 69.6534C45.6577 70.0483 46.7855 70.2125 47.9705 70.0857C49.2179 69.9528 50.363 69.5999 51.3337 68.8521C52.1755 68.2037 52.9376 67.4528 53.7059 66.7188C55.3059 65.1904 56.8894 63.6444 58.4761 62.1023C59.2374 61.3621 59.9877 60.6105 60.7506 59.8719C61.2109 59.4266 61.6869 58.9958 62.2333 58.4856L62.2294 58.4841ZM49.4086 44.2854C49.3828 44.2801 49.3563 44.274 49.3305 44.2686C49.3219 44.1602 49.3031 44.0509 49.307 43.9425C49.3336 43.1435 49.3649 42.3446 49.3946 41.5456C49.3953 41.5204 49.3977 41.4944 49.3992 41.4692C49.4532 40.38 49.5063 39.2916 49.5618 38.2031C49.5759 37.9297 49.4579 37.8098 49.171 37.8151C48.6247 37.825 48.076 37.8396 47.5304 37.809C47.1599 37.7884 46.9942 37.9564 46.8707 38.2619C46.5612 39.025 46.2298 39.7797 45.9133 40.5404C45.6452 41.1828 45.3888 41.8297 45.1199 42.4721C44.8706 43.0679 44.6103 43.6599 44.3555 44.2526C44.3211 44.2465 44.286 44.2404 44.2516 44.235C44.2922 43.6316 44.361 43.0289 44.3688 42.4255C44.3876 41.0132 44.3735 39.6002 44.3813 38.1879C44.3829 37.9007 44.2484 37.8082 43.9749 37.8159C43.5716 37.8266 43.1675 37.8166 42.7642 37.8197C42.228 37.8228 42.1866 37.8541 42.2178 38.391C42.2592 39.0991 42.3429 39.8049 42.3757 40.5137C42.4218 41.5028 42.4257 42.4935 42.4687 43.4827C42.5125 44.4825 42.586 45.4808 42.6399 46.4806C42.6532 46.7212 42.7681 46.819 43.0088 46.8167C43.5427 46.8114 44.0788 46.8404 44.6095 46.7999C44.769 46.7877 44.9277 46.6059 45.0582 46.4745C45.1215 46.4111 45.1074 46.2805 45.1481 46.1889C45.685 44.9851 46.2337 43.7867 46.7598 42.5783C46.9403 42.1635 47.0568 41.722 47.2201 41.2997C47.3421 40.985 47.4937 40.6817 47.632 40.3731C47.6711 40.3823 47.7094 40.3907 47.7485 40.3999C47.7485 41.1683 47.7571 41.9367 47.7469 42.7051C47.7297 43.9501 47.7024 45.1951 47.6758 46.4402C47.6695 46.7197 47.8095 46.8228 48.0846 46.8167C48.5661 46.8068 49.0499 46.8343 49.529 46.7999C49.6869 46.7885 49.8971 46.6708 49.9737 46.5402C50.216 46.127 50.3981 45.6817 50.617 45.2555C51.279 43.9677 51.9504 42.6845 52.6132 41.3974C53.1541 40.3472 53.6918 39.2954 54.2241 38.2406C54.2804 38.1283 54.2906 37.9938 54.3359 37.8174C53.7215 37.8174 53.1752 37.8388 52.632 37.8098C52.2607 37.7899 52.106 37.9526 51.9856 38.2688C51.7284 38.9425 51.4377 39.604 51.1516 40.267C50.7608 41.1736 50.3606 42.0772 49.9667 42.9823C49.7783 43.4162 49.5946 43.8516 49.4094 44.2862L49.4086 44.2854ZM60.8178 42.0337C61.9917 41.2378 62.0668 41.2164 62.3708 40.3701C62.7624 39.2786 62.5623 38.5216 61.5423 38.0802C61.1171 37.8968 60.6091 37.8396 60.137 37.8296C58.6785 37.7991 57.2192 37.8212 55.7608 37.8159C55.5067 37.8151 55.3864 37.9167 55.3387 38.1604C55.241 38.6553 55.1261 39.148 55.0057 39.6383C54.8244 40.377 54.6173 41.1095 54.45 41.8511C54.2655 42.6669 54.1264 43.4926 53.9435 44.3083C53.7825 45.0248 53.5855 45.7336 53.4112 46.4478C53.3886 46.5417 53.4081 46.6449 53.4081 46.7633C53.5019 46.7808 53.5887 46.8114 53.6746 46.8098C55.352 46.7846 57.0309 46.7923 58.7051 46.7167C60.5247 46.6342 62.0129 45.1188 61.9081 43.3696C61.88 42.9044 61.6791 42.5852 61.2742 42.3614C61.1242 42.2781 60.9929 42.1612 60.8178 42.0337ZM35.5554 46.968C35.8547 46.968 36.1643 47.0168 36.4511 46.9596C38.1996 46.6105 39.4572 45.6351 40.2364 44.0662C40.3732 43.7912 40.2763 43.6843 39.9926 43.682C39.5369 43.679 39.0789 43.6545 38.6263 43.6919C38.4536 43.7064 38.2285 43.8248 38.1386 43.9646C37.7259 44.6032 37.1546 44.9988 36.3987 45.1073C35.1935 45.2807 34.3533 44.8209 34.3283 43.4536C34.3142 42.6852 34.4666 41.9627 34.8207 41.2531C35.4491 39.9935 36.5301 39.1984 37.994 39.6116C38.2684 39.6888 38.6107 39.9446 38.692 40.1906C38.8968 40.8055 39.3251 40.8322 39.8386 40.7887C39.9293 40.781 40.0207 40.7879 40.1122 40.7879C41.0821 40.7879 41.0689 40.7879 41.0337 39.8698C40.9993 38.9723 40.4248 38.3887 39.7175 38.032C38.3621 37.3492 36.9185 37.5554 35.5562 38.0412C34.7644 38.3231 34.05 38.8478 33.5154 39.5047C32.368 40.9116 31.738 42.5034 31.9975 44.3366C32.0866 44.966 32.3086 45.5648 32.7877 46.0285C33.5537 46.7701 34.4908 47.0589 35.5546 46.968H35.5554Z" fill="#B3B7BC"/>
<path d="M41.6694 81.6845C41.0309 81.6845 40.515 81.7097 40.0046 81.667C39.8741 81.6563 39.7451 81.4409 39.6451 81.3003C39.1323 80.5816 38.6313 79.8552 38.1233 79.1326C37.7379 78.5849 37.1877 78.4093 36.5296 78.4314C36.2216 78.4413 36.1192 78.5582 36.1223 78.8454C36.1325 79.6337 36.1083 80.4235 36.1325 81.211C36.1442 81.5921 36.0168 81.7326 35.6213 81.7212C34.4028 81.686 34.6217 81.8342 34.6146 80.7611C34.6006 78.6499 34.6217 76.5379 34.6045 74.4267C34.6013 74.0387 34.7233 73.9142 35.1149 73.9272C36.4663 73.9715 37.8208 73.96 39.1706 74.0303C40.0421 74.0754 40.6635 74.5459 40.9222 75.3784C41.1966 76.2606 41.0731 77.0856 40.3274 77.7096C40.0312 77.9579 39.6326 78.0877 39.2324 78.297C40.3157 79.1876 40.8003 80.4876 41.6686 81.6853L41.6694 81.6845ZM37.4425 77.1238L37.4464 77.1665C37.9349 77.1207 38.4304 77.1077 38.9103 77.0176C39.2683 76.9504 39.4778 76.6701 39.5333 76.3141C39.588 75.9605 39.4895 75.6389 39.1628 75.4586C38.9557 75.3448 38.7009 75.2677 38.464 75.2577C37.8036 75.2303 37.1408 75.2501 36.4788 75.2448C36.2318 75.2432 36.1247 75.3532 36.1278 75.5908C36.1325 75.9841 36.1341 76.3775 36.1255 76.7701C36.12 77.0359 36.2529 77.1314 36.5085 77.1253C36.8195 77.1184 37.1314 77.1238 37.4425 77.1238Z" fill="#B3B7BC"/>
<path d="M69.4868 77.7968C69.4868 76.6388 69.4907 75.4809 69.4844 74.3222C69.4829 74.0831 69.5352 73.9303 69.8237 73.9342C70.9429 73.9517 72.0638 73.9296 73.1807 73.9807C74.6751 74.0487 75.5771 74.8905 75.9718 76.2478C76.3024 77.3843 76.3001 78.5392 75.8921 79.6674C75.409 81.0041 74.4187 81.6518 72.7375 81.7075C71.7878 81.7389 70.8366 81.7075 69.8854 81.7167C69.5829 81.7198 69.4774 81.6037 69.4805 81.3088C69.4923 80.1379 69.4852 78.967 69.486 77.7968H69.4868ZM70.9969 77.8197C70.9969 78.5438 70.9992 79.2679 70.9953 79.992C70.9945 80.2173 71.0281 80.4083 71.3212 80.4022C71.9317 80.39 72.5429 80.3984 73.151 80.3541C73.9052 80.2991 74.3578 79.8583 74.5336 79.1571C74.7447 78.3185 74.7509 77.4653 74.5579 76.6266C74.3844 75.8743 73.8958 75.3877 73.0853 75.309C72.5312 75.2548 71.97 75.2678 71.4127 75.2426C71.1141 75.2288 70.9906 75.3533 70.9945 75.6474C71.0047 76.3715 70.9976 77.0956 70.9969 77.8197Z" fill="#B3B7BC"/>
<path d="M62.1666 77.8018C62.1666 76.6813 62.1776 75.5615 62.1604 74.441C62.1549 74.0736 62.2557 73.9201 62.6645 73.9254C64.2793 73.9438 65.8949 73.9415 67.5105 73.9239C67.9107 73.9201 68.0295 74.0637 68.0154 74.4395C67.9802 75.3438 68.1006 75.2369 67.1978 75.2423C66.1817 75.2484 65.1657 75.2514 64.1496 75.2384C63.8127 75.2346 63.6728 75.3622 63.6884 75.6883C63.7017 75.9679 63.7048 76.249 63.69 76.5285C63.672 76.8654 63.8338 76.9723 64.1597 76.9692C65.2149 76.9586 66.2701 76.9738 67.3252 76.9586C67.6308 76.954 67.7293 77.0479 67.7285 77.3489C67.7262 78.2723 67.7379 78.2723 66.7812 78.2731C65.9215 78.2731 65.0617 78.283 64.2019 78.2677C63.8408 78.2609 63.6712 78.377 63.6892 78.7482C63.708 79.1423 63.7103 79.538 63.6892 79.9313C63.6689 80.3079 63.8455 80.4148 64.2027 80.411C65.3751 80.3988 66.5475 80.4179 67.72 80.3988C68.0834 80.3927 68.1967 80.5149 68.1842 80.8594C68.1498 81.7958 68.3413 81.7095 67.3073 81.7141C65.7573 81.7217 64.2066 81.7057 62.6567 81.721C62.2823 81.7248 62.1565 81.6041 62.1619 81.239C62.1799 80.0933 62.1682 78.9475 62.1682 77.8018H62.1666Z" fill="#B3B7BC"/>
<path d="M27.2847 77.8202C27.2847 76.6875 27.2964 75.5555 27.2784 74.4235C27.2729 74.0676 27.3792 73.9247 27.7607 73.9278C29.4013 73.9415 31.0419 73.9392 32.6817 73.9278C33.0146 73.9255 33.1452 74.0301 33.1397 74.367C33.1225 75.4562 33.1827 75.2263 32.2846 75.2385C31.2826 75.253 30.2798 75.2515 29.277 75.237C28.9284 75.2316 28.7682 75.3424 28.7924 75.6968C28.8111 75.9626 28.8119 76.2322 28.7924 76.498C28.7682 76.8425 28.9034 76.9739 29.2645 76.9678C30.2931 76.9517 31.3217 76.9785 32.3495 76.9571C32.7395 76.9494 32.8771 77.0633 32.8575 77.4543C32.8153 78.309 33.0178 78.2701 32.0173 78.2716C31.1059 78.2731 30.1946 78.2854 29.2832 78.267C28.901 78.2594 28.7728 78.4091 28.79 78.7643C28.8088 79.1706 28.8072 79.5785 28.7916 79.9856C28.7799 80.3034 28.9206 80.4096 29.234 80.4073C30.4189 80.3989 31.6038 80.4195 32.788 80.3996C33.1702 80.3935 33.3249 80.4928 33.3124 80.8885C33.2843 81.8096 33.3836 81.7119 32.4722 81.7157C30.9098 81.7218 29.3473 81.7065 27.7849 81.7218C27.3917 81.7256 27.2667 81.5996 27.2737 81.2161C27.2956 80.0842 27.2815 78.9514 27.2823 77.8194L27.2847 77.8202Z" fill="#B3B7BC"/>
<path d="M20.4482 77.6791C20.5381 78.1855 20.5811 78.6178 20.696 79.031C20.9258 79.859 21.5854 80.3524 22.4601 80.4029C23.3105 80.4517 23.9459 80.0637 24.3125 79.2716C24.4646 78.9432 24.7207 78.8332 25.0808 78.9417C25.1433 78.9608 25.2043 78.9814 25.2668 78.999C26.0508 79.2266 26.0297 79.2174 25.7045 79.9392C24.9534 81.6066 22.9212 82.0351 21.3299 81.4775C20.2677 81.1056 19.5626 80.367 19.2398 79.3144C18.8983 78.1977 18.9131 77.0764 19.3586 75.9849C20.2333 73.8424 23.1901 73.1168 24.9636 74.6406C25.334 74.9584 25.5341 75.4709 25.7921 75.9063C25.9054 76.098 25.7975 76.2125 25.581 76.2416C25.4138 76.2645 25.2426 76.2836 25.0831 76.3332C24.6658 76.4623 24.4039 76.4165 24.1663 75.9643C23.8068 75.2799 23.1111 75.102 22.3592 75.1738C21.6277 75.2433 21.0571 75.5908 20.7937 76.266C20.6116 76.7327 20.5514 77.2445 20.4498 77.6798L20.4482 77.6791Z" fill="#B3B7BC"/>
<path d="M52.3903 77.8135C52.3903 76.6686 52.3989 75.5244 52.3849 74.3794C52.381 74.0525 52.4966 73.9265 52.8358 73.9287C54.3451 73.9387 55.8552 73.9394 57.3645 73.9287C57.692 73.9265 57.792 74.0517 57.7873 74.3572C57.7717 75.4113 57.8577 75.2303 56.9002 75.2417C56.0545 75.2524 55.208 75.2517 54.3623 75.2402C54.0481 75.2364 53.9067 75.3525 53.9168 75.6649C53.9285 76.0331 53.9293 76.4027 53.916 76.7709C53.9059 77.0344 54.0137 77.1322 54.2826 77.1299C55.1674 77.1207 56.053 77.1383 56.9377 77.1207C57.2473 77.1146 57.3489 77.2155 57.3395 77.5118C57.3059 78.5743 57.5083 78.4215 56.4258 78.4353C55.7364 78.4437 55.0462 78.4483 54.3569 78.4376C54.0372 78.4322 53.9145 78.5628 53.9176 78.8691C53.9262 79.6704 53.909 80.4716 53.9238 81.2729C53.9301 81.5975 53.8207 81.7258 53.476 81.7212C52.1629 81.7037 52.4138 81.8266 52.395 80.7137C52.3794 79.7475 52.3919 78.7805 52.3919 77.8143H52.3903V77.8135Z" fill="#B3B7BC"/>
<path d="M44.3855 78.4964C44.3855 77.5676 44.3761 76.638 44.3909 75.7092C44.3964 75.3655 44.2737 75.2234 43.9149 75.2372C43.4342 75.2563 42.9512 75.2303 42.4697 75.2479C42.1758 75.2586 42.0805 75.1394 42.0821 74.8683C42.0891 73.7424 42.0039 73.9441 42.9989 73.9349C44.5488 73.9204 46.098 73.9288 47.6479 73.9326C48.1645 73.9341 48.1755 73.9456 48.1739 74.4436C48.1716 75.3098 48.2826 75.238 47.3595 75.2441C47.021 75.2464 46.6818 75.2563 46.3442 75.2387C46.0026 75.2204 45.8885 75.3625 45.8901 75.6886C45.9002 77.4958 45.8955 79.303 45.8955 81.1102C45.8955 81.709 45.8947 81.7121 45.271 81.7144C44.2174 81.7182 44.3987 81.7556 44.3878 80.8635C44.3776 80.0745 44.3855 79.2854 44.3862 78.4964H44.3855Z" fill="#B3B7BC"/>
<path d="M49.3166 77.8298C49.3166 76.6726 49.3244 75.5147 49.3119 74.3575C49.3088 74.0527 49.4018 73.9221 49.7316 73.929C51.0791 73.9565 50.8103 73.7991 50.8196 74.9586C50.8368 77.0446 50.8157 79.1306 50.8321 81.2158C50.8353 81.5931 50.7305 81.7352 50.3288 81.7245C49.1181 81.6917 49.3315 81.8376 49.3174 80.7682C49.3041 79.789 49.3143 78.8098 49.3143 77.8306H49.3158L49.3166 77.8298Z" fill="#B3B7BC"/>
<path d="M60.601 77.8238C60.601 78.968 60.5893 80.1122 60.6081 81.2556C60.6143 81.6077 60.4861 81.7254 60.1375 81.7193C58.8784 81.6986 59.1003 81.8468 59.0925 80.7232C59.0785 78.6388 59.0878 76.5543 59.0894 74.4698C59.0894 73.9436 59.098 73.9314 59.6326 73.9336C60.7855 73.9382 60.587 73.8359 60.5987 74.8495C60.6096 75.8409 60.601 76.8323 60.601 77.8238Z" fill="#B3B7BC"/>
<path d="M55.9363 45.1363C56.0301 44.7459 56.1177 44.4068 56.1919 44.0654C56.2537 43.7812 56.2896 43.4918 56.36 43.2099C56.3826 43.1167 56.4772 42.967 56.5366 42.9678C57.3768 42.98 58.2241 42.9586 59.0542 43.0633C59.5685 43.1282 59.7396 43.5483 59.6154 44.0509C59.4411 44.7536 59.0088 45.0912 58.2249 45.134C58.1342 45.1386 58.0428 45.1363 57.9513 45.1363C57.3143 45.1363 56.6773 45.1363 55.9355 45.1363H55.9363Z" fill="#B3B7BC"/>
<path d="M56.8172 41.343C56.9204 40.8411 57.0423 40.3141 57.1306 39.7817C57.1666 39.5678 57.2713 39.5006 57.4651 39.5014C58.1154 39.5029 58.7689 39.4701 59.4153 39.5228C59.6638 39.5434 59.9999 39.703 60.1101 39.8986C60.2742 40.1911 60.2383 40.5662 59.9882 40.8648C59.7193 41.1864 59.4059 41.372 58.9486 41.3514C58.2374 41.3193 57.5238 41.343 56.8164 41.343H56.8172Z" fill="#B3B7BC"/>
</g>
<defs>
<clipPath id="clip0_14679_4550">
<rect width="68" height="76" fill="white" transform="translate(14 10)"/>
</clipPath>
</defs>
</svg>
