<svg width="96" height="96" viewBox="0 0 96 96" fill="none" xmlns="http://www.w3.org/2000/svg">
<path d="M74.8529 46.9332C74.7239 61.9885 62.4838 74.1446 47.4233 74.034C32.3444 73.9665 20.1903 61.6691 20.264 46.5892C20.3623 31.5093 32.6639 19.3717 47.7182 19.4516C62.8095 19.5376 74.9513 31.8533 74.8529 46.9332Z" fill="#B3B7BC"/>
<path d="M13.585 47.9404L14.3408 49.4208L16.0245 49.7095L14.7525 50.8704L15.0413 52.5228L13.5789 51.7304L12.0735 52.5228L12.393 50.8336L11.1641 49.6542L12.8293 49.4146L13.585 47.9404Z" fill="#B3B7BC"/>
<path d="M5.96523 47.7562H6.89922C6.99753 25.1332 25.3946 6.86537 48.0068 6.86537H48.2588C70.8526 7.00051 89.1329 25.3912 89.1329 47.9711V48.223C89.01 70.8398 70.6559 89.1076 48.0498 89.1076H47.7733C25.1488 88.9418 6.89922 70.6371 6.89922 48.0817V47.7684L5.96523 47.7562L5.03125 47.7439V48.0756C5.03125 71.6629 24.1103 90.7907 47.761 90.9627H48.0498C71.6821 90.9627 90.8657 71.8656 91.0008 48.223V47.9711C91.0008 24.3593 71.891 5.14547 48.271 4.99805H48.0068C24.3623 4.99805 5.14185 24.0952 5.03125 47.7562H5.96523Z" fill="#B3B7BC"/>
<path d="M17.284 40.5018L17.3209 41.6382C17.2779 42.1541 17.0997 42.5288 16.8478 42.8667L15.9691 43.7389C15.6311 43.9478 15.2748 44.089 14.8262 44.1505H13.585C13.0934 44.0952 12.7186 43.9478 12.2762 43.7389L11.293 42.9772L10.6847 41.8961C10.5495 41.4785 10.5311 41.0423 10.5987 40.5018L10.8998 39.5313L11.4344 38.7696L12.1901 38.2966L13.2163 38.1431L13.075 38.9662L12.4114 39.089L11.8706 39.4146L11.5019 39.992L11.3422 40.6185L11.4159 41.6812L11.8891 42.4367L12.7186 42.9895L13.6833 43.2721L14.6603 43.2844L15.539 43.0079L16.2825 42.4305L16.6266 41.503L16.6143 40.6062L16.2825 39.8691L15.6496 39.3777L14.8508 39.132L14.519 41.1652L13.8 41.0485L14.267 38.2291L17.6589 38.7757L17.579 39.3347L16.731 39.4084L17.2779 40.5018H17.284Z" fill="#B3B7BC"/>
<path d="M15.0404 36.19L14.4567 35.4898L14.2539 34.6298L14.4444 33.6716L15.0036 32.8178L15.7163 32.3141L16.6319 32.2158L17.5843 32.4431L18.4138 32.9222L18.9853 33.604L19.1942 34.4763L19.016 35.4775L18.4753 36.3067L17.7379 36.7859L16.8285 36.9149L15.8822 36.6876L15.0343 36.1839L15.0404 36.19ZM16.9514 36.104L17.5843 36.0119L18.0574 35.6986L18.4015 35.2011L18.4998 34.636L18.3585 34.0831L17.9161 33.5979L17.2832 33.2109L16.5274 33.0205L15.8945 33.1188L15.3784 33.4013L15.0711 33.8927L15.0097 34.4763L15.1203 35.0414L15.5258 35.5389L16.1772 35.932L16.9514 36.104Z" fill="#B3B7BC"/>
<path d="M17.4796 30.5387L17.0495 29.7586L16.9512 28.8741L17.3199 27.9343L18.0265 27.1849L18.8499 26.8594L19.7347 26.9024L20.6502 27.2893L21.363 27.9343L21.8239 28.7206L21.8669 29.5928L21.5043 30.5449L20.853 31.2943L20.0112 31.6075L19.1079 31.5707L18.2108 31.1714L17.4858 30.5449L17.4796 30.5387ZM19.366 30.7967L19.9928 30.8213L20.5396 30.5879L20.9636 30.1825L21.1111 29.6419L21.0988 29.0338L20.7977 28.4871L20.2078 27.9712L19.5073 27.6948L18.856 27.6579L18.3399 27.8852L17.922 28.2906L17.7315 28.8434L17.75 29.384L18.0634 29.9613L18.6532 30.4712L19.3722 30.7906L19.366 30.7967Z" fill="#B3B7BC"/>
<path d="M25.6704 25.0291L25.2218 24.593V25.4591L24.761 26.2207L23.9683 26.7858L23.1203 26.9271L22.2724 26.6753L21.4859 26.1347L20.8468 25.4529L20.5703 24.5991L20.644 23.7391L21.0926 22.916L21.406 22.6765L21.7624 22.4001L22.1986 22.2834H22.6902V22.2527L20.9144 20.6495L21.4306 20.0659L26.2234 24.4578L25.6704 25.0291ZM22.598 25.9627L23.1879 26.1286L23.784 26.0365L24.3431 25.6495L24.6504 25.0844V24.4885L24.4107 23.8989L24.0236 23.4443L23.4767 23.0389L22.8746 22.8546L22.2662 22.916L21.6641 23.2907L21.3445 23.8989V24.5315L21.6026 25.0844L22.0573 25.5635L22.598 25.9627Z" fill="#B3B7BC"/>
<path d="M27.484 15.2684L31.9573 19.003L31.0602 13.2536L32.0925 12.6455L35.2877 18.3212L34.5688 18.7266L31.8959 13.9969V14.0276L32.7746 19.7278L32.1478 20.1148L27.6991 16.4047L30.3352 21.1099L29.6347 21.5215L26.4395 15.8703L27.484 15.2684Z" fill="#B3B7BC"/>
<path d="M40.4667 16.8774L39.9444 16.8283L39.6249 16.3492L39.0473 17.0801L38.2423 17.4978L37.6463 17.6268L37.1056 17.5408L36.6754 17.2398L36.3866 16.6931L36.3129 16.0175L36.5648 15.5199L36.9519 15.1452L37.4865 14.832L38.0272 14.5801L38.5373 14.3283L38.8138 14.0948L38.826 13.714L38.611 13.3639L38.316 13.2103H37.9474L37.591 13.2718L36.8536 13.6772L36.7184 14.4511L35.9811 14.6845L35.9258 13.9229L36.2207 13.3332L36.7369 12.9032L37.4435 12.5899L38.0764 12.4609H38.6724L39.1763 12.7374L39.502 13.327L40.1963 15.6796L40.3622 16.0236L40.5896 16.0666L40.7923 15.9929L40.9828 16.5519L40.4851 16.859L40.4667 16.8774ZM38.7462 14.8872L38.3038 15.0715L37.7876 15.3111L37.3759 15.5813L37.1547 15.9253V16.3983L37.3206 16.6931L37.5725 16.8406L37.8921 16.8774L38.2116 16.8221L38.8015 16.5211L39.1456 16.1403L39.2869 15.7349L39.25 15.3479L39.0411 14.6108L38.74 14.8749L38.7462 14.8872Z" fill="#B3B7BC"/>
<path d="M42.1313 11.6628L42.2296 12.3691C42.5184 11.761 42.9916 11.4293 43.6552 11.3311L44.4601 11.3986L44.9886 11.6996L45.3327 12.1726L45.4801 12.9097L45.8611 15.9687L45.0869 16.0547L44.7059 12.9097L44.3803 12.2217L43.6552 12.0559L43.0469 12.2217L42.6475 12.5841L42.4385 13.0878V13.6959L42.7396 16.3434L41.99 16.4048L41.4062 11.718L42.1375 11.6628H42.1313Z" fill="#B3B7BC"/>
<path d="M50.5319 16.0854L50.5995 15.3544H50.5564L49.8928 15.9687L48.9896 16.0854L48.2153 15.9441L47.7729 15.551L47.4964 14.9982L47.4473 14.2918L47.6623 11.2144L48.412 11.2696L48.2399 14.4392L48.4366 15.1517L49.137 15.4281L49.7515 15.3544L50.1878 15.0719L50.4889 14.6235L50.5995 14.0461L50.7777 11.3986L51.5396 11.4232L51.2631 16.1468L50.5319 16.0854Z" fill="#B3B7BC"/>
<path d="M52.873 12.332L53.0328 11.6624L53.8132 11.7669L53.9361 11.1342L54.4399 10.3418L55.4354 10.2251L55.6996 10.2742L55.9269 10.3971L55.7917 11.0482L55.589 10.9806L55.3678 10.9069L54.9069 10.9315L54.6857 11.3123L54.5813 11.9573L55.4661 12.1416L55.3616 12.7558L54.4399 12.6391L53.6841 16.6072L52.9406 16.4475L53.6841 12.4733L52.873 12.332Z" fill="#B3B7BC"/>
<path d="M58.9509 18.2043L58.5638 17.9033V17.3075L57.7036 17.6084L56.7696 17.4549L56.192 17.2215L55.8233 16.8406L55.6328 16.3492L55.7188 15.7411L56.0445 15.1514L56.5238 14.8873L57.0645 14.8136L57.6728 14.8689L58.2689 14.9672L58.7912 15.0654L59.166 14.9917L59.3995 14.7153L59.4179 14.3038L59.295 14.0089L58.9878 13.8001L58.6437 13.6342L57.808 13.5667L57.2673 14.1072L56.5115 13.8738L56.9232 13.2473L57.4762 12.9217L58.1583 12.8726L58.9018 12.9893L59.4855 13.2595L59.9525 13.6158L60.2106 14.1133L60.1614 14.8013L59.3995 17.0863L59.3012 17.461L59.4548 17.676L59.7128 17.7313L59.4916 18.2718L58.9263 18.2166L58.9509 18.2043ZM58.699 15.6367L58.1828 15.5323L57.6851 15.4278H57.1936L56.7819 15.5507L56.5361 15.9684L56.5053 16.2694L56.6098 16.5274L56.8495 16.7362L57.169 16.8959L57.8203 17.0003L58.3303 16.8959L58.6928 16.6564L58.8587 16.3431L59.0861 15.5876L58.6867 15.6428L58.699 15.6367Z" fill="#B3B7BC"/>
<path d="M64.7388 16.6258L64.1858 16.0239L63.4669 15.8703L62.8831 16.0116L62.3793 16.3986L62.0167 16.9637L61.7894 17.5349L61.7464 18.143L61.8938 18.702L62.3854 19.1566L63.3562 19.2733L64.0936 18.7266L64.8125 19.089C64.4254 19.5865 64.026 19.8875 63.5836 19.9735C63.1105 20.1148 62.6189 20.0288 62.0843 19.7278L61.3285 19.1627L60.9414 18.3642V17.4981L61.2917 16.5706L61.8631 15.7843L62.625 15.2499L63.4607 15.0718L64.4254 15.3912L65.0767 15.8642L65.4516 16.3986L65.6605 17.0497L65.4516 17.8113L64.7388 17.4551V16.6258Z" fill="#B3B7BC"/>
<path d="M69.2796 18.6528L68.8494 19.1934L68.1244 18.6528L66.4162 21.0361L66.2871 21.2142V21.374L66.4162 21.5214L66.6374 21.7486L66.92 21.9022L66.5022 22.4857L66.0352 22.1418L65.6542 21.7916L65.4453 21.4477V21.0853L65.7341 20.6491L67.4792 18.2044L66.834 17.7253L67.2518 17.154L67.897 17.6516L68.7081 16.5029L69.3594 16.9636L68.5176 18.0754L69.2796 18.6528Z" fill="#B3B7BC"/>
<path d="M69.6477 25.3172L70.1946 24.7644L70.1884 24.7398L69.2852 24.7828L68.4987 24.2976L68.0194 23.7018L67.8965 23.1121L68.0931 22.5162L68.4987 21.9573L70.6554 19.7275L71.1839 20.2681L68.9964 22.5408L68.7014 23.2226L69.021 23.8922L69.5432 24.2484L70.0901 24.3467L70.6001 24.1563L71.0671 23.8246L72.9289 21.8774L73.4635 22.3934L70.1946 25.8209L69.6477 25.3172Z" fill="#B3B7BC"/>
<path d="M75.2816 24.5499L74.4766 25.1764V25.2133C74.9313 25.0904 75.2816 25.0904 75.5827 25.2133L76.4245 25.8583L75.7977 26.3865L75.1894 25.846L74.5811 25.6433L73.9298 25.8153L73.2354 26.2145L71.5702 27.5413L71.1094 26.9209L74.8269 23.9971L75.2877 24.5438L75.2816 24.5499Z" fill="#B3B7BC"/>
<path d="M77.4581 27.6084L73.4702 30.2005L73.1016 29.5371L77.0096 26.9327L77.4581 27.6084ZM77.7346 26.4659L78.4966 25.9561L78.9205 26.6133L78.1525 27.1354L77.7346 26.4597V26.4659Z" fill="#B3B7BC"/>
<path d="M78.8512 29.9613L78.163 30.2807L78.2121 30.2992C78.8512 30.3176 79.3305 30.6431 79.6254 31.2881L79.8528 32.0191L79.7545 32.6333L79.4165 33.1186L78.7959 33.4871L76.0308 34.8692L75.6806 34.169L78.5255 32.7562L79.0662 32.2156L78.9864 31.4724L78.5808 30.9503L78.1077 30.7291L77.5792 30.6984L77.0078 30.8827L74.636 32.0621L74.2734 31.3802L78.5009 29.2856L78.8512 29.9675V29.9613Z" fill="#B3B7BC"/>
<path d="M76.2896 40.0535C75.8288 39.8201 75.4847 39.341 75.2881 38.6285L75.1836 37.9405L75.245 37.3017L75.4908 36.7366L76.0438 36.3496L76.2958 37.1297L75.9885 37.3201L75.8349 37.6887L75.8103 38.0756L75.8964 38.4626L76.2159 39.0462L76.6583 39.3656L77.2482 39.4638L77.9733 39.341L78.2621 39.2243L77.4755 38.8312L77.0331 38.0449L76.9717 37.1235L77.3219 36.3373L77.9118 35.7661L78.7475 35.3791L79.6323 35.2378L80.5233 35.3791L81.2606 35.8398L81.7645 36.7796L81.7952 37.6088L81.4081 38.3459L82.0471 38.1555L82.2499 38.868L78.1146 40.0351C77.3281 40.2747 76.7566 40.2501 76.2896 40.0351M78.047 38.4688L78.5631 38.7636L79.2145 38.868L79.8535 38.7636L80.4373 38.5302L80.8858 38.1309L81.1377 37.6395V37.013L80.7998 36.3926L80.3267 36.0977L79.706 36.0425L79.0731 36.1407L78.4894 36.3803L77.9671 36.7673L77.709 37.2464L77.7398 37.9159L78.0531 38.4749L78.047 38.4688Z" fill="#B3B7BC"/>
<path d="M84.8621 47.2586C84.8621 47.9097 84.7146 48.4134 84.3767 48.739C84.0572 49.1014 83.5717 49.2672 82.9696 49.2672C82.3674 49.2672 81.882 49.1259 81.5256 48.7881C81.163 48.4441 81.0156 47.9712 81.0156 47.3016L80.9787 45.3421H78.3242V44.4945L84.8437 44.4023L84.856 47.2648L84.8621 47.2586ZM81.7529 46.9822C81.7529 47.4982 81.8389 47.8299 82.0479 48.0756L82.945 48.395L83.7929 48.0571C84.051 47.8237 84.137 47.4368 84.137 46.9822V45.293L81.6976 45.3421L81.7529 46.9883V46.9822Z" fill="#B3B7BC"/>
<path d="M82.6861 51.9882L81.6968 51.8408L82.4403 52.6577L82.5141 53.7081L81.6968 53.6037V52.799L81.408 52.2032L80.8857 51.8408L80.0624 51.6135L78.0039 51.2941L78.1145 50.5386L82.7844 51.2388L82.6861 51.9882Z" fill="#B3B7BC"/>
<path d="M76.4557 57.2343L76.7568 56.8105H77.3221L77.0087 55.9505L77.107 55.0353L77.3159 54.4456L77.7276 54.0279L78.2008 53.8252L78.7968 53.905L79.4051 54.2245L79.7001 54.7036L79.7431 55.2503V55.8461L79.6632 56.4603L79.614 56.964L79.6632 57.3264L79.9643 57.5598L80.3698 57.6028L80.6709 57.4063L80.8798 57.1114L81.0334 56.7859L81.0703 55.9198L80.505 55.3793L80.7139 54.6544L81.3898 55.0353L81.6848 55.582L81.7831 56.2945L81.6663 57.0132L81.4328 57.6274L81.0703 58.1065L80.5726 58.3645L79.8783 58.3277L77.574 57.6458L77.1869 57.5598L76.978 57.7011L76.9534 57.9898L76.4004 57.7933L76.4434 57.2343H76.4557ZM79.0426 56.8719L79.1348 56.3559L79.1962 55.8461V55.3485L79.0426 54.9616L78.6678 54.7036L78.3114 54.6606L78.0533 54.808L77.8505 55.0414L77.7399 55.3854L77.6232 56.0058L77.7706 56.5402L77.998 56.9026L78.3175 57.093L79.0672 57.3203L79.0364 56.878L79.0426 56.8719Z" fill="#B3B7BC"/>
<path d="M78.2129 63.0146L78.7659 62.4372L78.9564 61.7246L78.7659 61.1042L78.3603 60.6681L77.7705 60.2811L77.1621 60.0784L76.5784 60.017L76.0377 60.232L75.583 60.7418L75.4847 61.6939L76.0377 62.431L75.7304 63.1128C75.2389 62.7873 74.9255 62.388 74.7965 61.9519C74.6613 61.4912 74.7166 60.9937 75.0115 60.4408L75.583 59.673L76.351 59.2615L77.2113 59.2246L78.1268 59.5317L78.9748 60.0969L79.4848 60.8032L79.663 61.7185L79.4049 62.6767L78.9748 63.2664L78.4279 63.7148L77.7766 63.9114L77.0147 63.7639L77.4079 63.033L78.2006 63.0023L78.2129 63.0146Z" fill="#B3B7BC"/>
<path d="M76.345 67.5473L75.7551 67.148L76.2897 66.3925L73.8748 64.7647L73.6782 64.6726H73.5246L73.3955 64.7647L73.2173 65.0227L73.0207 65.3298L72.4062 64.9306L72.7565 64.4146L73.1067 64.0276L73.3955 63.8311H73.7581L74.2435 64.0768L76.6891 65.7782L77.1683 65.0841L77.7398 65.4773L77.3158 66.1406L78.4403 66.9392L78.004 67.5657L76.8427 66.7672L76.345 67.5473Z" fill="#B3B7BC"/>
<path d="M74.9451 69.3042L71.2891 66.3435L71.8052 65.7354L75.4613 68.7022L74.9451 69.298V69.3042ZM76.1065 69.255L76.8438 69.8017L76.3707 70.4282L75.6395 69.8447L76.1126 69.2612L76.1065 69.255Z" fill="#B3B7BC"/>
<path d="M71.1041 72.2342L71.8476 71.8656L72.2348 71.2575L72.2839 70.6248L72.0258 70.072L71.5711 69.5007L71.1103 69.1076L70.5388 68.9049H69.9428L69.4144 69.2673L69.0027 70.0843L69.2915 70.9872L68.7139 71.5094C68.3944 71.0302 68.21 70.5757 68.2346 70.0843C68.2776 69.6052 68.5111 69.2059 68.9658 68.7452L69.7585 68.2538L70.5696 68.0757L71.3991 68.3398L72.1918 68.9356L72.7939 69.7526L73.0274 70.6003L72.9353 71.4786L72.3699 72.3202L71.7739 72.7501L71.1164 72.9774L70.4467 72.9099L69.7646 72.5413L70.3668 71.9885L71.1226 72.2403L71.1041 72.2342Z" fill="#B3B7BC"/>
<path d="M63.9879 73.1615C64.1231 72.7561 64.418 72.406 64.8666 72.0804L65.7637 71.6812L66.6362 71.6934L67.4289 72.0866L68.1478 72.8298L68.5534 73.7205L68.6087 74.6357L68.3199 75.4404L67.7115 76.1099L66.7223 76.5153L65.776 76.331L64.9772 75.8089L64.4303 75.1148L67.3183 73.1185L66.9312 72.6885L66.415 72.4244L65.8497 72.3814L65.2168 72.6885L64.6761 73.3273L64.7314 74.1074L64.0985 74.5681C63.8957 74.0522 63.8711 73.6038 63.9879 73.1799M65.8743 75.5755L66.3474 75.7414H66.8451L67.3552 75.5387L67.7546 75.164L67.902 74.6664V74.1689L67.7115 73.6836L65.4503 75.207L65.8804 75.5817L65.8743 75.5755Z" fill="#B3B7BC"/>
<path d="M57.673 81.7365L58.9204 81.6628L59.7745 81.1529L60.2415 80.3605L60.3644 79.4576L60.1555 78.4748L59.7315 77.5166L59.0802 76.8102L58.2506 76.4539L57.2183 76.5767L56.5424 76.9637L56.1246 77.5166L55.9157 78.2107L55.9894 78.9539L55.2152 79.2365C55.0001 78.4195 55.0923 77.7193 55.3934 77.1419C55.7129 76.5522 56.2413 76.1406 57.0586 75.8949L58.392 75.7168L59.5041 76.0853L60.3644 76.933L60.985 78.1308C61.1325 78.6161 61.1755 79.0399 61.2062 79.4699L60.9973 80.723L60.2784 81.7119L59.1477 82.3753L58.1646 82.5411L57.2675 82.4183L56.481 81.9515L55.8911 81.1714L56.7206 80.8949L57.6607 81.7242L57.673 81.7365Z" fill="#B3B7BC"/>
<path d="M49.8075 77.7872C50.17 77.5108 50.5632 77.2712 51.0917 77.2344L52.0748 77.3142L52.8613 77.7196L53.3591 78.4506L53.6294 79.4088L53.5987 80.3978L53.2239 81.227L52.5787 81.8106L51.7369 82.0931L50.6431 81.9518L49.9242 81.4113L49.4634 80.5636L49.2852 79.6791L52.806 79.2614L52.6463 78.6656L52.3145 78.2295L51.8106 77.9346L51.1593 77.8916L50.4035 78.2295L50.0471 78.9481L49.2852 79.0464C49.3405 78.4813 49.5002 78.082 49.8136 77.7811M50.3543 80.7725L50.6984 81.1533L51.1531 81.3621L51.6754 81.4113L52.1916 81.227L52.5664 80.9015L52.8183 80.4531L52.849 79.9309L50.1638 80.2504L50.3482 80.7786L50.3543 80.7725Z" fill="#B3B7BC"/>
<path d="M47.1324 82.2583V81.2325L46.4012 82.0741L45.375 82.3198V81.5397L46.2045 81.3677L46.733 81.0114L47.0218 80.4033L47.1324 79.6416L47.2061 77.5225H47.9557L47.8574 82.2583H47.1324Z" fill="#B3B7BC"/>
<path d="M42.2305 81.8719L42.2858 81.1839L43.2443 81.3068L43.5577 78.3829V78.1864L43.527 78.0144L43.3549 77.9468L43.0416 77.9038L42.6913 77.8731L42.7589 77.1729L43.3549 77.2527L43.8465 77.3448L44.1722 77.523L44.3749 77.8731V78.4259L44.0247 81.3682L44.8112 81.4726L44.7375 82.1667L43.9325 82.0746L43.7482 83.4628L42.9863 83.3707L43.1706 81.9579L42.2305 81.8719Z" fill="#B3B7BC"/>
<path d="M40.5902 82.443L40.4428 83.352L39.6562 83.1862L39.8467 82.271L40.5964 82.443H40.5902ZM40.0188 81.4479L40.9712 76.8164L41.7331 76.9823L40.7869 81.6444L40.0249 81.454L40.0188 81.4479Z" fill="#B3B7BC"/>
<path d="M38.9606 80.5265L38.7578 81.1654L37.9897 80.9565L37.7869 81.6383L37.2708 82.3754H36.2323L35.9865 82.2894L35.7715 82.1666L35.9743 81.5401L36.1709 81.6383L36.3368 81.7182L36.8161 81.7366L37.1049 81.3681L37.2831 80.7292L36.3798 80.4713L36.5519 79.814L37.4735 80.0597L38.5796 76.2329L39.3354 76.4295L38.2048 80.2993L38.9606 80.5265Z" fill="#B3B7BC"/>
<path d="M34.8928 80.8028L34.561 81.7426L33.8359 81.4477L34.1923 80.5571L34.8928 80.8089V80.8028ZM34.4565 79.7647L36.1709 75.3359L36.8837 75.6308L35.2 80.0165L34.4565 79.7647Z" fill="#B3B7BC"/>
<path d="M30.5012 76.9391L31.0788 77.5227L31.7547 77.7192L32.363 77.5841L32.8607 77.1726L33.2601 76.6136L33.4506 75.9809L33.512 75.4097L33.3031 74.8507L32.8115 74.4207L31.896 74.2671L31.1463 74.8507L30.4459 74.4821C30.8022 73.9846 31.1648 73.702 31.6441 73.5792C32.1172 73.5116 32.6026 73.5546 33.1556 73.8433L33.8746 74.4268L34.2863 75.1762V76.0669L33.9483 76.976L33.3707 77.7868L32.6026 78.3151L31.7547 78.4502L30.7961 78.1861L30.1878 77.7315L29.7577 77.1726L29.6348 76.5522L29.7577 75.7905L30.4889 76.1345L30.5012 76.933V76.9391Z" fill="#B3B7BC"/>
<path d="M27.4833 70.0046L27.7168 70.4345L27.5694 70.9997L28.4849 71.0242L29.3083 71.4296L29.763 71.8658L29.9903 72.3264L30.0211 72.8424L29.763 73.4075L29.2223 73.8559L28.657 73.9604L28.1408 73.8436L27.6185 73.5795L27.0286 73.3031L26.5924 73.0697L26.2237 72.9714L25.941 73.1618L25.7444 73.5611L25.7997 73.8866L25.9656 74.1876L26.2606 74.4272L27.0348 74.7712L27.723 74.4333L28.3743 74.9309L27.7721 75.4038L27.1638 75.4898L26.4387 75.3301L25.855 74.937L25.3634 74.5193L25.0193 74.0218L24.9395 73.5058L25.216 72.8301L26.703 70.8952L26.9365 70.5758L26.832 70.3424L26.6047 70.2564L26.961 69.7466L27.4956 69.9923L27.4833 70.0046ZM26.8689 72.5414L27.342 72.7933L27.7721 73.0451L28.2514 73.2355H28.657L29.0564 72.953L29.1854 72.6704L29.1731 72.3633L29.0072 72.0807L28.7553 71.8658L28.1777 71.5033L27.6861 71.4726L27.2744 71.5955L26.9549 71.8043L26.4695 72.4309L26.875 72.5291L26.8689 72.5414Z" fill="#B3B7BC"/>
<path d="M21.5791 70.9505L22.0584 70.4776L22.6913 71.1225L24.7804 69.0587L24.9341 68.8989L24.9402 68.7392L24.8849 68.598L24.6514 68.3523L24.4118 68.1127L24.8849 67.6274L25.3335 68.039L25.6653 68.4321L25.7943 68.7945L25.6714 69.1385L25.3765 69.5685L23.2197 71.6938L23.8034 72.265L23.318 72.7257L22.7711 72.1668L21.7511 73.1189L21.1797 72.6213L22.1997 71.6262L21.5791 70.9505Z" fill="#B3B7BC"/>
<path d="M19.9321 70.3544L19.1947 70.9994L18.7031 70.3851L19.4282 69.7709L19.9259 70.3544H19.9321ZM20.0857 69.261L23.6987 66.2144L24.1964 66.8348L20.5834 69.8077L20.0857 69.261Z" fill="#B3B7BC"/>
<path d="M20.043 67.0189L19.1091 67.0804L18.3287 66.7425L17.6282 66.0361L17.2227 65.0779L17.278 64.2057L17.7204 63.401L18.4639 62.7683L19.361 62.3752L20.2335 62.3076L21.0631 62.6086L21.7513 63.3396L22.1138 64.3039V65.1516L21.6652 65.9378L20.9524 66.589L20.0369 67.0189H20.043ZM21.0631 65.4096L21.358 64.8199L21.3887 64.2609L21.1737 63.7204L20.7865 63.3396L20.2274 63.1246L19.6006 63.1369L18.8817 63.4993L18.3287 63.9784L18.0276 64.5496L17.9846 65.127L18.2058 65.6676L18.5806 66.0976L19.1091 66.3248L19.785 66.2265L20.4855 65.9256L21.0569 65.4157L21.0631 65.4096Z" fill="#B3B7BC"/>
<path d="M15.2062 61.5031L15.9067 61.2021V61.1898C15.2738 61.1099 14.8068 60.7537 14.5549 60.1026L14.3398 59.347L14.5057 58.7389L14.899 58.3028L15.5012 57.9281L18.3584 56.7549L18.6595 57.4736L15.7101 58.6959L15.1509 59.1935L15.2001 59.9367L15.5442 60.4527L16.0173 60.7537L16.5212 60.8089L17.1049 60.68L19.5689 59.648L19.8393 60.379L15.5135 62.1726L15.1939 61.5031H15.2062Z" fill="#B3B7BC"/>
<path d="M35.3608 46.386C34.2854 47.7865 32.8107 48.3086 31.4282 48.3086C26.9918 48.3086 24.3926 45.0101 24.3926 40.8762C24.3926 36.7423 26.9856 33.3086 31.4282 33.3086C34.3592 33.3086 37.1058 35.1268 37.4745 38.3639H34.4513C34.1011 36.7975 32.9152 35.9867 31.4282 35.9867C28.6139 35.9867 27.5202 38.3639 27.5202 40.8762C27.5202 43.2533 28.6139 45.6735 31.4282 45.6735C33.4866 45.6735 34.6848 44.6047 34.8262 42.5838H31.6924V40.2312H37.708V47.9769H35.6926L35.3608 46.3922V46.386Z" fill="white"/>
<path d="M40.2637 33.6714H44.6755L48.0305 43.4994H48.0489L51.238 33.6714H55.699V47.9712H52.7373V37.7992H52.6943L49.1672 47.9712H46.7524L43.2438 37.9282H43.1701V47.9712H40.2637V33.6714Z" fill="white"/>
<path d="M58.4395 33.6714H64.8913C68.4736 33.6714 69.8562 35.9318 69.8562 38.2291C69.8562 40.5264 68.4736 42.8299 64.8913 42.8299H61.6039V47.9712H58.4395V33.6714ZM61.6039 40.3974H64.0249C65.5119 40.3974 66.7962 40.0535 66.7962 38.2291C66.7962 36.4048 65.5058 36.1038 64.0249 36.1038H61.6039V40.3974Z" fill="white"/>
<path d="M36.2961 60.6921L35.4912 61.5644L34.1947 60.4096C33.4942 60.7843 32.7322 60.9685 32.044 60.9685C29.3097 60.9685 27.6875 58.7572 27.6875 56.1651C27.6875 53.5729 29.3097 51.4292 32.044 51.4292C34.7784 51.4292 36.3822 53.6037 36.3822 56.1651C36.3822 57.455 35.995 58.8002 35.0979 59.6847L36.2961 60.686V60.6921ZM32.1301 58.6405L32.9104 57.7621L34.0042 58.7388C34.5695 58.0447 34.7907 57.1172 34.7907 56.1651C34.7907 54.4513 34.0042 52.756 32.044 52.756C30.0839 52.756 29.2359 54.4513 29.2359 56.1651C29.2359 57.8788 30.0655 59.6786 32.044 59.6786L33.0518 59.4636L32.1301 58.6405Z" fill="white"/>
<path d="M43.4674 60.7475H42.0173V59.8199H41.9865C41.6363 60.471 40.8314 60.8949 40.0817 60.8949C38.3981 60.8949 37.6484 60.0349 37.6484 58.3334V54.1504H39.0986V58.1799C39.0986 59.3408 39.6024 59.7769 40.3582 59.7769C41.5871 59.7769 41.9804 59.003 41.9804 57.9956V54.1504H43.4674V60.7475Z" fill="white"/>
<path d="M50.5133 59.2734L50.8512 59.7771L51.2138 59.7403V60.7538L50.2859 60.8951C49.6837 60.8951 49.2782 60.7169 49.1553 60.1088C48.5961 60.6924 47.6622 60.8951 46.8572 60.8951C45.6959 60.8951 44.5898 60.287 44.5898 59.0093C44.5898 57.3263 45.9232 57.0929 47.1706 56.9639C48.2152 56.7366 49.1307 56.8656 49.1307 56.0056C49.1307 55.2501 48.3565 55.115 47.7728 55.115C46.9555 55.115 46.3718 55.4589 46.2919 56.153H44.8602C44.9524 54.4639 46.3964 53.9663 47.8526 53.9663C49.1492 53.9663 50.5133 54.4823 50.5133 55.8766V59.2673V59.2734ZM49.0447 57.4553C48.5961 57.7255 47.9141 57.7071 47.2935 57.83C46.6483 57.9282 46.0523 58.1555 46.0523 58.9479C46.0523 59.5806 46.9064 59.7771 47.4225 59.7771C48.0493 59.7771 49.0447 59.4577 49.0447 58.5118V57.4553Z" fill="white"/>
<path d="M53.5863 51.6445H52.1055V60.7539H53.5863V51.6445Z" fill="white"/>
<path d="M55.1719 52.9897H56.6835V51.6445H55.1719V52.9897ZM55.1719 60.7478H56.6835V54.1507H55.1719V60.7478Z" fill="white"/>
<path d="M57.5371 54.1503H58.6923V52.1602H60.1301V54.1503H61.4082V55.2069H60.1301V58.7327C60.1301 59.3408 60.1609 59.6725 60.8245 59.6725L61.4082 59.5926V60.7474L60.4927 60.8088C58.9504 60.8088 58.6923 60.2191 58.6923 59.1196V55.2069H57.5371V54.1503Z" fill="white"/>
<path d="M61.7461 54.1507H63.3929L65.1011 59.0401L66.754 54.1507H68.2901L65.734 61.1102C65.2608 62.3141 64.8983 63.346 63.3929 63.346L62.379 63.2723V62.0254L63.0979 62.1482C63.7431 62.1482 63.9274 61.7613 64.0995 61.2269L64.2715 60.7109L61.7461 54.1445V54.1507Z" fill="white"/>
</svg>
