<svg width="96" height="96" viewBox="0 0 96 96" fill="none" xmlns="http://www.w3.org/2000/svg">
<g clip-path="url(#clip0_14679_4479)">
<path d="M48.0143 87C26.9519 87.1144 8.91288 70.0543 9.00032 47.8414C9.08663 26.0837 26.6863 8.96419 48.0693 9.00006C69.5061 9.03705 87.1651 26.3415 86.9981 48.3167C86.8322 70.2561 68.9512 87.092 48.0132 87H48.0143ZM47.9527 9.70959C26.8813 9.70846 9.70206 26.8649 9.68412 47.9345C9.66619 69.0085 26.6504 86.332 48.0199 86.3264C69.3076 86.3208 86.3423 69.0567 86.3098 47.9513C86.2773 26.6116 68.8525 9.61543 47.9538 9.70959H47.9527Z" fill="#B3B7BC"/>
<path d="M47.9893 18.8374C63.9926 18.7455 77.1049 31.8006 77.189 47.8608C77.2719 63.7574 64.5083 77.1611 48.0666 77.2071C31.9344 77.2531 18.886 64.217 18.8109 48.1624C18.7346 31.9104 31.9478 18.7533 47.9893 18.8374ZM52.4957 43.7012C52.536 43.7068 52.5753 43.7124 52.6156 43.718C52.6156 44.0352 52.6033 44.3535 52.6179 44.6696C52.7434 47.4752 54.3352 49.6509 56.9729 50.6003C59.1342 51.3782 61.3112 51.3849 63.505 50.7236C65.6797 50.0679 67.0899 48.6757 67.7109 46.4799C68.0753 45.1886 68.1818 43.8839 68.0472 42.5511C67.7804 39.917 66.6415 37.9016 64.0733 36.8872C61.4849 35.865 58.9055 35.8986 56.3452 36.9814C54.5561 37.738 53.416 39.0752 52.9631 40.9572C52.7468 41.8573 52.6481 42.7854 52.4968 43.7001L52.4957 43.7012ZM42.0626 50.0387C42.1309 50.0387 42.1713 50.0275 42.2027 50.041C42.391 50.1206 42.5782 50.2035 42.7632 50.2909C44.7036 51.2056 46.7203 51.4825 48.8054 50.9242C51.572 50.1833 53.0472 47.5716 52.0731 45.1225C51.4206 43.4804 50.136 42.5175 48.4668 42.031C46.8918 41.5715 45.3157 41.1209 43.7463 40.6445C43.4593 40.5571 43.039 40.4315 43.1847 40.0291C43.2575 39.8274 43.6252 39.6267 43.8719 39.6099C45.68 39.4866 47.3245 39.8621 48.5912 41.2912C48.7 41.4145 48.8973 41.5233 49.0576 41.5289C49.8602 41.5524 50.664 41.5591 51.4655 41.5222C51.609 41.5154 51.8601 41.2834 51.8634 41.1511C51.8926 39.7702 51.8892 38.387 51.8679 37.0049C51.8657 36.876 51.6785 36.644 51.5709 36.6406C50.6259 36.6115 49.6809 36.6238 48.7359 36.6238C48.6955 36.885 48.6686 37.0621 48.6316 37.3008C48.3345 37.1619 48.0902 37.0374 47.8368 36.9309C45.43 35.9233 43.0165 35.7798 40.6568 37.0229C38.3453 38.2402 37.8476 41.6432 39.6502 43.5342C40.362 44.2796 41.2005 44.8142 42.1859 45.1158C43.7721 45.6022 45.3639 46.0708 46.94 46.5875C47.2348 46.6839 47.4658 46.972 47.727 47.1726C47.4377 47.3396 47.1597 47.6232 46.8559 47.6557C44.9222 47.8631 43.1847 47.4786 41.9011 45.8533C41.77 45.6874 41.5312 45.5182 41.3339 45.5081C40.6075 45.4666 39.8766 45.4722 39.1502 45.5092C39.0034 45.517 38.7467 45.7412 38.7444 45.8701C38.7153 47.4013 38.7164 48.9335 38.7411 50.4647C38.7433 50.5936 38.9619 50.8245 39.0874 50.829C39.945 50.8615 40.8059 50.8615 41.6635 50.829C41.7902 50.8245 41.9393 50.6138 42.0188 50.4669C42.0816 50.3515 42.0514 50.1867 42.0637 50.041L42.0626 50.0387ZM33.2964 36.3178C31.9523 36.3178 30.6071 36.329 29.263 36.3111C28.8281 36.3055 28.6543 36.4691 28.6655 36.8996C28.6812 37.534 28.6678 38.1695 28.6678 38.804C28.6678 39.5744 29.0422 39.96 29.791 39.9607C29.9031 39.9607 30.0175 39.9753 30.1273 39.9585C30.6071 39.889 30.7753 40.0594 30.7652 40.5694C30.7338 42.3057 30.7596 44.0419 30.7484 45.7793C30.745 46.2557 30.8593 46.8823 30.6082 47.1614C30.3919 47.4024 29.7316 47.2881 29.2731 47.2589C28.7833 47.2275 28.6588 47.4528 28.6655 47.881C28.6768 48.6656 28.688 49.4503 28.6588 50.2338C28.6398 50.7539 28.8595 50.9119 29.3527 50.903C30.5477 50.8805 31.7427 50.8973 32.9377 50.8962C34.4129 50.8951 35.8881 50.885 37.3634 50.8906C37.8017 50.8917 38.0113 50.7348 37.9844 50.264C37.9541 49.7428 37.9777 49.2182 37.9788 48.6959C37.9788 47.2354 37.9788 47.2208 36.4923 47.2186C36.0439 47.2186 35.8668 47.0975 35.8747 46.6144C35.9016 44.9151 35.878 43.2158 35.8892 41.5165C35.8926 41.02 35.7693 40.371 36.0271 40.0751C36.2468 39.824 36.9351 39.9439 37.4127 39.9697C37.8835 39.9944 37.9922 39.7803 37.9844 39.3711C37.9698 38.5686 37.9597 37.7649 37.9855 36.9623C38.0012 36.4759 37.8151 36.3021 37.332 36.31C35.9879 36.3313 34.6427 36.3178 33.2986 36.3167L33.2964 36.3178ZM33.9275 52.396C35.9251 56.1555 41.8675 60.9552 49.8748 60.0304C54.315 59.5182 61.2193 55.1052 61.5791 52.3792C61.1464 52.2234 60.8874 52.3971 60.5904 52.7423C59.7037 53.7713 58.7632 54.7544 57.8226 55.7363C57.7184 55.845 57.4292 55.9156 57.3115 55.8495C56.8619 55.6006 56.4483 55.289 56.047 55.0178C56.631 54.1457 57.1926 53.3073 57.7789 52.433C57.205 52.2357 56.918 52.3444 56.6703 52.7603C56.3373 53.3196 55.9326 53.8375 55.5358 54.3553C55.4529 54.4629 55.2343 54.584 55.139 54.5459C54.3677 54.2376 53.6099 53.8935 52.8521 53.5617C52.9676 53.1515 53.0741 52.7726 53.1784 52.4038C52.628 52.2099 52.3937 52.4038 52.2737 52.8455C52.1964 53.1313 52.1168 53.3902 51.6684 53.3028C50.72 53.1178 49.7537 53.0293 48.802 52.8578C48.5655 52.8152 48.3715 52.5652 48.1328 52.4969C47.9142 52.4341 47.6474 52.4375 47.4276 52.5014C47.1698 52.5753 46.9523 52.8152 46.6956 52.8612C45.8168 53.0181 44.9177 53.073 44.0478 53.2624C43.5882 53.3622 43.3775 53.2714 43.28 52.8387C43.169 52.3489 42.882 52.2122 42.3753 52.4139C42.4874 52.8107 42.5962 53.1952 42.7015 53.5673C41.9516 53.8924 41.242 54.2197 40.5145 54.4999C40.3844 54.5504 40.112 54.4629 40.0212 54.3475C39.6053 53.8207 39.2018 53.2804 38.852 52.7087C38.592 52.2839 38.2949 52.2525 37.7748 52.4498C38.379 53.342 38.9451 54.1782 39.5168 55.0234C39.1289 55.2789 38.7399 55.5031 38.3891 55.7766C38.1312 55.9773 37.9384 55.9817 37.7198 55.7441C36.7995 54.7443 35.8522 53.768 34.9644 52.739C34.6662 52.3937 34.4039 52.2279 33.9286 52.396H33.9275ZM61.643 34.9044C59.3337 30.812 53.3969 26.316 45.4771 27.3192C41.0413 27.8808 34.4163 32.194 33.9656 34.9279C34.4017 35.105 34.6629 34.9201 34.9577 34.5771C35.8197 33.5739 36.7277 32.6099 37.6369 31.6493C37.7501 31.5293 38.0382 31.4161 38.1469 31.4767C38.6088 31.7345 39.0336 32.0584 39.4518 32.3431C38.8801 33.1995 38.3397 34.011 37.7804 34.8494C38.4597 35.0714 38.5258 35.0434 38.8206 34.6096C39.1771 34.085 39.5336 33.5582 39.9237 33.0594C40.0212 32.9338 40.2869 32.8072 40.4091 32.8531C41.1703 33.1446 41.9124 33.4864 42.6713 33.816C42.567 34.1836 42.4684 34.5345 42.3664 34.8954C43.3136 35.2799 43.1623 34.3473 43.4246 34.0973C44.6991 34.2598 45.9356 34.2811 47.0779 34.6219C47.635 34.7878 47.9321 34.7968 48.4937 34.6253C49.6327 34.2778 50.8713 34.2576 52.091 34.0996C52.4662 34.737 52.8305 34.9918 53.184 34.864C53.0842 34.5188 52.9833 34.1691 52.8824 33.8182C53.6548 33.4819 54.3991 33.1412 55.1592 32.843C55.2713 32.7993 55.5179 32.9136 55.6064 33.028C56.0044 33.5447 56.39 34.0749 56.7364 34.6264C56.9853 35.0221 57.2722 35.0803 57.7812 34.8584C57.2039 33.9942 56.6546 33.1703 56.0952 32.3308C56.4651 32.0875 56.844 31.8791 57.1725 31.6089C57.4673 31.3657 57.6881 31.3758 57.9347 31.647C58.8371 32.6401 59.7608 33.6131 60.6352 34.6286C60.9267 34.9671 61.1946 35.0747 61.643 34.9021V34.9044ZM32.1003 64.3571C31.9333 64.7819 31.8223 65.2415 31.5857 65.6226C31.2091 66.2324 30.1979 66.1943 29.985 65.5565C29.8134 65.0442 29.4895 65.0184 29.1431 65.1619C29.0534 65.1989 29.0613 65.7324 29.1778 65.9589C29.8146 67.1997 31.7046 67.1672 32.4422 65.8793C33.1417 64.6575 33.219 63.3203 32.8076 61.9886C32.4388 60.7949 31.1329 60.2759 29.9962 60.8039C28.9895 61.2713 28.5647 62.7027 29.1218 63.7473C29.6554 64.7483 30.9176 65.0027 32.1003 64.3571ZM33.4186 63.7328C33.5531 64.3515 33.6248 64.9882 33.8345 65.5778C34.1214 66.3837 34.7357 66.8421 35.6224 66.8511C36.4464 66.8601 37.1279 66.3736 37.4317 65.5184C37.8588 64.319 37.8566 63.1039 37.4194 61.9068C37.1167 61.0785 36.4621 60.6256 35.6393 60.62C34.7918 60.6133 34.0956 61.0673 33.8154 61.918C33.6248 62.4953 33.5497 63.1107 33.4186 63.7328ZM42.5188 63.6666C42.3148 62.9605 42.2184 62.1983 41.8843 61.5605C41.2095 60.2725 39.3688 60.2524 38.6816 61.5324C37.9025 62.984 37.9093 64.5286 38.7108 65.9734C39.3778 67.1739 41.0772 67.1537 41.8372 66.0071C42.3002 65.3076 42.3809 64.5152 42.5188 63.6655V63.6666ZM54.3767 63.6812C54.5538 64.4087 54.6547 65.1126 54.9013 65.7605C55.167 66.4577 55.7656 66.8231 56.5223 66.8477C57.3003 66.8735 57.9224 66.5406 58.2531 65.8389C58.9078 64.4479 58.8999 63.021 58.2565 61.6288C57.9426 60.9518 57.3518 60.6144 56.5851 60.6178C55.8172 60.6211 55.2175 60.9619 54.9338 61.649C54.6693 62.2879 54.5594 62.9919 54.3767 63.6801V63.6812ZM63.8637 65.0879C63.7976 65.7941 64.1395 66.3557 64.7975 66.6505C65.6932 67.0517 66.8287 66.8556 67.4385 66.1931C68.0103 65.5722 68.1773 64.4513 67.7244 63.7451C67.5136 63.4167 67.1919 63.0468 66.8455 62.9425C66.2705 62.7688 65.6349 62.7946 65.0015 62.734C65.0037 62.6982 65.0183 62.5345 65.0273 62.3698C65.0542 61.8642 65.247 61.5907 65.8243 61.6535C66.303 61.7062 66.7985 61.695 67.276 61.6322C67.4285 61.612 67.6179 61.3509 67.6639 61.1693C67.7345 60.8879 67.5619 60.731 67.2468 60.7355C66.4442 60.7456 65.6416 60.7288 64.839 60.7478C64.6977 60.7512 64.4522 60.8543 64.4376 60.9428C64.2673 61.9617 64.1316 62.9862 63.987 64.0096C64.0408 64.0623 64.0957 64.1161 64.1495 64.1688C64.4488 64.0511 64.7728 63.9749 65.0419 63.8079C65.5541 63.4907 66.3209 63.5131 66.7009 63.9099C67.063 64.2876 67.0966 65.1316 66.7682 65.58C66.2974 66.2245 65.1394 66.1943 64.8311 65.4802C64.6013 64.9467 64.2818 64.9736 63.8626 65.0913L63.8637 65.0879ZM50.877 65.7941C50.8433 65.7313 50.8108 65.6686 50.7772 65.6058C51.0843 65.3547 51.3736 65.0778 51.702 64.8593C52.1515 64.5611 52.6515 64.3392 53.092 64.0298C53.8969 63.4637 54.1503 62.5648 53.7938 61.714C53.4586 60.9126 52.5472 60.4766 51.5507 60.6391C50.6023 60.7938 49.9869 61.4876 49.9073 62.4202C49.8714 62.8383 50.0317 62.9347 50.4106 62.928C50.8321 62.9201 50.8164 62.6051 50.8646 62.3485C50.9644 61.8272 51.2278 61.5044 51.7861 61.473C52.2939 61.445 52.7199 61.5717 52.9127 62.0963C53.0943 62.5906 52.925 63.086 52.4407 63.4122C52.0394 63.6823 51.6101 63.9099 51.1942 64.1587C50.4386 64.6104 49.9297 65.2247 49.7683 66.1248C49.6876 66.5765 49.8468 66.7043 50.2458 66.7031C51.2906 66.702 52.3343 66.7031 53.379 66.7043C53.7063 66.7043 53.953 66.6583 53.9406 66.2178C53.9283 65.7952 53.6828 65.7896 53.3846 65.7907C52.5484 65.793 51.7121 65.7907 50.8758 65.7907L50.877 65.7941ZM45.7271 63.6756C45.7271 62.7991 45.7394 61.9214 45.7148 61.0448C45.7114 60.9036 45.5724 60.6862 45.4513 60.6503C45.3101 60.6077 45.0018 60.6884 44.9727 60.7814C44.7597 61.4607 44.2653 61.6826 43.6207 61.7589C43.5187 61.7712 43.382 62.0178 43.3764 62.1613C43.3719 62.2677 43.5356 62.4168 43.6577 62.4818C43.7609 62.5356 43.9133 62.4975 44.0434 62.4975C44.5194 62.4998 44.7574 62.7475 44.7574 63.2407C44.7574 64.2293 44.772 65.2191 44.7485 66.2077C44.7395 66.5843 44.8897 66.7054 45.2361 66.7043C45.587 66.702 45.7361 66.5585 45.7293 66.1965C45.7136 65.3569 45.7249 64.5174 45.7237 63.6778L45.7271 63.6756ZM62.0062 63.6397C62.0062 62.7822 62.0174 61.9236 61.9961 61.0661C61.9927 60.9193 61.8481 60.6514 61.7764 60.6537C61.5903 60.6604 61.2876 60.7467 61.245 60.8722C61.0455 61.4652 60.6106 61.6804 60.0557 61.7185C59.6644 61.7454 59.6185 61.9987 59.7138 62.2532C59.7597 62.3754 60.0187 62.4774 60.1857 62.4841C61.059 62.5155 61.0399 62.3126 61.0399 63.3797C61.0399 64.3123 61.0477 65.2449 61.0365 66.1774C61.0321 66.5204 61.1419 66.6964 61.5118 66.6998C61.9031 66.7031 62.023 66.535 62.0129 66.1573C61.9905 65.3188 62.0062 64.4793 62.0062 63.6397ZM48.9645 66.127C49.0542 65.7067 48.8087 65.5935 48.4253 65.5867C48.0498 65.58 47.8996 65.7246 47.9007 66.1158C47.9007 66.5025 47.9949 66.7121 48.4231 66.7054C48.8087 66.6998 49.0419 66.5855 48.9645 66.127ZM48.459 63.2575C48.9242 63.3281 48.9701 63.0513 48.9847 62.6847C49.0015 62.2252 48.7515 62.1904 48.3883 62.1792C47.9601 62.1657 47.9142 62.3854 47.9041 62.7318C47.8917 63.151 48.0509 63.3236 48.459 63.2575Z" fill="#B3B7BC"/>
<path d="M42.3628 84.2617C42.1632 84.2281 42.0007 84.1799 41.837 84.1788C41.4716 84.1765 41.3774 83.9938 41.364 83.6486C41.3135 82.401 41.2317 81.1535 41.1599 79.907C41.1543 79.8185 41.133 79.7322 41.1196 79.6436C41.0703 79.638 41.0221 79.6324 40.9727 79.6257C40.7272 81.0279 40.4829 82.4302 40.2295 83.8817C39.9369 83.8347 39.6735 83.7921 39.3652 83.7416C39.6657 81.9796 39.956 80.2792 40.2396 78.6158C40.3371 78.5743 40.373 78.5429 40.4033 78.5485C40.8225 78.6281 41.364 78.5866 41.6218 78.8355C41.846 79.0529 41.763 79.5999 41.7944 80.0034C41.8583 80.8396 41.9077 81.6769 41.9648 82.5131C41.9772 82.6857 42.0007 82.8572 42.0186 83.0287C42.0668 83.0388 42.115 83.0489 42.1632 83.059C42.2383 82.9054 42.3213 82.7552 42.3874 82.5983C42.7932 81.6366 43.2226 80.6827 43.5858 79.7053C43.7607 79.2334 44.0073 79.0977 44.4691 79.2323C44.7146 79.304 44.9713 79.3331 45.2975 79.3948C44.9994 81.149 44.7079 82.864 44.412 84.607C44.1082 84.5532 43.8739 84.5117 43.5555 84.4556C43.792 83.0186 44.0275 81.5917 44.2617 80.166C44.2035 80.1492 44.1452 80.1323 44.0869 80.1144C43.514 81.492 42.9401 82.8696 42.3628 84.2584V84.2617Z" fill="#B3B7BC"/>
<path d="M61.543 76.4554C62.084 76.0406 62.6176 75.9913 63.1438 76.3074C64.1313 76.8981 65.1201 77.4866 66.1088 78.0751C66.1559 78.0392 66.2018 78.0033 66.2489 77.9686C65.666 76.9149 65.0842 75.8624 64.4744 74.7583C64.7019 74.6216 64.9183 74.4927 65.1828 74.3335C65.2882 74.4792 65.3936 74.6003 65.4721 74.7381C66.1693 75.9711 66.8711 77.2008 67.5459 78.4461C67.6378 78.6165 67.6838 78.9774 67.593 79.0502C67.3408 79.2498 67.0684 79.5277 66.6536 79.2677C65.675 78.6534 64.675 78.0739 63.6818 77.4832C63.526 77.3902 63.3601 77.3128 63.1998 77.2288C63.1561 77.259 63.1124 77.2904 63.0686 77.3207C63.6616 78.3889 64.2547 79.456 64.8802 80.5814C64.6313 80.7327 64.4026 80.8717 64.128 81.0387C63.2581 79.4952 62.4095 77.9899 61.5441 76.4542L61.543 76.4554Z" fill="#B3B7BC"/>
<path d="M34.2101 76.2656C35.97 76.2925 37.1269 77.6914 36.6695 79.3795C36.4868 80.052 36.1034 80.7279 35.6405 81.2514C34.9342 82.0495 33.987 82.0842 33.0241 81.665C32.0712 81.2503 31.486 80.58 31.4883 79.4894C31.4905 78.5097 31.8638 77.6746 32.5118 76.9651C32.9602 76.4741 33.5341 76.2331 34.2101 76.2668V76.2656ZM32.4344 79.3761C32.431 80.154 32.7617 80.654 33.3514 80.9118C33.9522 81.1752 34.5464 81.0878 34.9208 80.5946C35.3008 80.0935 35.5866 79.4894 35.7806 78.8874C35.979 78.2687 35.6315 77.6488 35.0766 77.3316C34.4589 76.9797 33.8592 77.0323 33.3346 77.53C32.7707 78.0636 32.5005 78.7451 32.4344 79.3761Z" fill="#B3B7BC"/>
<path d="M71.366 20.2637C72.0285 20.9048 72.6473 21.4698 73.2268 22.0728C73.7728 22.64 73.8423 23.3293 73.5833 24.0501C73.1461 25.2696 71.8189 26.2795 70.6743 26.2257C70.338 26.21 69.9412 26.1226 69.6879 25.922C69.0063 25.3828 68.3875 24.7652 67.6992 24.1386C68.9312 22.8373 70.1183 21.5818 71.366 20.2637ZM68.9559 24.2182C69.3202 24.5556 69.587 24.8874 69.93 25.0925C70.1946 25.2506 70.5869 25.3738 70.8638 25.2976C71.8267 25.0331 72.4926 24.3538 72.774 23.4168C73.0116 22.6232 72.2583 22.2645 71.8211 21.787C71.7965 21.7601 71.7673 21.7141 71.7404 21.713C71.5992 21.7085 71.3951 21.6569 71.3234 21.7298C70.5409 22.5279 69.7798 23.345 68.9559 24.2171V24.2182Z" fill="#B3B7BC"/>
<path d="M38.4986 18.5415C38.1769 18.6323 37.9134 18.7063 37.6063 18.7926C37.1433 17.1617 36.6859 15.5734 36.2566 13.9783C36.2308 13.8808 36.3956 13.6465 36.5133 13.6084C37.2565 13.3685 38.0076 13.1432 38.7665 12.9572C39.4783 12.7823 40.0489 13.0054 40.3953 13.5266C40.7596 14.0747 40.7159 14.6845 40.2238 15.4478C41.3639 15.7381 41.0354 16.9565 41.6531 17.6268C41.5399 17.6706 41.4591 17.7075 41.3751 17.7344C40.8557 17.9026 40.5119 17.7184 40.3438 17.1818C40.2821 16.9868 40.207 16.7963 40.142 16.6023C39.9985 16.1719 39.6925 16.0531 39.2654 16.1069C37.9885 16.2705 37.9112 16.3804 38.252 17.6156C38.3304 17.9003 38.4044 18.1873 38.4975 18.5392L38.4986 18.5415ZM38.7542 13.7508C38.4201 13.8595 37.854 13.9413 37.4393 14.2361C37.2991 14.3359 37.5424 14.9748 37.6141 15.3671C37.6242 15.4209 37.6377 15.4949 37.6758 15.5184C37.7856 15.5868 37.9258 15.7011 38.0244 15.6776C38.456 15.5734 38.8865 15.4501 39.2979 15.2864C39.6734 15.1373 39.8169 14.8313 39.7081 14.4255C39.6028 14.031 39.3976 13.753 38.7542 13.7508Z" fill="#B3B7BC"/>
<path d="M65.2041 16.1123C66.334 16.7972 67.3945 17.4406 68.492 18.1064C68.344 18.3507 68.2229 18.5525 68.0794 18.7901C67.2477 18.2925 66.4551 17.8172 65.6144 17.3139C65.3846 17.6804 65.1805 18.0044 64.9238 18.4135C65.6727 18.8764 66.3923 19.3214 67.1681 19.8012C67.0436 20.0186 66.9304 20.2182 66.7847 20.4726C66.028 20.022 65.2994 19.5871 64.5046 19.1141C64.2355 19.5546 63.9889 19.9581 63.6975 20.4356C64.5629 20.9692 65.3935 21.4814 66.2657 22.0194C66.1267 22.2537 66.0067 22.4544 65.8509 22.7155C64.7142 22.025 63.6067 21.3536 62.4453 20.6486C63.3612 19.1421 64.2591 17.6681 65.2041 16.1134V16.1123Z" fill="#B3B7BC"/>
<path d="M33.5931 17.049C33.7198 17.29 33.814 17.4682 33.9474 17.7226C33.1851 18.1452 32.4452 18.5555 31.6336 19.0061C31.8724 19.4533 32.0955 19.8703 32.3589 20.3623C33.2479 19.8983 34.0987 19.4533 35.0101 18.9769C35.139 19.1966 35.2645 19.4096 35.417 19.6707C34.2444 20.2951 33.1145 20.897 31.9083 21.5404C31.0754 19.9779 30.2582 18.4434 29.4141 16.8595C30.5552 16.2531 31.6516 15.6703 32.8028 15.0571C32.9329 15.2981 33.0427 15.5021 33.1817 15.7588C32.4587 16.1433 31.7872 16.5412 31.0799 16.8651C30.5586 17.1039 30.7559 17.383 30.9296 17.7047C31.1012 18.0219 31.2155 18.3649 31.7087 18.06C32.2928 17.6991 32.9194 17.4054 33.592 17.049H33.5931Z" fill="#B3B7BC"/>
<path d="M55.75 83.9971C55.8621 82.1051 55.9708 80.3979 56.0572 78.6897C56.074 78.3545 56.2376 78.22 56.528 78.1875C56.8262 78.155 57.1333 77.8199 57.4248 78.2323C58.4213 79.648 59.4291 81.0559 60.4324 82.4682C59.6656 82.9614 59.5479 82.9569 59.0984 82.2743C58.8854 81.9504 58.6657 81.8551 58.3104 82.0131C58.1254 82.095 57.9202 82.1443 57.7196 82.1757C57.056 82.2766 56.6591 82.5321 56.7197 83.3246C56.7679 83.9557 56.1042 83.6642 55.75 83.9971ZM57.0817 79.2793C57.0235 79.2994 56.9652 79.3185 56.9069 79.3387C56.8699 80.065 56.834 80.7925 56.7914 81.6343C57.3541 81.474 57.8059 81.3451 58.3653 81.1848C57.8967 80.4898 57.4898 79.8846 57.0817 79.2793Z" fill="#B3B7BC"/>
<path d="M28.7258 21.6276C29.2146 22.4201 29.1821 23.291 28.6552 23.9961C28.0656 24.7841 27.06 25.1584 26.1823 24.9186C24.8158 24.5431 23.7026 22.9368 23.8775 21.5391C23.9975 20.5807 24.6521 20.0348 25.4839 19.6918C26.1946 19.3981 26.8582 19.5495 27.5006 20.0539C27.1374 20.3722 26.9334 20.7488 26.3168 20.5123C25.5332 20.2108 24.6196 21.0772 24.7777 21.9146C24.9548 22.8527 25.531 23.5331 26.3673 23.9602C26.8078 24.1855 27.2753 24.1295 27.6811 23.8066C28.0431 23.5197 28.2909 23.1408 28.1395 22.6891C27.9322 22.0681 28.3458 21.8843 28.7247 21.6276H28.7258Z" fill="#B3B7BC"/>
<path d="M48.6869 84.6627C48.5658 82.9444 48.4447 81.2137 48.3203 79.4337C49.188 79.3844 49.9816 79.3127 50.7775 79.2992C51.81 79.2824 52.3357 79.8216 52.3828 80.8808C52.4299 81.912 51.9669 82.468 50.9625 82.5913C50.5051 82.6473 49.9054 82.5599 49.6364 82.8166C49.4166 83.0262 49.5904 83.6494 49.5926 84.0899C49.5971 84.7154 49.5175 84.7703 48.6858 84.6616L48.6869 84.6627ZM49.9558 81.9019C50.2596 81.8773 50.448 81.8784 50.6284 81.8425C51.1833 81.7338 51.458 81.3852 51.4098 80.8707C51.3582 80.3147 51.0253 79.9942 50.4255 80.0536C49.1779 80.1769 49.3483 79.9617 49.3953 81.2888C49.411 81.7248 49.5568 82.0174 49.9547 81.9008L49.9558 81.9019Z" fill="#B3B7BC"/>
<path d="M29.5821 75.4674C29.1505 75.2018 28.7985 75.0213 28.9039 74.3914C29.0294 73.637 28.1192 72.96 27.3658 73.1427C26.5509 73.34 25.5554 74.4967 25.4882 75.3251C25.4108 76.2722 26.3379 77.0647 27.1573 76.6668C27.7324 76.3877 27.9611 76.7049 28.3254 77.0468C27.7515 77.5232 27.1562 77.7384 26.4511 77.577C24.9288 77.2295 24.171 75.7757 24.7607 74.3432C25.3043 73.0216 26.459 72.1765 27.6394 72.2348C29.2189 72.3132 30.2793 74.026 29.5821 75.4663V75.4674Z" fill="#B3B7BC"/>
<path d="M57.5784 15.347C57.5089 15.6149 57.4551 15.8223 57.3901 16.0767C56.871 15.9568 56.3856 15.8469 55.9003 15.7326C55.036 15.5275 55.0416 15.5275 54.8532 16.3693C54.7524 16.821 54.6313 17.2671 54.5046 17.776C54.1907 17.6975 53.9116 17.628 53.582 17.5451C53.9878 15.8324 54.3835 14.1577 54.7983 12.4058C56.0079 12.6905 57.1737 12.964 58.3294 13.2363C58.3294 14.0199 58.3216 14.0266 57.6344 13.8652C57.0907 13.7374 56.5437 13.6242 56.0079 13.4706C55.6648 13.372 55.5225 13.5087 55.4552 13.8125C55.4193 13.9761 55.3801 14.1398 55.3353 14.3001C55.2433 14.6307 55.3375 14.8235 55.6985 14.8986C56.2971 15.0231 56.8901 15.18 57.5784 15.347Z" fill="#B3B7BC"/>
<path d="M73.0724 74.7904C72.8067 75.0314 72.6038 75.2164 72.3079 75.4854C71.2968 73.5417 69.2521 73.5025 67.5762 72.7829C67.9741 72.0521 68.2196 71.9545 68.9146 72.237C69.4964 72.4724 70.0805 72.7033 70.8271 73.0026C70.6107 72.2931 70.447 71.7326 70.2699 71.1755C69.9908 70.299 70.002 70.2642 70.8472 69.7632C71.0748 70.6521 71.3382 71.5241 71.5109 72.4141C71.6387 73.071 71.9335 73.5899 72.411 74.0394C72.6386 74.2535 72.8269 74.5091 73.0724 74.7915V74.7904Z" fill="#B3B7BC"/>
<path d="M43.4163 12.7513V12.0429C44.7974 11.9454 46.1482 11.8501 47.5449 11.7515V12.4969C47.2355 12.5395 46.9228 12.6336 46.6167 12.6134C46.0361 12.5742 45.9823 12.8768 46.0204 13.3375C46.1157 14.4887 46.1852 15.6432 46.2636 16.7966C46.2692 16.8863 46.2636 16.9771 46.2636 17.0567C45.3859 17.3448 45.3343 17.3022 45.2884 16.4716C45.2267 15.3731 45.1281 14.2769 45.0698 13.1784C45.0507 12.8275 44.896 12.7334 44.5765 12.7491C44.2066 12.767 43.8344 12.7535 43.4141 12.7535L43.4163 12.7513Z" fill="#B3B7BC"/>
<path d="M61.196 14.2949C61.5188 14.4339 61.7699 14.5426 62.0861 14.6794C61.4247 16.3092 60.7779 17.9042 60.103 19.5688C59.8093 19.4533 59.5437 19.3491 59.1973 19.2134C59.8609 17.5814 60.5133 15.974 61.196 14.296V14.2949Z" fill="#B3B7BC"/>
<path d="M51.4169 11.9388C51.3575 12.831 51.307 13.6829 51.2409 14.5326C51.1904 15.1816 51.1086 15.8283 51.0626 16.4785C51.0044 17.2978 51.0144 17.2978 50.0762 17.0546C50.2062 15.3598 50.3385 13.6448 50.4752 11.8604C50.7959 11.8873 51.0783 11.9108 51.4169 11.9399V11.9388Z" fill="#B3B7BC"/>
<path d="M62.7416 43.6351C62.6912 44.3402 62.6587 45.0475 62.588 45.7503C62.4457 47.1525 61.5265 47.4821 60.2194 47.4496C58.8361 47.4159 58.4348 46.9227 58.1758 45.5765C57.9056 44.1777 58.0155 42.8001 58.1982 41.4135C58.2901 40.7163 58.6623 40.2321 59.3551 40.0684C59.7833 39.9676 60.2429 39.8521 60.6678 39.9048C62.18 40.0953 62.5903 40.6625 62.699 42.5692C62.7192 42.9223 62.7024 43.2776 62.7024 43.6318C62.7158 43.6318 62.7293 43.6329 62.7427 43.634L62.7416 43.6351Z" fill="#B3B7BC"/>
<path d="M43.7656 54.0006C44.9191 53.8661 45.9785 53.7293 47.0434 53.6408C47.1409 53.6329 47.3528 53.9266 47.3595 54.0869C47.3932 54.9063 47.3909 55.7279 47.3685 56.5484C47.3618 56.7827 47.2799 57.1974 47.1802 57.2153C46.8237 57.2759 46.3529 57.333 46.0883 57.1526C45.0133 56.4195 44.3743 55.3255 43.7656 54.0017V54.0006Z" fill="#B3B7BC"/>
<path d="M51.7903 53.9985C51.1838 55.3077 50.528 56.3221 49.5561 57.1292C49.1459 57.4699 48.7535 57.313 48.3455 57.2267C48.2782 57.2121 48.1964 57.0574 48.1953 56.9666C48.1829 55.9601 48.1751 54.9524 48.1997 53.9458C48.202 53.8337 48.4262 53.6241 48.5316 53.6331C49.5808 53.7284 50.6267 53.8606 51.7892 53.9963L51.7903 53.9985Z" fill="#B3B7BC"/>
<path d="M44.4375 58.9899C46.1806 57.6998 49.4304 57.7132 51.1153 58.9821C49.2466 59.5089 46.5226 59.519 44.4375 58.9899Z" fill="#B3B7BC"/>
<path d="M52.6396 54.3237C53.2707 54.5771 53.9882 54.8651 54.7785 55.1823C53.5913 56.3907 52.2921 57.2347 50.7967 57.7694C50.6319 57.8288 50.4133 57.7369 50.2676 57.7212C51.0556 56.5936 51.8258 55.4895 52.6396 54.3237Z" fill="#B3B7BC"/>
<path d="M42.9128 54.3219C43.7312 55.4966 44.4834 56.5749 45.2703 57.7037C45.1425 57.7171 44.9026 57.8158 44.7199 57.7519C43.2402 57.2284 41.9634 56.381 40.7773 55.1906C41.5609 54.8723 42.2728 54.582 42.9128 54.3208V54.3219Z" fill="#B3B7BC"/>
<path d="M56.887 56.4731C55.4689 57.474 54.0475 58.1981 52.4949 58.6342C52.2404 58.7059 51.912 58.5187 51.625 58.3674C52.9904 57.6646 54.1842 56.8239 55.2559 55.8028C55.3501 55.712 55.6124 55.6929 55.7368 55.7568C56.1123 55.9496 56.4599 56.2007 56.8881 56.4731H56.887Z" fill="#B3B7BC"/>
<path d="M43.9423 58.2741C43.606 58.6944 43.2663 58.7505 42.819 58.5936C41.3718 58.0836 40.0087 57.42 38.668 56.4773C39.1074 56.1982 39.4784 55.9303 39.8809 55.7252C39.9919 55.668 40.2452 55.7442 40.3517 55.8451C41.401 56.8427 42.5668 57.6666 43.9411 58.2741H43.9423Z" fill="#B3B7BC"/>
<path d="M51.8522 33.3669C50.674 33.5283 49.6483 33.6684 48.6226 33.8107C48.2616 33.8612 48.1764 33.6717 48.1798 33.3534C48.1899 32.497 48.1697 31.6395 48.1887 30.7832C48.1932 30.5624 48.2605 30.1779 48.3625 30.1555C48.7201 30.077 49.2033 29.975 49.4644 30.1476C50.5866 30.8874 51.1953 32.0431 51.8522 33.368V33.3669Z" fill="#B3B7BC"/>
<path d="M43.7148 33.3696C44.3392 32.0705 44.967 31.0124 45.9568 30.1975C46.3884 29.8421 46.8043 30.1269 47.2236 30.156C47.2819 30.1605 47.3659 30.4015 47.3682 30.5337C47.3816 31.4831 47.3917 32.4337 47.3603 33.3819C47.3558 33.5288 47.1216 33.8023 47.0162 33.7911C45.9524 33.6823 44.8941 33.5277 43.7148 33.3696Z" fill="#B3B7BC"/>
<path d="M44.291 28.3278C46.6496 27.8166 48.9039 27.82 51.1986 28.3132C49.7312 29.6796 46.2606 29.7054 44.291 28.3278Z" fill="#B3B7BC"/>
<path d="M40.6914 32.1761C41.8696 30.9925 43.1206 30.117 44.5936 29.588C44.783 29.5196 45.0341 29.6238 45.1619 29.6384C44.4714 30.7268 43.8067 31.7872 43.124 32.8352C43.0646 32.9271 42.8673 33.0224 42.7798 32.9899C42.1027 32.7455 41.438 32.4709 40.6914 32.1761Z" fill="#B3B7BC"/>
<path d="M50.3703 29.6049C50.5563 29.6049 50.8198 29.5388 51.0305 29.6162C52.4699 30.1407 53.6873 31.0094 54.8632 32.1707C54.12 32.4688 53.4463 32.7513 52.7602 32.9957C52.6728 33.0271 52.4688 32.8881 52.3959 32.7771C51.73 31.7571 51.0821 30.7258 50.3691 29.6049H50.3703Z" fill="#B3B7BC"/>
<path d="M56.8688 30.8886C56.8307 30.9289 56.7982 30.976 56.7545 31.0085C55.6626 31.8212 55.6907 31.7842 54.6313 30.9502C53.7323 30.2418 52.7581 29.6298 51.793 28.9595C52.0138 28.6782 52.3053 28.5806 52.7469 28.7308C54.2771 29.2521 56.1357 30.2026 56.8677 30.8897L56.8688 30.8886Z" fill="#B3B7BC"/>
<path d="M38.6211 30.8848C40.0459 29.8513 41.5021 29.1272 43.0815 28.6688C43.2867 28.6094 43.5692 28.8156 43.8169 28.8975C43.8169 28.9479 43.818 28.9983 43.8192 29.0488C43.614 29.1553 43.3921 29.2405 43.206 29.3727C42.2711 30.0419 41.3171 30.6887 40.4304 31.4172C40.0874 31.6986 39.8744 31.7535 39.5392 31.4901C39.2791 31.2861 38.9888 31.1224 38.6222 30.8826L38.6211 30.8848Z" fill="#B3B7BC"/>
<path d="M30.893 61.4727C31.5712 61.4682 31.9725 61.8863 31.9837 62.6104C31.9961 63.4107 31.5947 63.8737 30.8896 63.8703C30.2069 63.8669 29.8325 63.46 29.8224 62.7102C29.8124 61.9704 30.2383 61.4783 30.893 61.4738V61.4727Z" fill="#B3B7BC"/>
<path d="M36.7994 63.7386C36.7008 64.2744 36.6391 64.8102 36.4956 65.3236C36.3847 65.7226 36.0887 65.9916 35.6358 65.9984C35.1605 66.0051 34.8601 65.7394 34.7245 65.3135C34.387 64.2576 34.3893 63.1916 34.7278 62.138C34.8635 61.7154 35.165 61.4587 35.6482 61.4722C36.1089 61.4845 36.3914 61.749 36.499 62.1492C36.638 62.6637 36.7008 63.1995 36.7983 63.7386H36.7994Z" fill="#B3B7BC"/>
<path d="M41.4846 63.764C41.3804 64.2931 41.3097 64.8087 41.1696 65.3041C41.0497 65.7323 40.7403 66.0025 40.2661 65.998C39.8177 65.9935 39.5262 65.729 39.3895 65.3344C39.024 64.2808 39.0274 63.2092 39.3783 62.1544C39.5139 61.7464 39.7964 61.4572 40.2907 61.4707C40.7761 61.483 41.0654 61.7576 41.1797 62.1813C41.3187 62.6969 41.386 63.2316 41.4857 63.764H41.4846Z" fill="#B3B7BC"/>
<path d="M55.3957 63.7087C55.501 63.1661 55.5683 62.6303 55.7163 62.1181C55.8328 61.7191 56.1288 61.4713 56.5906 61.4702C57.0525 61.4702 57.3327 61.7168 57.4729 62.1125C57.8518 63.1841 57.8506 64.2669 57.4729 65.3384C57.3327 65.7375 57.0469 65.9975 56.5974 65.9975C56.1523 65.9975 55.8328 65.7554 55.7185 65.3485C55.5705 64.8172 55.4999 64.2635 55.3945 63.7087H55.3957Z" fill="#B3B7BC"/>
</g>
<defs>
<clipPath id="clip0_14679_4479">
<rect width="78" height="78" fill="white" transform="translate(9 9)"/>
</clipPath>
</defs>
</svg>
