<svg width="688" height="456" viewBox="0 0 688 456" fill="none" xmlns="http://www.w3.org/2000/svg">
<path d="M0 0H649.044C653.033 0 656.412 2.93814 656.967 6.88809L687.844 226.888C687.947 227.626 687.947 228.374 687.844 229.112L656.967 449.112C656.412 453.062 653.033 456 649.044 456H0V0Z" fill="url(#paint0_linear_15359_16352)" fill-opacity="0.2"/>
<path d="M0.5 0.5H649.044C652.784 0.5 655.952 3.2545 656.472 6.95759L687.349 226.958C687.446 227.649 687.446 228.351 687.349 229.042L656.472 449.042C655.952 452.746 652.784 455.5 649.044 455.5H0.5V0.5Z" stroke="url(#paint1_linear_15359_16352)" stroke-opacity="0.2"/>
<defs>
<linearGradient id="paint0_linear_15359_16352" x1="688" y1="2.68947e-05" x2="33.0354" y2="499.332" gradientUnits="userSpaceOnUse">
<stop stop-color="#00ACEA"/>
<stop offset="1" stop-color="#B6C6D7"/>
</linearGradient>
<linearGradient id="paint1_linear_15359_16352" x1="688" y1="2.68947e-05" x2="33.0354" y2="499.332" gradientUnits="userSpaceOnUse">
<stop stop-color="#00ACEA"/>
<stop offset="1" stop-color="#B6C6D7"/>
</linearGradient>
</defs>
</svg>
